<?xml version="1.0" encoding="UTF-8" standalone="no"?>
<!-- Created with Inkscape (http://www.inkscape.org/) -->

<svg
   xmlns:dc="http://purl.org/dc/elements/1.1/"
   xmlns:cc="http://creativecommons.org/ns#"
   xmlns:rdf="http://www.w3.org/1999/02/22-rdf-syntax-ns#"
   xmlns:svg="http://www.w3.org/2000/svg"
   xmlns="http://www.w3.org/2000/svg"
   xmlns:xlink="http://www.w3.org/1999/xlink"
   xmlns:sodipodi="http://sodipodi.sourceforge.net/DTD/sodipodi-0.dtd"
   xmlns:inkscape="http://www.inkscape.org/namespaces/inkscape"
   width="108.40067mm"
   height="34.631817mm"
   viewBox="0 0 384.09688 122.71116"
   id="svg2"
   version="1.1"
   inkscape:version="0.91 r13725"
   sodipodi:docname="hist_comparison_for_tree.svg"
   inkscape:export-filename="W:\RemiCura\PROJETS\Article_biblio\Octree_LOD\illustrations\comparing_dim_desc\hist_comparison_for_tree.png"
   inkscape:export-xdpi="200"
   inkscape:export-ydpi="200">
  <defs
     id="defs4">
    <marker
       inkscape:isstock="true"
       style="overflow:visible"
       id="marker5216"
       refX="0"
       refY="0"
       orient="auto"
       inkscape:stockid="Arrow2Mend">
      <path
         transform="scale(-0.6,-0.6)"
         d="M 8.7185878,4.0337352 -2.2072895,0.01601326 8.7185884,-4.0017078 c -1.7454984,2.3720609 -1.7354408,5.6174519 -6e-7,8.035443 z"
         style="fill:#000000;fill-opacity:1;fill-rule:evenodd;stroke:#000000;stroke-width:0.625;stroke-linejoin:round;stroke-opacity:1"
         id="path5218"
         inkscape:connector-curvature="0" />
    </marker>
    <marker
       inkscape:stockid="Arrow2Mend"
       orient="auto"
       refY="0"
       refX="0"
       id="Arrow2Mend"
       style="overflow:visible"
       inkscape:isstock="true"
       inkscape:collect="always">
      <path
         id="path4935"
         style="fill:#000000;fill-opacity:1;fill-rule:evenodd;stroke:#000000;stroke-width:0.625;stroke-linejoin:round;stroke-opacity:1"
         d="M 8.7185878,4.0337352 -2.2072895,0.01601326 8.7185884,-4.0017078 c -1.7454984,2.3720609 -1.7354408,5.6174519 -6e-7,8.035443 z"
         transform="scale(-0.6,-0.6)"
         inkscape:connector-curvature="0" />
    </marker>
    <marker
       inkscape:stockid="Arrow1Lend"
       orient="auto"
       refY="0"
       refX="0"
       id="Arrow1Lend"
       style="overflow:visible"
       inkscape:isstock="true">
      <path
         id="path4911"
         d="M 0,0 5,-5 -12.5,0 5,5 0,0 Z"
         style="fill:#000000;fill-opacity:1;fill-rule:evenodd;stroke:#000000;stroke-width:1pt;stroke-opacity:1"
         transform="matrix(-0.8,0,0,-0.8,-10,0)"
         inkscape:connector-curvature="0" />
    </marker>
    <clipPath
       id="p5bf5395f15">
      <rect
         height="695.81519"
         width="1342.656"
         x="212.54401"
         y="86.760002"
         id="rect351" />
    </clipPath>
    <clipPath
       id="p5bf5395f15-6">
      <rect
         height="695.81519"
         width="1342.656"
         x="212.54401"
         y="86.760002"
         id="rect351-7" />
    </clipPath>
    <clipPath
       id="clipPath4505">
      <rect
         height="695.81519"
         width="1342.656"
         x="212.54401"
         y="86.760002"
         id="rect4507" />
    </clipPath>
    <clipPath
       id="p467821e060">
      <rect
         id="rect331"
         y="36.09"
         x="74.699997"
         width="463.14001"
         height="288.72" />
    </clipPath>
    <clipPath
       id="clipPath4473">
      <rect
         id="rect4475"
         y="36.09"
         x="74.699997"
         width="463.14001"
         height="288.72" />
    </clipPath>
    <clipPath
       id="pf7b436ab55">
      <rect
         id="rect351-0"
         y="43.02"
         x="72"
         width="446.39999"
         height="344.16" />
    </clipPath>
    <clipPath
       id="clipPath4493">
      <rect
         id="rect4495"
         y="43.02"
         x="72"
         width="446.39999"
         height="344.16" />
    </clipPath>
    <clipPath
       id="p467821e060-8">
      <rect
         id="rect331-6"
         y="36.09"
         x="74.699997"
         width="463.14001"
         height="288.72" />
    </clipPath>
    <clipPath
       id="clipPath6713">
      <rect
         id="rect6715"
         y="36.09"
         x="74.699997"
         width="463.14001"
         height="288.72" />
    </clipPath>
    <clipPath
       id="p5bf5395f15-6-1">
      <rect
         height="695.81519"
         width="1342.656"
         x="212.54401"
         y="86.760002"
         id="rect351-7-2" />
    </clipPath>
    <clipPath
       id="p5bf5395f15-6-16">
      <rect
         height="695.81519"
         width="1342.656"
         x="212.54401"
         y="86.760002"
         id="rect351-7-3" />
    </clipPath>
    <clipPath
       id="p5bf5395f15-6-6">
      <rect
         height="695.81519"
         width="1342.656"
         x="212.54401"
         y="86.760002"
         id="rect351-7-0" />
    </clipPath>
    <clipPath
       id="p467821e060-8-5">
      <rect
         id="rect331-6-0"
         y="36.09"
         x="74.699997"
         width="463.14001"
         height="288.72" />
    </clipPath>
  </defs>
  <sodipodi:namedview
     id="base"
     pagecolor="#ffffff"
     bordercolor="#666666"
     borderopacity="1.0"
     inkscape:pageopacity="0.0"
     inkscape:pageshadow="2"
     inkscape:zoom="1.979899"
     inkscape:cx="194.40332"
     inkscape:cy="18.718309"
     inkscape:document-units="px"
     inkscape:current-layer="layer1"
     showgrid="false"
     fit-margin-top="0"
     fit-margin-left="0"
     fit-margin-right="0"
     fit-margin-bottom="0"
     inkscape:window-width="1920"
     inkscape:window-height="1018"
     inkscape:window-x="-8"
     inkscape:window-y="-8"
     inkscape:window-maximized="1" />
  <metadata
     id="metadata7">
    <rdf:RDF>
      <cc:Work
         rdf:about="">
        <dc:format>image/svg+xml</dc:format>
        <dc:type
           rdf:resource="http://purl.org/dc/dcmitype/StillImage" />
        <dc:title></dc:title>
      </cc:Work>
    </rdf:RDF>
  </metadata>
  <g
     inkscape:label="Calque 1"
     inkscape:groupmode="layer"
     id="layer1"
     transform="translate(7.6603871,2.3142545)">
    <g
       transform="matrix(0.27205801,0,0,0.27205801,-44.514785,-107.88417)"
       id="patch_5">
      <path
         id="path29"
         style="fill:none;stroke:#000000;stroke-width:7.3513732;stroke-linecap:square;stroke-linejoin:miter;stroke-miterlimit:4;stroke-dasharray:none;marker-end:url(#Arrow2Mend)"
         d="m 212.544,782.5752 1323.6269,-0.92825"
         inkscape:connector-curvature="0"
         sodipodi:nodetypes="cc" />
    </g>
    <g
       transform="matrix(0.27205801,0,0,0.15122721,-44.514785,-13.753975)"
       id="patch_6">
      <path
         id="path32"
         style="fill:none;stroke:#000000;stroke-width:7.3513732;stroke-linecap:square;stroke-linejoin:miter;stroke-miterlimit:4;stroke-dasharray:none;marker-end:url(#marker5216)"
         d="m 212.544,782.5752 0,-695.8152"
         inkscape:connector-curvature="0" />
    </g>
    <g
       style="stroke:#000000;stroke-width:14.70274639;stroke-miterlimit:4;stroke-dasharray:none;stroke-opacity:1"
       id="line2d_3"
       transform="matrix(0.27215953,0,0,0.14921586,-44.635767,-11.727806)">
      <defs
         id="defs37">
        <path
           style="stroke:#000000;stroke-width:0.5"
           id="m85a54595ea"
           d="M 0,0 0,-4"
           inkscape:connector-curvature="0" />
      </defs>
      <g
         style="stroke:#000000;stroke-width:14.70274639;stroke-miterlimit:4;stroke-dasharray:none;stroke-opacity:1"
         id="g40">
        <use
           id="use42"
           y="782.5752"
           xlink:href="#m85a54595ea"
           x="332.06122"
           style="stroke:#000000;stroke-width:14.70274639;stroke-miterlimit:4;stroke-dasharray:none;stroke-opacity:1"
           width="100%"
           height="100%" />
      </g>
    </g>
    <g
       id="g5607"
       transform="translate(0,-82.858925)">
      <flowRoot
         transform="translate(0,0.17489475)"
         style="font-style:normal;font-weight:normal;font-size:14.31954861px;line-height:125%;font-family:sans-serif;letter-spacing:0px;word-spacing:0px;fill:#000000;fill-opacity:1;stroke:none;stroke-width:1px;stroke-linecap:butt;stroke-linejoin:miter;stroke-opacity:1"
         id="flowRoot4574"
         xml:space="preserve"><flowRegion
           id="flowRegion4576"><rect
             y="186.24295"
             x="35.939358"
             height="16.819788"
             width="23.411327"
             id="rect4578" /></flowRegion><flowPara
           style="font-style:normal;font-variant:normal;font-weight:normal;font-stretch:normal;font-family:Arial;-inkscape-font-specification:Arial"
           id="flowPara4580">1.2</flowPara></flowRoot>      <flowRoot
         transform="translate(83.657359,190.21591)"
         style="font-style:normal;font-weight:normal;font-size:14.31954861px;line-height:125%;font-family:sans-serif;letter-spacing:0px;word-spacing:0px;fill:#000000;fill-opacity:1;stroke:none;stroke-width:1px;stroke-linecap:butt;stroke-linejoin:miter;stroke-opacity:1"
         id="flowRoot4574-9"
         xml:space="preserve"><flowRegion
           id="flowRegion4576-1"><rect
             y="-3.7996171"
             x="-1.5593859"
             height="16.819788"
             width="23.411327"
             id="rect4578-1" /></flowRegion><flowPara
           style="font-style:normal;font-variant:normal;font-weight:normal;font-stretch:normal;font-family:Arial;-inkscape-font-specification:Arial"
           id="flowPara4580-2">1.4</flowPara></flowRoot>      <flowRoot
         transform="matrix(0.27205801,0,0,0.27205801,78.426374,166.66233)"
         style="font-style:normal;font-weight:normal;font-size:52.63417435px;line-height:125%;font-family:sans-serif;letter-spacing:0px;word-spacing:0px;fill:#000000;fill-opacity:1;stroke:none;stroke-width:1px;stroke-linecap:butt;stroke-linejoin:miter;stroke-opacity:1"
         id="flowRoot4574-9-9"
         xml:space="preserve"><flowRegion
           id="flowRegion4576-1-2"><rect
             y="72.291862"
             x="184.51743"
             height="61.824268"
             width="86.052704"
             id="rect4578-1-4" /></flowRegion><flowPara
           style="font-style:normal;font-variant:normal;font-weight:normal;font-stretch:normal;font-family:Arial;-inkscape-font-specification:Arial"
           id="flowPara4580-2-4">1.6</flowPara></flowRoot>      <flowRoot
         transform="matrix(0.27205801,0,0,0.27205801,126.22217,166.66127)"
         style="font-style:normal;font-weight:normal;font-size:52.63417435px;line-height:125%;font-family:sans-serif;letter-spacing:0px;word-spacing:0px;fill:#000000;fill-opacity:1;stroke:none;stroke-width:1px;stroke-linecap:butt;stroke-linejoin:miter;stroke-opacity:1"
         id="flowRoot4574-9-9-6"
         xml:space="preserve"><flowRegion
           id="flowRegion4576-1-2-2"><rect
             y="72.295609"
             x="184.52019"
             height="61.824268"
             width="86.052704"
             id="rect4578-1-4-1" /></flowRegion><flowPara
           style="font-style:normal;font-variant:normal;font-weight:normal;font-stretch:normal;font-family:Arial;-inkscape-font-specification:Arial"
           id="flowPara4580-2-4-4">1.8</flowPara></flowRoot>      <flowRoot
         transform="matrix(0.27205801,0,0,0.27205801,172.34036,166.66127)"
         style="font-style:normal;font-weight:normal;font-size:52.63417435px;line-height:125%;font-family:sans-serif;letter-spacing:0px;word-spacing:0px;fill:#000000;fill-opacity:1;stroke:none;stroke-width:1px;stroke-linecap:butt;stroke-linejoin:miter;stroke-opacity:1"
         id="flowRoot4574-9-9-6-0"
         xml:space="preserve"><flowRegion
           id="flowRegion4576-1-2-2-5"><rect
             y="72.295448"
             x="184.521"
             height="61.824268"
             width="86.052704"
             id="rect4578-1-4-1-7" /></flowRegion><flowPara
           style="font-style:normal;font-variant:normal;font-weight:normal;font-stretch:normal;font-family:Arial;-inkscape-font-specification:Arial"
           id="flowPara4580-2-4-4-6">2.0</flowPara></flowRoot>      <flowRoot
         transform="matrix(0.27205801,0,0,0.27205801,219.11399,166.74867)"
         style="font-style:normal;font-weight:normal;font-size:52.63417435px;line-height:125%;font-family:sans-serif;letter-spacing:0px;word-spacing:0px;fill:#000000;fill-opacity:1;stroke:none;stroke-width:1px;stroke-linecap:butt;stroke-linejoin:miter;stroke-opacity:1"
         id="flowRoot4574-9-9-6-0-2"
         xml:space="preserve"><flowRegion
           id="flowRegion4576-1-2-2-5-4"><rect
             y="72.295288"
             x="188.66171"
             height="61.824268"
             width="86.052704"
             id="rect4578-1-4-1-7-2" /></flowRegion><flowPara
           style="font-style:normal;font-variant:normal;font-weight:normal;font-stretch:normal;font-family:Arial;-inkscape-font-specification:Arial"
           id="flowPara4580-2-4-4-6-6">2.2</flowPara></flowRoot>      <flowRoot
         transform="matrix(0.27205801,0,0,0.27205801,265.37667,166.74867)"
         style="font-style:normal;font-weight:normal;font-size:52.63417435px;line-height:125%;font-family:sans-serif;letter-spacing:0px;word-spacing:0px;fill:#000000;fill-opacity:1;stroke:none;stroke-width:1px;stroke-linecap:butt;stroke-linejoin:miter;stroke-opacity:1"
         id="flowRoot4574-9-9-6-0-9"
         xml:space="preserve"><flowRegion
           id="flowRegion4576-1-2-2-5-9"><rect
             y="72.295288"
             x="188.66171"
             height="61.824268"
             width="86.052704"
             id="rect4578-1-4-1-7-4" /></flowRegion><flowPara
           style="font-style:normal;font-variant:normal;font-weight:normal;font-stretch:normal;font-family:Arial;-inkscape-font-specification:Arial"
           id="flowPara4580-2-4-4-6-69">2.4</flowPara></flowRoot>    </g>
    <g
       id="g5598"
       transform="matrix(1.0003732,0,0,0.54847073,-0.07279139,0.58667256)">
      <path
         style="fill:none;fill-rule:evenodd;stroke:#000000;stroke-width:1px;stroke-linecap:butt;stroke-linejoin:miter;stroke-miterlimit:4;stroke-dasharray:none;stroke-opacity:1"
         d="m 45.851427,184.79608 0,3.85121"
         id="path5526"
         inkscape:connector-curvature="0" />
      <path
         style="fill:none;fill-rule:evenodd;stroke:#000000;stroke-width:1px;stroke-linecap:butt;stroke-linejoin:miter;stroke-miterlimit:4;stroke-dasharray:none;stroke-opacity:1"
         d="m 92.570983,184.79608 0,3.85121"
         id="path5526-5"
         inkscape:connector-curvature="0" />
      <path
         style="fill:none;fill-rule:evenodd;stroke:#000000;stroke-width:1px;stroke-linecap:butt;stroke-linejoin:miter;stroke-miterlimit:4;stroke-dasharray:none;stroke-opacity:1"
         d="m 139.10114,184.79608 0,3.8512"
         id="path5526-8"
         inkscape:connector-curvature="0" />
      <path
         inkscape:connector-curvature="0"
         id="path5526-6"
         d="m 185.78912,184.79608 0,3.85121"
         style="fill:none;fill-rule:evenodd;stroke:#000000;stroke-width:1px;stroke-linecap:butt;stroke-linejoin:miter;stroke-miterlimit:4;stroke-dasharray:none;stroke-opacity:1" />
      <path
         inkscape:connector-curvature="0"
         id="path5526-4"
         d="m 232.44555,184.79608 0,3.85121"
         style="fill:none;fill-rule:evenodd;stroke:#000000;stroke-width:1px;stroke-linecap:butt;stroke-linejoin:miter;stroke-miterlimit:4;stroke-dasharray:none;stroke-opacity:1" />
      <path
         inkscape:connector-curvature="0"
         id="path5526-3"
         d="m 279.48078,184.79608 0,3.85121"
         style="fill:none;fill-rule:evenodd;stroke:#000000;stroke-width:1px;stroke-linecap:butt;stroke-linejoin:miter;stroke-miterlimit:4;stroke-dasharray:none;stroke-opacity:1" />
      <path
         inkscape:connector-curvature="0"
         id="path5526-64"
         d="m 325.69525,184.79608 0,3.85121"
         style="fill:none;fill-rule:evenodd;stroke:#000000;stroke-width:1px;stroke-linecap:butt;stroke-linejoin:miter;stroke-miterlimit:4;stroke-dasharray:none;stroke-opacity:1" />
    </g>
    <flowRoot
       transform="matrix(0.27205801,0,0,0.27205801,293.5095,83.507162)"
       style="font-style:normal;font-weight:normal;font-size:64.3245163px;line-height:125%;font-family:sans-serif;letter-spacing:0px;word-spacing:0px;fill:#000000;fill-opacity:1;stroke:none;stroke-width:1px;stroke-linecap:butt;stroke-linejoin:miter;stroke-opacity:1"
       id="flowRoot4574-9-9-6-7"
       xml:space="preserve"><flowRegion
         id="flowRegion4576-1-2-2-3"><rect
           y="72.295609"
           x="184.52019"
           height="80.20269"
           width="133.31146"
           id="rect4578-1-4-1-6"
           style="font-size:64.3245163px" /></flowRegion><flowPara
         style="font-style:normal;font-variant:normal;font-weight:bold;font-stretch:normal;font-size:64.3245163px;font-family:Arial;-inkscape-font-specification:'Arial Bold'"
         id="flowPara4580-2-4-4-3">Dim</flowPara></flowRoot>    <flowRoot
       style="font-style:normal;font-weight:normal;font-size:17.5px;line-height:125%;font-family:sans-serif;letter-spacing:0px;word-spacing:0px;fill:#000000;fill-opacity:1;stroke:none;stroke-width:1px;stroke-linecap:butt;stroke-linejoin:miter;stroke-opacity:1"
       id="flowRoot4574-9-9-6-7-7"
       xml:space="preserve"
       transform="matrix(0,-1,1,0,-5.1361283,96.177399)"><flowRegion
         id="flowRegion4576-1-2-2-3-2"><rect
           y="-4.6942954"
           x="-1.26447"
           height="39.676926"
           width="190.55417"
           id="rect4578-1-4-1-6-4"
           style="font-size:17.5px" /></flowRegion><flowPara
         style="font-style:normal;font-variant:normal;font-weight:bold;font-stretch:normal;font-size:17.5px;font-family:Arial;-inkscape-font-specification:'Arial Bold'"
         id="flowPara4580-2-4-4-3-3">Histogram</flowPara></flowRoot>    <g
       transform="matrix(0.78812168,0,0,0.35716681,-47.544634,-8.4905862)"
       id="line2d_1-8-2"
       style="color:#000000;clip-rule:nonzero;display:inline;overflow:visible;visibility:visible;opacity:1;isolation:auto;mix-blend-mode:normal;color-interpolation:sRGB;color-interpolation-filters:linearRGB;solid-color:#000000;solid-opacity:1;fill:none;fill-opacity:1;fill-rule:nonzero;stroke:#0000ff;stroke-width:7.34418392;stroke-linecap:square;stroke-linejoin:miter;stroke-miterlimit:4;stroke-dasharray:none;stroke-dashoffset:0;stroke-opacity:1;color-rendering:auto;image-rendering:auto;shape-rendering:auto;text-rendering:auto;enable-background:accumulate">
      <path
         id="path17-4-2"
         style="color:#000000;clip-rule:nonzero;display:inline;overflow:visible;visibility:visible;isolation:auto;mix-blend-mode:normal;color-interpolation:sRGB;color-interpolation-filters:linearRGB;solid-color:#000000;solid-opacity:1;fill:none;fill-opacity:1;fill-rule:nonzero;stroke:#0000ff;stroke-width:7.34418392;stroke-linecap:square;stroke-linejoin:miter;stroke-miterlimit:4;stroke-dasharray:none;stroke-dashoffset:0;stroke-opacity:1;color-rendering:auto;image-rendering:auto;shape-rendering:auto;text-rendering:auto;enable-background:accumulate"
         d="m 77.546445,308.66369 2.302026,-0.99558 2.302025,-0.95165 16.114179,-6.49117 4.604055,-2.34036 4.60405,-2.65835 13.81215,-8.56074 4.60405,-2.38543 2.30203,-1.00272 2.30202,-0.86602 4.60405,-1.36506 9.2081,-2.28583 2.30203,-0.78604 2.30203,-0.97372 2.30202,-1.19291 2.30203,-1.42542 2.30202,-1.65143 2.30203,-1.85165 4.60405,-4.12297 6.90607,-6.36233 2.30203,-1.9502 2.30203,-1.80394 2.30202,-1.64422 2.30203,-1.48739 4.60405,-2.58622 13.81215,-7.07567 4.60405,-2.75614 4.60405,-3.0033 4.60405,-3.26336 4.60406,-3.64076 2.30202,-2.01965 2.30203,-2.1796 2.30202,-2.34759 4.60405,-5.14862 9.2081,-10.76852 2.30203,-2.38845 2.30203,-2.13976 2.30202,-1.85688 2.30203,-1.56513 2.30202,-1.29076 2.30203,-1.0576 4.60405,-1.66596 4.60405,-1.549 2.30202,-0.8961 2.30203,-1.04107 2.30203,-1.21371 2.30202,-1.398 2.30203,-1.58025 2.30202,-1.7501 4.60405,-3.92853 4.60405,-4.33319 9.20811,-8.86482 2.30202,-1.99559 2.30203,-1.78466 2.30202,-1.50049 2.30203,-1.14166 2.30202,-0.71195 2.30203,-0.22078 2.30202,0.317 2.30203,0.88196 2.30203,1.45146 2.30202,2.00115 2.30203,2.50662 2.30202,2.94477 2.30203,3.29517 4.60405,7.21081 4.60405,7.2262 2.30203,3.30695 2.30202,2.94822 2.30203,2.49059 2.30202,1.95382 2.30203,1.36193 2.30202,0.74215 2.30203,0.1235 2.30202,-0.46464 2.30203,-0.99436 2.30203,-1.44087 2.30202,-1.78439 4.60405,-4.12896 4.60405,-4.08895 2.30203,-1.77758 2.30202,-1.50859 2.30203,-1.20612 2.30202,-0.89828 2.30203,-0.60926 2.30202,-0.35607 2.30203,-0.1463 2.30203,0.0227 2.30202,0.16268 2.30203,0.29224 2.30202,0.43279 2.30203,0.60443 2.30202,0.822 2.30203,1.09226 2.30202,1.4125 2.30203,1.77114 2.30203,2.14948 2.30202,2.52487 2.30203,2.87408 2.30202,3.17637 4.60405,6.99944 9.2081,14.56475 4.60406,6.60997 2.30202,3.00352 2.30203,2.77758 2.30202,2.5436 2.30203,2.30993 2.30202,2.0851 2.30203,1.878 2.30202,1.69745 4.60406,2.99792 9.2081,5.6022 4.60405,3.16897 4.60405,3.56789 4.60405,3.91585 6.90608,6.27727 9.2081,8.45338 4.60405,3.92778 4.60405,3.51181 4.60405,2.99546 4.60405,2.50159 4.60405,2.16951 6.90608,3.18235 4.60405,2.39455 4.60405,2.70781 6.90608,4.41675 0,0"
         clip-path="url(#p467821e060-8)"
         inkscape:connector-curvature="0" />
    </g>
    <g
       transform="matrix(0.78812168,0,0,0.35716681,-47.544634,-11.558786)"
       id="line2d_2-1-9"
       style="color:#000000;clip-rule:nonzero;display:inline;overflow:visible;visibility:visible;opacity:1;isolation:auto;mix-blend-mode:normal;color-interpolation:sRGB;color-interpolation-filters:linearRGB;solid-color:#000000;solid-opacity:1;fill:none;fill-opacity:1;fill-rule:nonzero;stroke:#008000;stroke-width:7.34418392;stroke-linecap:square;stroke-linejoin:miter;stroke-miterlimit:4;stroke-dasharray:none;stroke-dashoffset:0;stroke-opacity:1;color-rendering:auto;image-rendering:auto;shape-rendering:auto;text-rendering:auto;enable-background:accumulate">
      <path
         id="path20-5-7"
         style="color:#000000;clip-rule:nonzero;display:inline;overflow:visible;visibility:visible;isolation:auto;mix-blend-mode:normal;color-interpolation:sRGB;color-interpolation-filters:linearRGB;solid-color:#000000;solid-opacity:1;fill:none;fill-opacity:1;fill-rule:nonzero;stroke:#008000;stroke-width:7.34418392;stroke-linecap:square;stroke-linejoin:miter;stroke-miterlimit:4;stroke-dasharray:none;stroke-dashoffset:0;stroke-opacity:1;color-rendering:auto;image-rendering:auto;shape-rendering:auto;text-rendering:auto;enable-background:accumulate"
         d="m 96.757203,315.31827 1.899543,0.058 3.799084,0.45906 7.59817,1.35824 1.89954,0.20204 1.89955,0.0854 1.89954,-0.0466 1.89954,-0.18399 1.89954,-0.31817 3.79909,-0.99813 3.79908,-1.4103 1.89955,-0.8562 1.89954,-0.97835 1.89954,-1.13436 1.89954,-1.33615 1.89955,-1.58973 1.89954,-1.8924 1.89954,-2.231 1.89955,-2.58213 1.89954,-2.91445 3.79908,-6.57535 3.79909,-6.85803 1.89954,-3.21085 1.89954,-2.90091 1.89955,-2.4966 1.89954,-2.03245 1.89954,-1.54632 1.89954,-1.07368 1.89955,-0.64287 1.89954,-0.27191 1.89954,0.0321 1.89954,0.27145 1.89955,0.45381 3.79908,1.2659 5.69863,2.05664 1.89954,0.44445 1.89954,0.15607 1.89955,-0.24613 1.89954,-0.75113 1.89954,-1.32948 1.89955,-1.93472 1.89954,-2.50914 1.89954,-2.99291 3.79909,-6.83822 3.79908,-6.81544 1.89954,-3.04504 1.89955,-2.71958 1.89954,-2.41322 3.79908,-4.24156 3.79909,-4.18977 3.79908,-4.65088 3.79909,-4.78326 1.89954,-2.14378 1.89954,-1.79948 1.89955,-1.35532 1.89954,-0.86514 1.89954,-0.39375 1.89954,-0.006 5.69863,0.80535 1.89955,-0.032 1.89954,-0.42649 1.89954,-0.90735 1.89954,-1.42624 1.89955,-1.93992 1.89954,-2.41592 1.89954,-2.83492 1.89954,-3.18974 1.89955,-3.48216 3.79908,-7.62531 3.79909,-8.21073 9.49771,-20.95562 3.79908,-7.55166 1.89955,-3.4002 1.89954,-3.11974 1.89954,-2.85688 7.59817,-10.57343 1.89955,-3.12435 1.89954,-3.59331 1.89954,-4.13678 1.89954,-4.69022 1.89955,-5.18506 3.79908,-11.33451 3.79909,-11.483621 1.89954,-5.407595 1.89954,-5.057133 1.89954,-4.678717 1.89955,-4.320332 3.79908,-7.779328 3.79909,-6.943149 1.89954,-3.159469 1.89954,-2.86273 1.89954,-2.445194 1.89955,-1.875669 1.89954,-1.138245 1.89954,-0.234073 1.89955,0.818716 1.89954,1.986597 1.89954,3.223405 1.89954,4.474111 1.89955,5.679335 1.89954,6.780196 1.89954,7.723019 3.79909,17.431901 5.69862,27.397535 1.89955,8.49005 1.89954,7.83747 1.89954,7.05813 1.89954,6.21556 1.89955,5.37887 1.89954,4.61634 1.89954,3.98775 1.89954,3.53674 5.69863,9.84226 1.89955,3.54645 3.79908,7.82873 3.79909,8.23655 1.89954,3.83922 1.89954,3.36406 1.89954,2.68187 1.89955,1.83449 1.89954,0.88903 1.89954,-0.068 1.89954,-0.93986 1.89955,-1.62982 5.69862,-6.09144 1.89955,-1.27584 1.89954,-0.35437 1.89954,0.80359 1.89954,2.10431 1.89955,3.44475 1.89954,4.72484 1.89954,5.85818 1.89955,6.77985 3.79908,15.30415 5.69863,23.52777 1.89954,7.16809 1.89954,6.59673 1.89955,5.94284 1.89954,5.24012 1.89954,4.51761 1.89954,3.80012 1.89955,3.10895 1.89954,2.46255 1.89954,1.87691 1.89954,1.36533 1.89955,0.93799 1.89954,0.60102 1.89954,0.35597 3.79909,0.32274 3.79908,0.27656 3.79909,0.58909 1.89954,0.45203 0,0"
         clip-path="url(#p467821e060-8)"
         inkscape:connector-curvature="0" />
    </g>
    <g
       id="g7195"
       transform="translate(-30.99596,11.428571)">
      <path
         inkscape:connector-curvature="0"
         id="path7067"
         d="m 295.348,26.678939 22.40368,0"
         style="color:#000000;clip-rule:nonzero;display:inline;overflow:visible;visibility:visible;opacity:1;isolation:auto;mix-blend-mode:normal;color-interpolation:sRGB;color-interpolation-filters:linearRGB;solid-color:#000000;solid-opacity:1;fill:none;fill-opacity:1;fill-rule:nonzero;stroke:#008000;stroke-width:4.39307642;stroke-linecap:square;stroke-linejoin:miter;stroke-miterlimit:4;stroke-dasharray:none;stroke-dashoffset:0;stroke-opacity:1;color-rendering:auto;image-rendering:auto;shape-rendering:auto;text-rendering:auto;enable-background:accumulate" />
      <flowRoot
         transform="translate(325.84267,18.790853)"
         xml:space="preserve"
         id="flowRoot4574-9-9-6-7-2"
         style="font-style:normal;font-weight:normal;font-size:17.5px;line-height:125%;font-family:sans-serif;letter-spacing:0px;word-spacing:0px;fill:#000000;fill-opacity:1;stroke:none;stroke-width:1px;stroke-linecap:butt;stroke-linejoin:miter;stroke-opacity:1"><flowRegion
           id="flowRegion4576-1-2-2-3-1"><rect
             style="font-size:17.5px"
             id="rect4578-1-4-1-6-5"
             width="83.054161"
             height="23.248356"
             x="-1.26447"
             y="-4.6942954" /></flowRegion><flowPara
           id="flowPara4580-2-4-4-3-7"
           style="font-style:normal;font-variant:normal;font-weight:bold;font-stretch:normal;font-size:17.5px;font-family:Arial;-inkscape-font-specification:'Arial Bold'">Dim_LOD</flowPara></flowRoot>    </g>
    <g
       id="g7202"
       transform="translate(-31.071429,-30)">
      <path
         inkscape:connector-curvature="0"
         id="path7067-4"
         d="m 295.53786,47.198262 22.40368,0"
         style="color:#000000;clip-rule:nonzero;display:inline;overflow:visible;visibility:visible;opacity:1;isolation:auto;mix-blend-mode:normal;color-interpolation:sRGB;color-interpolation-filters:linearRGB;solid-color:#000000;solid-opacity:1;fill:none;fill-opacity:1;fill-rule:nonzero;stroke:#0000ff;stroke-width:4.62185955;stroke-linecap:square;stroke-linejoin:miter;stroke-miterlimit:4;stroke-dasharray:none;stroke-dashoffset:0;stroke-opacity:1;color-rendering:auto;image-rendering:auto;shape-rendering:auto;text-rendering:auto;enable-background:accumulate" />
      <flowRoot
         transform="translate(324.87403,39.310176)"
         xml:space="preserve"
         id="flowRoot4574-9-9-6-7-2-0"
         style="font-style:normal;font-weight:normal;font-size:17.5px;line-height:125%;font-family:sans-serif;letter-spacing:0px;word-spacing:0px;fill:#000000;fill-opacity:1;stroke:none;stroke-width:1px;stroke-linecap:butt;stroke-linejoin:miter;stroke-opacity:1"><flowRegion
           id="flowRegion4576-1-2-2-3-1-4"><rect
             style="font-size:17.5px"
             id="rect4578-1-4-1-6-5-7"
             width="83.054161"
             height="23.248356"
             x="-1.26447"
             y="-4.6942954" /></flowRegion><flowPara
           id="flowPara4580-2-4-4-3-7-6"
           style="font-style:normal;font-variant:normal;font-weight:bold;font-stretch:normal;font-size:17.5px;font-family:Arial;-inkscape-font-specification:'Arial Bold'">Dim_Cov</flowPara></flowRoot>    </g>
  </g>
</svg>
