<?xml version="1.0" encoding="utf-8" standalone="no"?>
<!DOCTYPE svg PUBLIC "-//W3C//DTD SVG 1.1//EN"
  "http://www.w3.org/Graphics/SVG/1.1/DTD/svg11.dtd">
<!-- Created with matplotlib (http://matplotlib.org/) -->
<svg height="430pt" version="1.1" viewBox="0 0 576 430" width="576pt" xmlns="http://www.w3.org/2000/svg" xmlns:xlink="http://www.w3.org/1999/xlink">
 <defs>
  <style type="text/css">
*{stroke-linecap:butt;stroke-linejoin:round;stroke-miterlimit:100000;}
  </style>
 </defs>
 <g id="figure_1">
  <g id="patch_1">
   <path d="M 0 430.2 
L 576 430.2 
L 576 0 
L 0 0 
z
" style="fill:#ffffff;"/>
  </g>
  <g id="axes_1">
   <g id="patch_2">
    <path d="M 72 387.18 
L 518.4 387.18 
L 518.4 43.02 
L 72 43.02 
z
" style="fill:#ffffff;"/>
   </g>
   <g id="line2d_1">
    <path clip-path="url(#pf7b436ab55)" d="M 83.263562 371.735635 
L 85.387958 371.015963 
L 87.512353 370.435375 
L 91.761144 369.653575 
L 100.258727 368.627261 
L 102.383122 368.223226 
L 104.507518 367.688375 
L 106.631913 367.005726 
L 108.756309 366.171078 
L 110.880705 365.192211 
L 115.129496 362.883053 
L 125.751474 356.65601 
L 127.875869 355.640865 
L 130.000265 354.772526 
L 132.12466 354.058274 
L 136.373452 353.027736 
L 142.746638 351.736493 
L 144.871034 351.087229 
L 146.99543 350.207782 
L 149.119825 349.048185 
L 151.244221 347.585625 
L 153.368616 345.829498 
L 155.493012 343.822356 
L 163.990594 334.986847 
L 166.11499 333.069786 
L 168.239385 331.42535 
L 170.363781 330.08105 
L 172.488177 329.026203 
L 174.612572 328.212645 
L 180.985759 326.309953 
L 183.110155 325.48287 
L 185.23455 324.382626 
L 187.358946 322.934133 
L 189.483341 321.095909 
L 191.607737 318.864581 
L 193.732132 316.274869 
L 195.856528 313.394883 
L 206.478506 298.022542 
L 208.602902 295.309469 
L 212.851693 290.390009 
L 219.224879 283.43125 
L 223.473671 278.350987 
L 227.722462 272.74145 
L 234.095649 264.164791 
L 236.220044 261.557481 
L 238.34444 259.181559 
L 240.468835 257.069432 
L 242.593231 255.226321 
L 244.717627 253.630672 
L 246.842022 252.237973 
L 251.090813 249.807401 
L 255.339604 247.378224 
L 257.464 246.003339 
L 259.588396 244.457039 
L 261.712791 242.708259 
L 263.837187 240.740734 
L 265.961582 238.553281 
L 268.085978 236.16031 
L 272.334769 230.899713 
L 276.58356 225.428077 
L 278.707956 222.841978 
L 280.832351 220.50953 
L 282.956747 218.556569 
L 285.081143 217.107004 
L 287.205538 216.272607 
L 289.329934 216.142952 
L 291.454329 216.777052 
L 293.578725 218.19796 
L 295.703121 220.391067 
L 297.827516 223.30609 
L 299.951912 226.862093 
L 302.076307 230.954402 
L 304.200703 235.462156 
L 308.449494 245.201055 
L 312.698285 255.027834 
L 314.822681 259.662857 
L 316.947076 263.962966 
L 319.071472 267.830552 
L 321.195868 271.182198 
L 323.320263 273.950827 
L 325.444659 276.087553 
L 327.569054 277.563017 
L 329.69345 278.368075 
L 331.817846 278.513836 
L 333.942241 278.031119 
L 336.066637 276.969429 
L 338.191032 275.395474 
L 340.315428 273.391116 
L 342.439824 271.05053 
L 346.688615 265.774536 
L 350.937406 260.393344 
L 353.061801 257.888774 
L 355.186197 255.596777 
L 357.310593 253.559815 
L 359.434988 251.803283 
L 361.559384 250.340866 
L 363.683779 249.181794 
L 365.808175 248.338191 
L 367.932571 247.830494 
L 370.056966 247.689251 
L 372.181362 247.952541 
L 374.305757 248.659404 
L 376.430153 249.840869 
L 378.554548 251.510889 
L 380.678944 253.65963 
L 382.80334 256.251015 
L 384.927735 259.225271 
L 387.052131 262.505982 
L 391.300922 269.657594 
L 406.171691 295.517673 
L 410.420482 302.481797 
L 414.669273 308.961181 
L 416.793669 311.946805 
L 418.918065 314.73588 
L 421.04246 317.321835 
L 423.166856 319.710911 
L 427.415647 323.979295 
L 431.664438 327.76729 
L 440.16202 334.803818 
L 448.659603 341.950794 
L 455.03279 347.645649 
L 461.405976 353.445508 
L 465.654768 357.013269 
L 467.779163 358.596904 
L 469.903559 360.003459 
L 472.027954 361.211602 
L 474.15235 362.213131 
L 476.276745 363.014847 
L 478.401141 363.638742 
L 482.649932 364.50582 
L 489.023119 365.600653 
L 491.147515 366.100241 
L 493.27191 366.720935 
L 495.396306 367.475095 
L 499.645097 369.364619 
L 503.893888 371.621811 
L 506.018284 372.810908 
L 506.018284 372.810908 
" style="fill:none;stroke:#0000ff;stroke-linecap:square;"/>
   </g>
   <g id="line2d_2">
    <path clip-path="url(#pf7b436ab55)" d="M 100.991971 377.965199 
L 102.74494 378.048294 
L 104.497909 378.28875 
L 108.003848 379.106643 
L 113.262756 380.46632 
L 116.768694 381.005498 
L 120.274633 381.10682 
L 123.780571 380.815153 
L 127.28651 380.245856 
L 130.792448 379.489156 
L 134.298387 378.487543 
L 136.051356 377.813545 
L 137.804325 376.954776 
L 139.557294 375.8542 
L 141.310264 374.463498 
L 143.063233 372.755015 
L 144.816202 370.732043 
L 146.569171 368.434959 
L 153.581048 358.438122 
L 155.334018 356.338195 
L 157.086987 354.597286 
L 158.839956 353.256992 
L 160.592925 352.318153 
L 162.345895 351.747543 
L 164.098864 351.49054 
L 165.851833 351.486386 
L 167.604802 351.681989 
L 169.357772 352.040734 
L 171.110741 352.544232 
L 172.86371 353.186916 
L 176.369649 354.86528 
L 181.628556 357.782744 
L 183.381526 358.515951 
L 185.134495 358.925146 
L 186.887464 358.887986 
L 188.640433 358.307343 
L 190.393403 357.127865 
L 192.146372 355.347529 
L 193.899341 353.021731 
L 195.65231 350.258544 
L 204.417157 335.116536 
L 207.923095 330.172069 
L 211.429034 325.381685 
L 213.182003 322.75102 
L 216.687941 316.793617 
L 220.19388 310.511896 
L 221.946849 307.713065 
L 223.699818 305.424671 
L 225.452788 303.809662 
L 227.205757 302.951601 
L 228.958726 302.836818 
L 230.711695 303.353106 
L 232.464665 304.304286 
L 235.970603 306.478741 
L 237.723572 307.169091 
L 239.476542 307.297261 
L 241.229511 306.720666 
L 242.98248 305.373265 
L 244.735449 303.260219 
L 246.488419 300.44331 
L 248.241388 297.022963 
L 249.994357 293.122441 
L 253.500296 284.430368 
L 257.006234 275.514556 
L 258.759203 271.324204 
L 260.512173 267.464453 
L 262.265142 264.001035 
L 264.018111 260.944765 
L 265.77108 258.246172 
L 272.782957 248.389015 
L 274.535927 245.320972 
L 276.288896 241.70599 
L 278.041865 237.447745 
L 279.794834 232.498483 
L 281.547804 226.863036 
L 283.300773 220.59603 
L 286.806712 206.560728 
L 290.31265 191.252888 
L 295.571558 167.065561 
L 300.830466 141.524068 
L 304.336404 123.546619 
L 313.10125 77.362953 
L 314.85422 69.351021 
L 316.607189 62.523066 
L 318.360158 57.272521 
L 320.113127 53.956598 
L 321.866097 52.860239 
L 323.619066 54.169186 
L 325.372035 57.953101 
L 327.125004 64.157617 
L 328.877974 72.604256 
L 330.630943 82.998517 
L 332.383912 94.947478 
L 335.889851 121.62123 
L 339.395789 148.744916 
L 341.148758 161.410625 
L 342.901728 173.067748 
L 344.654697 183.527744 
L 346.407666 192.699263 
L 348.160635 200.584076 
L 349.913605 207.270456 
L 351.666574 212.922812 
L 353.419543 217.765142 
L 356.925482 226.061166 
L 360.43142 234.092367 
L 363.937359 242.96369 
L 372.702205 266.756512 
L 374.455174 270.856581 
L 376.208143 274.455529 
L 377.961113 277.452303 
L 379.714082 279.767183 
L 381.467051 281.355998 
L 383.22002 282.226821 
L 384.97299 282.453749 
L 386.725959 282.182159 
L 390.231897 281.028885 
L 391.984867 280.676888 
L 393.737836 280.827879 
L 395.490805 281.704219 
L 397.243774 283.468975 
L 398.996744 286.215982 
L 400.749713 289.969187 
L 402.502682 294.688705 
L 404.255651 300.280211 
L 406.008621 306.604892 
L 409.514559 320.731071 
L 414.773467 342.437086 
L 416.526436 348.980766 
L 418.279405 354.907357 
L 420.032375 360.120402 
L 421.785344 364.573236 
L 423.538313 368.264565 
L 425.291282 371.229601 
L 427.044252 373.529375 
L 428.797221 375.240706 
L 430.55019 376.448289 
L 432.303159 377.239224 
L 434.056129 377.699478 
L 435.809098 377.911448 
L 439.315036 377.890692 
L 444.573944 377.652674 
L 448.079883 377.818138 
L 449.832852 378.047811 
L 449.832852 378.047811 
" style="fill:none;stroke:#008000;stroke-linecap:square;"/>
   </g>
   <g id="patch_3">
    <path d="M 72 43.02 
L 518.4 43.02 
" style="fill:none;stroke:#000000;stroke-linecap:square;stroke-linejoin:miter;"/>
   </g>
   <g id="patch_4">
    <path d="M 518.4 387.18 
L 518.4 43.02 
" style="fill:none;stroke:#000000;stroke-linecap:square;stroke-linejoin:miter;"/>
   </g>
   <g id="patch_5">
    <path d="M 72 387.18 
L 518.4 387.18 
" style="fill:none;stroke:#000000;stroke-linecap:square;stroke-linejoin:miter;"/>
   </g>
   <g id="patch_6">
    <path d="M 72 387.18 
L 72 43.02 
" style="fill:none;stroke:#000000;stroke-linecap:square;stroke-linejoin:miter;"/>
   </g>
   <g id="matplotlib.axis_1">
    <g id="xtick_1">
     <g id="line2d_3">
      <defs>
       <path d="M 0 0 
L 0 -4 
" id="m36fb7d75bf" style="stroke:#000000;stroke-width:0.5;"/>
      </defs>
      <g>
       <use style="stroke:#000000;stroke-width:0.5;" x="118.720399113" xlink:href="#m36fb7d75bf" y="387.18"/>
      </g>
     </g>
     <g id="line2d_4">
      <defs>
       <path d="M 0 0 
L 0 4 
" id="m504980d691" style="stroke:#000000;stroke-width:0.5;"/>
      </defs>
      <g>
       <use style="stroke:#000000;stroke-width:0.5;" x="118.720399113" xlink:href="#m504980d691" y="43.02"/>
      </g>
     </g>
     <g id="text_1">
      <!-- 1.2 -->
      <defs>
       <path d="M 19.1875 8.296875 
L 53.609375 8.296875 
L 53.609375 0 
L 7.328125 0 
L 7.328125 8.296875 
Q 12.9375 14.109375 22.625 23.890625 
Q 32.328125 33.6875 34.8125 36.53125 
Q 39.546875 41.84375 41.421875 45.53125 
Q 43.3125 49.21875 43.3125 52.78125 
Q 43.3125 58.59375 39.234375 62.25 
Q 35.15625 65.921875 28.609375 65.921875 
Q 23.96875 65.921875 18.8125 64.3125 
Q 13.671875 62.703125 7.8125 59.421875 
L 7.8125 69.390625 
Q 13.765625 71.78125 18.9375 73 
Q 24.125 74.21875 28.421875 74.21875 
Q 39.75 74.21875 46.484375 68.546875 
Q 53.21875 62.890625 53.21875 53.421875 
Q 53.21875 48.921875 51.53125 44.890625 
Q 49.859375 40.875 45.40625 35.40625 
Q 44.1875 33.984375 37.640625 27.21875 
Q 31.109375 20.453125 19.1875 8.296875 
" id="BitstreamVeraSans-Roman-32"/>
       <path d="M 12.40625 8.296875 
L 28.515625 8.296875 
L 28.515625 63.921875 
L 10.984375 60.40625 
L 10.984375 69.390625 
L 28.421875 72.90625 
L 38.28125 72.90625 
L 38.28125 8.296875 
L 54.390625 8.296875 
L 54.390625 0 
L 12.40625 0 
z
" id="BitstreamVeraSans-Roman-31"/>
       <path d="M 10.6875 12.40625 
L 21 12.40625 
L 21 0 
L 10.6875 0 
z
" id="BitstreamVeraSans-Roman-2e"/>
      </defs>
      <g transform="translate(109.178524113 400.298125)scale(0.12 -0.12)">
       <use xlink:href="#BitstreamVeraSans-Roman-31"/>
       <use x="63.623046875" xlink:href="#BitstreamVeraSans-Roman-2e"/>
       <use x="95.41015625" xlink:href="#BitstreamVeraSans-Roman-32"/>
      </g>
     </g>
    </g>
    <g id="xtick_2">
     <g id="line2d_5">
      <g>
       <use style="stroke:#000000;stroke-width:0.5;" x="173.26940133" xlink:href="#m36fb7d75bf" y="387.18"/>
      </g>
     </g>
     <g id="line2d_6">
      <g>
       <use style="stroke:#000000;stroke-width:0.5;" x="173.26940133" xlink:href="#m504980d691" y="43.02"/>
      </g>
     </g>
     <g id="text_2">
      <!-- 1.4 -->
      <defs>
       <path d="M 37.796875 64.3125 
L 12.890625 25.390625 
L 37.796875 25.390625 
z
M 35.203125 72.90625 
L 47.609375 72.90625 
L 47.609375 25.390625 
L 58.015625 25.390625 
L 58.015625 17.1875 
L 47.609375 17.1875 
L 47.609375 0 
L 37.796875 0 
L 37.796875 17.1875 
L 4.890625 17.1875 
L 4.890625 26.703125 
z
" id="BitstreamVeraSans-Roman-34"/>
      </defs>
      <g transform="translate(163.72752633 400.298125)scale(0.12 -0.12)">
       <use xlink:href="#BitstreamVeraSans-Roman-31"/>
       <use x="63.623046875" xlink:href="#BitstreamVeraSans-Roman-2e"/>
       <use x="95.41015625" xlink:href="#BitstreamVeraSans-Roman-34"/>
      </g>
     </g>
    </g>
    <g id="xtick_3">
     <g id="line2d_7">
      <g>
       <use style="stroke:#000000;stroke-width:0.5;" x="227.818403548" xlink:href="#m36fb7d75bf" y="387.18"/>
      </g>
     </g>
     <g id="line2d_8">
      <g>
       <use style="stroke:#000000;stroke-width:0.5;" x="227.818403548" xlink:href="#m504980d691" y="43.02"/>
      </g>
     </g>
     <g id="text_3">
      <!-- 1.6 -->
      <defs>
       <path d="M 33.015625 40.375 
Q 26.375 40.375 22.484375 35.828125 
Q 18.609375 31.296875 18.609375 23.390625 
Q 18.609375 15.53125 22.484375 10.953125 
Q 26.375 6.390625 33.015625 6.390625 
Q 39.65625 6.390625 43.53125 10.953125 
Q 47.40625 15.53125 47.40625 23.390625 
Q 47.40625 31.296875 43.53125 35.828125 
Q 39.65625 40.375 33.015625 40.375 
M 52.59375 71.296875 
L 52.59375 62.3125 
Q 48.875 64.0625 45.09375 64.984375 
Q 41.3125 65.921875 37.59375 65.921875 
Q 27.828125 65.921875 22.671875 59.328125 
Q 17.53125 52.734375 16.796875 39.40625 
Q 19.671875 43.65625 24.015625 45.921875 
Q 28.375 48.1875 33.59375 48.1875 
Q 44.578125 48.1875 50.953125 41.515625 
Q 57.328125 34.859375 57.328125 23.390625 
Q 57.328125 12.15625 50.6875 5.359375 
Q 44.046875 -1.421875 33.015625 -1.421875 
Q 20.359375 -1.421875 13.671875 8.265625 
Q 6.984375 17.96875 6.984375 36.375 
Q 6.984375 53.65625 15.1875 63.9375 
Q 23.390625 74.21875 37.203125 74.21875 
Q 40.921875 74.21875 44.703125 73.484375 
Q 48.484375 72.75 52.59375 71.296875 
" id="BitstreamVeraSans-Roman-36"/>
      </defs>
      <g transform="translate(218.276528548 400.298125)scale(0.12 -0.12)">
       <use xlink:href="#BitstreamVeraSans-Roman-31"/>
       <use x="63.623046875" xlink:href="#BitstreamVeraSans-Roman-2e"/>
       <use x="95.41015625" xlink:href="#BitstreamVeraSans-Roman-36"/>
      </g>
     </g>
    </g>
    <g id="xtick_4">
     <g id="line2d_9">
      <g>
       <use style="stroke:#000000;stroke-width:0.5;" x="282.367405765" xlink:href="#m36fb7d75bf" y="387.18"/>
      </g>
     </g>
     <g id="line2d_10">
      <g>
       <use style="stroke:#000000;stroke-width:0.5;" x="282.367405765" xlink:href="#m504980d691" y="43.02"/>
      </g>
     </g>
     <g id="text_4">
      <!-- 1.8 -->
      <defs>
       <path d="M 31.78125 34.625 
Q 24.75 34.625 20.71875 30.859375 
Q 16.703125 27.09375 16.703125 20.515625 
Q 16.703125 13.921875 20.71875 10.15625 
Q 24.75 6.390625 31.78125 6.390625 
Q 38.8125 6.390625 42.859375 10.171875 
Q 46.921875 13.96875 46.921875 20.515625 
Q 46.921875 27.09375 42.890625 30.859375 
Q 38.875 34.625 31.78125 34.625 
M 21.921875 38.8125 
Q 15.578125 40.375 12.03125 44.71875 
Q 8.5 49.078125 8.5 55.328125 
Q 8.5 64.0625 14.71875 69.140625 
Q 20.953125 74.21875 31.78125 74.21875 
Q 42.671875 74.21875 48.875 69.140625 
Q 55.078125 64.0625 55.078125 55.328125 
Q 55.078125 49.078125 51.53125 44.71875 
Q 48 40.375 41.703125 38.8125 
Q 48.828125 37.15625 52.796875 32.3125 
Q 56.78125 27.484375 56.78125 20.515625 
Q 56.78125 9.90625 50.3125 4.234375 
Q 43.84375 -1.421875 31.78125 -1.421875 
Q 19.734375 -1.421875 13.25 4.234375 
Q 6.78125 9.90625 6.78125 20.515625 
Q 6.78125 27.484375 10.78125 32.3125 
Q 14.796875 37.15625 21.921875 38.8125 
M 18.3125 54.390625 
Q 18.3125 48.734375 21.84375 45.5625 
Q 25.390625 42.390625 31.78125 42.390625 
Q 38.140625 42.390625 41.71875 45.5625 
Q 45.3125 48.734375 45.3125 54.390625 
Q 45.3125 60.0625 41.71875 63.234375 
Q 38.140625 66.40625 31.78125 66.40625 
Q 25.390625 66.40625 21.84375 63.234375 
Q 18.3125 60.0625 18.3125 54.390625 
" id="BitstreamVeraSans-Roman-38"/>
      </defs>
      <g transform="translate(272.825530765 400.298125)scale(0.12 -0.12)">
       <use xlink:href="#BitstreamVeraSans-Roman-31"/>
       <use x="63.623046875" xlink:href="#BitstreamVeraSans-Roman-2e"/>
       <use x="95.41015625" xlink:href="#BitstreamVeraSans-Roman-38"/>
      </g>
     </g>
    </g>
    <g id="xtick_5">
     <g id="line2d_11">
      <g>
       <use style="stroke:#000000;stroke-width:0.5;" x="336.916407982" xlink:href="#m36fb7d75bf" y="387.18"/>
      </g>
     </g>
     <g id="line2d_12">
      <g>
       <use style="stroke:#000000;stroke-width:0.5;" x="336.916407982" xlink:href="#m504980d691" y="43.02"/>
      </g>
     </g>
     <g id="text_5">
      <!-- 2.0 -->
      <defs>
       <path d="M 31.78125 66.40625 
Q 24.171875 66.40625 20.328125 58.90625 
Q 16.5 51.421875 16.5 36.375 
Q 16.5 21.390625 20.328125 13.890625 
Q 24.171875 6.390625 31.78125 6.390625 
Q 39.453125 6.390625 43.28125 13.890625 
Q 47.125 21.390625 47.125 36.375 
Q 47.125 51.421875 43.28125 58.90625 
Q 39.453125 66.40625 31.78125 66.40625 
M 31.78125 74.21875 
Q 44.046875 74.21875 50.515625 64.515625 
Q 56.984375 54.828125 56.984375 36.375 
Q 56.984375 17.96875 50.515625 8.265625 
Q 44.046875 -1.421875 31.78125 -1.421875 
Q 19.53125 -1.421875 13.0625 8.265625 
Q 6.59375 17.96875 6.59375 36.375 
Q 6.59375 54.828125 13.0625 64.515625 
Q 19.53125 74.21875 31.78125 74.21875 
" id="BitstreamVeraSans-Roman-30"/>
      </defs>
      <g transform="translate(327.374532982 400.298125)scale(0.12 -0.12)">
       <use xlink:href="#BitstreamVeraSans-Roman-32"/>
       <use x="63.623046875" xlink:href="#BitstreamVeraSans-Roman-2e"/>
       <use x="95.41015625" xlink:href="#BitstreamVeraSans-Roman-30"/>
      </g>
     </g>
    </g>
    <g id="xtick_6">
     <g id="line2d_13">
      <g>
       <use style="stroke:#000000;stroke-width:0.5;" x="391.4654102" xlink:href="#m36fb7d75bf" y="387.18"/>
      </g>
     </g>
     <g id="line2d_14">
      <g>
       <use style="stroke:#000000;stroke-width:0.5;" x="391.4654102" xlink:href="#m504980d691" y="43.02"/>
      </g>
     </g>
     <g id="text_6">
      <!-- 2.2 -->
      <g transform="translate(381.9235352 400.298125)scale(0.12 -0.12)">
       <use xlink:href="#BitstreamVeraSans-Roman-32"/>
       <use x="63.623046875" xlink:href="#BitstreamVeraSans-Roman-2e"/>
       <use x="95.41015625" xlink:href="#BitstreamVeraSans-Roman-32"/>
      </g>
     </g>
    </g>
    <g id="xtick_7">
     <g id="line2d_15">
      <g>
       <use style="stroke:#000000;stroke-width:0.5;" x="446.014412417" xlink:href="#m36fb7d75bf" y="387.18"/>
      </g>
     </g>
     <g id="line2d_16">
      <g>
       <use style="stroke:#000000;stroke-width:0.5;" x="446.014412417" xlink:href="#m504980d691" y="43.02"/>
      </g>
     </g>
     <g id="text_7">
      <!-- 2.4 -->
      <g transform="translate(436.472537417 400.298125)scale(0.12 -0.12)">
       <use xlink:href="#BitstreamVeraSans-Roman-32"/>
       <use x="63.623046875" xlink:href="#BitstreamVeraSans-Roman-2e"/>
       <use x="95.41015625" xlink:href="#BitstreamVeraSans-Roman-34"/>
      </g>
     </g>
    </g>
    <g id="xtick_8">
     <g id="line2d_17">
      <g>
       <use style="stroke:#000000;stroke-width:0.5;" x="500.563414634" xlink:href="#m36fb7d75bf" y="387.18"/>
      </g>
     </g>
     <g id="line2d_18">
      <g>
       <use style="stroke:#000000;stroke-width:0.5;" x="500.563414634" xlink:href="#m504980d691" y="43.02"/>
      </g>
     </g>
     <g id="text_8">
      <!-- 2.6 -->
      <g transform="translate(491.021539634 400.298125)scale(0.12 -0.12)">
       <use xlink:href="#BitstreamVeraSans-Roman-32"/>
       <use x="63.623046875" xlink:href="#BitstreamVeraSans-Roman-2e"/>
       <use x="95.41015625" xlink:href="#BitstreamVeraSans-Roman-36"/>
      </g>
     </g>
    </g>
   </g>
   <g id="matplotlib.axis_2">
    <g id="ytick_1">
     <g id="line2d_19">
      <defs>
       <path d="M 0 0 
L 4 0 
" id="m0c5fcbabe4" style="stroke:#000000;stroke-width:0.5;"/>
      </defs>
      <g>
       <use style="stroke:#000000;stroke-width:0.5;" x="72.0" xlink:href="#m0c5fcbabe4" y="382.040089888"/>
      </g>
     </g>
     <g id="line2d_20">
      <defs>
       <path d="M 0 0 
L -4 0 
" id="m2faffdf717" style="stroke:#000000;stroke-width:0.5;"/>
      </defs>
      <g>
       <use style="stroke:#000000;stroke-width:0.5;" x="518.4" xlink:href="#m2faffdf717" y="382.040089888"/>
      </g>
     </g>
     <g id="text_9">
      <!-- 0.0 -->
      <g transform="translate(48.91625 385.351339888)scale(0.12 -0.12)">
       <use xlink:href="#BitstreamVeraSans-Roman-30"/>
       <use x="63.623046875" xlink:href="#BitstreamVeraSans-Roman-2e"/>
       <use x="95.41015625" xlink:href="#BitstreamVeraSans-Roman-30"/>
      </g>
     </g>
    </g>
    <g id="ytick_2">
     <g id="line2d_21">
      <g>
       <use style="stroke:#000000;stroke-width:0.5;" x="72.0" xlink:href="#m0c5fcbabe4" y="320.426426966"/>
      </g>
     </g>
     <g id="line2d_22">
      <g>
       <use style="stroke:#000000;stroke-width:0.5;" x="518.4" xlink:href="#m2faffdf717" y="320.426426966"/>
      </g>
     </g>
     <g id="text_10">
      <!-- 0.5 -->
      <defs>
       <path d="M 10.796875 72.90625 
L 49.515625 72.90625 
L 49.515625 64.59375 
L 19.828125 64.59375 
L 19.828125 46.734375 
Q 21.96875 47.46875 24.109375 47.828125 
Q 26.265625 48.1875 28.421875 48.1875 
Q 40.625 48.1875 47.75 41.5 
Q 54.890625 34.8125 54.890625 23.390625 
Q 54.890625 11.625 47.5625 5.09375 
Q 40.234375 -1.421875 26.90625 -1.421875 
Q 22.3125 -1.421875 17.546875 -0.640625 
Q 12.796875 0.140625 7.71875 1.703125 
L 7.71875 11.625 
Q 12.109375 9.234375 16.796875 8.0625 
Q 21.484375 6.890625 26.703125 6.890625 
Q 35.15625 6.890625 40.078125 11.328125 
Q 45.015625 15.765625 45.015625 23.390625 
Q 45.015625 31 40.078125 35.4375 
Q 35.15625 39.890625 26.703125 39.890625 
Q 22.75 39.890625 18.8125 39.015625 
Q 14.890625 38.140625 10.796875 36.28125 
z
" id="BitstreamVeraSans-Roman-35"/>
      </defs>
      <g transform="translate(48.91625 323.737676966)scale(0.12 -0.12)">
       <use xlink:href="#BitstreamVeraSans-Roman-30"/>
       <use x="63.623046875" xlink:href="#BitstreamVeraSans-Roman-2e"/>
       <use x="95.41015625" xlink:href="#BitstreamVeraSans-Roman-35"/>
      </g>
     </g>
    </g>
    <g id="ytick_3">
     <g id="line2d_23">
      <g>
       <use style="stroke:#000000;stroke-width:0.5;" x="72.0" xlink:href="#m0c5fcbabe4" y="258.812764045"/>
      </g>
     </g>
     <g id="line2d_24">
      <g>
       <use style="stroke:#000000;stroke-width:0.5;" x="518.4" xlink:href="#m2faffdf717" y="258.812764045"/>
      </g>
     </g>
     <g id="text_11">
      <!-- 1.0 -->
      <g transform="translate(48.91625 262.124014045)scale(0.12 -0.12)">
       <use xlink:href="#BitstreamVeraSans-Roman-31"/>
       <use x="63.623046875" xlink:href="#BitstreamVeraSans-Roman-2e"/>
       <use x="95.41015625" xlink:href="#BitstreamVeraSans-Roman-30"/>
      </g>
     </g>
    </g>
    <g id="ytick_4">
     <g id="line2d_25">
      <g>
       <use style="stroke:#000000;stroke-width:0.5;" x="72.0" xlink:href="#m0c5fcbabe4" y="197.199101124"/>
      </g>
     </g>
     <g id="line2d_26">
      <g>
       <use style="stroke:#000000;stroke-width:0.5;" x="518.4" xlink:href="#m2faffdf717" y="197.199101124"/>
      </g>
     </g>
     <g id="text_12">
      <!-- 1.5 -->
      <g transform="translate(48.91625 200.510351124)scale(0.12 -0.12)">
       <use xlink:href="#BitstreamVeraSans-Roman-31"/>
       <use x="63.623046875" xlink:href="#BitstreamVeraSans-Roman-2e"/>
       <use x="95.41015625" xlink:href="#BitstreamVeraSans-Roman-35"/>
      </g>
     </g>
    </g>
    <g id="ytick_5">
     <g id="line2d_27">
      <g>
       <use style="stroke:#000000;stroke-width:0.5;" x="72.0" xlink:href="#m0c5fcbabe4" y="135.585438202"/>
      </g>
     </g>
     <g id="line2d_28">
      <g>
       <use style="stroke:#000000;stroke-width:0.5;" x="518.4" xlink:href="#m2faffdf717" y="135.585438202"/>
      </g>
     </g>
     <g id="text_13">
      <!-- 2.0 -->
      <g transform="translate(48.91625 138.896688202)scale(0.12 -0.12)">
       <use xlink:href="#BitstreamVeraSans-Roman-32"/>
       <use x="63.623046875" xlink:href="#BitstreamVeraSans-Roman-2e"/>
       <use x="95.41015625" xlink:href="#BitstreamVeraSans-Roman-30"/>
      </g>
     </g>
    </g>
    <g id="ytick_6">
     <g id="line2d_29">
      <g>
       <use style="stroke:#000000;stroke-width:0.5;" x="72.0" xlink:href="#m0c5fcbabe4" y="73.9717752809"/>
      </g>
     </g>
     <g id="line2d_30">
      <g>
       <use style="stroke:#000000;stroke-width:0.5;" x="518.4" xlink:href="#m2faffdf717" y="73.9717752809"/>
      </g>
     </g>
     <g id="text_14">
      <!-- 2.5 -->
      <g transform="translate(48.91625 77.2830252809)scale(0.12 -0.12)">
       <use xlink:href="#BitstreamVeraSans-Roman-32"/>
       <use x="63.623046875" xlink:href="#BitstreamVeraSans-Roman-2e"/>
       <use x="95.41015625" xlink:href="#BitstreamVeraSans-Roman-35"/>
      </g>
     </g>
    </g>
   </g>
  </g>
 </g>
 <defs>
  <clipPath id="pf7b436ab55">
   <rect height="344.16" width="446.4" x="72.0" y="43.02"/>
  </clipPath>
 </defs>
</svg>
