<?xml version="1.0" encoding="utf-8" standalone="no"?>
<!DOCTYPE svg PUBLIC "-//W3C//DTD SVG 1.1//EN"
  "http://www.w3.org/Graphics/SVG/1.1/DTD/svg11.dtd">
<!-- Created with matplotlib (http://matplotlib.org/) -->
<svg height="360pt" version="1.1" viewBox="0 0 597 360" width="597pt" xmlns="http://www.w3.org/2000/svg" xmlns:xlink="http://www.w3.org/1999/xlink">
 <defs>
  <style type="text/css">
*{stroke-linecap:butt;stroke-linejoin:round;stroke-miterlimit:100000;}
  </style>
 </defs>
 <g id="figure_1">
  <g id="patch_1">
   <path d="M 0 360.9 
L 597.6 360.9 
L 597.6 0 
L 0 0 
z
" style="fill:#ffffff;"/>
  </g>
  <g id="axes_1">
   <g id="patch_2">
    <path d="M 74.7 324.81 
L 537.84 324.81 
L 537.84 36.09 
L 74.7 36.09 
z
" style="fill:#ffffff;"/>
   </g>
   <g id="line2d_1">
    <path clip-path="url(#p467821e060)" d="M 77.546445 308.663692 
L 79.848471 307.668114 
L 82.150496 306.716457 
L 98.264675 300.225292 
L 102.868726 297.884933 
L 107.472777 295.226582 
L 121.28493 286.665836 
L 125.888981 284.280409 
L 128.191006 283.277685 
L 130.493032 282.411675 
L 135.097083 281.04661 
L 144.305185 278.760783 
L 146.60721 277.974745 
L 148.909236 277.00102 
L 151.211261 275.808113 
L 153.513287 274.38269 
L 155.815312 272.731265 
L 158.117338 270.879606 
L 162.721389 266.756636 
L 169.627465 260.394313 
L 171.929491 258.444109 
L 174.231516 256.640168 
L 176.533542 254.995954 
L 178.835567 253.508557 
L 183.439618 250.92234 
L 197.251771 243.846672 
L 201.855822 241.090533 
L 206.459873 238.087232 
L 211.063924 234.823875 
L 215.667975 231.183114 
L 217.970001 229.163464 
L 220.272026 226.983864 
L 222.574052 224.636266 
L 227.178103 219.487648 
L 236.386205 208.719128 
L 238.68823 206.330675 
L 240.990256 204.190916 
L 243.292281 202.334043 
L 245.594307 200.768914 
L 247.896332 199.47815 
L 250.198358 198.420552 
L 254.802409 196.754591 
L 259.406459 195.205591 
L 261.708485 194.309495 
L 264.01051 193.268418 
L 266.312536 192.054705 
L 268.614561 190.656706 
L 270.916587 189.076458 
L 273.218612 187.326363 
L 277.822663 183.397832 
L 282.426714 179.064638 
L 291.634816 170.199825 
L 293.936842 168.204231 
L 296.238867 166.419575 
L 298.540893 164.919083 
L 300.842918 163.77742 
L 303.144944 163.065473 
L 305.446969 162.844695 
L 307.748995 163.16169 
L 310.05102 164.043648 
L 312.353046 165.495106 
L 314.655071 167.496261 
L 316.957097 170.002876 
L 319.259122 172.947646 
L 321.561148 176.24282 
L 326.165199 183.453633 
L 330.76925 190.67983 
L 333.071275 193.986781 
L 335.373301 196.935002 
L 337.675326 199.425589 
L 339.977352 201.379408 
L 342.279377 202.741345 
L 344.581403 203.483491 
L 346.883428 203.606991 
L 349.185454 203.142346 
L 351.487479 202.147994 
L 353.789505 200.707124 
L 356.09153 198.922726 
L 360.695581 194.79377 
L 365.299632 190.70482 
L 367.601658 188.927243 
L 369.903683 187.418649 
L 372.205709 186.212532 
L 374.507734 185.314255 
L 376.80976 184.704995 
L 379.111785 184.348921 
L 381.413811 184.202621 
L 383.715836 184.22529 
L 386.017862 184.387967 
L 388.319887 184.68021 
L 390.621913 185.113003 
L 392.923938 185.717433 
L 395.225964 186.539435 
L 397.527989 187.631686 
L 399.830015 189.044195 
L 402.13204 190.815332 
L 404.434066 192.964809 
L 406.736091 195.489685 
L 409.038117 198.36376 
L 411.340142 201.540133 
L 415.944193 208.539572 
L 425.152295 223.104325 
L 429.756346 229.714289 
L 432.058372 232.71781 
L 434.360397 235.495388 
L 436.662423 238.038993 
L 438.964448 240.348919 
L 441.266474 242.434022 
L 443.568499 244.312022 
L 445.870525 246.009468 
L 450.474576 249.007387 
L 459.682678 254.609594 
L 464.286729 257.778557 
L 468.89078 261.346445 
L 473.49483 265.262299 
L 480.400907 271.539573 
L 489.609009 279.992954 
L 494.21306 283.920729 
L 498.817111 287.432545 
L 503.421162 290.428001 
L 508.025213 292.929587 
L 512.629264 295.099099 
L 519.53534 298.28145 
L 524.139391 300.676 
L 528.743442 303.383809 
L 535.649519 307.800565 
L 535.649519 307.800565 
" style="fill:none;stroke:#0000ff;stroke-linecap:square;"/>
   </g>
   <g id="line2d_2">
    <path clip-path="url(#p467821e060)" d="M 96.757203 315.31827 
L 98.656746 315.37624 
L 102.455831 315.835302 
L 110.054001 317.193536 
L 111.953544 317.395578 
L 113.853087 317.480929 
L 115.752629 317.43432 
L 117.652172 317.250328 
L 119.551714 316.932157 
L 123.3508 315.934032 
L 127.149885 314.523733 
L 129.049427 313.667535 
L 130.94897 312.689182 
L 132.848513 311.554815 
L 134.748055 310.21867 
L 136.647598 308.628938 
L 138.54714 306.736539 
L 140.446683 304.505545 
L 142.346226 301.923411 
L 144.245768 299.008962 
L 148.044853 292.433611 
L 151.843939 285.575581 
L 153.743481 282.36473 
L 155.643024 279.463825 
L 157.542566 276.967224 
L 159.442109 274.93477 
L 161.341652 273.388454 
L 163.241194 272.314767 
L 165.140737 271.671897 
L 167.040279 271.399991 
L 168.939822 271.432131 
L 170.839365 271.703585 
L 172.738907 272.157386 
L 176.537992 273.423287 
L 182.23662 275.479927 
L 184.136163 275.92438 
L 186.035705 276.080448 
L 187.935248 275.834323 
L 189.83479 275.083195 
L 191.734333 273.753715 
L 193.633876 271.818989 
L 195.533418 269.309846 
L 197.432961 266.316945 
L 201.232046 259.478721 
L 205.031131 252.663282 
L 206.930674 249.618236 
L 208.830216 246.898659 
L 210.729759 244.485437 
L 214.528844 240.243876 
L 218.327929 236.054112 
L 222.127015 231.403231 
L 225.9261 226.61997 
L 227.825642 224.476187 
L 229.725185 222.676715 
L 231.624728 221.321389 
L 233.52427 220.456247 
L 235.423813 220.062505 
L 237.323355 220.056962 
L 243.021983 220.862314 
L 244.921526 220.830312 
L 246.821068 220.403819 
L 248.720611 219.496467 
L 250.620154 218.070226 
L 252.519696 216.130309 
L 254.419239 213.714388 
L 256.318781 210.879472 
L 258.218324 207.689728 
L 260.117867 204.207566 
L 263.916952 196.582257 
L 267.716037 188.37153 
L 277.21375 167.415909 
L 281.012835 159.864248 
L 282.912378 156.464047 
L 284.81192 153.344308 
L 286.711463 150.487431 
L 294.309633 139.914002 
L 296.209176 136.789646 
L 298.108719 133.196339 
L 300.008261 129.059558 
L 301.907804 124.369335 
L 303.807346 119.184275 
L 307.606432 107.849768 
L 311.405517 96.366149 
L 313.305059 90.958554 
L 315.204602 85.901421 
L 317.104144 81.222704 
L 319.003687 76.902372 
L 322.802772 69.123044 
L 326.601857 62.179895 
L 328.5014 59.020426 
L 330.400943 56.157696 
L 332.300485 53.712502 
L 334.200028 51.836833 
L 336.09957 50.698588 
L 337.999113 50.464515 
L 339.898656 51.283231 
L 341.798198 53.269828 
L 343.697741 56.493233 
L 345.597283 60.967344 
L 347.496826 66.646679 
L 349.396369 73.426875 
L 351.295911 81.149894 
L 355.094996 98.581795 
L 360.793624 125.979333 
L 362.693167 134.469381 
L 364.592709 142.306848 
L 366.492252 149.364978 
L 368.391795 155.580539 
L 370.291337 160.959415 
L 372.19088 165.575755 
L 374.090422 169.563498 
L 375.989965 173.100236 
L 381.688593 182.942498 
L 383.588135 186.488949 
L 387.387221 194.317681 
L 391.186306 202.554228 
L 393.085848 206.393453 
L 394.985391 209.75751 
L 396.884934 212.439384 
L 398.784476 214.273871 
L 400.684019 215.162903 
L 402.583561 215.094848 
L 404.483104 214.154994 
L 406.382647 212.525169 
L 412.081274 206.433734 
L 413.980817 205.157886 
L 415.88036 204.803517 
L 417.779902 205.607106 
L 419.679445 207.711419 
L 421.578987 211.156175 
L 423.47853 215.881009 
L 425.378073 221.739193 
L 427.277615 228.519037 
L 431.0767 243.823195 
L 436.775328 267.350957 
L 438.674871 274.51905 
L 440.574413 281.11578 
L 442.473956 287.058625 
L 444.373499 292.298741 
L 446.273041 296.816346 
L 448.172584 300.616468 
L 450.072126 303.72542 
L 451.971669 306.187975 
L 453.871211 308.064878 
L 455.770754 309.430214 
L 457.670297 310.3682 
L 459.569839 310.969221 
L 461.469382 311.32519 
L 465.268467 311.647931 
L 469.067552 311.92449 
L 472.866637 312.513578 
L 474.76618 312.965606 
L 474.76618 312.965606 
" style="fill:none;stroke:#008000;stroke-linecap:square;"/>
   </g>
   <g id="patch_3">
    <path d="M 74.7 36.09 
L 537.84 36.09 
" style="fill:none;stroke:#000000;stroke-linecap:square;stroke-linejoin:miter;"/>
   </g>
   <g id="patch_4">
    <path d="M 537.84 324.81 
L 537.84 36.09 
" style="fill:none;stroke:#000000;stroke-linecap:square;stroke-linejoin:miter;"/>
   </g>
   <g id="patch_5">
    <path d="M 74.7 324.81 
L 537.84 324.81 
" style="fill:none;stroke:#000000;stroke-linecap:square;stroke-linejoin:miter;"/>
   </g>
   <g id="patch_6">
    <path d="M 74.7 324.81 
L 74.7 36.09 
" style="fill:none;stroke:#000000;stroke-linecap:square;stroke-linejoin:miter;"/>
   </g>
   <g id="matplotlib.axis_1">
    <g id="xtick_1">
     <g id="line2d_3">
      <defs>
       <path d="M 0 0 
L 0 -4 
" id="mf9e0630035" style="stroke:#000000;stroke-width:0.5;"/>
      </defs>
      <g>
       <use style="stroke:#000000;stroke-width:0.5;" x="115.967982143" xlink:href="#mf9e0630035" y="324.81"/>
      </g>
     </g>
     <g id="line2d_4">
      <defs>
       <path d="M 0 0 
L 0 4 
" id="m3cb222488f" style="stroke:#000000;stroke-width:0.5;"/>
      </defs>
      <g>
       <use style="stroke:#000000;stroke-width:0.5;" x="115.967982143" xlink:href="#m3cb222488f" y="36.09"/>
      </g>
     </g>
     <g id="text_1">
      <!-- 1.2 -->
      <defs>
       <path d="M 19.1875 8.296875 
L 53.609375 8.296875 
L 53.609375 0 
L 7.328125 0 
L 7.328125 8.296875 
Q 12.9375 14.109375 22.625 23.890625 
Q 32.328125 33.6875 34.8125 36.53125 
Q 39.546875 41.84375 41.421875 45.53125 
Q 43.3125 49.21875 43.3125 52.78125 
Q 43.3125 58.59375 39.234375 62.25 
Q 35.15625 65.921875 28.609375 65.921875 
Q 23.96875 65.921875 18.8125 64.3125 
Q 13.671875 62.703125 7.8125 59.421875 
L 7.8125 69.390625 
Q 13.765625 71.78125 18.9375 73 
Q 24.125 74.21875 28.421875 74.21875 
Q 39.75 74.21875 46.484375 68.546875 
Q 53.21875 62.890625 53.21875 53.421875 
Q 53.21875 48.921875 51.53125 44.890625 
Q 49.859375 40.875 45.40625 35.40625 
Q 44.1875 33.984375 37.640625 27.21875 
Q 31.109375 20.453125 19.1875 8.296875 
" id="BitstreamVeraSans-Roman-32"/>
       <path d="M 12.40625 8.296875 
L 28.515625 8.296875 
L 28.515625 63.921875 
L 10.984375 60.40625 
L 10.984375 69.390625 
L 28.421875 72.90625 
L 38.28125 72.90625 
L 38.28125 8.296875 
L 54.390625 8.296875 
L 54.390625 0 
L 12.40625 0 
z
" id="BitstreamVeraSans-Roman-31"/>
       <path d="M 10.6875 12.40625 
L 21 12.40625 
L 21 0 
L 10.6875 0 
z
" id="BitstreamVeraSans-Roman-2e"/>
      </defs>
      <g transform="translate(106.426107143 337.928125)scale(0.12 -0.12)">
       <use xlink:href="#BitstreamVeraSans-Roman-31"/>
       <use x="63.623046875" xlink:href="#BitstreamVeraSans-Roman-2e"/>
       <use x="95.41015625" xlink:href="#BitstreamVeraSans-Roman-32"/>
      </g>
     </g>
    </g>
    <g id="xtick_2">
     <g id="line2d_5">
      <g>
       <use style="stroke:#000000;stroke-width:0.5;" x="175.0780625" xlink:href="#mf9e0630035" y="324.81"/>
      </g>
     </g>
     <g id="line2d_6">
      <g>
       <use style="stroke:#000000;stroke-width:0.5;" x="175.0780625" xlink:href="#m3cb222488f" y="36.09"/>
      </g>
     </g>
     <g id="text_2">
      <!-- 1.4 -->
      <defs>
       <path d="M 37.796875 64.3125 
L 12.890625 25.390625 
L 37.796875 25.390625 
z
M 35.203125 72.90625 
L 47.609375 72.90625 
L 47.609375 25.390625 
L 58.015625 25.390625 
L 58.015625 17.1875 
L 47.609375 17.1875 
L 47.609375 0 
L 37.796875 0 
L 37.796875 17.1875 
L 4.890625 17.1875 
L 4.890625 26.703125 
z
" id="BitstreamVeraSans-Roman-34"/>
      </defs>
      <g transform="translate(165.5361875 337.928125)scale(0.12 -0.12)">
       <use xlink:href="#BitstreamVeraSans-Roman-31"/>
       <use x="63.623046875" xlink:href="#BitstreamVeraSans-Roman-2e"/>
       <use x="95.41015625" xlink:href="#BitstreamVeraSans-Roman-34"/>
      </g>
     </g>
    </g>
    <g id="xtick_3">
     <g id="line2d_7">
      <g>
       <use style="stroke:#000000;stroke-width:0.5;" x="234.188142857" xlink:href="#mf9e0630035" y="324.81"/>
      </g>
     </g>
     <g id="line2d_8">
      <g>
       <use style="stroke:#000000;stroke-width:0.5;" x="234.188142857" xlink:href="#m3cb222488f" y="36.09"/>
      </g>
     </g>
     <g id="text_3">
      <!-- 1.6 -->
      <defs>
       <path d="M 33.015625 40.375 
Q 26.375 40.375 22.484375 35.828125 
Q 18.609375 31.296875 18.609375 23.390625 
Q 18.609375 15.53125 22.484375 10.953125 
Q 26.375 6.390625 33.015625 6.390625 
Q 39.65625 6.390625 43.53125 10.953125 
Q 47.40625 15.53125 47.40625 23.390625 
Q 47.40625 31.296875 43.53125 35.828125 
Q 39.65625 40.375 33.015625 40.375 
M 52.59375 71.296875 
L 52.59375 62.3125 
Q 48.875 64.0625 45.09375 64.984375 
Q 41.3125 65.921875 37.59375 65.921875 
Q 27.828125 65.921875 22.671875 59.328125 
Q 17.53125 52.734375 16.796875 39.40625 
Q 19.671875 43.65625 24.015625 45.921875 
Q 28.375 48.1875 33.59375 48.1875 
Q 44.578125 48.1875 50.953125 41.515625 
Q 57.328125 34.859375 57.328125 23.390625 
Q 57.328125 12.15625 50.6875 5.359375 
Q 44.046875 -1.421875 33.015625 -1.421875 
Q 20.359375 -1.421875 13.671875 8.265625 
Q 6.984375 17.96875 6.984375 36.375 
Q 6.984375 53.65625 15.1875 63.9375 
Q 23.390625 74.21875 37.203125 74.21875 
Q 40.921875 74.21875 44.703125 73.484375 
Q 48.484375 72.75 52.59375 71.296875 
" id="BitstreamVeraSans-Roman-36"/>
      </defs>
      <g transform="translate(224.646267857 337.928125)scale(0.12 -0.12)">
       <use xlink:href="#BitstreamVeraSans-Roman-31"/>
       <use x="63.623046875" xlink:href="#BitstreamVeraSans-Roman-2e"/>
       <use x="95.41015625" xlink:href="#BitstreamVeraSans-Roman-36"/>
      </g>
     </g>
    </g>
    <g id="xtick_4">
     <g id="line2d_9">
      <g>
       <use style="stroke:#000000;stroke-width:0.5;" x="293.298223214" xlink:href="#mf9e0630035" y="324.81"/>
      </g>
     </g>
     <g id="line2d_10">
      <g>
       <use style="stroke:#000000;stroke-width:0.5;" x="293.298223214" xlink:href="#m3cb222488f" y="36.09"/>
      </g>
     </g>
     <g id="text_4">
      <!-- 1.8 -->
      <defs>
       <path d="M 31.78125 34.625 
Q 24.75 34.625 20.71875 30.859375 
Q 16.703125 27.09375 16.703125 20.515625 
Q 16.703125 13.921875 20.71875 10.15625 
Q 24.75 6.390625 31.78125 6.390625 
Q 38.8125 6.390625 42.859375 10.171875 
Q 46.921875 13.96875 46.921875 20.515625 
Q 46.921875 27.09375 42.890625 30.859375 
Q 38.875 34.625 31.78125 34.625 
M 21.921875 38.8125 
Q 15.578125 40.375 12.03125 44.71875 
Q 8.5 49.078125 8.5 55.328125 
Q 8.5 64.0625 14.71875 69.140625 
Q 20.953125 74.21875 31.78125 74.21875 
Q 42.671875 74.21875 48.875 69.140625 
Q 55.078125 64.0625 55.078125 55.328125 
Q 55.078125 49.078125 51.53125 44.71875 
Q 48 40.375 41.703125 38.8125 
Q 48.828125 37.15625 52.796875 32.3125 
Q 56.78125 27.484375 56.78125 20.515625 
Q 56.78125 9.90625 50.3125 4.234375 
Q 43.84375 -1.421875 31.78125 -1.421875 
Q 19.734375 -1.421875 13.25 4.234375 
Q 6.78125 9.90625 6.78125 20.515625 
Q 6.78125 27.484375 10.78125 32.3125 
Q 14.796875 37.15625 21.921875 38.8125 
M 18.3125 54.390625 
Q 18.3125 48.734375 21.84375 45.5625 
Q 25.390625 42.390625 31.78125 42.390625 
Q 38.140625 42.390625 41.71875 45.5625 
Q 45.3125 48.734375 45.3125 54.390625 
Q 45.3125 60.0625 41.71875 63.234375 
Q 38.140625 66.40625 31.78125 66.40625 
Q 25.390625 66.40625 21.84375 63.234375 
Q 18.3125 60.0625 18.3125 54.390625 
" id="BitstreamVeraSans-Roman-38"/>
      </defs>
      <g transform="translate(283.756348214 337.928125)scale(0.12 -0.12)">
       <use xlink:href="#BitstreamVeraSans-Roman-31"/>
       <use x="63.623046875" xlink:href="#BitstreamVeraSans-Roman-2e"/>
       <use x="95.41015625" xlink:href="#BitstreamVeraSans-Roman-38"/>
      </g>
     </g>
    </g>
    <g id="xtick_5">
     <g id="line2d_11">
      <g>
       <use style="stroke:#000000;stroke-width:0.5;" x="352.408303571" xlink:href="#mf9e0630035" y="324.81"/>
      </g>
     </g>
     <g id="line2d_12">
      <g>
       <use style="stroke:#000000;stroke-width:0.5;" x="352.408303571" xlink:href="#m3cb222488f" y="36.09"/>
      </g>
     </g>
     <g id="text_5">
      <!-- 2.0 -->
      <defs>
       <path d="M 31.78125 66.40625 
Q 24.171875 66.40625 20.328125 58.90625 
Q 16.5 51.421875 16.5 36.375 
Q 16.5 21.390625 20.328125 13.890625 
Q 24.171875 6.390625 31.78125 6.390625 
Q 39.453125 6.390625 43.28125 13.890625 
Q 47.125 21.390625 47.125 36.375 
Q 47.125 51.421875 43.28125 58.90625 
Q 39.453125 66.40625 31.78125 66.40625 
M 31.78125 74.21875 
Q 44.046875 74.21875 50.515625 64.515625 
Q 56.984375 54.828125 56.984375 36.375 
Q 56.984375 17.96875 50.515625 8.265625 
Q 44.046875 -1.421875 31.78125 -1.421875 
Q 19.53125 -1.421875 13.0625 8.265625 
Q 6.59375 17.96875 6.59375 36.375 
Q 6.59375 54.828125 13.0625 64.515625 
Q 19.53125 74.21875 31.78125 74.21875 
" id="BitstreamVeraSans-Roman-30"/>
      </defs>
      <g transform="translate(342.866428571 337.928125)scale(0.12 -0.12)">
       <use xlink:href="#BitstreamVeraSans-Roman-32"/>
       <use x="63.623046875" xlink:href="#BitstreamVeraSans-Roman-2e"/>
       <use x="95.41015625" xlink:href="#BitstreamVeraSans-Roman-30"/>
      </g>
     </g>
    </g>
    <g id="xtick_6">
     <g id="line2d_13">
      <g>
       <use style="stroke:#000000;stroke-width:0.5;" x="411.518383929" xlink:href="#mf9e0630035" y="324.81"/>
      </g>
     </g>
     <g id="line2d_14">
      <g>
       <use style="stroke:#000000;stroke-width:0.5;" x="411.518383929" xlink:href="#m3cb222488f" y="36.09"/>
      </g>
     </g>
     <g id="text_6">
      <!-- 2.2 -->
      <g transform="translate(401.976508929 337.928125)scale(0.12 -0.12)">
       <use xlink:href="#BitstreamVeraSans-Roman-32"/>
       <use x="63.623046875" xlink:href="#BitstreamVeraSans-Roman-2e"/>
       <use x="95.41015625" xlink:href="#BitstreamVeraSans-Roman-32"/>
      </g>
     </g>
    </g>
    <g id="xtick_7">
     <g id="line2d_15">
      <g>
       <use style="stroke:#000000;stroke-width:0.5;" x="470.628464286" xlink:href="#mf9e0630035" y="324.81"/>
      </g>
     </g>
     <g id="line2d_16">
      <g>
       <use style="stroke:#000000;stroke-width:0.5;" x="470.628464286" xlink:href="#m3cb222488f" y="36.09"/>
      </g>
     </g>
     <g id="text_7">
      <!-- 2.4 -->
      <g transform="translate(461.086589286 337.928125)scale(0.12 -0.12)">
       <use xlink:href="#BitstreamVeraSans-Roman-32"/>
       <use x="63.623046875" xlink:href="#BitstreamVeraSans-Roman-2e"/>
       <use x="95.41015625" xlink:href="#BitstreamVeraSans-Roman-34"/>
      </g>
     </g>
    </g>
    <g id="xtick_8">
     <g id="line2d_17">
      <g>
       <use style="stroke:#000000;stroke-width:0.5;" x="529.738544643" xlink:href="#mf9e0630035" y="324.81"/>
      </g>
     </g>
     <g id="line2d_18">
      <g>
       <use style="stroke:#000000;stroke-width:0.5;" x="529.738544643" xlink:href="#m3cb222488f" y="36.09"/>
      </g>
     </g>
     <g id="text_8">
      <!-- 2.6 -->
      <g transform="translate(520.196669643 337.928125)scale(0.12 -0.12)">
       <use xlink:href="#BitstreamVeraSans-Roman-32"/>
       <use x="63.623046875" xlink:href="#BitstreamVeraSans-Roman-2e"/>
       <use x="95.41015625" xlink:href="#BitstreamVeraSans-Roman-36"/>
      </g>
     </g>
    </g>
   </g>
   <g id="matplotlib.axis_2">
    <g id="ytick_1">
     <g id="line2d_19">
      <defs>
       <path d="M 0 0 
L 4 0 
" id="m9ba189e268" style="stroke:#000000;stroke-width:0.5;"/>
      </defs>
      <g>
       <use style="stroke:#000000;stroke-width:0.5;" x="74.7" xlink:href="#m9ba189e268" y="319.41"/>
      </g>
     </g>
     <g id="line2d_20">
      <defs>
       <path d="M 0 0 
L -4 0 
" id="m1b7d2bf729" style="stroke:#000000;stroke-width:0.5;"/>
      </defs>
      <g>
       <use style="stroke:#000000;stroke-width:0.5;" x="537.84" xlink:href="#m1b7d2bf729" y="319.41"/>
      </g>
     </g>
     <g id="text_9">
      <!-- 0.0 -->
      <g transform="translate(51.61625 322.72125)scale(0.12 -0.12)">
       <use xlink:href="#BitstreamVeraSans-Roman-30"/>
       <use x="63.623046875" xlink:href="#BitstreamVeraSans-Roman-2e"/>
       <use x="95.41015625" xlink:href="#BitstreamVeraSans-Roman-30"/>
      </g>
     </g>
    </g>
    <g id="ytick_2">
     <g id="line2d_21">
      <g>
       <use style="stroke:#000000;stroke-width:0.5;" x="74.7" xlink:href="#m9ba189e268" y="253.930059385"/>
      </g>
     </g>
     <g id="line2d_22">
      <g>
       <use style="stroke:#000000;stroke-width:0.5;" x="537.84" xlink:href="#m1b7d2bf729" y="253.930059385"/>
      </g>
     </g>
     <g id="text_10">
      <!-- 0.5 -->
      <defs>
       <path d="M 10.796875 72.90625 
L 49.515625 72.90625 
L 49.515625 64.59375 
L 19.828125 64.59375 
L 19.828125 46.734375 
Q 21.96875 47.46875 24.109375 47.828125 
Q 26.265625 48.1875 28.421875 48.1875 
Q 40.625 48.1875 47.75 41.5 
Q 54.890625 34.8125 54.890625 23.390625 
Q 54.890625 11.625 47.5625 5.09375 
Q 40.234375 -1.421875 26.90625 -1.421875 
Q 22.3125 -1.421875 17.546875 -0.640625 
Q 12.796875 0.140625 7.71875 1.703125 
L 7.71875 11.625 
Q 12.109375 9.234375 16.796875 8.0625 
Q 21.484375 6.890625 26.703125 6.890625 
Q 35.15625 6.890625 40.078125 11.328125 
Q 45.015625 15.765625 45.015625 23.390625 
Q 45.015625 31 40.078125 35.4375 
Q 35.15625 39.890625 26.703125 39.890625 
Q 22.75 39.890625 18.8125 39.015625 
Q 14.890625 38.140625 10.796875 36.28125 
z
" id="BitstreamVeraSans-Roman-35"/>
      </defs>
      <g transform="translate(51.61625 257.241309385)scale(0.12 -0.12)">
       <use xlink:href="#BitstreamVeraSans-Roman-30"/>
       <use x="63.623046875" xlink:href="#BitstreamVeraSans-Roman-2e"/>
       <use x="95.41015625" xlink:href="#BitstreamVeraSans-Roman-35"/>
      </g>
     </g>
    </g>
    <g id="ytick_3">
     <g id="line2d_23">
      <g>
       <use style="stroke:#000000;stroke-width:0.5;" x="74.7" xlink:href="#m9ba189e268" y="188.45011877"/>
      </g>
     </g>
     <g id="line2d_24">
      <g>
       <use style="stroke:#000000;stroke-width:0.5;" x="537.84" xlink:href="#m1b7d2bf729" y="188.45011877"/>
      </g>
     </g>
     <g id="text_11">
      <!-- 1.0 -->
      <g transform="translate(51.61625 191.76136877)scale(0.12 -0.12)">
       <use xlink:href="#BitstreamVeraSans-Roman-31"/>
       <use x="63.623046875" xlink:href="#BitstreamVeraSans-Roman-2e"/>
       <use x="95.41015625" xlink:href="#BitstreamVeraSans-Roman-30"/>
      </g>
     </g>
    </g>
    <g id="ytick_4">
     <g id="line2d_25">
      <g>
       <use style="stroke:#000000;stroke-width:0.5;" x="74.7" xlink:href="#m9ba189e268" y="122.970178155"/>
      </g>
     </g>
     <g id="line2d_26">
      <g>
       <use style="stroke:#000000;stroke-width:0.5;" x="537.84" xlink:href="#m1b7d2bf729" y="122.970178155"/>
      </g>
     </g>
     <g id="text_12">
      <!-- 1.5 -->
      <g transform="translate(51.61625 126.281428155)scale(0.12 -0.12)">
       <use xlink:href="#BitstreamVeraSans-Roman-31"/>
       <use x="63.623046875" xlink:href="#BitstreamVeraSans-Roman-2e"/>
       <use x="95.41015625" xlink:href="#BitstreamVeraSans-Roman-35"/>
      </g>
     </g>
    </g>
    <g id="ytick_5">
     <g id="line2d_27">
      <g>
       <use style="stroke:#000000;stroke-width:0.5;" x="74.7" xlink:href="#m9ba189e268" y="57.4902375398"/>
      </g>
     </g>
     <g id="line2d_28">
      <g>
       <use style="stroke:#000000;stroke-width:0.5;" x="537.84" xlink:href="#m1b7d2bf729" y="57.4902375398"/>
      </g>
     </g>
     <g id="text_13">
      <!-- 2.0 -->
      <g transform="translate(51.61625 60.8014875398)scale(0.12 -0.12)">
       <use xlink:href="#BitstreamVeraSans-Roman-32"/>
       <use x="63.623046875" xlink:href="#BitstreamVeraSans-Roman-2e"/>
       <use x="95.41015625" xlink:href="#BitstreamVeraSans-Roman-30"/>
      </g>
     </g>
    </g>
   </g>
  </g>
 </g>
 <defs>
  <clipPath id="p467821e060">
   <rect height="288.72" width="463.14" x="74.7" y="36.09"/>
  </clipPath>
 </defs>
</svg>
