<?xml version="1.0" encoding="UTF-8" standalone="no"?>
<!-- Created with Inkscape (http://www.inkscape.org/) -->

<svg
   xmlns:dc="http://purl.org/dc/elements/1.1/"
   xmlns:cc="http://creativecommons.org/ns#"
   xmlns:rdf="http://www.w3.org/1999/02/22-rdf-syntax-ns#"
   xmlns:svg="http://www.w3.org/2000/svg"
   xmlns="http://www.w3.org/2000/svg"
   xmlns:xlink="http://www.w3.org/1999/xlink"
   xmlns:sodipodi="http://sodipodi.sourceforge.net/DTD/sodipodi-0.dtd"
   xmlns:inkscape="http://www.inkscape.org/namespaces/inkscape"
   width="210mm"
   height="297mm"
   viewBox="0 0 744.09448819 1052.3622047"
   id="svg2"
   version="1.1"
   inkscape:version="0.91 r13725"
   sodipodi:docname="comparing_hist_no_points_points_safe.svg">
  <defs
     id="defs4">
    <clipPath
       id="pf7b436ab55">
      <rect
         height="344.16"
         width="446.39999"
         x="72"
         y="43.02"
         id="rect351" />
    </clipPath>
    <clipPath
       id="clipPath4493">
      <rect
         height="344.16"
         width="446.39999"
         x="72"
         y="43.02"
         id="rect4495" />
    </clipPath>
  </defs>
  <sodipodi:namedview
     id="base"
     pagecolor="#ffffff"
     bordercolor="#666666"
     borderopacity="1.0"
     inkscape:pageopacity="0.0"
     inkscape:pageshadow="2"
     inkscape:zoom="0.35"
     inkscape:cx="375"
     inkscape:cy="520"
     inkscape:document-units="px"
     inkscape:current-layer="layer1"
     showgrid="false"
     inkscape:window-width="944"
     inkscape:window-height="1002"
     inkscape:window-x="960"
     inkscape:window-y="0"
     inkscape:window-maximized="0" />
  <metadata
     id="metadata7">
    <rdf:RDF>
      <cc:Work
         rdf:about="">
        <dc:format>image/svg+xml</dc:format>
        <dc:type
           rdf:resource="http://purl.org/dc/dcmitype/StillImage" />
        <dc:title></dc:title>
      </cc:Work>
    </rdf:RDF>
  </metadata>
  <g
     inkscape:label="Calque 1"
     inkscape:groupmode="layer"
     id="layer1">
    <g
       transform="matrix(1.25,0,0,1.25,-45.714286,134.91578)"
       id="figure_1">
      <g
         id="patch_1">
        <path
           inkscape:connector-curvature="0"
           d="m 0,430.2 576,0 L 576,0 0,0 Z"
           style="fill:#ffffff"
           id="path10" />
      </g>
      <g
         id="axes_1">
        <g
           id="patch_2">
          <path
             inkscape:connector-curvature="0"
             d="m 72,387.18 446.4,0 0,-344.16 -446.4,0 z"
             style="fill:#ffffff"
             id="path14" />
        </g>
        <g
           id="line2d_1">
          <path
             inkscape:connector-curvature="0"
             clip-path="url(#pf7b436ab55)"
             d="m 83.263562,371.73563 2.124396,-0.71967 2.124395,-0.58058 4.248791,-0.78181 8.497586,-1.02631 2.12439,-0.40403 2.1244,-0.53486 2.12439,-0.68264 2.1244,-0.83465 2.1244,-0.97887 4.24879,-2.30916 10.62197,-6.22704 2.1244,-1.01514 2.1244,-0.86834 2.12439,-0.71426 4.24879,-1.03053 6.37319,-1.29125 2.12439,-0.64926 2.1244,-0.87945 2.12439,-1.1596 2.1244,-1.46256 2.1244,-1.75612 2.12439,-2.00714 8.49758,-8.83551 2.1244,-1.91706 2.12439,-1.64444 2.1244,-1.3443 2.1244,-1.05485 2.12439,-0.81356 6.37319,-1.90269 2.12439,-0.82708 2.1244,-1.10024 2.1244,-1.4485 2.12439,-1.83822 2.1244,-2.23133 2.12439,-2.58971 2.1244,-2.87999 10.62198,-15.37234 2.12439,-2.71307 4.24879,-4.91946 6.37319,-6.95876 4.24879,-5.08026 4.24879,-5.60954 6.37319,-8.57666 2.12439,-2.60731 2.1244,-2.37592 2.1244,-2.11213 2.12439,-1.84311 2.1244,-1.59565 2.12439,-1.3927 4.24879,-2.43057 4.24879,-2.42918 2.1244,-1.37488 2.1244,-1.5463 2.12439,-1.74878 2.1244,-1.96753 2.12439,-2.18745 2.1244,-2.39297 4.24879,-5.2606 4.24879,-5.47163 2.1244,-2.5861 2.12439,-2.33245 2.1244,-1.95296 2.12439,-1.44957 2.1244,-0.83439 2.12439,-0.12966 2.1244,0.6341 2.1244,1.42091 2.12439,2.19311 2.1244,2.91502 2.12439,3.556 2.1244,4.09231 2.12439,4.50776 4.24879,9.73889 4.24879,9.82678 2.1244,4.63503 2.1244,4.30011 2.12439,3.86758 2.1244,3.35165 2.12439,2.76863 2.1244,2.13672 2.12439,1.47547 2.1244,0.80505 2.1244,0.14577 2.12439,-0.48272 2.1244,-1.06169 2.12439,-1.57396 2.1244,-2.00435 2.12439,-2.34059 4.2488,-5.27599 4.24879,-5.3812 2.12439,-2.50457 2.1244,-2.29199 2.12439,-2.03697 2.1244,-1.75653 2.12439,-1.46241 2.1244,-1.15908 2.12439,-0.8436 2.1244,-0.5077 2.1244,-0.14124 2.12439,0.26329 2.1244,0.70686 2.12439,1.18147 2.1244,1.67002 2.12439,2.14874 2.1244,2.59138 2.12439,2.97426 2.1244,3.28071 4.24879,7.15161 14.87077,25.86008 4.24879,6.96413 4.24879,6.47938 2.1244,2.98562 2.1244,2.78908 2.12439,2.58596 2.1244,2.38907 4.24879,4.26838 4.24879,3.788 8.49758,7.03653 8.49758,7.14697 6.37319,5.69486 6.37319,5.79986 4.24879,3.56776 2.12439,1.58363 2.1244,1.40656 2.12439,1.20814 2.1244,1.00153 2.12439,0.80172 2.1244,0.62389 4.24879,0.86708 6.37319,1.09483 2.12439,0.49959 2.1244,0.62069 2.1244,0.75416 4.24879,1.88953 4.24879,2.25719 2.12439,1.1891 0,0"
             style="fill:none;stroke:#0000ff;stroke-linecap:square"
             id="path17" />
        </g>
        <g
           id="line2d_2">
          <path
             inkscape:connector-curvature="0"
             clip-path="url(#pf7b436ab55)"
             d="m 100.99197,377.9652 1.75297,0.0831 1.75297,0.24046 3.50594,0.81789 5.25891,1.35968 3.50593,0.53918 3.50594,0.10132 3.50594,-0.29167 3.50594,-0.56929 3.50594,-0.7567 3.50594,-1.00162 1.75297,-0.674 1.75296,-0.85876 1.75297,-1.10058 1.75297,-1.3907 1.75297,-1.70848 1.75297,-2.02298 1.75297,-2.29708 7.01188,-9.99684 1.75297,-2.09993 1.75297,-1.7409 1.75297,-1.3403 1.75296,-0.93884 1.75298,-0.57061 1.75296,-0.257 1.75297,-0.004 1.75297,0.1956 1.75297,0.35874 1.75297,0.5035 1.75297,0.64269 3.50594,1.67836 5.25891,2.91746 1.75297,0.73321 1.75296,0.4092 1.75297,-0.0372 1.75297,-0.58065 1.75297,-1.17948 1.75297,-1.78033 1.75297,-2.3258 1.75297,-2.76319 8.76485,-15.142 3.50593,-4.94447 3.50594,-4.79039 1.75297,-2.63066 3.50594,-5.9574 3.50594,-6.28172 1.75297,-2.79884 1.75297,-2.28839 1.75297,-1.61501 1.75297,-0.85806 1.75297,-0.11478 1.75296,0.51629 1.75297,0.95118 3.50594,2.17445 1.75297,0.69035 1.75297,0.12817 1.75297,-0.57659 1.75297,-1.34741 1.75297,-2.11304 1.75297,-2.81691 1.75297,-3.42035 1.75297,-3.90052 3.50594,-8.69207 3.50593,-8.91581 1.75297,-4.19036 1.75297,-3.85975 1.75297,-3.46342 1.75297,-3.05626 1.75297,-2.6986 7.01188,-9.85716 1.75297,-3.06804 1.75297,-3.61498 1.75296,-4.25825 1.75297,-4.94926 1.75297,-5.63544 1.75297,-6.26701 3.50594,-14.0353 3.50594,-15.30784 5.25891,-24.18733 5.25891,-25.54149 3.50593,-17.97745 8.76485,-46.183667 1.75297,-8.011932 1.75297,-6.827955 1.75297,-5.250545 1.75297,-3.315923 1.75297,-1.096359 1.75297,1.308947 1.75296,3.783915 1.75297,6.204516 1.75297,8.446639 1.75297,10.394261 1.75297,11.948961 3.50594,26.673752 3.50594,27.12369 1.75297,12.6657 1.75297,11.65713 1.75297,10.45999 1.75297,9.17152 1.75297,7.88482 1.75297,6.68638 1.75296,5.65235 1.75297,4.84233 3.50594,8.29603 3.50594,8.0312 3.50594,8.87132 8.76484,23.79282 1.75297,4.10007 1.75297,3.59895 1.75297,2.99677 1.75297,2.31488 1.75297,1.58882 1.75297,0.87082 1.75297,0.22693 1.75297,-0.27159 3.50594,-1.15328 1.75297,-0.35199 1.75297,0.15099 1.75297,0.87634 1.75296,1.76475 1.75297,2.74701 1.75297,3.75321 1.75297,4.71952 1.75297,5.5915 1.75297,6.32468 3.50594,14.12618 5.25891,21.70602 1.75297,6.54368 1.75296,5.92659 1.75297,5.21304 1.75297,4.45284 1.75297,3.69132 1.75297,2.96504 1.75297,2.29978 1.75297,1.71133 1.75297,1.20758 1.75297,0.79093 1.75297,0.46026 1.75297,0.21197 3.50594,-0.0208 5.2589,-0.23802 3.50594,0.16547 1.75297,0.22967 0,0"
             style="fill:none;stroke:#008000;stroke-linecap:square"
             id="path20" />
        </g>
        <g
           id="patch_3">
          <path
             inkscape:connector-curvature="0"
             d="m 72,43.02 446.4,0"
             style="fill:none;stroke:#000000;stroke-linecap:square;stroke-linejoin:miter"
             id="path23" />
        </g>
        <g
           id="patch_4">
          <path
             inkscape:connector-curvature="0"
             d="m 518.4,387.18 0,-344.16"
             style="fill:none;stroke:#000000;stroke-linecap:square;stroke-linejoin:miter"
             id="path26" />
        </g>
        <g
           id="patch_5">
          <path
             inkscape:connector-curvature="0"
             d="m 72,387.18 446.4,0"
             style="fill:none;stroke:#000000;stroke-linecap:square;stroke-linejoin:miter"
             id="path29" />
        </g>
        <g
           id="patch_6">
          <path
             inkscape:connector-curvature="0"
             d="M 72,387.18 72,43.02"
             style="fill:none;stroke:#000000;stroke-linecap:square;stroke-linejoin:miter"
             id="path32" />
        </g>
        <g
           id="matplotlib.axis_1">
          <g
             id="xtick_1">
            <g
               id="line2d_3">
              <defs
                 id="defs37">
                <path
                   inkscape:connector-curvature="0"
                   d="M 0,0 0,-4"
                   id="m36fb7d75bf"
                   style="stroke:#000000;stroke-width:0.5" />
              </defs>
              <g
                 id="g40">
                <use
                   height="100%"
                   width="100%"
                   style="stroke:#000000;stroke-width:0.5"
                   x="118.7204"
                   xlink:href="#m36fb7d75bf"
                   y="387.17999"
                   id="use42" />
              </g>
            </g>
            <g
               id="line2d_4">
              <defs
                 id="defs45">
                <path
                   inkscape:connector-curvature="0"
                   d="M 0,0 0,4"
                   id="m504980d691"
                   style="stroke:#000000;stroke-width:0.5" />
              </defs>
              <g
                 id="g48">
                <use
                   height="100%"
                   width="100%"
                   style="stroke:#000000;stroke-width:0.5"
                   x="118.7204"
                   xlink:href="#m504980d691"
                   y="43.02"
                   id="use50" />
              </g>
            </g>
            <g
               id="text_1">
              <!-- 1.2 -->
              <defs
                 id="defs53">
                <path
                   inkscape:connector-curvature="0"
                   d="m 19.1875,8.296875 34.421875,0 0,-8.296875 -46.28125,0 0,8.296875 q 5.609375,5.8125 15.296875,15.59375 9.703125,9.796875 12.1875,12.640625 4.734375,5.3125 6.609375,9 1.890625,3.6875 1.890625,7.25 0,5.8125 -4.078125,9.46875 -4.078125,3.671875 -10.625,3.671875 -4.640625,0 -9.796875,-1.609375 -5.140625,-1.609375 -11,-4.890625 l 0,9.96875 Q 13.765625,71.78125 18.9375,73 q 5.1875,1.21875 9.484375,1.21875 11.328125,0 18.0625,-5.671875 6.734375,-5.65625 6.734375,-15.125 0,-4.5 -1.6875,-8.53125 Q 49.859375,40.875 45.40625,35.40625 44.1875,33.984375 37.640625,27.21875 31.109375,20.453125 19.1875,8.296875"
                   id="BitstreamVeraSans-Roman-32" />
                <path
                   inkscape:connector-curvature="0"
                   d="m 12.40625,8.296875 16.109375,0 0,55.625 -17.53125,-3.515625 0,8.984375 17.4375,3.515625 9.859375,0 0,-64.609375 16.109375,0 0,-8.296875 -41.984375,0 z"
                   id="BitstreamVeraSans-Roman-31" />
                <path
                   inkscape:connector-curvature="0"
                   d="M 10.6875,12.40625 21,12.40625 21,0 10.6875,0 Z"
                   id="BitstreamVeraSans-Roman-2e" />
              </defs>
              <g
                 transform="matrix(0.12,0,0,-0.12,109.17852,400.29813)"
                 id="g58">
                <use
                   height="100%"
                   width="100%"
                   y="0"
                   x="0"
                   xlink:href="#BitstreamVeraSans-Roman-31"
                   id="use60" />
                <use
                   height="100%"
                   width="100%"
                   y="0"
                   x="63.623047"
                   xlink:href="#BitstreamVeraSans-Roman-2e"
                   id="use62" />
                <use
                   height="100%"
                   width="100%"
                   y="0"
                   x="95.410156"
                   xlink:href="#BitstreamVeraSans-Roman-32"
                   id="use64" />
              </g>
            </g>
          </g>
          <g
             id="xtick_2">
            <g
               id="line2d_5">
              <g
                 id="g68">
                <use
                   height="100%"
                   width="100%"
                   style="stroke:#000000;stroke-width:0.5"
                   x="173.26939"
                   xlink:href="#m36fb7d75bf"
                   y="387.17999"
                   id="use70" />
              </g>
            </g>
            <g
               id="line2d_6">
              <g
                 id="g73">
                <use
                   height="100%"
                   width="100%"
                   style="stroke:#000000;stroke-width:0.5"
                   x="173.26939"
                   xlink:href="#m504980d691"
                   y="43.02"
                   id="use75" />
              </g>
            </g>
            <g
               id="text_2">
              <!-- 1.4 -->
              <defs
                 id="defs78">
                <path
                   inkscape:connector-curvature="0"
                   d="m 37.796875,64.3125 -24.90625,-38.921875 24.90625,0 z m -2.59375,8.59375 12.40625,0 0,-47.515625 10.40625,0 0,-8.203125 -10.40625,0 0,-17.1875 -9.8125,0 0,17.1875 -32.90625,0 0,9.515625 z"
                   id="BitstreamVeraSans-Roman-34" />
              </defs>
              <g
                 transform="matrix(0.12,0,0,-0.12,163.72753,400.29813)"
                 id="g81">
                <use
                   height="100%"
                   width="100%"
                   y="0"
                   x="0"
                   xlink:href="#BitstreamVeraSans-Roman-31"
                   id="use83" />
                <use
                   height="100%"
                   width="100%"
                   y="0"
                   x="63.623047"
                   xlink:href="#BitstreamVeraSans-Roman-2e"
                   id="use85" />
                <use
                   height="100%"
                   width="100%"
                   y="0"
                   x="95.410156"
                   xlink:href="#BitstreamVeraSans-Roman-34"
                   id="use87" />
              </g>
            </g>
          </g>
          <g
             id="xtick_3">
            <g
               id="line2d_7">
              <g
                 id="g91">
                <use
                   height="100%"
                   width="100%"
                   style="stroke:#000000;stroke-width:0.5"
                   x="227.81841"
                   xlink:href="#m36fb7d75bf"
                   y="387.17999"
                   id="use93" />
              </g>
            </g>
            <g
               id="line2d_8">
              <g
                 id="g96">
                <use
                   height="100%"
                   width="100%"
                   style="stroke:#000000;stroke-width:0.5"
                   x="227.81841"
                   xlink:href="#m504980d691"
                   y="43.02"
                   id="use98" />
              </g>
            </g>
            <g
               id="text_3">
              <!-- 1.6 -->
              <defs
                 id="defs101">
                <path
                   inkscape:connector-curvature="0"
                   d="m 33.015625,40.375 q -6.640625,0 -10.53125,-4.546875 -3.875,-4.53125 -3.875,-12.4375 0,-7.859375 3.875,-12.4375 3.890625,-4.5625 10.53125,-4.5625 6.640625,0 10.515625,4.5625 3.875,4.578125 3.875,12.4375 0,7.90625 -3.875,12.4375 Q 39.65625,40.375 33.015625,40.375 m 19.578125,30.921875 0,-8.984375 q -3.71875,1.75 -7.5,2.671875 -3.78125,0.9375 -7.5,0.9375 -9.765625,0 -14.921875,-6.59375 -5.140625,-6.59375 -5.875,-19.921875 2.875,4.25 7.21875,6.515625 4.359375,2.265625 9.578125,2.265625 10.984375,0 17.359375,-6.671875 6.375,-6.65625 6.375,-18.125 0,-11.234375 -6.640625,-18.03125 -6.640625,-6.78125 -17.671875,-6.78125 -12.65625,0 -19.34375,9.6875 -6.6875,9.703125 -6.6875,28.109375 0,17.28125 8.203125,27.5625 8.203125,10.28125 22.015625,10.28125 3.71875,0 7.5,-0.734375 3.78125,-0.734375 7.890625,-2.1875"
                   id="BitstreamVeraSans-Roman-36" />
              </defs>
              <g
                 transform="matrix(0.12,0,0,-0.12,218.27653,400.29813)"
                 id="g104">
                <use
                   height="100%"
                   width="100%"
                   y="0"
                   x="0"
                   xlink:href="#BitstreamVeraSans-Roman-31"
                   id="use106" />
                <use
                   height="100%"
                   width="100%"
                   y="0"
                   x="63.623047"
                   xlink:href="#BitstreamVeraSans-Roman-2e"
                   id="use108" />
                <use
                   height="100%"
                   width="100%"
                   y="0"
                   x="95.410156"
                   xlink:href="#BitstreamVeraSans-Roman-36"
                   id="use110" />
              </g>
            </g>
          </g>
          <g
             id="xtick_4">
            <g
               id="line2d_9">
              <g
                 id="g114">
                <use
                   height="100%"
                   width="100%"
                   style="stroke:#000000;stroke-width:0.5"
                   x="282.3674"
                   xlink:href="#m36fb7d75bf"
                   y="387.17999"
                   id="use116" />
              </g>
            </g>
            <g
               id="line2d_10">
              <g
                 id="g119">
                <use
                   height="100%"
                   width="100%"
                   style="stroke:#000000;stroke-width:0.5"
                   x="282.3674"
                   xlink:href="#m504980d691"
                   y="43.02"
                   id="use121" />
              </g>
            </g>
            <g
               id="text_4">
              <!-- 1.8 -->
              <defs
                 id="defs124">
                <path
                   inkscape:connector-curvature="0"
                   d="m 31.78125,34.625 q -7.03125,0 -11.0625,-3.765625 -4.015625,-3.765625 -4.015625,-10.34375 0,-6.59375 4.015625,-10.359375 4.03125,-3.765625 11.0625,-3.765625 7.03125,0 11.078125,3.78125 4.0625,3.796875 4.0625,10.34375 0,6.578125 -4.03125,10.34375 Q 38.875,34.625 31.78125,34.625 m -9.859375,4.1875 Q 15.578125,40.375 12.03125,44.71875 8.5,49.078125 8.5,55.328125 q 0,8.734375 6.21875,13.8125 6.234375,5.078125 17.0625,5.078125 10.890625,0 17.09375,-5.078125 6.203125,-5.078125 6.203125,-13.8125 0,-6.25 -3.546875,-10.609375 Q 48,40.375 41.703125,38.8125 q 7.125,-1.65625 11.09375,-6.5 3.984375,-4.828125 3.984375,-11.796875 0,-10.609375 -6.46875,-16.28125 -6.46875,-5.65625 -18.53125,-5.65625 -12.046875,0 -18.53125,5.65625 -6.46875,5.671875 -6.46875,16.28125 0,6.96875 4,11.796875 4.015625,4.84375 11.140625,6.5 M 18.3125,54.390625 q 0,-5.65625 3.53125,-8.828125 3.546875,-3.171875 9.9375,-3.171875 6.359375,0 9.9375,3.171875 3.59375,3.171875 3.59375,8.828125 0,5.671875 -3.59375,8.84375 -3.578125,3.171875 -9.9375,3.171875 -6.390625,0 -9.9375,-3.171875 Q 18.3125,60.0625 18.3125,54.390625"
                   id="BitstreamVeraSans-Roman-38" />
              </defs>
              <g
                 transform="matrix(0.12,0,0,-0.12,272.82553,400.29813)"
                 id="g127">
                <use
                   height="100%"
                   width="100%"
                   y="0"
                   x="0"
                   xlink:href="#BitstreamVeraSans-Roman-31"
                   id="use129" />
                <use
                   height="100%"
                   width="100%"
                   y="0"
                   x="63.623047"
                   xlink:href="#BitstreamVeraSans-Roman-2e"
                   id="use131" />
                <use
                   height="100%"
                   width="100%"
                   y="0"
                   x="95.410156"
                   xlink:href="#BitstreamVeraSans-Roman-38"
                   id="use133" />
              </g>
            </g>
          </g>
          <g
             id="xtick_5">
            <g
               id="line2d_11">
              <g
                 id="g137">
                <use
                   height="100%"
                   width="100%"
                   style="stroke:#000000;stroke-width:0.5"
                   x="336.91641"
                   xlink:href="#m36fb7d75bf"
                   y="387.17999"
                   id="use139" />
              </g>
            </g>
            <g
               id="line2d_12">
              <g
                 id="g142">
                <use
                   height="100%"
                   width="100%"
                   style="stroke:#000000;stroke-width:0.5"
                   x="336.91641"
                   xlink:href="#m504980d691"
                   y="43.02"
                   id="use144" />
              </g>
            </g>
            <g
               id="text_5">
              <!-- 2.0 -->
              <defs
                 id="defs147">
                <path
                   inkscape:connector-curvature="0"
                   d="m 31.78125,66.40625 q -7.609375,0 -11.453125,-7.5 Q 16.5,51.421875 16.5,36.375 q 0,-14.984375 3.828125,-22.484375 3.84375,-7.5 11.453125,-7.5 7.671875,0 11.5,7.5 3.84375,7.5 3.84375,22.484375 0,15.046875 -3.84375,22.53125 -3.828125,7.5 -11.5,7.5 m 0,7.8125 q 12.265625,0 18.734375,-9.703125 6.46875,-9.6875 6.46875,-28.140625 0,-18.40625 -6.46875,-28.109375 -6.46875,-9.6875 -18.734375,-9.6875 -12.25,0 -18.71875,9.6875 Q 6.59375,17.96875 6.59375,36.375 q 0,18.453125 6.46875,28.140625 6.46875,9.703125 18.71875,9.703125"
                   id="BitstreamVeraSans-Roman-30" />
              </defs>
              <g
                 transform="matrix(0.12,0,0,-0.12,327.37453,400.29813)"
                 id="g150">
                <use
                   height="100%"
                   width="100%"
                   y="0"
                   x="0"
                   xlink:href="#BitstreamVeraSans-Roman-32"
                   id="use152" />
                <use
                   height="100%"
                   width="100%"
                   y="0"
                   x="63.623047"
                   xlink:href="#BitstreamVeraSans-Roman-2e"
                   id="use154" />
                <use
                   height="100%"
                   width="100%"
                   y="0"
                   x="95.410156"
                   xlink:href="#BitstreamVeraSans-Roman-30"
                   id="use156" />
              </g>
            </g>
          </g>
          <g
             id="xtick_6">
            <g
               id="line2d_13">
              <g
                 id="g160">
                <use
                   height="100%"
                   width="100%"
                   style="stroke:#000000;stroke-width:0.5"
                   x="391.46542"
                   xlink:href="#m36fb7d75bf"
                   y="387.17999"
                   id="use162" />
              </g>
            </g>
            <g
               id="line2d_14">
              <g
                 id="g165">
                <use
                   height="100%"
                   width="100%"
                   style="stroke:#000000;stroke-width:0.5"
                   x="391.46542"
                   xlink:href="#m504980d691"
                   y="43.02"
                   id="use167" />
              </g>
            </g>
            <g
               id="text_6">
              <!-- 2.2 -->
              <g
                 transform="matrix(0.12,0,0,-0.12,381.92354,400.29813)"
                 id="g170">
                <use
                   height="100%"
                   width="100%"
                   y="0"
                   x="0"
                   xlink:href="#BitstreamVeraSans-Roman-32"
                   id="use172" />
                <use
                   height="100%"
                   width="100%"
                   y="0"
                   x="63.623047"
                   xlink:href="#BitstreamVeraSans-Roman-2e"
                   id="use174" />
                <use
                   height="100%"
                   width="100%"
                   y="0"
                   x="95.410156"
                   xlink:href="#BitstreamVeraSans-Roman-32"
                   id="use176" />
              </g>
            </g>
          </g>
          <g
             id="xtick_7">
            <g
               id="line2d_15">
              <g
                 id="g180">
                <use
                   height="100%"
                   width="100%"
                   style="stroke:#000000;stroke-width:0.5"
                   x="446.0144"
                   xlink:href="#m36fb7d75bf"
                   y="387.17999"
                   id="use182" />
              </g>
            </g>
            <g
               id="line2d_16">
              <g
                 id="g185">
                <use
                   height="100%"
                   width="100%"
                   style="stroke:#000000;stroke-width:0.5"
                   x="446.0144"
                   xlink:href="#m504980d691"
                   y="43.02"
                   id="use187" />
              </g>
            </g>
            <g
               id="text_7">
              <!-- 2.4 -->
              <g
                 transform="matrix(0.12,0,0,-0.12,436.47254,400.29813)"
                 id="g190">
                <use
                   height="100%"
                   width="100%"
                   y="0"
                   x="0"
                   xlink:href="#BitstreamVeraSans-Roman-32"
                   id="use192" />
                <use
                   height="100%"
                   width="100%"
                   y="0"
                   x="63.623047"
                   xlink:href="#BitstreamVeraSans-Roman-2e"
                   id="use194" />
                <use
                   height="100%"
                   width="100%"
                   y="0"
                   x="95.410156"
                   xlink:href="#BitstreamVeraSans-Roman-34"
                   id="use196" />
              </g>
            </g>
          </g>
          <g
             id="xtick_8">
            <g
               id="line2d_17">
              <g
                 id="g200">
                <use
                   height="100%"
                   width="100%"
                   style="stroke:#000000;stroke-width:0.5"
                   x="500.56342"
                   xlink:href="#m36fb7d75bf"
                   y="387.17999"
                   id="use202" />
              </g>
            </g>
            <g
               id="line2d_18">
              <g
                 id="g205">
                <use
                   height="100%"
                   width="100%"
                   style="stroke:#000000;stroke-width:0.5"
                   x="500.56342"
                   xlink:href="#m504980d691"
                   y="43.02"
                   id="use207" />
              </g>
            </g>
            <g
               id="text_8">
              <!-- 2.6 -->
              <g
                 transform="matrix(0.12,0,0,-0.12,491.02154,400.29813)"
                 id="g210">
                <use
                   height="100%"
                   width="100%"
                   y="0"
                   x="0"
                   xlink:href="#BitstreamVeraSans-Roman-32"
                   id="use212" />
                <use
                   height="100%"
                   width="100%"
                   y="0"
                   x="63.623047"
                   xlink:href="#BitstreamVeraSans-Roman-2e"
                   id="use214" />
                <use
                   height="100%"
                   width="100%"
                   y="0"
                   x="95.410156"
                   xlink:href="#BitstreamVeraSans-Roman-36"
                   id="use216" />
              </g>
            </g>
          </g>
        </g>
        <g
           id="matplotlib.axis_2">
          <g
             id="ytick_1">
            <g
               id="line2d_19">
              <defs
                 id="defs221">
                <path
                   inkscape:connector-curvature="0"
                   d="M 0,0 4,0"
                   id="m0c5fcbabe4"
                   style="stroke:#000000;stroke-width:0.5" />
              </defs>
              <g
                 id="g224">
                <use
                   height="100%"
                   width="100%"
                   style="stroke:#000000;stroke-width:0.5"
                   x="72"
                   xlink:href="#m0c5fcbabe4"
                   y="382.0401"
                   id="use226" />
              </g>
            </g>
            <g
               id="line2d_20">
              <defs
                 id="defs229">
                <path
                   inkscape:connector-curvature="0"
                   d="M 0,0 -4,0"
                   id="m2faffdf717"
                   style="stroke:#000000;stroke-width:0.5" />
              </defs>
              <g
                 id="g232">
                <use
                   height="100%"
                   width="100%"
                   style="stroke:#000000;stroke-width:0.5"
                   x="518.40002"
                   xlink:href="#m2faffdf717"
                   y="382.0401"
                   id="use234" />
              </g>
            </g>
            <g
               id="text_9">
              <!-- 0.0 -->
              <g
                 transform="matrix(0.12,0,0,-0.12,48.91625,385.35134)"
                 id="g237">
                <use
                   height="100%"
                   width="100%"
                   y="0"
                   x="0"
                   xlink:href="#BitstreamVeraSans-Roman-30"
                   id="use239" />
                <use
                   height="100%"
                   width="100%"
                   y="0"
                   x="63.623047"
                   xlink:href="#BitstreamVeraSans-Roman-2e"
                   id="use241" />
                <use
                   height="100%"
                   width="100%"
                   y="0"
                   x="95.410156"
                   xlink:href="#BitstreamVeraSans-Roman-30"
                   id="use243" />
              </g>
            </g>
          </g>
          <g
             id="ytick_2">
            <g
               id="line2d_21">
              <g
                 id="g247">
                <use
                   height="100%"
                   width="100%"
                   style="stroke:#000000;stroke-width:0.5"
                   x="72"
                   xlink:href="#m0c5fcbabe4"
                   y="320.42642"
                   id="use249" />
              </g>
            </g>
            <g
               id="line2d_22">
              <g
                 id="g252">
                <use
                   height="100%"
                   width="100%"
                   style="stroke:#000000;stroke-width:0.5"
                   x="518.40002"
                   xlink:href="#m2faffdf717"
                   y="320.42642"
                   id="use254" />
              </g>
            </g>
            <g
               id="text_10">
              <!-- 0.5 -->
              <defs
                 id="defs257">
                <path
                   inkscape:connector-curvature="0"
                   d="m 10.796875,72.90625 38.71875,0 0,-8.3125 -29.6875,0 0,-17.859375 q 2.140625,0.734375 4.28125,1.09375 2.15625,0.359375 4.3125,0.359375 Q 40.625,48.1875 47.75,41.5 54.890625,34.8125 54.890625,23.390625 54.890625,11.625 47.5625,5.09375 40.234375,-1.421875 26.90625,-1.421875 q -4.59375,0 -9.359375,0.78125 -4.75,0.78125 -9.828125,2.34375 l 0,9.921875 q 4.390625,-2.390625 9.078125,-3.5625 4.6875,-1.171875 9.90625,-1.171875 8.453125,0 13.375,4.4375 4.9375,4.4375 4.9375,12.0625 0,7.609375 -4.9375,12.046875 -4.921875,4.453125 -13.375,4.453125 -3.953125,0 -7.890625,-0.875 -3.921875,-0.875 -8.015625,-2.734375 z"
                   id="BitstreamVeraSans-Roman-35" />
              </defs>
              <g
                 transform="matrix(0.12,0,0,-0.12,48.91625,323.73768)"
                 id="g260">
                <use
                   height="100%"
                   width="100%"
                   y="0"
                   x="0"
                   xlink:href="#BitstreamVeraSans-Roman-30"
                   id="use262" />
                <use
                   height="100%"
                   width="100%"
                   y="0"
                   x="63.623047"
                   xlink:href="#BitstreamVeraSans-Roman-2e"
                   id="use264" />
                <use
                   height="100%"
                   width="100%"
                   y="0"
                   x="95.410156"
                   xlink:href="#BitstreamVeraSans-Roman-35"
                   id="use266" />
              </g>
            </g>
          </g>
          <g
             id="ytick_3">
            <g
               id="line2d_23">
              <g
                 id="g270">
                <use
                   height="100%"
                   width="100%"
                   style="stroke:#000000;stroke-width:0.5"
                   x="72"
                   xlink:href="#m0c5fcbabe4"
                   y="258.81277"
                   id="use272" />
              </g>
            </g>
            <g
               id="line2d_24">
              <g
                 id="g275">
                <use
                   height="100%"
                   width="100%"
                   style="stroke:#000000;stroke-width:0.5"
                   x="518.40002"
                   xlink:href="#m2faffdf717"
                   y="258.81277"
                   id="use277" />
              </g>
            </g>
            <g
               id="text_11">
              <!-- 1.0 -->
              <g
                 transform="matrix(0.12,0,0,-0.12,48.91625,262.12401)"
                 id="g280">
                <use
                   height="100%"
                   width="100%"
                   y="0"
                   x="0"
                   xlink:href="#BitstreamVeraSans-Roman-31"
                   id="use282" />
                <use
                   height="100%"
                   width="100%"
                   y="0"
                   x="63.623047"
                   xlink:href="#BitstreamVeraSans-Roman-2e"
                   id="use284" />
                <use
                   height="100%"
                   width="100%"
                   y="0"
                   x="95.410156"
                   xlink:href="#BitstreamVeraSans-Roman-30"
                   id="use286" />
              </g>
            </g>
          </g>
          <g
             id="ytick_4">
            <g
               id="line2d_25">
              <g
                 id="g290">
                <use
                   height="100%"
                   width="100%"
                   style="stroke:#000000;stroke-width:0.5"
                   x="72"
                   xlink:href="#m0c5fcbabe4"
                   y="197.1991"
                   id="use292" />
              </g>
            </g>
            <g
               id="line2d_26">
              <g
                 id="g295">
                <use
                   height="100%"
                   width="100%"
                   style="stroke:#000000;stroke-width:0.5"
                   x="518.40002"
                   xlink:href="#m2faffdf717"
                   y="197.1991"
                   id="use297" />
              </g>
            </g>
            <g
               id="text_12">
              <!-- 1.5 -->
              <g
                 transform="matrix(0.12,0,0,-0.12,48.91625,200.51035)"
                 id="g300">
                <use
                   height="100%"
                   width="100%"
                   y="0"
                   x="0"
                   xlink:href="#BitstreamVeraSans-Roman-31"
                   id="use302" />
                <use
                   height="100%"
                   width="100%"
                   y="0"
                   x="63.623047"
                   xlink:href="#BitstreamVeraSans-Roman-2e"
                   id="use304" />
                <use
                   height="100%"
                   width="100%"
                   y="0"
                   x="95.410156"
                   xlink:href="#BitstreamVeraSans-Roman-35"
                   id="use306" />
              </g>
            </g>
          </g>
          <g
             id="ytick_5">
            <g
               id="line2d_27">
              <g
                 id="g310">
                <use
                   height="100%"
                   width="100%"
                   style="stroke:#000000;stroke-width:0.5"
                   x="72"
                   xlink:href="#m0c5fcbabe4"
                   y="135.58543"
                   id="use312" />
              </g>
            </g>
            <g
               id="line2d_28">
              <g
                 id="g315">
                <use
                   height="100%"
                   width="100%"
                   style="stroke:#000000;stroke-width:0.5"
                   x="518.40002"
                   xlink:href="#m2faffdf717"
                   y="135.58543"
                   id="use317" />
              </g>
            </g>
            <g
               id="text_13">
              <!-- 2.0 -->
              <g
                 transform="matrix(0.12,0,0,-0.12,48.91625,138.89669)"
                 id="g320">
                <use
                   height="100%"
                   width="100%"
                   y="0"
                   x="0"
                   xlink:href="#BitstreamVeraSans-Roman-32"
                   id="use322" />
                <use
                   height="100%"
                   width="100%"
                   y="0"
                   x="63.623047"
                   xlink:href="#BitstreamVeraSans-Roman-2e"
                   id="use324" />
                <use
                   height="100%"
                   width="100%"
                   y="0"
                   x="95.410156"
                   xlink:href="#BitstreamVeraSans-Roman-30"
                   id="use326" />
              </g>
            </g>
          </g>
          <g
             id="ytick_6">
            <g
               id="line2d_29">
              <g
                 id="g330">
                <use
                   height="100%"
                   width="100%"
                   style="stroke:#000000;stroke-width:0.5"
                   x="72"
                   xlink:href="#m0c5fcbabe4"
                   y="73.971779"
                   id="use332" />
              </g>
            </g>
            <g
               id="line2d_30">
              <g
                 id="g335">
                <use
                   height="100%"
                   width="100%"
                   style="stroke:#000000;stroke-width:0.5"
                   x="518.40002"
                   xlink:href="#m2faffdf717"
                   y="73.971779"
                   id="use337" />
              </g>
            </g>
            <g
               id="text_14">
              <!-- 2.5 -->
              <g
                 transform="matrix(0.12,0,0,-0.12,48.91625,77.283025)"
                 id="g340">
                <use
                   height="100%"
                   width="100%"
                   y="0"
                   x="0"
                   xlink:href="#BitstreamVeraSans-Roman-32"
                   id="use342" />
                <use
                   height="100%"
                   width="100%"
                   y="0"
                   x="63.623047"
                   xlink:href="#BitstreamVeraSans-Roman-2e"
                   id="use344" />
                <use
                   height="100%"
                   width="100%"
                   y="0"
                   x="95.410156"
                   xlink:href="#BitstreamVeraSans-Roman-35"
                   id="use346" />
              </g>
            </g>
          </g>
        </g>
      </g>
    </g>
  </g>
</svg>
