<?xml version="1.0" encoding="utf-8" standalone="no"?>
<!DOCTYPE svg PUBLIC "-//W3C//DTD SVG 1.1//EN"
  "http://www.w3.org/Graphics/SVG/1.1/DTD/svg11.dtd">
<!-- Created with matplotlib (http://matplotlib.org/) -->
<svg height="867pt" version="1.1" viewBox="0 0 1728 867" width="1728pt" xmlns="http://www.w3.org/2000/svg" xmlns:xlink="http://www.w3.org/1999/xlink">
 <defs>
  <style type="text/css">
*{stroke-linecap:butt;stroke-linejoin:round;stroke-miterlimit:100000;}
  </style>
 </defs>
 <g id="figure_1">
  <g id="patch_1">
   <path d="M 0 867.6 
L 1728 867.6 
L 1728 0 
L 0 0 
z
" style="fill:#ffffff;"/>
  </g>
  <g id="axes_1">
   <g id="patch_2">
    <path d="M 212.544 782.5752 
L 1555.2 782.5752 
L 1555.2 86.76 
L 212.544 86.76 
z
" style="fill:#ffffff;"/>
   </g>
   <g id="line2d_1">
    <path clip-path="url(#p5bf5395f15)" d="M 220.582146 742.326041 
L 227.261413 740.191433 
L 233.940679 739.205937 
L 240.619946 739.366432 
L 247.299213 740.448782 
L 260.657746 743.739527 
L 267.337012 745.053373 
L 274.016279 745.689954 
L 280.695545 745.495623 
L 287.374812 744.470946 
L 294.054078 742.731296 
L 300.733345 740.452439 
L 307.412611 737.819074 
L 320.771145 732.057149 
L 334.129678 726.014264 
L 340.808944 722.840326 
L 360.846744 712.817699 
L 367.52601 709.924132 
L 374.205277 707.824214 
L 380.884544 706.853737 
L 387.56381 707.173282 
L 394.243077 708.678332 
L 400.922343 710.985711 
L 407.60161 713.501017 
L 414.280876 715.538941 
L 420.960143 716.453223 
L 427.639409 715.740481 
L 434.318676 713.103617 
L 440.997942 708.480697 
L 447.677209 702.052642 
L 454.356476 694.236459 
L 467.715009 677.089489 
L 474.394275 669.346321 
L 481.073542 663.148596 
L 487.752808 658.984244 
L 494.432075 657.015034 
L 501.111341 657.061371 
L 507.790608 658.671126 
L 514.469875 661.241683 
L 521.149141 664.142317 
L 527.828408 666.790575 
L 534.507674 668.668952 
L 541.186941 669.306998 
L 547.866207 668.274418 
L 554.545474 665.219566 
L 561.22474 659.952787 
L 567.904007 652.538619 
L 574.583273 643.347748 
L 581.26254 633.035671 
L 587.941807 622.447884 
L 594.621073 612.479472 
L 601.30034 603.925598 
L 607.979606 597.350324 
L 614.658873 592.98818 
L 621.338139 590.688965 
L 628.017406 589.92138 
L 634.696672 589.853059 
L 641.375939 589.510266 
L 648.055206 587.989509 
L 654.734472 584.662078 
L 661.413739 579.303773 
L 668.093005 572.107895 
L 674.772272 563.589379 
L 688.130805 545.350124 
L 694.810071 536.985609 
L 701.489338 529.866225 
L 708.168604 524.363237 
L 714.847871 520.643658 
L 721.527138 518.622417 
L 728.206404 517.954569 
L 734.885671 518.100775 
L 741.564937 518.459717 
L 748.244204 518.516986 
L 754.92347 517.945364 
L 761.602737 516.618695 
L 768.282003 514.55152 
L 774.96127 511.814388 
L 781.640537 508.475931 
L 788.319803 504.590743 
L 794.99907 500.213194 
L 801.678336 495.400318 
L 808.357603 490.183138 
L 815.036869 484.522315 
L 821.716136 478.293048 
L 828.395402 471.341754 
L 835.074669 463.618692 
L 848.433202 447.068926 
L 855.112469 439.714069 
L 861.791735 434.306161 
L 868.471002 431.736585 
L 875.150268 432.4986 
L 881.829535 436.564724 
L 888.508801 443.444139 
L 895.188068 452.383482 
L 901.867334 462.614258 
L 908.546601 473.543139 
L 921.905134 496.313841 
L 941.942934 531.321004 
L 948.6222 542.583312 
L 955.301467 553.122111 
L 961.980733 562.573771 
L 968.66 570.618708 
L 975.339267 577.018826 
L 982.018533 581.633239 
L 988.6978 584.418914 
L 995.377066 585.424228 
L 1002.056333 584.777045 
L 1008.735599 582.661399 
L 1015.414866 579.277205 
L 1022.094132 574.789663 
L 1028.773399 569.292622 
L 1035.452665 562.818031 
L 1042.131932 555.408803 
L 1048.811199 547.235994 
L 1055.490465 538.702237 
L 1062.169732 530.458966 
L 1068.848998 523.292374 
L 1075.528265 517.895309 
L 1082.207531 514.608799 
L 1088.886798 513.250041 
L 1095.566064 513.121193 
L 1102.245331 513.221818 
L 1108.924598 512.60008 
L 1115.603864 510.714556 
L 1122.283131 507.668164 
L 1128.962397 504.221705 
L 1135.641664 501.576265 
L 1142.32093 500.998082 
L 1149.000197 503.414875 
L 1155.679463 509.120419 
L 1162.35873 517.683638 
L 1169.037996 528.08593 
L 1175.717263 539.032496 
L 1182.39653 549.327624 
L 1189.075796 558.188743 
L 1195.755063 565.402996 
L 1202.434329 571.290822 
L 1215.792862 581.789485 
L 1222.472129 587.685229 
L 1229.151395 594.450464 
L 1235.830662 602.02728 
L 1255.868462 626.439894 
L 1262.547728 633.920377 
L 1269.226995 640.569015 
L 1275.906261 646.184381 
L 1282.585528 650.669085 
L 1289.264794 654.076223 
L 1295.944061 656.638514 
L 1309.302594 660.850718 
L 1315.981861 663.347605 
L 1322.661127 666.440036 
L 1329.340394 670.0882 
L 1342.698927 677.961559 
L 1349.378193 681.551152 
L 1356.05746 684.684052 
L 1362.736726 687.4358 
L 1369.415993 690.041993 
L 1376.09526 692.800959 
L 1382.774526 695.96819 
L 1389.453793 699.682479 
L 1396.133059 703.941934 
L 1402.812326 708.624028 
L 1416.170859 718.42651 
L 1422.850125 723.086801 
L 1429.529392 727.301235 
L 1436.208659 730.888255 
L 1442.887925 733.697533 
L 1449.567192 735.618398 
L 1456.246458 736.597556 
L 1462.925725 736.665006 
L 1469.604991 735.95931 
L 1476.284258 734.737237 
L 1482.963524 733.353113 
L 1489.642791 732.20281 
L 1496.322057 731.643545 
L 1503.001324 731.915285 
L 1509.680591 733.09333 
L 1516.359857 735.09053 
L 1523.039124 737.706359 
L 1529.71839 740.699936 
L 1549.75619 750.099193 
L 1549.75619 750.099193 
" style="fill:none;stroke:#0000ff;stroke-linecap:square;"/>
   </g>
   <g id="line2d_2">
    <path clip-path="url(#p5bf5395f15)" d="M 276.321656 755.335044 
L 281.833129 755.868659 
L 287.344602 757.326243 
L 303.879021 763.348399 
L 309.390494 764.784728 
L 314.901967 765.746951 
L 320.41344 766.309285 
L 325.924913 766.576442 
L 331.436386 766.629133 
L 336.947859 766.499849 
L 342.459332 766.175733 
L 347.970805 765.622386 
L 353.482278 764.822129 
L 370.016697 761.725052 
L 375.52817 761.006073 
L 381.039643 760.64715 
L 392.062589 760.443692 
L 397.574062 759.88631 
L 403.085535 758.426129 
L 408.597008 755.691249 
L 414.108481 751.484036 
L 419.619954 745.827854 
L 425.131426 738.975847 
L 436.154372 723.703499 
L 441.665845 716.627098 
L 447.177318 710.845377 
L 452.688791 706.861142 
L 458.200264 704.859872 
L 463.711737 704.641642 
L 469.22321 705.666718 
L 474.734683 707.216207 
L 480.246156 708.618488 
L 485.757629 709.459772 
L 491.269102 709.697554 
L 496.780575 709.631521 
L 502.292048 709.748012 
L 507.803521 710.513725 
L 513.314994 712.214256 
L 518.826467 714.895119 
L 524.33794 718.392088 
L 535.360886 726.43696 
L 540.872359 729.969572 
L 546.383832 732.313141 
L 551.895305 732.799699 
L 557.406778 730.940841 
L 562.918251 726.592125 
L 568.429724 720.007589 
L 573.941197 711.748455 
L 579.45267 702.511362 
L 584.964143 692.998193 
L 590.475616 683.904408 
L 595.987089 675.977757 
L 601.498562 669.994954 
L 607.010035 666.529666 
L 612.521508 665.559008 
L 618.032981 666.158241 
L 623.544454 666.58152 
L 629.055927 664.832036 
L 634.5674 659.49732 
L 640.078873 650.406317 
L 645.590346 638.732672 
L 651.101819 626.490139 
L 656.613292 615.720804 
L 662.124765 607.82775 
L 667.636238 603.363091 
L 673.147711 602.259948 
L 678.659184 604.216882 
L 684.170657 608.894074 
L 689.68213 615.7873 
L 695.193603 623.947392 
L 700.705076 631.874124 
L 706.216549 637.803633 
L 711.728022 640.307145 
L 717.239495 638.855859 
L 722.750968 633.985581 
L 728.262441 626.938971 
L 739.285387 610.920831 
L 744.79686 602.748597 
L 750.308333 594.069212 
L 755.819806 584.440356 
L 761.331279 573.746871 
L 772.354225 551.101378 
L 777.865698 541.104457 
L 783.377171 533.463507 
L 788.888644 528.79323 
L 794.400117 526.830141 
L 805.423063 525.872793 
L 810.934536 524.002081 
L 816.446009 520.448854 
L 821.957482 515.715626 
L 827.468955 510.404435 
L 832.980428 504.390479 
L 838.491901 496.60073 
L 844.003374 485.663065 
L 849.514847 470.995486 
L 855.02632 453.50037 
L 860.537793 435.271969 
L 866.049266 418.452947 
L 871.560738 404.018208 
L 882.583684 378.639561 
L 888.095157 364.378909 
L 893.60663 347.982219 
L 904.629576 312.260308 
L 910.141049 295.434102 
L 915.652522 279.861422 
L 921.163995 264.676066 
L 926.675468 248.400147 
L 932.186941 229.683521 
L 937.698414 208.01888 
L 948.72136 160.156229 
L 954.232833 138.66897 
L 959.744306 122.194211 
L 965.255779 112.163679 
L 970.767252 108.691407 
L 976.278725 111.06094 
L 981.790198 118.63067 
L 987.301671 131.486408 
L 992.813144 150.328326 
L 998.324617 175.647165 
L 1003.83609 206.794531 
L 1020.370509 310.712045 
L 1025.881982 340.524626 
L 1031.393455 366.50662 
L 1036.904928 389.386004 
L 1042.416401 409.861221 
L 1047.927874 427.937774 
L 1053.439347 442.907484 
L 1058.95082 453.921293 
L 1064.462293 460.736422 
L 1069.973766 464.144066 
L 1075.485239 465.827439 
L 1080.996712 467.774054 
L 1086.508185 471.607671 
L 1092.019658 478.172471 
L 1097.531131 487.472684 
L 1103.042604 498.856385 
L 1114.06555 523.617228 
L 1119.577023 534.924751 
L 1125.088496 544.785918 
L 1130.599969 553.421778 
L 1147.134388 577.732381 
L 1152.645861 584.991475 
L 1158.157334 590.031807 
L 1163.668807 591.71144 
L 1169.18028 589.724635 
L 1174.691753 584.75445 
L 1185.714699 571.355249 
L 1191.226172 565.687626 
L 1196.737645 562.140142 
L 1202.249118 561.466292 
L 1207.760591 564.107163 
L 1213.272064 570.055539 
L 1218.783537 578.832647 
L 1224.29501 589.71636 
L 1229.806483 602.1237 
L 1235.317956 615.867266 
L 1240.829429 631.069467 
L 1246.340902 647.78617 
L 1257.363848 683.656651 
L 1262.875321 700.660529 
L 1268.386794 715.574637 
L 1273.898267 727.83125 
L 1279.40974 737.436427 
L 1284.921213 744.796798 
L 1290.432686 750.439502 
L 1295.944159 754.784805 
L 1301.455632 758.0567 
L 1306.967105 760.323871 
L 1312.478578 761.607027 
L 1317.99005 761.981902 
L 1323.501523 761.63093 
L 1329.012996 760.82758 
L 1340.035942 758.971711 
L 1345.547415 758.248588 
L 1351.058888 757.691839 
L 1356.570361 757.268031 
L 1362.081834 757.002868 
L 1367.593307 757.010933 
L 1373.10478 757.440584 
L 1373.10478 757.440584 
" style="fill:none;stroke:#008000;stroke-linecap:square;"/>
   </g>
   <g id="patch_3">
    <path d="M 212.544 86.76 
L 1555.2 86.76 
" style="fill:none;stroke:#000000;stroke-linecap:square;stroke-linejoin:miter;"/>
   </g>
   <g id="patch_4">
    <path d="M 1555.2 782.5752 
L 1555.2 86.76 
" style="fill:none;stroke:#000000;stroke-linecap:square;stroke-linejoin:miter;"/>
   </g>
   <g id="patch_5">
    <path d="M 212.544 782.5752 
L 1555.2 782.5752 
" style="fill:none;stroke:#000000;stroke-linecap:square;stroke-linejoin:miter;"/>
   </g>
   <g id="patch_6">
    <path d="M 212.544 782.5752 
L 212.544 86.76 
" style="fill:none;stroke:#000000;stroke-linecap:square;stroke-linejoin:miter;"/>
   </g>
   <g id="matplotlib.axis_1">
    <g id="xtick_1">
     <g id="line2d_3">
      <defs>
       <path d="M 0 0 
L 0 -4 
" id="m85a54595ea" style="stroke:#000000;stroke-width:0.5;"/>
      </defs>
      <g>
       <use style="stroke:#000000;stroke-width:0.5;" x="332.061226667" xlink:href="#m85a54595ea" y="782.5752"/>
      </g>
     </g>
     <g id="line2d_4">
      <defs>
       <path d="M 0 0 
L 0 4 
" id="m12a7a39e80" style="stroke:#000000;stroke-width:0.5;"/>
      </defs>
      <g>
       <use style="stroke:#000000;stroke-width:0.5;" x="332.061226667" xlink:href="#m12a7a39e80" y="86.76"/>
      </g>
     </g>
     <g id="text_1">
      <!-- 1.2 -->
      <defs>
       <path d="M 19.1875 8.296875 
L 53.609375 8.296875 
L 53.609375 0 
L 7.328125 0 
L 7.328125 8.296875 
Q 12.9375 14.109375 22.625 23.890625 
Q 32.328125 33.6875 34.8125 36.53125 
Q 39.546875 41.84375 41.421875 45.53125 
Q 43.3125 49.21875 43.3125 52.78125 
Q 43.3125 58.59375 39.234375 62.25 
Q 35.15625 65.921875 28.609375 65.921875 
Q 23.96875 65.921875 18.8125 64.3125 
Q 13.671875 62.703125 7.8125 59.421875 
L 7.8125 69.390625 
Q 13.765625 71.78125 18.9375 73 
Q 24.125 74.21875 28.421875 74.21875 
Q 39.75 74.21875 46.484375 68.546875 
Q 53.21875 62.890625 53.21875 53.421875 
Q 53.21875 48.921875 51.53125 44.890625 
Q 49.859375 40.875 45.40625 35.40625 
Q 44.1875 33.984375 37.640625 27.21875 
Q 31.109375 20.453125 19.1875 8.296875 
" id="BitstreamVeraSans-Roman-32"/>
       <path d="M 12.40625 8.296875 
L 28.515625 8.296875 
L 28.515625 63.921875 
L 10.984375 60.40625 
L 10.984375 69.390625 
L 28.421875 72.90625 
L 38.28125 72.90625 
L 38.28125 8.296875 
L 54.390625 8.296875 
L 54.390625 0 
L 12.40625 0 
z
" id="BitstreamVeraSans-Roman-31"/>
       <path d="M 10.6875 12.40625 
L 21 12.40625 
L 21 0 
L 10.6875 0 
z
" id="BitstreamVeraSans-Roman-2e"/>
      </defs>
      <g transform="translate(322.519351667 795.693325)scale(0.12 -0.12)">
       <use xlink:href="#BitstreamVeraSans-Roman-31"/>
       <use x="63.623046875" xlink:href="#BitstreamVeraSans-Roman-2e"/>
       <use x="95.41015625" xlink:href="#BitstreamVeraSans-Roman-32"/>
      </g>
     </g>
    </g>
    <g id="xtick_2">
     <g id="line2d_5">
      <g>
       <use style="stroke:#000000;stroke-width:0.5;" x="503.567573333" xlink:href="#m85a54595ea" y="782.5752"/>
      </g>
     </g>
     <g id="line2d_6">
      <g>
       <use style="stroke:#000000;stroke-width:0.5;" x="503.567573333" xlink:href="#m12a7a39e80" y="86.76"/>
      </g>
     </g>
     <g id="text_2">
      <!-- 1.4 -->
      <defs>
       <path d="M 37.796875 64.3125 
L 12.890625 25.390625 
L 37.796875 25.390625 
z
M 35.203125 72.90625 
L 47.609375 72.90625 
L 47.609375 25.390625 
L 58.015625 25.390625 
L 58.015625 17.1875 
L 47.609375 17.1875 
L 47.609375 0 
L 37.796875 0 
L 37.796875 17.1875 
L 4.890625 17.1875 
L 4.890625 26.703125 
z
" id="BitstreamVeraSans-Roman-34"/>
      </defs>
      <g transform="translate(494.025698333 795.693325)scale(0.12 -0.12)">
       <use xlink:href="#BitstreamVeraSans-Roman-31"/>
       <use x="63.623046875" xlink:href="#BitstreamVeraSans-Roman-2e"/>
       <use x="95.41015625" xlink:href="#BitstreamVeraSans-Roman-34"/>
      </g>
     </g>
    </g>
    <g id="xtick_3">
     <g id="line2d_7">
      <g>
       <use style="stroke:#000000;stroke-width:0.5;" x="675.07392" xlink:href="#m85a54595ea" y="782.5752"/>
      </g>
     </g>
     <g id="line2d_8">
      <g>
       <use style="stroke:#000000;stroke-width:0.5;" x="675.07392" xlink:href="#m12a7a39e80" y="86.76"/>
      </g>
     </g>
     <g id="text_3">
      <!-- 1.6 -->
      <defs>
       <path d="M 33.015625 40.375 
Q 26.375 40.375 22.484375 35.828125 
Q 18.609375 31.296875 18.609375 23.390625 
Q 18.609375 15.53125 22.484375 10.953125 
Q 26.375 6.390625 33.015625 6.390625 
Q 39.65625 6.390625 43.53125 10.953125 
Q 47.40625 15.53125 47.40625 23.390625 
Q 47.40625 31.296875 43.53125 35.828125 
Q 39.65625 40.375 33.015625 40.375 
M 52.59375 71.296875 
L 52.59375 62.3125 
Q 48.875 64.0625 45.09375 64.984375 
Q 41.3125 65.921875 37.59375 65.921875 
Q 27.828125 65.921875 22.671875 59.328125 
Q 17.53125 52.734375 16.796875 39.40625 
Q 19.671875 43.65625 24.015625 45.921875 
Q 28.375 48.1875 33.59375 48.1875 
Q 44.578125 48.1875 50.953125 41.515625 
Q 57.328125 34.859375 57.328125 23.390625 
Q 57.328125 12.15625 50.6875 5.359375 
Q 44.046875 -1.421875 33.015625 -1.421875 
Q 20.359375 -1.421875 13.671875 8.265625 
Q 6.984375 17.96875 6.984375 36.375 
Q 6.984375 53.65625 15.1875 63.9375 
Q 23.390625 74.21875 37.203125 74.21875 
Q 40.921875 74.21875 44.703125 73.484375 
Q 48.484375 72.75 52.59375 71.296875 
" id="BitstreamVeraSans-Roman-36"/>
      </defs>
      <g transform="translate(665.532045 795.693325)scale(0.12 -0.12)">
       <use xlink:href="#BitstreamVeraSans-Roman-31"/>
       <use x="63.623046875" xlink:href="#BitstreamVeraSans-Roman-2e"/>
       <use x="95.41015625" xlink:href="#BitstreamVeraSans-Roman-36"/>
      </g>
     </g>
    </g>
    <g id="xtick_4">
     <g id="line2d_9">
      <g>
       <use style="stroke:#000000;stroke-width:0.5;" x="846.580266667" xlink:href="#m85a54595ea" y="782.5752"/>
      </g>
     </g>
     <g id="line2d_10">
      <g>
       <use style="stroke:#000000;stroke-width:0.5;" x="846.580266667" xlink:href="#m12a7a39e80" y="86.76"/>
      </g>
     </g>
     <g id="text_4">
      <!-- 1.8 -->
      <defs>
       <path d="M 31.78125 34.625 
Q 24.75 34.625 20.71875 30.859375 
Q 16.703125 27.09375 16.703125 20.515625 
Q 16.703125 13.921875 20.71875 10.15625 
Q 24.75 6.390625 31.78125 6.390625 
Q 38.8125 6.390625 42.859375 10.171875 
Q 46.921875 13.96875 46.921875 20.515625 
Q 46.921875 27.09375 42.890625 30.859375 
Q 38.875 34.625 31.78125 34.625 
M 21.921875 38.8125 
Q 15.578125 40.375 12.03125 44.71875 
Q 8.5 49.078125 8.5 55.328125 
Q 8.5 64.0625 14.71875 69.140625 
Q 20.953125 74.21875 31.78125 74.21875 
Q 42.671875 74.21875 48.875 69.140625 
Q 55.078125 64.0625 55.078125 55.328125 
Q 55.078125 49.078125 51.53125 44.71875 
Q 48 40.375 41.703125 38.8125 
Q 48.828125 37.15625 52.796875 32.3125 
Q 56.78125 27.484375 56.78125 20.515625 
Q 56.78125 9.90625 50.3125 4.234375 
Q 43.84375 -1.421875 31.78125 -1.421875 
Q 19.734375 -1.421875 13.25 4.234375 
Q 6.78125 9.90625 6.78125 20.515625 
Q 6.78125 27.484375 10.78125 32.3125 
Q 14.796875 37.15625 21.921875 38.8125 
M 18.3125 54.390625 
Q 18.3125 48.734375 21.84375 45.5625 
Q 25.390625 42.390625 31.78125 42.390625 
Q 38.140625 42.390625 41.71875 45.5625 
Q 45.3125 48.734375 45.3125 54.390625 
Q 45.3125 60.0625 41.71875 63.234375 
Q 38.140625 66.40625 31.78125 66.40625 
Q 25.390625 66.40625 21.84375 63.234375 
Q 18.3125 60.0625 18.3125 54.390625 
" id="BitstreamVeraSans-Roman-38"/>
      </defs>
      <g transform="translate(837.038391667 795.693325)scale(0.12 -0.12)">
       <use xlink:href="#BitstreamVeraSans-Roman-31"/>
       <use x="63.623046875" xlink:href="#BitstreamVeraSans-Roman-2e"/>
       <use x="95.41015625" xlink:href="#BitstreamVeraSans-Roman-38"/>
      </g>
     </g>
    </g>
    <g id="xtick_5">
     <g id="line2d_11">
      <g>
       <use style="stroke:#000000;stroke-width:0.5;" x="1018.08661333" xlink:href="#m85a54595ea" y="782.5752"/>
      </g>
     </g>
     <g id="line2d_12">
      <g>
       <use style="stroke:#000000;stroke-width:0.5;" x="1018.08661333" xlink:href="#m12a7a39e80" y="86.76"/>
      </g>
     </g>
     <g id="text_5">
      <!-- 2.0 -->
      <defs>
       <path d="M 31.78125 66.40625 
Q 24.171875 66.40625 20.328125 58.90625 
Q 16.5 51.421875 16.5 36.375 
Q 16.5 21.390625 20.328125 13.890625 
Q 24.171875 6.390625 31.78125 6.390625 
Q 39.453125 6.390625 43.28125 13.890625 
Q 47.125 21.390625 47.125 36.375 
Q 47.125 51.421875 43.28125 58.90625 
Q 39.453125 66.40625 31.78125 66.40625 
M 31.78125 74.21875 
Q 44.046875 74.21875 50.515625 64.515625 
Q 56.984375 54.828125 56.984375 36.375 
Q 56.984375 17.96875 50.515625 8.265625 
Q 44.046875 -1.421875 31.78125 -1.421875 
Q 19.53125 -1.421875 13.0625 8.265625 
Q 6.59375 17.96875 6.59375 36.375 
Q 6.59375 54.828125 13.0625 64.515625 
Q 19.53125 74.21875 31.78125 74.21875 
" id="BitstreamVeraSans-Roman-30"/>
      </defs>
      <g transform="translate(1008.54473833 795.693325)scale(0.12 -0.12)">
       <use xlink:href="#BitstreamVeraSans-Roman-32"/>
       <use x="63.623046875" xlink:href="#BitstreamVeraSans-Roman-2e"/>
       <use x="95.41015625" xlink:href="#BitstreamVeraSans-Roman-30"/>
      </g>
     </g>
    </g>
    <g id="xtick_6">
     <g id="line2d_13">
      <g>
       <use style="stroke:#000000;stroke-width:0.5;" x="1189.59296" xlink:href="#m85a54595ea" y="782.5752"/>
      </g>
     </g>
     <g id="line2d_14">
      <g>
       <use style="stroke:#000000;stroke-width:0.5;" x="1189.59296" xlink:href="#m12a7a39e80" y="86.76"/>
      </g>
     </g>
     <g id="text_6">
      <!-- 2.2 -->
      <g transform="translate(1180.051085 795.693325)scale(0.12 -0.12)">
       <use xlink:href="#BitstreamVeraSans-Roman-32"/>
       <use x="63.623046875" xlink:href="#BitstreamVeraSans-Roman-2e"/>
       <use x="95.41015625" xlink:href="#BitstreamVeraSans-Roman-32"/>
      </g>
     </g>
    </g>
    <g id="xtick_7">
     <g id="line2d_15">
      <g>
       <use style="stroke:#000000;stroke-width:0.5;" x="1361.09930667" xlink:href="#m85a54595ea" y="782.5752"/>
      </g>
     </g>
     <g id="line2d_16">
      <g>
       <use style="stroke:#000000;stroke-width:0.5;" x="1361.09930667" xlink:href="#m12a7a39e80" y="86.76"/>
      </g>
     </g>
     <g id="text_7">
      <!-- 2.4 -->
      <g transform="translate(1351.55743167 795.693325)scale(0.12 -0.12)">
       <use xlink:href="#BitstreamVeraSans-Roman-32"/>
       <use x="63.623046875" xlink:href="#BitstreamVeraSans-Roman-2e"/>
       <use x="95.41015625" xlink:href="#BitstreamVeraSans-Roman-34"/>
      </g>
     </g>
    </g>
    <g id="xtick_8">
     <g id="line2d_17">
      <g>
       <use style="stroke:#000000;stroke-width:0.5;" x="1532.60565333" xlink:href="#m85a54595ea" y="782.5752"/>
      </g>
     </g>
     <g id="line2d_18">
      <g>
       <use style="stroke:#000000;stroke-width:0.5;" x="1532.60565333" xlink:href="#m12a7a39e80" y="86.76"/>
      </g>
     </g>
     <g id="text_8">
      <!-- 2.6 -->
      <g transform="translate(1523.06377833 795.693325)scale(0.12 -0.12)">
       <use xlink:href="#BitstreamVeraSans-Roman-32"/>
       <use x="63.623046875" xlink:href="#BitstreamVeraSans-Roman-2e"/>
       <use x="95.41015625" xlink:href="#BitstreamVeraSans-Roman-36"/>
      </g>
     </g>
    </g>
   </g>
   <g id="matplotlib.axis_2">
    <g id="ytick_1">
     <g id="line2d_19">
      <defs>
       <path d="M 0 0 
L 4 0 
" id="me50188f19c" style="stroke:#000000;stroke-width:0.5;"/>
      </defs>
      <g>
       <use style="stroke:#000000;stroke-width:0.5;" x="212.544" xlink:href="#me50188f19c" y="766.898208038"/>
      </g>
     </g>
     <g id="line2d_20">
      <defs>
       <path d="M 0 0 
L -4 0 
" id="m36440a0638" style="stroke:#000000;stroke-width:0.5;"/>
      </defs>
      <g>
       <use style="stroke:#000000;stroke-width:0.5;" x="1555.2" xlink:href="#m36440a0638" y="766.898208038"/>
      </g>
     </g>
     <g id="text_9">
      <!-- 0.0 -->
      <g transform="translate(189.46025 770.209458038)scale(0.12 -0.12)">
       <use xlink:href="#BitstreamVeraSans-Roman-30"/>
       <use x="63.623046875" xlink:href="#BitstreamVeraSans-Roman-2e"/>
       <use x="95.41015625" xlink:href="#BitstreamVeraSans-Roman-30"/>
      </g>
     </g>
    </g>
    <g id="ytick_2">
     <g id="line2d_21">
      <g>
       <use style="stroke:#000000;stroke-width:0.5;" x="212.544" xlink:href="#me50188f19c" y="650.300237531"/>
      </g>
     </g>
     <g id="line2d_22">
      <g>
       <use style="stroke:#000000;stroke-width:0.5;" x="1555.2" xlink:href="#m36440a0638" y="650.300237531"/>
      </g>
     </g>
     <g id="text_10">
      <!-- 0.5 -->
      <defs>
       <path d="M 10.796875 72.90625 
L 49.515625 72.90625 
L 49.515625 64.59375 
L 19.828125 64.59375 
L 19.828125 46.734375 
Q 21.96875 47.46875 24.109375 47.828125 
Q 26.265625 48.1875 28.421875 48.1875 
Q 40.625 48.1875 47.75 41.5 
Q 54.890625 34.8125 54.890625 23.390625 
Q 54.890625 11.625 47.5625 5.09375 
Q 40.234375 -1.421875 26.90625 -1.421875 
Q 22.3125 -1.421875 17.546875 -0.640625 
Q 12.796875 0.140625 7.71875 1.703125 
L 7.71875 11.625 
Q 12.109375 9.234375 16.796875 8.0625 
Q 21.484375 6.890625 26.703125 6.890625 
Q 35.15625 6.890625 40.078125 11.328125 
Q 45.015625 15.765625 45.015625 23.390625 
Q 45.015625 31 40.078125 35.4375 
Q 35.15625 39.890625 26.703125 39.890625 
Q 22.75 39.890625 18.8125 39.015625 
Q 14.890625 38.140625 10.796875 36.28125 
z
" id="BitstreamVeraSans-Roman-35"/>
      </defs>
      <g transform="translate(189.46025 653.611487531)scale(0.12 -0.12)">
       <use xlink:href="#BitstreamVeraSans-Roman-30"/>
       <use x="63.623046875" xlink:href="#BitstreamVeraSans-Roman-2e"/>
       <use x="95.41015625" xlink:href="#BitstreamVeraSans-Roman-35"/>
      </g>
     </g>
    </g>
    <g id="ytick_3">
     <g id="line2d_23">
      <g>
       <use style="stroke:#000000;stroke-width:0.5;" x="212.544" xlink:href="#me50188f19c" y="533.702267025"/>
      </g>
     </g>
     <g id="line2d_24">
      <g>
       <use style="stroke:#000000;stroke-width:0.5;" x="1555.2" xlink:href="#m36440a0638" y="533.702267025"/>
      </g>
     </g>
     <g id="text_11">
      <!-- 1.0 -->
      <g transform="translate(189.46025 537.013517025)scale(0.12 -0.12)">
       <use xlink:href="#BitstreamVeraSans-Roman-31"/>
       <use x="63.623046875" xlink:href="#BitstreamVeraSans-Roman-2e"/>
       <use x="95.41015625" xlink:href="#BitstreamVeraSans-Roman-30"/>
      </g>
     </g>
    </g>
    <g id="ytick_4">
     <g id="line2d_25">
      <g>
       <use style="stroke:#000000;stroke-width:0.5;" x="212.544" xlink:href="#me50188f19c" y="417.104296519"/>
      </g>
     </g>
     <g id="line2d_26">
      <g>
       <use style="stroke:#000000;stroke-width:0.5;" x="1555.2" xlink:href="#m36440a0638" y="417.104296519"/>
      </g>
     </g>
     <g id="text_12">
      <!-- 1.5 -->
      <g transform="translate(189.46025 420.415546519)scale(0.12 -0.12)">
       <use xlink:href="#BitstreamVeraSans-Roman-31"/>
       <use x="63.623046875" xlink:href="#BitstreamVeraSans-Roman-2e"/>
       <use x="95.41015625" xlink:href="#BitstreamVeraSans-Roman-35"/>
      </g>
     </g>
    </g>
    <g id="ytick_5">
     <g id="line2d_27">
      <g>
       <use style="stroke:#000000;stroke-width:0.5;" x="212.544" xlink:href="#me50188f19c" y="300.506326013"/>
      </g>
     </g>
     <g id="line2d_28">
      <g>
       <use style="stroke:#000000;stroke-width:0.5;" x="1555.2" xlink:href="#m36440a0638" y="300.506326013"/>
      </g>
     </g>
     <g id="text_13">
      <!-- 2.0 -->
      <g transform="translate(189.46025 303.817576013)scale(0.12 -0.12)">
       <use xlink:href="#BitstreamVeraSans-Roman-32"/>
       <use x="63.623046875" xlink:href="#BitstreamVeraSans-Roman-2e"/>
       <use x="95.41015625" xlink:href="#BitstreamVeraSans-Roman-30"/>
      </g>
     </g>
    </g>
    <g id="ytick_6">
     <g id="line2d_29">
      <g>
       <use style="stroke:#000000;stroke-width:0.5;" x="212.544" xlink:href="#me50188f19c" y="183.908355506"/>
      </g>
     </g>
     <g id="line2d_30">
      <g>
       <use style="stroke:#000000;stroke-width:0.5;" x="1555.2" xlink:href="#m36440a0638" y="183.908355506"/>
      </g>
     </g>
     <g id="text_14">
      <!-- 2.5 -->
      <g transform="translate(189.46025 187.219605506)scale(0.12 -0.12)">
       <use xlink:href="#BitstreamVeraSans-Roman-32"/>
       <use x="63.623046875" xlink:href="#BitstreamVeraSans-Roman-2e"/>
       <use x="95.41015625" xlink:href="#BitstreamVeraSans-Roman-35"/>
      </g>
     </g>
    </g>
   </g>
  </g>
 </g>
 <defs>
  <clipPath id="p5bf5395f15">
   <rect height="695.8152" width="1342.656" x="212.544" y="86.76"/>
  </clipPath>
 </defs>
</svg>
