<?xml version="1.0" encoding="UTF-8" standalone="no"?>
<svg width="99.9913mm" height="99.9913mm"
 viewBox="0 0 1181 1181"
 xmlns="http://www.w3.org/2000/svg" xmlns:xlink="http://www.w3.org/1999/xlink"  version="1.2" baseProfile="tiny">
<desc>Generated with Qt</desc>
<defs>
</defs>
<g fill="none" stroke="black" stroke-width="1" fill-rule="evenodd" stroke-linecap="square" stroke-linejoin="bevel" >

<g fill="none" stroke="#000000" stroke-opacity="1" stroke-width="1" stroke-linecap="square" stroke-linejoin="bevel" transform="matrix(1,0,0,1,0,0)"
font-family="MS Shell Dlg 2" font-size="34.375" font-weight="400" font-style="normal" 
>
</g>

<g fill="none" stroke="#000000" stroke-opacity="1" stroke-width="1" stroke-linecap="square" stroke-linejoin="bevel" transform="matrix(11.81,0,0,11.81,0,0)"
font-family="MS Shell Dlg 2" font-size="34.375" font-weight="400" font-style="normal" 
>
</g>

<g fill="#ffffff" fill-opacity="1" stroke="none" transform="matrix(0.999913,0,0,0.999913,0,0)"
font-family="MS Shell Dlg 2" font-size="34.375" font-weight="400" font-style="normal" 
>
<path vector-effect="none" fill-rule="evenodd" d="M-1,-1 L1182.1,-1 L1182.1,1182.1 L-1,1182.1 L-1,-1"/>
</g>

<g fill="none" stroke="#000000" stroke-opacity="1" stroke-width="1" stroke-linecap="square" stroke-linejoin="bevel" transform="matrix(11.81,0,0,11.81,0,0)"
font-family="MS Shell Dlg 2" font-size="34.375" font-weight="400" font-style="normal" 
>
</g>

<g fill="none" stroke="#000000" stroke-opacity="1" stroke-width="1" stroke-linecap="square" stroke-linejoin="bevel" transform="matrix(11.81,0,0,11.81,0,0)"
font-family="MS Shell Dlg 2" font-size="34.375" font-weight="400" font-style="normal" 
>
</g>

<g fill="none" stroke="#000000" stroke-opacity="1" stroke-width="1" stroke-linecap="square" stroke-linejoin="bevel" transform="matrix(11.81,0,0,11.81,0,0)"
font-family="MS Shell Dlg 2" font-size="34.375" font-weight="400" font-style="normal" 
>
</g>

<g fill="none" stroke="#000000" stroke-opacity="1" stroke-width="1" stroke-linecap="square" stroke-linejoin="bevel" transform="matrix(11.81,0,0,11.81,0,0)"
font-family="MS Shell Dlg 2" font-size="34.375" font-weight="400" font-style="normal" 
>
</g>

<g fill="#ffffff" fill-opacity="1" stroke="none" transform="matrix(11.81,0,0,11.81,0,0)"
font-family="MS Shell Dlg 2" font-size="34.375" font-weight="400" font-style="normal" 
>
<path vector-effect="non-scaling-stroke" fill-rule="evenodd" d="M0,0 L100,0 L100,100 L0,100 L0,0"/>
</g>

<g fill="none" stroke="#000000" stroke-opacity="1" stroke-width="1" stroke-linecap="square" stroke-linejoin="bevel" transform="matrix(11.81,0,0,11.81,0,0)"
font-family="MS Shell Dlg 2" font-size="34.375" font-weight="400" font-style="normal" 
>
</g>

<g fill="#000000" fill-opacity="0" stroke="none" transform="matrix(0.999913,0,0,0.999913,0,0)"
font-family="MS Shell Dlg 2" font-size="34.375" font-weight="400" font-style="normal" 
>
<path vector-effect="non-scaling-stroke" fill-rule="evenodd" d="M0,0 L1181,0 L1181,1181 L0,1181 L0,0"/>
</g>

<g fill="#5aa2cf" fill-opacity="1" stroke="#000000" stroke-opacity="1" stroke-width="1" stroke-linecap="square" stroke-linejoin="bevel" transform="matrix(0.999913,0,0,0.999913,0,0)"
font-family="MS Shell Dlg 2" font-size="34.375" font-weight="400" font-style="normal" 
>
<path vector-effect="non-scaling-stroke" fill-rule="evenodd" d="M92.0051,689.61 C92.0051,695.758 87.0211,700.742 80.8731,700.742 C74.7251,700.742 69.7412,695.758 69.7412,689.61 C69.7412,683.462 74.7251,678.478 80.8731,678.478 C87.0211,678.478 92.0051,683.462 92.0051,689.61 "/>
<path vector-effect="non-scaling-stroke" fill-rule="evenodd" d="M161.849,759.081 C161.849,765.435 156.698,770.586 150.344,770.586 C143.99,770.586 138.839,765.435 138.839,759.081 C138.839,752.726 143.99,747.575 150.344,747.575 C156.698,747.575 161.849,752.726 161.849,759.081 "/>
<path vector-effect="non-scaling-stroke" fill-rule="evenodd" d="M162.71,481.198 C162.71,488.028 157.173,493.564 150.344,493.564 C143.514,493.564 137.978,488.028 137.978,481.198 C137.978,474.369 143.514,468.832 150.344,468.832 C157.173,468.832 162.71,474.369 162.71,481.198 "/>
<path vector-effect="non-scaling-stroke" fill-rule="evenodd" d="M162.258,133.845 C162.258,140.425 156.924,145.76 150.344,145.76 C143.764,145.76 138.429,140.425 138.429,133.845 C138.429,127.265 143.764,121.931 150.344,121.931 C156.924,121.931 162.258,127.265 162.258,133.845 "/>
<path vector-effect="non-scaling-stroke" fill-rule="evenodd" d="M232.425,342.257 C232.425,349.222 226.779,354.868 219.814,354.868 C212.85,354.868 207.204,349.222 207.204,342.257 C207.204,335.292 212.85,329.646 219.814,329.646 C226.779,329.646 232.425,335.292 232.425,342.257 "/>
<path vector-effect="non-scaling-stroke" fill-rule="evenodd" d="M301.419,1106.43 C301.419,1113.14 295.987,1118.57 289.285,1118.57 C282.583,1118.57 277.15,1113.14 277.15,1106.43 C277.15,1099.73 282.583,1094.3 289.285,1094.3 C295.987,1094.3 301.419,1099.73 301.419,1106.43 "/>
<path vector-effect="non-scaling-stroke" fill-rule="evenodd" d="M300.99,620.139 C300.99,626.604 295.749,631.844 289.285,631.844 C282.82,631.844 277.58,626.604 277.58,620.139 C277.58,613.675 282.82,608.434 289.285,608.434 C295.749,608.434 300.99,613.675 300.99,620.139 "/>
<path vector-effect="non-scaling-stroke" fill-rule="evenodd" d="M371.493,550.669 C371.493,557.704 365.79,563.407 358.755,563.407 C351.72,563.407 346.017,557.704 346.017,550.669 C346.017,543.634 351.72,537.931 358.755,537.931 C365.79,537.931 371.493,543.634 371.493,550.669 "/>
<path vector-effect="non-scaling-stroke" fill-rule="evenodd" d="M370.07,203.316 C370.07,209.565 365.004,214.63 358.755,214.63 C352.507,214.63 347.441,209.565 347.441,203.316 C347.441,197.067 352.507,192.001 358.755,192.001 C365.004,192.001 370.07,197.067 370.07,203.316 "/>
<path vector-effect="non-scaling-stroke" fill-rule="evenodd" d="M440.034,967.492 C440.034,974.014 434.748,979.301 428.226,979.301 C421.704,979.301 416.418,974.014 416.418,967.492 C416.418,960.971 421.704,955.684 428.226,955.684 C434.748,955.684 440.034,960.971 440.034,967.492 "/>
<path vector-effect="non-scaling-stroke" fill-rule="evenodd" d="M440.475,272.786 C440.475,279.551 434.991,285.035 428.226,285.035 C421.461,285.035 415.977,279.551 415.977,272.786 C415.977,266.022 421.461,260.538 428.226,260.538 C434.991,260.538 440.475,266.022 440.475,272.786 "/>
<path vector-effect="non-scaling-stroke" fill-rule="evenodd" d="M510.183,828.551 C510.183,835.447 504.593,841.038 497.697,841.038 C490.8,841.038 485.21,835.447 485.21,828.551 C485.21,821.655 490.8,816.064 497.697,816.064 C504.593,816.064 510.183,821.655 510.183,828.551 "/>
<path vector-effect="non-scaling-stroke" fill-rule="evenodd" d="M509.105,411.728 C509.105,418.028 503.997,423.136 497.697,423.136 C491.396,423.136 486.288,418.028 486.288,411.728 C486.288,405.427 491.396,400.319 497.697,400.319 C503.997,400.319 509.105,405.427 509.105,411.728 "/>
<path vector-effect="non-scaling-stroke" fill-rule="evenodd" d="M509.3,272.786 C509.3,279.195 504.105,284.39 497.697,284.39 C491.288,284.39 486.093,279.195 486.093,272.786 C486.093,266.378 491.288,261.183 497.697,261.183 C504.105,261.183 509.3,266.378 509.3,272.786 "/>
<path vector-effect="non-scaling-stroke" fill-rule="evenodd" d="M578.389,1036.96 C578.389,1043.16 573.365,1048.19 567.167,1048.19 C560.969,1048.19 555.945,1043.16 555.945,1036.96 C555.945,1030.77 560.969,1025.74 567.167,1025.74 C573.365,1025.74 578.389,1030.77 578.389,1036.96 "/>
<path vector-effect="non-scaling-stroke" fill-rule="evenodd" d="M579.19,759.081 C579.19,765.721 573.807,771.104 567.167,771.104 C560.527,771.104 555.144,765.721 555.144,759.081 C555.144,752.44 560.527,747.057 567.167,747.057 C573.807,747.057 579.19,752.44 579.19,759.081 "/>
<path vector-effect="non-scaling-stroke" fill-rule="evenodd" d="M648.499,481.198 C648.499,487.749 643.188,493.059 636.638,493.059 C630.087,493.059 624.777,487.749 624.777,481.198 C624.777,474.648 630.087,469.337 636.638,469.337 C643.188,469.337 648.499,474.648 648.499,481.198 "/>
<path vector-effect="non-scaling-stroke" fill-rule="evenodd" d="M649.441,203.316 C649.441,210.387 643.709,216.119 636.638,216.119 C629.567,216.119 623.835,210.387 623.835,203.316 C623.835,196.245 629.567,190.513 636.638,190.513 C643.709,190.513 649.441,196.245 649.441,203.316 "/>
<path vector-effect="non-scaling-stroke" fill-rule="evenodd" d="M718.416,967.492 C718.416,974.289 712.905,979.799 706.108,979.799 C699.311,979.799 693.801,974.289 693.801,967.492 C693.801,960.695 699.311,955.185 706.108,955.185 C712.905,955.185 718.416,960.695 718.416,967.492 "/>
<path vector-effect="non-scaling-stroke" fill-rule="evenodd" d="M717.565,64.3747 C717.565,70.702 712.436,75.8313 706.108,75.8313 C699.781,75.8313 694.652,70.702 694.652,64.3747 C694.652,58.0473 699.781,52.918 706.108,52.918 C712.436,52.918 717.565,58.0473 717.565,64.3747 "/>
<path vector-effect="non-scaling-stroke" fill-rule="evenodd" d="M787.233,967.492 C787.233,973.929 782.015,979.146 775.579,979.146 C769.143,979.146 763.925,973.929 763.925,967.492 C763.925,961.056 769.143,955.838 775.579,955.838 C782.015,955.838 787.233,961.056 787.233,967.492 "/>
<path vector-effect="non-scaling-stroke" fill-rule="evenodd" d="M788.127,689.61 C788.127,696.54 782.509,702.158 775.579,702.158 C768.649,702.158 763.031,696.54 763.031,689.61 C763.031,682.68 768.649,677.062 775.579,677.062 C782.509,677.062 788.127,682.68 788.127,689.61 "/>
<path vector-effect="non-scaling-stroke" fill-rule="evenodd" d="M856.318,550.669 C856.318,556.892 851.273,561.937 845.05,561.937 C838.826,561.937 833.782,556.892 833.782,550.669 C833.782,544.446 838.826,539.401 845.05,539.401 C851.273,539.401 856.318,544.446 856.318,550.669 "/>
<path vector-effect="non-scaling-stroke" fill-rule="evenodd" d="M857.128,411.728 C857.128,418.398 851.72,423.806 845.05,423.806 C838.379,423.806 832.971,418.398 832.971,411.728 C832.971,405.057 838.379,399.649 845.05,399.649 C851.72,399.649 857.128,405.057 857.128,411.728 "/>
<path vector-effect="non-scaling-stroke" fill-rule="evenodd" d="M927.194,1036.96 C927.194,1043.96 921.52,1049.64 914.52,1049.64 C907.521,1049.64 901.846,1043.96 901.846,1036.96 C901.846,1029.96 907.521,1024.29 914.52,1024.29 C921.52,1024.29 927.194,1029.96 927.194,1036.96 "/>
<path vector-effect="non-scaling-stroke" fill-rule="evenodd" d="M926.276,272.786 C926.276,279.279 921.013,284.543 914.52,284.543 C908.027,284.543 902.764,279.279 902.764,272.786 C902.764,266.294 908.027,261.03 914.52,261.03 C921.013,261.03 926.276,266.294 926.276,272.786 "/>
<path vector-effect="non-scaling-stroke" fill-rule="evenodd" d="M995.352,898.022 C995.352,904.296 990.265,909.383 983.991,909.383 C977.716,909.383 972.629,904.296 972.629,898.022 C972.629,891.747 977.716,886.66 983.991,886.66 C990.265,886.66 995.352,891.747 995.352,898.022 "/>
<path vector-effect="non-scaling-stroke" fill-rule="evenodd" d="M996.182,620.139 C996.182,626.872 990.724,632.331 983.991,632.331 C977.258,632.331 971.799,626.872 971.799,620.139 C971.799,613.406 977.258,607.948 983.991,607.948 C990.724,607.948 996.182,613.406 996.182,620.139 "/>
<path vector-effect="non-scaling-stroke" fill-rule="evenodd" d="M996.417,133.845 C996.417,140.708 990.853,146.271 983.991,146.271 C977.128,146.271 971.565,140.708 971.565,133.845 C971.565,126.983 977.128,121.419 983.991,121.419 C990.853,121.419 996.417,126.983 996.417,133.845 "/>
<path vector-effect="non-scaling-stroke" fill-rule="evenodd" d="M1065.43,828.551 C1065.43,835.161 1060.07,840.519 1053.46,840.519 C1046.85,840.519 1041.49,835.161 1041.49,828.551 C1041.49,821.941 1046.85,816.583 1053.46,816.583 C1060.07,816.583 1065.43,821.941 1065.43,828.551 "/>
<path vector-effect="non-scaling-stroke" fill-rule="evenodd" d="M1065.02,620.139 C1065.02,626.521 1059.84,631.694 1053.46,631.694 C1047.08,631.694 1041.91,626.521 1041.91,620.139 C1041.91,613.758 1047.08,608.585 1053.46,608.585 C1059.84,608.585 1065.02,613.758 1065.02,620.139 "/>
<path vector-effect="non-scaling-stroke" fill-rule="evenodd" d="M1134.11,342.257 C1134.11,348.43 1129.1,353.434 1122.93,353.434 C1116.76,353.434 1111.76,348.43 1111.76,342.257 C1111.76,336.084 1116.76,331.08 1122.93,331.08 C1129.1,331.08 1134.11,336.084 1134.11,342.257 "/>
</g>

<g fill="#8ec1dd" fill-opacity="1" stroke="#000000" stroke-opacity="1" stroke-width="1" stroke-linecap="square" stroke-linejoin="bevel" transform="matrix(0.999913,0,0,0.999913,0,0)"
font-family="MS Shell Dlg 2" font-size="34.375" font-weight="400" font-style="normal" 
>
<path vector-effect="non-scaling-stroke" fill-rule="evenodd" d="M91.347,1036.96 C91.347,1042.75 86.6577,1047.44 80.8731,1047.44 C75.0886,1047.44 70.3993,1042.75 70.3993,1036.96 C70.3993,1031.18 75.0886,1026.49 80.8731,1026.49 C86.6577,1026.49 91.347,1031.18 91.347,1036.96 "/>
<path vector-effect="non-scaling-stroke" fill-rule="evenodd" d="M90.7823,272.786 C90.7823,278.259 86.3458,282.696 80.8731,282.696 C75.4004,282.696 70.964,278.259 70.964,272.786 C70.964,267.314 75.4004,262.877 80.8731,262.877 C86.3458,262.877 90.7823,267.314 90.7823,272.786 "/>
<path vector-effect="non-scaling-stroke" fill-rule="evenodd" d="M160.525,550.669 C160.525,556.292 155.967,560.85 150.344,560.85 C144.721,560.85 140.162,556.292 140.162,550.669 C140.162,545.046 144.721,540.487 150.344,540.487 C155.967,540.487 160.525,545.046 160.525,550.669 "/>
<path vector-effect="non-scaling-stroke" fill-rule="evenodd" d="M161.133,411.728 C161.133,417.687 156.303,422.517 150.344,422.517 C144.385,422.517 139.554,417.687 139.554,411.728 C139.554,405.769 144.385,400.938 150.344,400.938 C156.303,400.938 161.133,405.769 161.133,411.728 "/>
<path vector-effect="non-scaling-stroke" fill-rule="evenodd" d="M230.771,967.492 C230.771,973.544 225.866,978.45 219.814,978.45 C213.763,978.45 208.857,973.544 208.857,967.492 C208.857,961.441 213.763,956.535 219.814,956.535 C225.866,956.535 230.771,961.441 230.771,967.492 "/>
<path vector-effect="non-scaling-stroke" fill-rule="evenodd" d="M230.139,64.3747 C230.139,70.0769 225.517,74.6995 219.814,74.6995 C214.112,74.6995 209.489,70.0769 209.489,64.3747 C209.489,58.6724 214.112,54.0498 219.814,54.0498 C225.517,54.0498 230.139,58.6724 230.139,64.3747 "/>
<path vector-effect="non-scaling-stroke" fill-rule="evenodd" d="M299.328,759.081 C299.328,764.627 294.831,769.123 289.285,769.123 C283.738,769.123 279.242,764.627 279.242,759.081 C279.242,753.534 283.738,749.038 289.285,749.038 C294.831,749.038 299.328,753.534 299.328,759.081 "/>
<path vector-effect="non-scaling-stroke" fill-rule="evenodd" d="M299.914,481.198 C299.914,487.068 295.155,491.827 289.285,491.827 C283.415,491.827 278.656,487.068 278.656,481.198 C278.656,475.328 283.415,470.57 289.285,470.57 C295.155,470.57 299.914,475.328 299.914,481.198 "/>
<path vector-effect="non-scaling-stroke" fill-rule="evenodd" d="M369.154,689.61 C369.154,695.353 364.498,700.009 358.755,700.009 C353.012,700.009 348.357,695.353 348.357,689.61 C348.357,683.867 353.012,679.211 358.755,679.211 C364.498,679.211 369.154,683.867 369.154,689.61 "/>
<path vector-effect="non-scaling-stroke" fill-rule="evenodd" d="M369.799,133.845 C369.799,139.944 364.855,144.889 358.755,144.889 C352.656,144.889 347.712,139.944 347.712,133.845 C347.712,127.746 352.656,122.802 358.755,122.802 C364.855,122.802 369.799,127.746 369.799,133.845 "/>
<path vector-effect="non-scaling-stroke" fill-rule="evenodd" d="M438.934,828.551 C438.934,834.465 434.14,839.259 428.226,839.259 C422.312,839.259 417.518,834.465 417.518,828.551 C417.518,822.637 422.312,817.843 428.226,817.843 C434.14,817.843 438.934,822.637 438.934,828.551 "/>
<path vector-effect="non-scaling-stroke" fill-rule="evenodd" d="M439.099,550.669 C439.099,556.674 434.231,561.541 428.226,561.541 C422.221,561.541 417.354,556.674 417.354,550.669 C417.354,544.664 422.221,539.796 428.226,539.796 C434.231,539.796 439.099,544.664 439.099,550.669 "/>
<path vector-effect="non-scaling-stroke" fill-rule="evenodd" d="M507.949,898.022 C507.949,903.684 503.359,908.274 497.697,908.274 C492.034,908.274 487.444,903.684 487.444,898.022 C487.444,892.359 492.034,887.769 497.697,887.769 C503.359,887.769 507.949,892.359 507.949,898.022 "/>
<path vector-effect="non-scaling-stroke" fill-rule="evenodd" d="M507.672,481.198 C507.672,486.707 503.206,491.174 497.697,491.174 C492.187,491.174 487.721,486.707 487.721,481.198 C487.721,475.689 492.187,471.223 497.697,471.223 C503.206,471.223 507.672,475.689 507.672,481.198 "/>
<path vector-effect="non-scaling-stroke" fill-rule="evenodd" d="M507.808,342.257 C507.808,347.841 503.281,352.368 497.697,352.368 C492.112,352.368 487.585,347.841 487.585,342.257 C487.585,336.673 492.112,332.146 497.697,332.146 C503.281,332.146 507.808,336.673 507.808,342.257 "/>
<path vector-effect="non-scaling-stroke" fill-rule="evenodd" d="M577.718,272.786 C577.718,278.613 572.994,283.337 567.167,283.337 C561.34,283.337 556.617,278.613 556.617,272.786 C556.617,266.96 561.34,262.236 567.167,262.236 C572.994,262.236 577.718,266.96 577.718,272.786 "/>
<path vector-effect="non-scaling-stroke" fill-rule="evenodd" d="M647.725,828.551 C647.725,834.675 642.761,839.639 636.638,839.639 C630.514,839.639 625.55,834.675 625.55,828.551 C625.55,822.428 630.514,817.464 636.638,817.464 C642.761,817.464 647.725,822.428 647.725,828.551 "/>
<path vector-effect="non-scaling-stroke" fill-rule="evenodd" d="M647.387,759.081 C647.387,765.017 642.574,769.829 636.638,769.829 C630.701,769.829 625.889,765.017 625.889,759.081 C625.889,753.144 630.701,748.332 636.638,748.332 C642.574,748.332 647.387,753.144 647.387,759.081 "/>
<path vector-effect="non-scaling-stroke" fill-rule="evenodd" d="M647.074,342.257 C647.074,348.021 642.402,352.693 636.638,352.693 C630.874,352.693 626.202,348.021 626.202,342.257 C626.202,336.493 630.874,331.821 636.638,331.821 C642.402,331.821 647.074,336.493 647.074,342.257 "/>
<path vector-effect="non-scaling-stroke" fill-rule="evenodd" d="M716.255,1036.96 C716.255,1042.57 711.712,1047.11 706.108,1047.11 C700.505,1047.11 695.962,1042.57 695.962,1036.96 C695.962,1031.36 700.505,1026.82 706.108,1026.82 C711.712,1026.82 716.255,1031.36 716.255,1036.96 "/>
<path vector-effect="non-scaling-stroke" fill-rule="evenodd" d="M717.023,203.316 C717.023,209.344 712.136,214.23 706.108,214.23 C700.08,214.23 695.194,209.344 695.194,203.316 C695.194,197.288 700.08,192.401 706.108,192.401 C712.136,192.401 717.023,197.288 717.023,203.316 "/>
<path vector-effect="non-scaling-stroke" fill-rule="evenodd" d="M785.867,411.728 C785.867,417.41 781.261,422.016 775.579,422.016 C769.897,422.016 765.29,417.41 765.29,411.728 C765.29,406.045 769.897,401.439 775.579,401.439 C781.261,401.439 785.867,406.045 785.867,411.728 "/>
<path vector-effect="non-scaling-stroke" fill-rule="evenodd" d="M855.639,967.492 C855.639,973.341 850.898,978.082 845.05,978.082 C839.201,978.082 834.46,973.341 834.46,967.492 C834.46,961.644 839.201,956.903 845.05,956.903 C850.898,956.903 855.639,961.644 855.639,967.492 "/>
<path vector-effect="non-scaling-stroke" fill-rule="evenodd" d="M856.05,481.198 C856.05,487.273 851.125,492.198 845.05,492.198 C838.974,492.198 834.049,487.273 834.049,481.198 C834.049,475.123 838.974,470.198 845.05,470.198 C851.125,470.198 856.05,475.123 856.05,481.198 "/>
<path vector-effect="non-scaling-stroke" fill-rule="evenodd" d="M855.059,133.845 C855.059,139.373 850.577,143.854 845.05,143.854 C839.522,143.854 835.041,139.373 835.041,133.845 C835.041,128.317 839.522,123.836 845.05,123.836 C850.577,123.836 855.059,128.317 855.059,133.845 "/>
<path vector-effect="non-scaling-stroke" fill-rule="evenodd" d="M925.188,133.845 C925.188,139.737 920.412,144.514 914.52,144.514 C908.628,144.514 903.852,139.737 903.852,133.845 C903.852,127.953 908.628,123.177 914.52,123.177 C920.412,123.177 925.188,127.953 925.188,133.845 "/>
<path vector-effect="non-scaling-stroke" fill-rule="evenodd" d="M994.822,1036.96 C994.822,1042.94 989.972,1047.79 983.991,1047.79 C978.009,1047.79 973.16,1042.94 973.16,1036.96 C973.16,1030.98 978.009,1026.13 983.991,1026.13 C989.972,1026.13 994.822,1030.98 994.822,1036.96 "/>
<path vector-effect="non-scaling-stroke" fill-rule="evenodd" d="M994.352,828.551 C994.352,834.274 989.713,838.913 983.991,838.913 C978.268,838.913 973.629,834.274 973.629,828.551 C973.629,822.829 978.268,818.19 983.991,818.19 C989.713,818.19 994.352,822.829 994.352,828.551 "/>
<path vector-effect="non-scaling-stroke" fill-rule="evenodd" d="M994.068,689.61 C994.068,695.175 989.556,699.687 983.991,699.687 C978.425,699.687 973.914,695.175 973.914,689.61 C973.914,684.045 978.425,679.533 983.991,679.533 C989.556,679.533 994.068,684.045 994.068,689.61 "/>
<path vector-effect="non-scaling-stroke" fill-rule="evenodd" d="M1063.68,203.316 C1063.68,208.958 1059.1,213.533 1053.46,213.533 C1047.82,213.533 1043.24,208.958 1043.24,203.316 C1043.24,197.673 1047.82,193.099 1053.46,193.099 C1059.1,193.099 1063.68,197.673 1063.68,203.316 "/>
<path vector-effect="non-scaling-stroke" fill-rule="evenodd" d="M1132.87,898.022 C1132.87,903.513 1128.42,907.964 1122.93,907.964 C1117.44,907.964 1112.99,903.513 1112.99,898.022 C1112.99,892.531 1117.44,888.08 1122.93,888.08 C1128.42,888.08 1132.87,892.531 1132.87,898.022 "/>
<path vector-effect="non-scaling-stroke" fill-rule="evenodd" d="M1133.44,620.139 C1133.44,625.945 1128.74,630.651 1122.93,630.651 C1117.13,630.651 1112.42,625.945 1112.42,620.139 C1112.42,614.334 1117.13,609.627 1122.93,609.627 C1128.74,609.627 1133.44,614.334 1133.44,620.139 "/>
</g>

<g fill="#bed7ec" fill-opacity="1" stroke="#000000" stroke-opacity="1" stroke-width="1" stroke-linecap="square" stroke-linejoin="bevel" transform="matrix(0.999913,0,0,0.999913,0,0)"
font-family="MS Shell Dlg 2" font-size="34.375" font-weight="400" font-style="normal" 
>
<path vector-effect="non-scaling-stroke" fill-rule="evenodd" d="M90.5281,967.492 C90.5281,972.825 86.2054,977.147 80.8731,977.147 C75.5408,977.147 71.2181,972.825 71.2181,967.492 C71.2181,962.16 75.5408,957.837 80.8731,957.837 C86.2054,957.837 90.5281,962.16 90.5281,967.492 "/>
<path vector-effect="non-scaling-stroke" fill-rule="evenodd" d="M89.855,828.551 C89.855,833.512 85.8337,837.533 80.8731,837.533 C75.9125,837.533 71.8912,833.512 71.8912,828.551 C71.8912,823.591 75.9125,819.569 80.8731,819.569 C85.8337,819.569 89.855,823.591 89.855,828.551 "/>
<path vector-effect="non-scaling-stroke" fill-rule="evenodd" d="M90.2899,411.728 C90.2899,416.928 86.0739,421.144 80.8731,421.144 C75.6724,421.144 71.4563,416.928 71.4563,411.728 C71.4563,406.527 75.6724,402.311 80.8731,402.311 C86.0739,402.311 90.2899,406.527 90.2899,411.728 "/>
<path vector-effect="non-scaling-stroke" fill-rule="evenodd" d="M229.594,828.551 C229.594,833.952 225.216,838.331 219.814,838.331 C214.413,838.331 210.034,833.952 210.034,828.551 C210.034,823.15 214.413,818.771 219.814,818.771 C225.216,818.771 229.594,823.15 229.594,828.551 "/>
<path vector-effect="non-scaling-stroke" fill-rule="evenodd" d="M228.9,620.139 C228.9,625.157 224.832,629.225 219.814,629.225 C214.796,629.225 210.728,625.157 210.728,620.139 C210.728,615.121 214.796,611.053 219.814,611.053 C224.832,611.053 228.9,615.121 228.9,620.139 "/>
<path vector-effect="non-scaling-stroke" fill-rule="evenodd" d="M229.007,133.845 C229.007,138.922 224.891,143.038 219.814,143.038 C214.737,143.038 210.621,138.922 210.621,133.845 C210.621,128.768 214.737,124.652 219.814,124.652 C224.891,124.652 229.007,128.768 229.007,133.845 "/>
<path vector-effect="non-scaling-stroke" fill-rule="evenodd" d="M298.588,1036.96 C298.588,1042.1 294.423,1046.27 289.285,1046.27 C284.147,1046.27 279.982,1042.1 279.982,1036.96 C279.982,1031.82 284.147,1027.66 289.285,1027.66 C294.423,1027.66 298.588,1031.82 298.588,1036.96 "/>
<path vector-effect="non-scaling-stroke" fill-rule="evenodd" d="M298.819,342.257 C298.819,347.522 294.55,351.791 289.285,351.791 C284.019,351.791 279.751,347.522 279.751,342.257 C279.751,336.992 284.019,332.723 289.285,332.723 C294.55,332.723 298.819,336.992 298.819,342.257 "/>
<path vector-effect="non-scaling-stroke" fill-rule="evenodd" d="M298.644,272.786 C298.644,277.956 294.454,282.146 289.285,282.146 C284.116,282.146 279.925,277.956 279.925,272.786 C279.925,267.617 284.116,263.427 289.285,263.427 C294.454,263.427 298.644,267.617 298.644,272.786 "/>
<path vector-effect="non-scaling-stroke" fill-rule="evenodd" d="M368.599,1106.43 C368.599,1111.87 364.192,1116.28 358.755,1116.28 C353.319,1116.28 348.911,1111.87 348.911,1106.43 C348.911,1101 353.319,1096.59 358.755,1096.59 C364.192,1096.59 368.599,1101 368.599,1106.43 "/>
<path vector-effect="non-scaling-stroke" fill-rule="evenodd" d="M368.349,620.139 C368.349,625.438 364.054,629.733 358.755,629.733 C353.457,629.733 349.161,625.438 349.161,620.139 C349.161,614.841 353.457,610.545 358.755,610.545 C364.054,610.545 368.349,614.841 368.349,620.139 "/>
<path vector-effect="non-scaling-stroke" fill-rule="evenodd" d="M437.943,203.316 C437.943,208.682 433.593,213.033 428.226,213.033 C422.86,213.033 418.509,208.682 418.509,203.316 C418.509,197.949 422.86,193.599 428.226,193.599 C433.593,193.599 437.943,197.949 437.943,203.316 "/>
<path vector-effect="non-scaling-stroke" fill-rule="evenodd" d="M506.836,1036.96 C506.836,1042.01 502.744,1046.1 497.697,1046.1 C492.649,1046.1 488.558,1042.01 488.558,1036.96 C488.558,1031.92 492.649,1027.82 497.697,1027.82 C502.744,1027.82 506.836,1031.92 506.836,1036.96 "/>
<path vector-effect="non-scaling-stroke" fill-rule="evenodd" d="M507.172,759.081 C507.172,764.313 502.929,768.555 497.697,768.555 C492.464,768.555 488.222,764.313 488.222,759.081 C488.222,753.848 492.464,749.606 497.697,749.606 C502.929,749.606 507.172,753.848 507.172,759.081 "/>
<path vector-effect="non-scaling-stroke" fill-rule="evenodd" d="M576.415,689.61 C576.415,694.717 572.275,698.858 567.167,698.858 C562.06,698.858 557.92,694.717 557.92,689.61 C557.92,684.503 562.06,680.362 567.167,680.362 C572.275,680.362 576.415,684.503 576.415,689.61 "/>
<path vector-effect="non-scaling-stroke" fill-rule="evenodd" d="M646.026,898.022 C646.026,903.207 641.823,907.41 636.638,907.41 C631.453,907.41 627.25,903.207 627.25,898.022 C627.25,892.837 631.453,888.634 636.638,888.634 C641.823,888.634 646.026,892.837 646.026,898.022 "/>
<path vector-effect="non-scaling-stroke" fill-rule="evenodd" d="M646.514,620.139 C646.514,625.594 642.092,630.016 636.638,630.016 C631.183,630.016 626.761,625.594 626.761,620.139 C626.761,614.685 631.183,610.263 636.638,610.263 C642.092,610.263 646.514,614.685 646.514,620.139 "/>
<path vector-effect="non-scaling-stroke" fill-rule="evenodd" d="M645.671,411.728 C645.671,416.717 641.627,420.761 636.638,420.761 C631.649,420.761 627.604,416.717 627.604,411.728 C627.604,406.739 631.649,402.694 636.638,402.694 C641.627,402.694 645.671,406.739 645.671,411.728 "/>
<path vector-effect="non-scaling-stroke" fill-rule="evenodd" d="M646.262,272.786 C646.262,278.102 641.953,282.411 636.638,282.411 C631.322,282.411 627.013,278.102 627.013,272.786 C627.013,267.471 631.322,263.162 636.638,263.162 C641.953,263.162 646.262,267.471 646.262,272.786 "/>
<path vector-effect="non-scaling-stroke" fill-rule="evenodd" d="M715.274,481.198 C715.274,486.26 711.171,490.364 706.108,490.364 C701.046,490.364 696.943,486.26 696.943,481.198 C696.943,476.136 701.046,472.032 706.108,472.032 C711.171,472.032 715.274,476.136 715.274,481.198 "/>
<path vector-effect="non-scaling-stroke" fill-rule="evenodd" d="M785.327,898.022 C785.327,903.406 780.963,907.77 775.579,907.77 C770.195,907.77 765.831,903.406 765.831,898.022 C765.831,892.638 770.195,888.273 775.579,888.273 C780.963,888.273 785.327,892.638 785.327,898.022 "/>
<path vector-effect="non-scaling-stroke" fill-rule="evenodd" d="M854.109,1106.43 C854.109,1111.44 850.053,1115.49 845.05,1115.49 C840.046,1115.49 835.99,1111.44 835.99,1106.43 C835.99,1101.43 840.046,1097.37 845.05,1097.37 C850.053,1097.37 854.109,1101.43 854.109,1106.43 "/>
<path vector-effect="non-scaling-stroke" fill-rule="evenodd" d="M854.554,689.61 C854.554,694.859 850.299,699.114 845.05,699.114 C839.8,699.114 835.545,694.859 835.545,689.61 C835.545,684.361 839.8,680.106 845.05,680.106 C850.299,680.106 854.554,684.361 854.554,689.61 "/>
<path vector-effect="non-scaling-stroke" fill-rule="evenodd" d="M854.325,342.257 C854.325,347.38 850.172,351.532 845.05,351.532 C839.927,351.532 835.774,347.38 835.774,342.257 C835.774,337.134 839.927,332.982 845.05,332.982 C850.172,332.982 854.325,337.134 854.325,342.257 "/>
<path vector-effect="non-scaling-stroke" fill-rule="evenodd" d="M924.084,967.492 C924.084,972.774 919.802,977.056 914.52,977.056 C909.238,977.056 904.956,972.774 904.956,967.492 C904.956,962.21 909.238,957.928 914.52,957.928 C919.802,957.928 924.084,962.21 924.084,967.492 "/>
<path vector-effect="non-scaling-stroke" fill-rule="evenodd" d="M923.851,550.669 C923.851,555.822 919.674,560 914.52,560 C909.367,560 905.189,555.822 905.189,550.669 C905.189,545.515 909.367,541.338 914.52,541.338 C919.674,541.338 923.851,545.515 923.851,550.669 "/>
<path vector-effect="non-scaling-stroke" fill-rule="evenodd" d="M924.332,411.728 C924.332,417.147 919.939,421.539 914.52,421.539 C909.101,421.539 904.708,417.147 904.708,411.728 C904.708,406.309 909.101,401.916 914.52,401.916 C919.939,401.916 924.332,406.309 924.332,411.728 "/>
<path vector-effect="non-scaling-stroke" fill-rule="evenodd" d="M993.103,203.316 C993.103,208.348 989.023,212.428 983.991,212.428 C978.958,212.428 974.878,208.348 974.878,203.316 C974.878,198.283 978.958,194.203 983.991,194.203 C989.023,194.203 993.103,198.283 993.103,203.316 "/>
<path vector-effect="non-scaling-stroke" fill-rule="evenodd" d="M1062.68,759.081 C1062.68,764.173 1058.55,768.301 1053.46,768.301 C1048.37,768.301 1044.24,764.173 1044.24,759.081 C1044.24,753.988 1048.37,749.86 1053.46,749.86 C1058.55,749.86 1062.68,753.988 1062.68,759.081 "/>
<path vector-effect="non-scaling-stroke" fill-rule="evenodd" d="M1063.15,550.669 C1063.15,556.018 1058.81,560.355 1053.46,560.355 C1048.11,560.355 1043.78,556.018 1043.78,550.669 C1043.78,545.319 1048.11,540.983 1053.46,540.983 C1058.81,540.983 1063.15,545.319 1063.15,550.669 "/>
<path vector-effect="non-scaling-stroke" fill-rule="evenodd" d="M1062.91,64.3747 C1062.91,69.5914 1058.68,73.8204 1053.46,73.8204 C1048.24,73.8204 1044.02,69.5914 1044.02,64.3747 C1044.02,59.1579 1048.24,54.9289 1053.46,54.9289 C1058.68,54.9289 1062.91,59.1579 1062.91,64.3747 "/>
<path vector-effect="non-scaling-stroke" fill-rule="evenodd" d="M1131.94,759.081 C1131.94,764.055 1127.91,768.088 1122.93,768.088 C1117.96,768.088 1113.92,764.055 1113.92,759.081 C1113.92,754.106 1117.96,750.073 1122.93,750.073 C1127.91,750.073 1131.94,754.106 1131.94,759.081 "/>
</g>

<g fill="#dbe9f6" fill-opacity="1" stroke="#000000" stroke-opacity="1" stroke-width="1" stroke-linecap="square" stroke-linejoin="bevel" transform="matrix(0.999913,0,0,0.999913,0,0)"
font-family="MS Shell Dlg 2" font-size="34.375" font-weight="400" font-style="normal" 
>
<path vector-effect="non-scaling-stroke" fill-rule="evenodd" d="M89.117,550.669 C89.117,555.222 85.4261,558.913 80.8731,558.913 C76.3202,558.913 72.6292,555.222 72.6292,550.669 C72.6292,546.116 76.3202,542.425 80.8731,542.425 C85.4261,542.425 89.117,546.116 89.117,550.669 "/>
<path vector-effect="non-scaling-stroke" fill-rule="evenodd" d="M159.126,689.61 C159.126,694.46 155.194,698.392 150.344,698.392 C145.493,698.392 141.561,694.46 141.561,689.61 C141.561,684.759 145.493,680.827 150.344,680.827 C155.194,680.827 159.126,684.759 159.126,689.61 "/>
<path vector-effect="non-scaling-stroke" fill-rule="evenodd" d="M158.937,342.257 C158.937,347.003 155.09,350.851 150.344,350.851 C145.598,350.851 141.75,347.003 141.75,342.257 C141.75,337.511 145.598,333.663 150.344,333.663 C155.09,333.663 158.937,337.511 158.937,342.257 "/>
<path vector-effect="non-scaling-stroke" fill-rule="evenodd" d="M159.225,272.786 C159.225,277.691 155.248,281.667 150.344,281.667 C145.439,281.667 141.463,277.691 141.463,272.786 C141.463,267.882 145.439,263.906 150.344,263.906 C155.248,263.906 159.225,267.882 159.225,272.786 "/>
<path vector-effect="non-scaling-stroke" fill-rule="evenodd" d="M228.229,1106.43 C228.229,1111.08 224.461,1114.85 219.814,1114.85 C215.167,1114.85 211.4,1111.08 211.4,1106.43 C211.4,1101.79 215.167,1098.02 219.814,1098.02 C224.461,1098.02 228.229,1101.79 228.229,1106.43 "/>
<path vector-effect="non-scaling-stroke" fill-rule="evenodd" d="M228.317,481.198 C228.317,485.894 224.51,489.701 219.814,489.701 C215.118,489.701 211.311,485.894 211.311,481.198 C211.311,476.502 215.118,472.695 219.814,472.695 C224.51,472.695 228.317,476.502 228.317,481.198 "/>
<path vector-effect="non-scaling-stroke" fill-rule="evenodd" d="M297.972,898.022 C297.972,902.819 294.082,906.709 289.285,906.709 C284.487,906.709 280.598,902.819 280.598,898.022 C280.598,893.224 284.487,889.335 289.285,889.335 C294.082,889.335 297.972,893.224 297.972,898.022 "/>
<path vector-effect="non-scaling-stroke" fill-rule="evenodd" d="M297.613,64.3747 C297.613,68.9741 293.884,72.7027 289.285,72.7027 C284.685,72.7027 280.957,68.9741 280.957,64.3747 C280.957,59.7752 284.685,56.0466 289.285,56.0466 C293.884,56.0466 297.613,59.7752 297.613,64.3747 "/>
<path vector-effect="non-scaling-stroke" fill-rule="evenodd" d="M437.057,1106.43 C437.057,1111.31 433.103,1115.26 428.226,1115.26 C423.349,1115.26 419.395,1111.31 419.395,1106.43 C419.395,1101.56 423.349,1097.6 428.226,1097.6 C433.103,1097.6 437.057,1101.56 437.057,1106.43 "/>
<path vector-effect="non-scaling-stroke" fill-rule="evenodd" d="M436.774,759.081 C436.774,763.801 432.947,767.628 428.226,767.628 C423.505,767.628 419.678,763.801 419.678,759.081 C419.678,754.36 423.505,750.533 428.226,750.533 C432.947,750.533 436.774,754.36 436.774,759.081 "/>
<path vector-effect="non-scaling-stroke" fill-rule="evenodd" d="M437.157,481.198 C437.157,486.131 433.159,490.129 428.226,490.129 C423.294,490.129 419.295,486.131 419.295,481.198 C419.295,476.266 423.294,472.267 428.226,472.267 C433.159,472.267 437.157,476.266 437.157,481.198 "/>
<path vector-effect="non-scaling-stroke" fill-rule="evenodd" d="M436.96,64.3747 C436.96,69.1985 433.05,73.109 428.226,73.109 C423.402,73.109 419.492,69.1985 419.492,64.3747 C419.492,59.5508 423.402,55.6403 428.226,55.6403 C433.05,55.6403 436.96,59.5508 436.96,64.3747 "/>
<path vector-effect="non-scaling-stroke" fill-rule="evenodd" d="M506.068,620.139 C506.068,624.763 502.32,628.51 497.697,628.51 C493.073,628.51 489.326,624.763 489.326,620.139 C489.326,615.516 493.073,611.768 497.697,611.768 C502.32,611.768 506.068,615.516 506.068,620.139 "/>
<path vector-effect="non-scaling-stroke" fill-rule="evenodd" d="M575.453,898.022 C575.453,902.598 571.743,906.307 567.167,906.307 C562.591,906.307 558.882,902.598 558.882,898.022 C558.882,893.446 562.591,889.736 567.167,889.736 C571.743,889.736 575.453,893.446 575.453,898.022 "/>
<path vector-effect="non-scaling-stroke" fill-rule="evenodd" d="M575.807,550.669 C575.807,555.44 571.939,559.309 567.167,559.309 C562.396,559.309 558.527,555.44 558.527,550.669 C558.527,545.897 562.396,542.029 567.167,542.029 C571.939,542.029 575.807,545.897 575.807,550.669 "/>
<path vector-effect="non-scaling-stroke" fill-rule="evenodd" d="M575.626,203.316 C575.626,207.987 571.839,211.774 567.167,211.774 C562.496,211.774 558.709,207.987 558.709,203.316 C558.709,198.644 562.496,194.857 567.167,194.857 C571.839,194.857 575.626,198.644 575.626,203.316 "/>
<path vector-effect="non-scaling-stroke" fill-rule="evenodd" d="M576.124,133.845 C576.124,138.792 572.114,142.802 567.167,142.802 C562.221,142.802 558.211,138.792 558.211,133.845 C558.211,128.899 562.221,124.889 567.167,124.889 C572.114,124.889 576.124,128.899 576.124,133.845 "/>
<path vector-effect="non-scaling-stroke" fill-rule="evenodd" d="M714.867,759.081 C714.867,763.918 710.946,767.839 706.108,767.839 C701.271,767.839 697.35,763.918 697.35,759.081 C697.35,754.243 701.271,750.322 706.108,750.322 C710.946,750.322 714.867,754.243 714.867,759.081 "/>
<path vector-effect="non-scaling-stroke" fill-rule="evenodd" d="M714.679,689.61 C714.679,694.343 710.842,698.181 706.108,698.181 C701.375,698.181 697.538,694.343 697.538,689.61 C697.538,684.876 701.375,681.039 706.108,681.039 C710.842,681.039 714.679,684.876 714.679,689.61 "/>
<path vector-effect="non-scaling-stroke" fill-rule="evenodd" d="M784.06,1036.96 C784.06,1041.65 780.263,1045.44 775.579,1045.44 C770.895,1045.44 767.098,1041.65 767.098,1036.96 C767.098,1032.28 770.895,1028.48 775.579,1028.48 C780.263,1028.48 784.06,1032.28 784.06,1036.96 "/>
<path vector-effect="non-scaling-stroke" fill-rule="evenodd" d="M784.435,620.139 C784.435,625.03 780.47,628.995 775.579,628.995 C770.688,628.995 766.723,625.03 766.723,620.139 C766.723,615.248 770.688,611.283 775.579,611.283 C780.47,611.283 784.435,615.248 784.435,620.139 "/>
<path vector-effect="non-scaling-stroke" fill-rule="evenodd" d="M783.972,272.786 C783.972,277.422 780.214,281.179 775.579,281.179 C770.944,281.179 767.186,277.422 767.186,272.786 C767.186,268.151 770.944,264.394 775.579,264.394 C780.214,264.394 783.972,268.151 783.972,272.786 "/>
<path vector-effect="non-scaling-stroke" fill-rule="evenodd" d="M853.713,203.316 C853.713,208.1 849.834,211.979 845.05,211.979 C840.265,211.979 836.386,208.1 836.386,203.316 C836.386,198.531 840.265,194.653 845.05,194.653 C849.834,194.653 853.713,198.531 853.713,203.316 "/>
<path vector-effect="non-scaling-stroke" fill-rule="evenodd" d="M922.827,481.198 C922.827,485.786 919.108,489.505 914.52,489.505 C909.932,489.505 906.213,485.786 906.213,481.198 C906.213,476.61 909.932,472.891 914.52,472.891 C919.108,472.891 922.827,476.61 922.827,481.198 "/>
<path vector-effect="non-scaling-stroke" fill-rule="evenodd" d="M923.046,64.3747 C923.046,69.0831 919.229,72.9 914.52,72.9 C909.812,72.9 905.995,69.0831 905.995,64.3747 C905.995,59.6662 909.812,55.8493 914.52,55.8493 C919.229,55.8493 923.046,59.6662 923.046,64.3747 "/>
<path vector-effect="non-scaling-stroke" fill-rule="evenodd" d="M992.897,967.492 C992.897,972.411 988.909,976.398 983.991,976.398 C979.072,976.398 975.085,972.411 975.085,967.492 C975.085,962.574 979.072,958.586 983.991,958.586 C988.909,958.586 992.897,962.574 992.897,967.492 "/>
<path vector-effect="non-scaling-stroke" fill-rule="evenodd" d="M992.701,411.728 C992.701,416.538 988.801,420.438 983.991,420.438 C979.18,420.438 975.28,416.538 975.28,411.728 C975.28,406.917 979.18,403.017 983.991,403.017 C988.801,403.017 992.701,406.917 992.701,411.728 "/>
<path vector-effect="non-scaling-stroke" fill-rule="evenodd" d="M1062.08,1036.96 C1062.08,1041.72 1058.22,1045.58 1053.46,1045.58 C1048.7,1045.58 1044.84,1041.72 1044.84,1036.96 C1044.84,1032.2 1048.7,1028.35 1053.46,1028.35 C1058.22,1028.35 1062.08,1032.2 1062.08,1036.96 "/>
<path vector-effect="non-scaling-stroke" fill-rule="evenodd" d="M1062.27,342.257 C1062.27,347.121 1058.33,351.064 1053.46,351.064 C1048.6,351.064 1044.65,347.121 1044.65,342.257 C1044.65,337.393 1048.6,333.45 1053.46,333.45 C1058.33,333.45 1062.27,337.393 1062.27,342.257 "/>
<path vector-effect="non-scaling-stroke" fill-rule="evenodd" d="M1131.28,828.551 C1131.28,833.162 1127.54,836.901 1122.93,836.901 C1118.32,836.901 1114.58,833.162 1114.58,828.551 C1114.58,823.94 1118.32,820.202 1122.93,820.202 C1127.54,820.202 1131.28,823.94 1131.28,828.551 "/>
<path vector-effect="non-scaling-stroke" fill-rule="evenodd" d="M1131.37,550.669 C1131.37,555.328 1127.59,559.105 1122.93,559.105 C1118.27,559.105 1114.5,555.328 1114.5,550.669 C1114.5,546.01 1118.27,542.232 1122.93,542.232 C1127.59,542.232 1131.37,546.01 1131.37,550.669 "/>
<path vector-effect="non-scaling-stroke" fill-rule="evenodd" d="M1131.2,272.786 C1131.2,277.351 1127.5,281.051 1122.93,281.051 C1118.37,281.051 1114.67,277.351 1114.67,272.786 C1114.67,268.222 1118.37,264.522 1122.93,264.522 C1127.5,264.522 1131.2,268.222 1131.2,272.786 "/>
</g>

<g fill="#f7fbff" fill-opacity="1" stroke="#000000" stroke-opacity="1" stroke-width="1" stroke-linecap="square" stroke-linejoin="bevel" transform="matrix(0.999913,0,0,0.999913,0,0)"
font-family="MS Shell Dlg 2" font-size="34.375" font-weight="400" font-style="normal" 
>
<path vector-effect="non-scaling-stroke" fill-rule="evenodd" d="M88.5794,1106.43 C88.5794,1110.69 85.1292,1114.14 80.8731,1114.14 C76.6171,1114.14 73.1668,1110.69 73.1668,1106.43 C73.1668,1102.18 76.6171,1098.73 80.8731,1098.73 C85.1292,1098.73 88.5794,1102.18 88.5794,1106.43 "/>
<path vector-effect="non-scaling-stroke" fill-rule="evenodd" d="M88.6876,759.081 C88.6876,763.396 85.1889,766.895 80.8731,766.895 C76.5573,766.895 73.0586,763.396 73.0586,759.081 C73.0586,754.765 76.5573,751.266 80.8731,751.266 C85.1889,751.266 88.6876,754.765 88.6876,759.081 "/>
<path vector-effect="non-scaling-stroke" fill-rule="evenodd" d="M88.7245,133.845 C88.7245,138.181 85.2093,141.697 80.8731,141.697 C76.5369,141.697 73.0218,138.181 73.0218,133.845 C73.0218,129.509 76.5369,125.994 80.8731,125.994 C85.2093,125.994 88.7245,129.509 88.7245,133.845 "/>
<path vector-effect="non-scaling-stroke" fill-rule="evenodd" d="M88.6511,64.3747 C88.6511,68.6703 85.1688,72.1527 80.8731,72.1527 C76.5774,72.1527 73.0951,68.6703 73.0951,64.3747 C73.0951,60.079 76.5774,56.5966 80.8731,56.5966 C85.1688,56.5966 88.6511,60.079 88.6511,64.3747 "/>
<path vector-effect="non-scaling-stroke" fill-rule="evenodd" d="M158.27,1106.43 C158.27,1110.81 154.721,1114.36 150.344,1114.36 C145.966,1114.36 142.417,1110.81 142.417,1106.43 C142.417,1102.06 145.966,1098.51 150.344,1098.51 C154.721,1098.51 158.27,1102.06 158.27,1106.43 "/>
<path vector-effect="non-scaling-stroke" fill-rule="evenodd" d="M158.505,898.022 C158.505,902.529 154.851,906.183 150.344,906.183 C145.836,906.183 142.182,902.529 142.182,898.022 C142.182,893.514 145.836,889.86 150.344,889.86 C154.851,889.86 158.505,893.514 158.505,898.022 "/>
<path vector-effect="non-scaling-stroke" fill-rule="evenodd" d="M158.425,203.316 C158.425,207.779 154.807,211.397 150.344,211.397 C145.88,211.397 142.262,207.779 142.262,203.316 C142.262,198.853 145.88,195.234 150.344,195.234 C154.807,195.234 158.425,198.853 158.425,203.316 "/>
<path vector-effect="non-scaling-stroke" fill-rule="evenodd" d="M227.817,550.669 C227.817,555.089 224.234,558.672 219.814,558.672 C215.394,558.672 211.811,555.089 211.811,550.669 C211.811,546.249 215.394,542.666 219.814,542.666 C224.234,542.666 227.817,546.249 227.817,550.669 "/>
<path vector-effect="non-scaling-stroke" fill-rule="evenodd" d="M297.327,967.492 C297.327,971.934 293.726,975.534 289.285,975.534 C284.843,975.534 281.243,971.934 281.243,967.492 C281.243,963.051 284.843,959.45 289.285,959.45 C293.726,959.45 297.327,963.051 297.327,967.492 "/>
<path vector-effect="non-scaling-stroke" fill-rule="evenodd" d="M366.644,898.022 C366.644,902.378 363.112,905.91 358.755,905.91 C354.399,905.91 350.867,902.378 350.867,898.022 C350.867,893.665 354.399,890.133 358.755,890.133 C363.112,890.133 366.644,893.665 366.644,898.022 "/>
<path vector-effect="non-scaling-stroke" fill-rule="evenodd" d="M366.958,342.257 C366.958,346.787 363.286,350.46 358.755,350.46 C354.225,350.46 350.553,346.787 350.553,342.257 C350.553,337.727 354.225,334.054 358.755,334.054 C363.286,334.054 366.958,337.727 366.958,342.257 "/>
<path vector-effect="non-scaling-stroke" fill-rule="evenodd" d="M366.497,64.3747 C366.497,68.6504 363.031,72.1166 358.755,72.1166 C354.48,72.1166 351.014,68.6504 351.014,64.3747 C351.014,60.0989 354.48,56.6327 358.755,56.6327 C363.031,56.6327 366.497,60.0989 366.497,64.3747 "/>
<path vector-effect="non-scaling-stroke" fill-rule="evenodd" d="M436.347,411.728 C436.347,416.213 432.711,419.849 428.226,419.849 C423.741,419.849 420.105,416.213 420.105,411.728 C420.105,407.242 423.741,403.606 428.226,403.606 C432.711,403.606 436.347,407.242 436.347,411.728 "/>
<path vector-effect="non-scaling-stroke" fill-rule="evenodd" d="M505.661,64.3747 C505.661,68.7733 502.095,72.3391 497.697,72.3391 C493.298,72.3391 489.732,68.7733 489.732,64.3747 C489.732,59.976 493.298,56.4102 497.697,56.4102 C502.095,56.4102 505.661,59.976 505.661,64.3747 "/>
<path vector-effect="non-scaling-stroke" fill-rule="evenodd" d="M575.39,1106.43 C575.39,1110.97 571.709,1114.66 567.167,1114.66 C562.626,1114.66 558.944,1110.97 558.944,1106.43 C558.944,1101.89 562.626,1098.21 567.167,1098.21 C571.709,1098.21 575.39,1101.89 575.39,1106.43 "/>
<path vector-effect="non-scaling-stroke" fill-rule="evenodd" d="M644.309,64.3747 C644.309,68.6112 640.874,72.0456 636.638,72.0456 C632.401,72.0456 628.967,68.6112 628.967,64.3747 C628.967,60.1381 632.401,56.7037 636.638,56.7037 C640.874,56.7037 644.309,60.1381 644.309,64.3747 "/>
<path vector-effect="non-scaling-stroke" fill-rule="evenodd" d="M713.941,1106.43 C713.941,1110.76 710.434,1114.27 706.108,1114.27 C701.782,1114.27 698.276,1110.76 698.276,1106.43 C698.276,1102.11 701.782,1098.6 706.108,1098.6 C710.434,1098.6 713.941,1102.11 713.941,1106.43 "/>
<path vector-effect="non-scaling-stroke" fill-rule="evenodd" d="M714.016,133.845 C714.016,138.212 710.476,141.753 706.108,141.753 C701.741,141.753 698.201,138.212 698.201,133.845 C698.201,129.478 701.741,125.938 706.108,125.938 C710.476,125.938 714.016,129.478 714.016,133.845 "/>
<path vector-effect="non-scaling-stroke" fill-rule="evenodd" d="M783.563,1106.43 C783.563,1110.84 779.988,1114.42 775.579,1114.42 C771.17,1114.42 767.595,1110.84 767.595,1106.43 C767.595,1102.02 771.17,1098.45 775.579,1098.45 C779.988,1098.45 783.563,1102.02 783.563,1106.43 "/>
<path vector-effect="non-scaling-stroke" fill-rule="evenodd" d="M783.641,759.081 C783.641,763.533 780.031,767.142 775.579,767.142 C771.127,767.142 767.517,763.533 767.517,759.081 C767.517,754.628 771.127,751.019 775.579,751.019 C780.031,751.019 783.641,754.628 783.641,759.081 "/>
<path vector-effect="non-scaling-stroke" fill-rule="evenodd" d="M783.72,64.3747 C783.72,68.871 780.075,72.5161 775.579,72.5161 C771.083,72.5161 767.438,68.871 767.438,64.3747 C767.438,59.8783 771.083,56.2332 775.579,56.2332 C780.075,56.2332 783.72,59.8783 783.72,64.3747 "/>
<path vector-effect="non-scaling-stroke" fill-rule="evenodd" d="M922.39,1106.43 C922.39,1110.78 918.867,1114.3 914.52,1114.3 C910.174,1114.3 906.65,1110.78 906.65,1106.43 C906.65,1102.09 910.174,1098.56 914.52,1098.56 C918.867,1098.56 922.39,1102.09 922.39,1106.43 "/>
<path vector-effect="non-scaling-stroke" fill-rule="evenodd" d="M922.702,620.139 C922.702,624.658 919.039,628.321 914.52,628.321 C910.001,628.321 906.338,624.658 906.338,620.139 C906.338,615.621 910.001,611.957 914.52,611.957 C919.039,611.957 922.702,615.621 922.702,620.139 "/>
<path vector-effect="non-scaling-stroke" fill-rule="evenodd" d="M991.679,64.3747 C991.679,68.6209 988.237,72.0632 983.991,72.0632 C979.744,72.0632 976.302,68.6209 976.302,64.3747 C976.302,60.1284 979.744,56.6861 983.991,56.6861 C988.237,56.6861 991.679,60.1284 991.679,64.3747 "/>
<path vector-effect="non-scaling-stroke" fill-rule="evenodd" d="M1061.22,1106.43 C1061.22,1110.72 1057.75,1114.19 1053.46,1114.19 C1049.18,1114.19 1045.7,1110.72 1045.7,1106.43 C1045.7,1102.15 1049.18,1098.67 1053.46,1098.67 C1057.75,1098.67 1061.22,1102.15 1061.22,1106.43 "/>
<path vector-effect="non-scaling-stroke" fill-rule="evenodd" d="M1061.26,133.845 C1061.26,138.151 1057.77,141.641 1053.46,141.641 C1049.16,141.641 1045.67,138.151 1045.67,133.845 C1045.67,129.54 1049.16,126.049 1053.46,126.049 C1057.77,126.049 1061.26,129.54 1061.26,133.845 "/>
<path vector-effect="non-scaling-stroke" fill-rule="evenodd" d="M1130.59,1106.43 C1130.59,1110.66 1127.16,1114.09 1122.93,1114.09 C1118.71,1114.09 1115.28,1110.66 1115.28,1106.43 C1115.28,1102.21 1118.71,1098.78 1122.93,1098.78 C1127.16,1098.78 1130.59,1102.21 1130.59,1106.43 "/>
<path vector-effect="non-scaling-stroke" fill-rule="evenodd" d="M1131.03,967.492 C1131.03,971.967 1127.41,975.594 1122.93,975.594 C1118.46,975.594 1114.83,971.967 1114.83,967.492 C1114.83,963.018 1118.46,959.391 1122.93,959.391 C1127.41,959.391 1131.03,963.018 1131.03,967.492 "/>
<path vector-effect="non-scaling-stroke" fill-rule="evenodd" d="M1130.88,689.61 C1130.88,693.998 1127.32,697.555 1122.93,697.555 C1118.54,697.555 1114.99,693.998 1114.99,689.61 C1114.99,685.222 1118.54,681.665 1122.93,681.665 C1127.32,681.665 1130.88,685.222 1130.88,689.61 "/>
<path vector-effect="non-scaling-stroke" fill-rule="evenodd" d="M1130.95,481.198 C1130.95,485.629 1127.36,489.221 1122.93,489.221 C1118.5,489.221 1114.91,485.629 1114.91,481.198 C1114.91,476.768 1118.5,473.176 1122.93,473.176 C1127.36,473.176 1130.95,476.768 1130.95,481.198 "/>
<path vector-effect="non-scaling-stroke" fill-rule="evenodd" d="M1130.66,203.316 C1130.66,207.582 1127.2,211.04 1122.93,211.04 C1118.67,211.04 1115.21,207.582 1115.21,203.316 C1115.21,199.05 1118.67,195.592 1122.93,195.592 C1127.2,195.592 1130.66,199.05 1130.66,203.316 "/>
<path vector-effect="non-scaling-stroke" fill-rule="evenodd" d="M1130.57,64.3747 C1130.57,68.5919 1127.15,72.0107 1122.93,72.0107 C1118.71,72.0107 1115.3,68.5919 1115.3,64.3747 C1115.3,60.1574 1118.71,56.7386 1122.93,56.7386 C1127.15,56.7386 1130.57,60.1574 1130.57,64.3747 "/>
</g>

<g fill="#3181bd" fill-opacity="1" stroke="#000000" stroke-opacity="1" stroke-width="1" stroke-linecap="square" stroke-linejoin="bevel" transform="matrix(0.999913,0,0,0.999913,0,0)"
font-family="MS Shell Dlg 2" font-size="34.375" font-weight="400" font-style="normal" 
>
<path vector-effect="non-scaling-stroke" fill-rule="evenodd" d="M93.7421,898.022 C93.7421,905.129 87.9805,910.891 80.8731,910.891 C73.7657,910.891 68.0041,905.129 68.0041,898.022 C68.0041,890.914 73.7657,885.153 80.8731,885.153 C87.9805,885.153 93.7421,890.914 93.7421,898.022 "/>
<path vector-effect="non-scaling-stroke" fill-rule="evenodd" d="M94.9484,620.139 C94.9484,627.913 88.6467,634.215 80.8731,634.215 C73.0996,634.215 66.7979,627.913 66.7979,620.139 C66.7979,612.366 73.0996,606.064 80.8731,606.064 C88.6467,606.064 94.9484,612.366 94.9484,620.139 "/>
<path vector-effect="non-scaling-stroke" fill-rule="evenodd" d="M165.157,1036.96 C165.157,1045.14 158.525,1051.78 150.344,1051.78 C142.163,1051.78 135.53,1045.14 135.53,1036.96 C135.53,1028.78 142.163,1022.15 150.344,1022.15 C158.525,1022.15 165.157,1028.78 165.157,1036.96 "/>
<path vector-effect="non-scaling-stroke" fill-rule="evenodd" d="M233.558,898.022 C233.558,905.612 227.405,911.766 219.814,911.766 C212.224,911.766 206.07,905.612 206.07,898.022 C206.07,890.431 212.224,884.278 219.814,884.278 C227.405,884.278 233.558,890.431 233.558,898.022 "/>
<path vector-effect="non-scaling-stroke" fill-rule="evenodd" d="M235.041,411.728 C235.041,420.137 228.224,426.955 219.814,426.955 C211.405,426.955 204.587,420.137 204.587,411.728 C204.587,403.318 211.405,396.5 219.814,396.5 C228.224,396.5 235.041,403.318 235.041,411.728 "/>
<path vector-effect="non-scaling-stroke" fill-rule="evenodd" d="M233.248,272.786 C233.248,280.206 227.234,286.22 219.814,286.22 C212.395,286.22 206.38,280.206 206.38,272.786 C206.38,265.367 212.395,259.353 219.814,259.353 C227.234,259.353 233.248,265.367 233.248,272.786 "/>
<path vector-effect="non-scaling-stroke" fill-rule="evenodd" d="M302.428,689.61 C302.428,696.869 296.543,702.753 289.285,702.753 C282.026,702.753 276.142,696.869 276.142,689.61 C276.142,682.351 282.026,676.467 289.285,676.467 C296.543,676.467 302.428,682.351 302.428,689.61 "/>
<path vector-effect="non-scaling-stroke" fill-rule="evenodd" d="M303.716,133.845 C303.716,141.815 297.255,148.276 289.285,148.276 C281.315,148.276 274.854,141.815 274.854,133.845 C274.854,125.875 281.315,119.415 289.285,119.415 C297.255,119.415 303.716,125.875 303.716,133.845 "/>
<path vector-effect="non-scaling-stroke" fill-rule="evenodd" d="M374.203,828.551 C374.203,837.082 367.287,843.998 358.755,843.998 C350.224,843.998 343.308,837.082 343.308,828.551 C343.308,820.02 350.224,813.104 358.755,813.104 C367.287,813.104 374.203,820.02 374.203,828.551 "/>
<path vector-effect="non-scaling-stroke" fill-rule="evenodd" d="M372.662,411.728 C372.662,419.408 366.436,425.634 358.755,425.634 C351.075,425.634 344.849,419.408 344.849,411.728 C344.849,404.047 351.075,397.821 358.755,397.821 C366.436,397.821 372.662,404.047 372.662,411.728 "/>
<path vector-effect="non-scaling-stroke" fill-rule="evenodd" d="M441.512,1036.96 C441.512,1044.3 435.564,1050.25 428.226,1050.25 C420.888,1050.25 414.94,1044.3 414.94,1036.96 C414.94,1029.63 420.888,1023.68 428.226,1023.68 C435.564,1023.68 441.512,1029.63 441.512,1036.96 "/>
<path vector-effect="non-scaling-stroke" fill-rule="evenodd" d="M442.844,689.61 C442.844,697.683 436.3,704.228 428.226,704.228 C420.153,704.228 413.608,697.683 413.608,689.61 C413.608,681.536 420.153,674.992 428.226,674.992 C436.3,674.992 442.844,681.536 442.844,689.61 "/>
<path vector-effect="non-scaling-stroke" fill-rule="evenodd" d="M511.283,550.669 C511.283,558.172 505.2,564.255 497.697,564.255 C490.193,564.255 484.11,558.172 484.11,550.669 C484.11,543.165 490.193,537.082 497.697,537.082 C505.2,537.082 511.283,543.165 511.283,550.669 "/>
<path vector-effect="non-scaling-stroke" fill-rule="evenodd" d="M512.713,203.316 C512.713,211.609 505.99,218.332 497.697,218.332 C489.403,218.332 482.681,211.609 482.681,203.316 C482.681,195.023 489.403,188.3 497.697,188.3 C505.99,188.3 512.713,195.023 512.713,203.316 "/>
<path vector-effect="non-scaling-stroke" fill-rule="evenodd" d="M581.417,967.492 C581.417,975.362 575.037,981.742 567.167,981.742 C559.297,981.742 552.917,975.362 552.917,967.492 C552.917,959.622 559.297,953.243 567.167,953.243 C575.037,953.243 581.417,959.622 581.417,967.492 "/>
<path vector-effect="non-scaling-stroke" fill-rule="evenodd" d="M580.171,64.3747 C580.171,71.5565 574.349,77.3786 567.167,77.3786 C559.985,77.3786 554.163,71.5565 554.163,64.3747 C554.163,57.1928 559.985,51.3707 567.167,51.3707 C574.349,51.3707 580.171,57.1928 580.171,64.3747 "/>
<path vector-effect="non-scaling-stroke" fill-rule="evenodd" d="M650.628,1106.43 C650.628,1114.16 644.364,1120.42 636.638,1120.42 C628.911,1120.42 622.648,1114.16 622.648,1106.43 C622.648,1098.71 628.911,1092.44 636.638,1092.44 C644.364,1092.44 650.628,1098.71 650.628,1106.43 "/>
<path vector-effect="non-scaling-stroke" fill-rule="evenodd" d="M652.198,689.61 C652.198,698.204 645.232,705.171 636.638,705.171 C628.044,705.171 621.077,698.204 621.077,689.61 C621.077,681.016 628.044,674.049 636.638,674.049 C645.232,674.049 652.198,681.016 652.198,689.61 "/>
<path vector-effect="non-scaling-stroke" fill-rule="evenodd" d="M721.229,898.022 C721.229,906.373 714.459,913.142 706.108,913.142 C697.758,913.142 690.988,906.373 690.988,898.022 C690.988,889.671 697.758,882.901 706.108,882.901 C714.459,882.901 721.229,889.671 721.229,898.022 "/>
<path vector-effect="non-scaling-stroke" fill-rule="evenodd" d="M719.468,620.139 C719.468,627.518 713.487,633.499 706.108,633.499 C698.73,633.499 692.749,627.518 692.749,620.139 C692.749,612.761 698.73,606.78 706.108,606.78 C713.487,606.78 719.468,612.761 719.468,620.139 "/>
<path vector-effect="non-scaling-stroke" fill-rule="evenodd" d="M720.823,342.257 C720.823,350.384 714.235,356.972 706.108,356.972 C697.982,356.972 691.393,350.384 691.393,342.257 C691.393,334.13 697.982,327.542 706.108,327.542 C714.235,327.542 720.823,334.13 720.823,342.257 "/>
<path vector-effect="non-scaling-stroke" fill-rule="evenodd" d="M789.918,481.198 C789.918,489.118 783.498,495.538 775.579,495.538 C767.66,495.538 761.24,489.118 761.24,481.198 C761.24,473.279 767.66,466.859 775.579,466.859 C783.498,466.859 789.918,473.279 789.918,481.198 "/>
<path vector-effect="non-scaling-stroke" fill-rule="evenodd" d="M789.243,203.316 C789.243,210.862 783.126,216.98 775.579,216.98 C768.032,216.98 761.915,210.862 761.915,203.316 C761.915,195.769 768.032,189.651 775.579,189.651 C783.126,189.651 789.243,195.769 789.243,203.316 "/>
<path vector-effect="non-scaling-stroke" fill-rule="evenodd" d="M858.122,828.551 C858.122,835.771 852.27,841.624 845.05,841.624 C837.83,841.624 831.977,835.771 831.977,828.551 C831.977,821.331 837.83,815.478 845.05,815.478 C852.27,815.478 858.122,821.331 858.122,828.551 "/>
<path vector-effect="non-scaling-stroke" fill-rule="evenodd" d="M860.386,64.3747 C860.386,72.8445 853.519,79.7106 845.05,79.7106 C836.58,79.7106 829.714,72.8445 829.714,64.3747 C829.714,55.9048 836.58,49.0387 845.05,49.0387 C853.519,49.0387 860.386,55.9048 860.386,64.3747 "/>
<path vector-effect="non-scaling-stroke" fill-rule="evenodd" d="M929.044,828.551 C929.044,836.572 922.541,843.075 914.52,843.075 C906.499,843.075 899.997,836.572 899.997,828.551 C899.997,820.53 906.499,814.027 914.52,814.027 C922.541,814.027 929.044,820.53 929.044,828.551 "/>
<path vector-effect="non-scaling-stroke" fill-rule="evenodd" d="M928.345,759.081 C928.345,766.716 922.155,772.905 914.52,772.905 C906.885,772.905 900.696,766.716 900.696,759.081 C900.696,751.445 906.885,745.256 914.52,745.256 C922.155,745.256 928.345,751.445 928.345,759.081 "/>
<path vector-effect="non-scaling-stroke" fill-rule="evenodd" d="M998.904,550.669 C998.904,558.905 992.227,565.583 983.991,565.583 C975.754,565.583 969.077,558.905 969.077,550.669 C969.077,542.432 975.754,535.755 983.991,535.755 C992.227,535.755 998.904,542.432 998.904,550.669 "/>
<path vector-effect="non-scaling-stroke" fill-rule="evenodd" d="M997.205,342.257 C997.205,349.555 991.289,355.471 983.991,355.471 C976.693,355.471 970.777,349.555 970.777,342.257 C970.777,334.959 976.693,329.043 983.991,329.043 C991.289,329.043 997.205,334.959 997.205,342.257 "/>
<path vector-effect="non-scaling-stroke" fill-rule="evenodd" d="M1066.97,967.492 C1066.97,974.953 1060.92,981.002 1053.46,981.002 C1046,981.002 1039.95,974.953 1039.95,967.492 C1039.95,960.031 1046,953.983 1053.46,953.983 C1060.92,953.983 1066.97,960.031 1066.97,967.492 "/>
<path vector-effect="non-scaling-stroke" fill-rule="evenodd" d="M1067.62,272.786 C1067.62,280.608 1061.28,286.948 1053.46,286.948 C1045.64,286.948 1039.3,280.608 1039.3,272.786 C1039.3,264.965 1045.64,258.625 1053.46,258.625 C1061.28,258.625 1067.62,264.965 1067.62,272.786 "/>
<path vector-effect="non-scaling-stroke" fill-rule="evenodd" d="M1135.87,411.728 C1135.87,418.872 1130.08,424.664 1122.93,424.664 C1115.79,424.664 1110,418.872 1110,411.728 C1110,404.583 1115.79,398.792 1122.93,398.792 C1130.08,398.792 1135.87,404.583 1135.87,411.728 "/>
</g>

<g fill="#105ca4" fill-opacity="1" stroke="#000000" stroke-opacity="1" stroke-width="1" stroke-linecap="square" stroke-linejoin="bevel" transform="matrix(0.999913,0,0,0.999913,0,0)"
font-family="MS Shell Dlg 2" font-size="34.375" font-weight="400" font-style="normal" 
>
<path vector-effect="non-scaling-stroke" fill-rule="evenodd" d="M96.5498,342.257 C96.5498,350.915 89.5311,357.934 80.8731,357.934 C72.2151,357.934 65.1964,350.915 65.1964,342.257 C65.1964,333.599 72.2151,326.58 80.8731,326.58 C89.5311,326.58 96.5498,333.599 96.5498,342.257 "/>
<path vector-effect="non-scaling-stroke" fill-rule="evenodd" d="M168.314,828.551 C168.314,838.476 160.268,846.521 150.344,846.521 C140.419,846.521 132.374,838.476 132.374,828.551 C132.374,818.627 140.419,810.581 150.344,810.581 C160.268,810.581 168.314,818.627 168.314,828.551 "/>
<path vector-effect="non-scaling-stroke" fill-rule="evenodd" d="M169.917,64.3747 C169.917,75.1845 161.154,83.9477 150.344,83.9477 C139.534,83.9477 130.771,75.1845 130.771,64.3747 C130.771,53.5648 139.534,44.8016 150.344,44.8016 C161.154,44.8016 169.917,53.5648 169.917,64.3747 "/>
<path vector-effect="non-scaling-stroke" fill-rule="evenodd" d="M240.372,1036.96 C240.372,1048.32 231.168,1057.52 219.814,1057.52 C208.461,1057.52 199.257,1048.32 199.257,1036.96 C199.257,1025.61 208.461,1016.41 219.814,1016.41 C231.168,1016.41 240.372,1025.61 240.372,1036.96 "/>
<path vector-effect="non-scaling-stroke" fill-rule="evenodd" d="M236.521,759.081 C236.521,768.308 229.041,775.788 219.814,775.788 C210.587,775.788 203.107,768.308 203.107,759.081 C203.107,749.853 210.587,742.373 219.814,742.373 C229.041,742.373 236.521,749.853 236.521,759.081 "/>
<path vector-effect="non-scaling-stroke" fill-rule="evenodd" d="M308.004,550.669 C308.004,561.007 299.623,569.388 289.285,569.388 C278.946,569.388 270.565,561.007 270.565,550.669 C270.565,540.33 278.946,531.949 289.285,531.949 C299.623,531.949 308.004,540.33 308.004,550.669 "/>
<path vector-effect="non-scaling-stroke" fill-rule="evenodd" d="M306.589,203.316 C306.589,212.873 298.842,220.62 289.285,220.62 C279.728,220.62 271.981,212.873 271.981,203.316 C271.981,193.759 279.728,186.012 289.285,186.012 C298.842,186.012 306.589,193.759 306.589,203.316 "/>
<path vector-effect="non-scaling-stroke" fill-rule="evenodd" d="M374.923,967.492 C374.923,976.421 367.685,983.66 358.755,983.66 C349.826,983.66 342.588,976.421 342.588,967.492 C342.588,958.563 349.826,951.325 358.755,951.325 C367.685,951.325 374.923,958.563 374.923,967.492 "/>
<path vector-effect="non-scaling-stroke" fill-rule="evenodd" d="M376.383,481.198 C376.383,490.934 368.491,498.826 358.755,498.826 C349.02,498.826 341.128,490.934 341.128,481.198 C341.128,471.463 349.02,463.571 358.755,463.571 C368.491,463.571 376.383,471.463 376.383,481.198 "/>
<path vector-effect="non-scaling-stroke" fill-rule="evenodd" d="M379.866,272.786 C379.866,284.445 370.414,293.897 358.755,293.897 C347.096,293.897 337.645,284.445 337.645,272.786 C337.645,261.127 347.096,251.676 358.755,251.676 C370.414,251.676 379.866,261.127 379.866,272.786 "/>
<path vector-effect="non-scaling-stroke" fill-rule="evenodd" d="M447.358,898.022 C447.358,908.588 438.792,917.154 428.226,917.154 C417.66,917.154 409.094,908.588 409.094,898.022 C409.094,887.455 417.66,878.89 428.226,878.89 C438.792,878.89 447.358,887.455 447.358,898.022 "/>
<path vector-effect="non-scaling-stroke" fill-rule="evenodd" d="M444.657,133.845 C444.657,142.92 437.301,150.276 428.226,150.276 C419.152,150.276 411.795,142.92 411.795,133.845 C411.795,124.771 419.152,117.414 428.226,117.414 C437.301,117.414 444.657,124.771 444.657,133.845 "/>
<path vector-effect="non-scaling-stroke" fill-rule="evenodd" d="M514.694,1106.43 C514.694,1115.82 507.084,1123.43 497.697,1123.43 C488.309,1123.43 480.699,1115.82 480.699,1106.43 C480.699,1097.05 488.309,1089.44 497.697,1089.44 C507.084,1089.44 514.694,1097.05 514.694,1106.43 "/>
<path vector-effect="non-scaling-stroke" fill-rule="evenodd" d="M517.743,689.61 C517.743,700.681 508.768,709.657 497.697,709.657 C486.625,709.657 477.65,700.681 477.65,689.61 C477.65,678.538 486.625,669.563 497.697,669.563 C508.768,669.563 517.743,678.538 517.743,689.61 "/>
<path vector-effect="non-scaling-stroke" fill-rule="evenodd" d="M583.084,620.139 C583.084,628.93 575.958,636.056 567.167,636.056 C558.377,636.056 551.251,628.93 551.251,620.139 C551.251,611.349 558.377,604.223 567.167,604.223 C575.958,604.223 583.084,611.349 583.084,620.139 "/>
<path vector-effect="non-scaling-stroke" fill-rule="evenodd" d="M585.5,342.257 C585.5,352.382 577.292,360.59 567.167,360.59 C557.042,360.59 548.834,352.382 548.834,342.257 C548.834,332.132 557.042,323.924 567.167,323.924 C577.292,323.924 585.5,332.132 585.5,342.257 "/>
<path vector-effect="non-scaling-stroke" fill-rule="evenodd" d="M658.042,967.492 C658.042,979.314 648.459,988.897 636.638,988.897 C624.816,988.897 615.233,979.314 615.233,967.492 C615.233,955.671 624.816,946.088 636.638,946.088 C648.459,946.088 658.042,955.671 658.042,967.492 "/>
<path vector-effect="non-scaling-stroke" fill-rule="evenodd" d="M654.434,133.845 C654.434,143.674 646.466,151.642 636.638,151.642 C626.809,151.642 618.842,143.674 618.842,133.845 C618.842,124.017 626.809,116.049 636.638,116.049 C646.466,116.049 654.434,124.017 654.434,133.845 "/>
<path vector-effect="non-scaling-stroke" fill-rule="evenodd" d="M722.676,828.551 C722.676,837.701 715.258,845.118 706.108,845.118 C696.959,845.118 689.541,837.701 689.541,828.551 C689.541,819.401 696.959,811.984 706.108,811.984 C715.258,811.984 722.676,819.401 722.676,828.551 "/>
<path vector-effect="non-scaling-stroke" fill-rule="evenodd" d="M725.457,411.728 C725.457,422.414 716.794,431.076 706.108,431.076 C695.422,431.076 686.76,422.414 686.76,411.728 C686.76,401.042 695.422,392.379 706.108,392.379 C716.794,392.379 725.457,401.042 725.457,411.728 "/>
<path vector-effect="non-scaling-stroke" fill-rule="evenodd" d="M792.728,550.669 C792.728,560.14 785.05,567.818 775.579,567.818 C766.108,567.818 758.43,560.14 758.43,550.669 C758.43,541.198 766.108,533.52 775.579,533.52 C785.05,533.52 792.728,541.198 792.728,550.669 "/>
<path vector-effect="non-scaling-stroke" fill-rule="evenodd" d="M795.876,342.257 C795.876,353.467 786.789,362.554 775.579,362.554 C764.369,362.554 755.282,353.467 755.282,342.257 C755.282,331.047 764.369,321.96 775.579,321.96 C786.789,321.96 795.876,331.047 795.876,342.257 "/>
<path vector-effect="non-scaling-stroke" fill-rule="evenodd" d="M863.573,1036.96 C863.573,1047.19 855.28,1055.49 845.05,1055.49 C834.819,1055.49 826.526,1047.19 826.526,1036.96 C826.526,1026.73 834.819,1018.44 845.05,1018.44 C855.28,1018.44 863.573,1026.73 863.573,1036.96 "/>
<path vector-effect="non-scaling-stroke" fill-rule="evenodd" d="M865.878,620.139 C865.878,631.643 856.553,640.968 845.05,640.968 C833.546,640.968 824.221,631.643 824.221,620.139 C824.221,608.636 833.546,599.311 845.05,599.311 C856.553,599.311 865.878,608.636 865.878,620.139 "/>
<path vector-effect="non-scaling-stroke" fill-rule="evenodd" d="M861.09,272.786 C861.09,281.645 853.909,288.827 845.05,288.827 C836.191,288.827 829.009,281.645 829.009,272.786 C829.009,263.927 836.191,256.746 845.05,256.746 C853.909,256.746 861.09,263.927 861.09,272.786 "/>
<path vector-effect="non-scaling-stroke" fill-rule="evenodd" d="M931.984,898.022 C931.984,907.667 924.165,915.485 914.52,915.485 C904.875,915.485 897.057,907.667 897.057,898.022 C897.057,888.377 904.875,880.558 914.52,880.558 C924.165,880.558 931.984,888.377 931.984,898.022 "/>
<path vector-effect="non-scaling-stroke" fill-rule="evenodd" d="M933.442,203.316 C933.442,213.766 924.971,222.238 914.52,222.238 C904.07,222.238 895.598,213.766 895.598,203.316 C895.598,192.865 904.07,184.394 914.52,184.394 C924.971,184.394 933.442,192.865 933.442,203.316 "/>
<path vector-effect="non-scaling-stroke" fill-rule="evenodd" d="M1003.8,759.081 C1003.8,770.019 994.929,778.886 983.991,778.886 C973.052,778.886 964.185,770.019 964.185,759.081 C964.185,748.142 973.052,739.275 983.991,739.275 C994.929,739.275 1003.8,748.142 1003.8,759.081 "/>
<path vector-effect="non-scaling-stroke" fill-rule="evenodd" d="M1000.29,481.198 C1000.29,490.199 992.992,497.496 983.991,497.496 C974.99,497.496 967.693,490.199 967.693,481.198 C967.693,472.197 974.99,464.901 983.991,464.901 C992.992,464.901 1000.29,472.197 1000.29,481.198 "/>
<path vector-effect="non-scaling-stroke" fill-rule="evenodd" d="M1071.61,689.61 C1071.61,699.633 1063.48,707.759 1053.46,707.759 C1043.44,707.759 1035.31,699.633 1035.31,689.61 C1035.31,679.587 1043.44,671.461 1053.46,671.461 C1063.48,671.461 1071.61,679.587 1071.61,689.61 "/>
<path vector-effect="non-scaling-stroke" fill-rule="evenodd" d="M1070.31,411.728 C1070.31,421.034 1062.77,428.578 1053.46,428.578 C1044.16,428.578 1036.61,421.034 1036.61,411.728 C1036.61,402.421 1044.16,394.877 1053.46,394.877 C1062.77,394.877 1070.31,402.421 1070.31,411.728 "/>
<path vector-effect="non-scaling-stroke" fill-rule="evenodd" d="M1138.73,1036.96 C1138.73,1045.69 1131.66,1052.76 1122.93,1052.76 C1114.21,1052.76 1107.14,1045.69 1107.14,1036.96 C1107.14,1028.24 1114.21,1021.17 1122.93,1021.17 C1131.66,1021.17 1138.73,1028.24 1138.73,1036.96 "/>
</g>

<g fill="#08306b" fill-opacity="1" stroke="#000000" stroke-opacity="1" stroke-width="1" stroke-linecap="square" stroke-linejoin="bevel" transform="matrix(0.999913,0,0,0.999913,0,0)"
font-family="MS Shell Dlg 2" font-size="34.375" font-weight="400" font-style="normal" 
>
<path vector-effect="non-scaling-stroke" fill-rule="evenodd" d="M102.585,481.198 C102.585,493.189 92.8642,502.91 80.8731,502.91 C68.882,502.91 59.1613,493.189 59.1613,481.198 C59.1613,469.207 68.882,459.486 80.8731,459.486 C92.8642,459.486 102.585,469.207 102.585,481.198 "/>
<path vector-effect="non-scaling-stroke" fill-rule="evenodd" d="M110.693,203.316 C110.693,219.785 97.3422,233.136 80.8731,233.136 C64.404,233.136 51.0531,219.785 51.0531,203.316 C51.0531,186.847 64.404,173.496 80.8731,173.496 C97.3422,173.496 110.693,186.847 110.693,203.316 "/>
<path vector-effect="non-scaling-stroke" fill-rule="evenodd" d="M175.133,967.492 C175.133,981.183 164.034,992.281 150.344,992.281 C136.653,992.281 125.555,981.183 125.555,967.492 C125.555,953.802 136.653,942.703 150.344,942.703 C164.034,942.703 175.133,953.802 175.133,967.492 "/>
<path vector-effect="non-scaling-stroke" fill-rule="evenodd" d="M190.919,620.139 C190.919,642.548 172.753,660.715 150.344,660.715 C127.935,660.715 109.768,642.548 109.768,620.139 C109.768,597.73 127.935,579.564 150.344,579.564 C172.753,579.564 190.919,597.73 190.919,620.139 "/>
<path vector-effect="non-scaling-stroke" fill-rule="evenodd" d="M246.759,689.61 C246.759,704.491 234.695,716.555 219.814,716.555 C204.933,716.555 192.87,704.491 192.87,689.61 C192.87,674.729 204.933,662.665 219.814,662.665 C234.695,662.665 246.759,674.729 246.759,689.61 "/>
<path vector-effect="non-scaling-stroke" fill-rule="evenodd" d="M273.848,203.316 C273.848,233.158 249.656,257.35 219.814,257.35 C189.972,257.35 165.78,233.158 165.78,203.316 C165.78,173.474 189.972,149.282 219.814,149.282 C249.656,149.282 273.848,173.474 273.848,203.316 "/>
<path vector-effect="non-scaling-stroke" fill-rule="evenodd" d="M323.224,828.551 C323.224,847.295 308.029,862.49 289.285,862.49 C270.541,862.49 255.346,847.295 255.346,828.551 C255.346,809.807 270.541,794.612 289.285,794.612 C308.029,794.612 323.224,809.807 323.224,828.551 "/>
<path vector-effect="non-scaling-stroke" fill-rule="evenodd" d="M312.378,411.728 C312.378,424.481 302.039,434.821 289.285,434.821 C276.531,434.821 266.192,424.481 266.192,411.728 C266.192,398.974 276.531,388.635 289.285,388.635 C302.039,388.635 312.378,398.974 312.378,411.728 "/>
<path vector-effect="non-scaling-stroke" fill-rule="evenodd" d="M387.024,1036.96 C387.024,1052.58 374.368,1065.23 358.755,1065.23 C343.143,1065.23 330.487,1052.58 330.487,1036.96 C330.487,1021.35 343.143,1008.69 358.755,1008.69 C374.368,1008.69 387.024,1021.35 387.024,1036.96 "/>
<path vector-effect="non-scaling-stroke" fill-rule="evenodd" d="M427.717,759.081 C427.717,797.167 396.842,828.042 358.755,828.042 C320.669,828.042 289.794,797.167 289.794,759.081 C289.794,720.994 320.669,690.119 358.755,690.119 C396.842,690.119 427.717,720.994 427.717,759.081 "/>
<path vector-effect="non-scaling-stroke" fill-rule="evenodd" d="M452.12,620.139 C452.12,633.336 441.423,644.034 428.226,644.034 C415.03,644.034 404.332,633.336 404.332,620.139 C404.332,606.943 415.03,596.245 428.226,596.245 C441.423,596.245 452.12,606.943 452.12,620.139 "/>
<path vector-effect="non-scaling-stroke" fill-rule="evenodd" d="M465.028,342.257 C465.028,362.582 448.551,379.059 428.226,379.059 C407.901,379.059 391.425,362.582 391.425,342.257 C391.425,321.932 407.901,305.455 428.226,305.455 C448.551,305.455 465.028,321.932 465.028,342.257 "/>
<path vector-effect="non-scaling-stroke" fill-rule="evenodd" d="M543.564,967.492 C543.564,992.824 523.028,1013.36 497.697,1013.36 C472.365,1013.36 451.829,992.824 451.829,967.492 C451.829,942.161 472.365,921.625 497.697,921.625 C523.028,921.625 543.564,942.161 543.564,967.492 "/>
<path vector-effect="non-scaling-stroke" fill-rule="evenodd" d="M523.493,133.845 C523.493,148.092 511.944,159.642 497.697,159.642 C483.449,159.642 471.9,148.092 471.9,133.845 C471.9,119.598 483.449,108.048 497.697,108.048 C511.944,108.048 523.493,119.598 523.493,133.845 "/>
<path vector-effect="non-scaling-stroke" fill-rule="evenodd" d="M589.537,828.551 C589.537,840.905 579.522,850.921 567.167,850.921 C554.813,850.921 544.798,840.905 544.798,828.551 C544.798,816.197 554.813,806.182 567.167,806.182 C579.522,806.182 589.537,816.197 589.537,828.551 "/>
<path vector-effect="non-scaling-stroke" fill-rule="evenodd" d="M598.84,481.198 C598.84,498.69 584.659,512.871 567.167,512.871 C549.675,512.871 535.495,498.69 535.495,481.198 C535.495,463.706 549.675,449.526 567.167,449.526 C584.659,449.526 598.84,463.706 598.84,481.198 "/>
<path vector-effect="non-scaling-stroke" fill-rule="evenodd" d="M650.024,411.728 C650.024,457.488 612.928,494.585 567.167,494.585 C521.406,494.585 484.31,457.488 484.31,411.728 C484.31,365.967 521.406,328.87 567.167,328.87 C612.928,328.87 650.024,365.967 650.024,411.728 "/>
<path vector-effect="non-scaling-stroke" fill-rule="evenodd" d="M675.184,1036.96 C675.184,1058.25 657.926,1075.51 636.638,1075.51 C615.349,1075.51 598.091,1058.25 598.091,1036.96 C598.091,1015.67 615.349,998.416 636.638,998.416 C657.926,998.416 675.184,1015.67 675.184,1036.96 "/>
<path vector-effect="non-scaling-stroke" fill-rule="evenodd" d="M665.65,550.669 C665.65,566.692 652.661,579.681 636.638,579.681 C620.615,579.681 607.626,566.692 607.626,550.669 C607.626,534.646 620.615,521.657 636.638,521.657 C652.661,521.657 665.65,534.646 665.65,550.669 "/>
<path vector-effect="non-scaling-stroke" fill-rule="evenodd" d="M755.557,550.669 C755.557,577.979 733.418,600.118 706.108,600.118 C678.799,600.118 656.659,577.979 656.659,550.669 C656.659,523.359 678.799,501.22 706.108,501.22 C733.418,501.22 755.557,523.359 755.557,550.669 "/>
<path vector-effect="non-scaling-stroke" fill-rule="evenodd" d="M730.437,272.786 C730.437,286.223 719.545,297.115 706.108,297.115 C692.672,297.115 681.78,286.223 681.78,272.786 C681.78,259.35 692.672,248.458 706.108,248.458 C719.545,248.458 730.437,259.35 730.437,272.786 "/>
<path vector-effect="non-scaling-stroke" fill-rule="evenodd" d="M801.93,828.551 C801.93,843.105 790.132,854.902 775.579,854.902 C761.026,854.902 749.228,843.105 749.228,828.551 C749.228,813.998 761.026,802.2 775.579,802.2 C790.132,802.2 801.93,813.998 801.93,828.551 "/>
<path vector-effect="non-scaling-stroke" fill-rule="evenodd" d="M808.324,133.845 C808.324,151.93 793.663,166.59 775.579,166.59 C757.495,166.59 742.834,151.93 742.834,133.845 C742.834,115.761 757.495,101.1 775.579,101.1 C793.663,101.1 808.324,115.761 808.324,133.845 "/>
<path vector-effect="non-scaling-stroke" fill-rule="evenodd" d="M905.226,898.022 C905.226,931.256 878.284,958.199 845.05,958.199 C811.815,958.199 784.873,931.256 784.873,898.022 C784.873,864.787 811.815,837.845 845.05,837.845 C878.284,837.845 905.226,864.787 905.226,898.022 "/>
<path vector-effect="non-scaling-stroke" fill-rule="evenodd" d="M867.772,759.081 C867.772,771.63 857.599,781.803 845.05,781.803 C832.5,781.803 822.327,771.63 822.327,759.081 C822.327,746.531 832.5,736.358 845.05,736.358 C857.599,736.358 867.772,746.531 867.772,759.081 "/>
<path vector-effect="non-scaling-stroke" fill-rule="evenodd" d="M949.801,689.61 C949.801,709.095 934.005,724.89 914.52,724.89 C895.035,724.89 879.24,709.095 879.24,689.61 C879.24,670.125 895.035,654.33 914.52,654.33 C934.005,654.33 949.801,670.125 949.801,689.61 "/>
<path vector-effect="non-scaling-stroke" fill-rule="evenodd" d="M942.102,342.257 C942.102,357.49 929.753,369.839 914.52,369.839 C899.287,369.839 886.938,357.49 886.938,342.257 C886.938,327.024 899.287,314.675 914.52,314.675 C929.753,314.675 942.102,327.024 942.102,342.257 "/>
<path vector-effect="non-scaling-stroke" fill-rule="evenodd" d="M1007.47,1106.43 C1007.47,1119.4 996.96,1129.92 983.991,1129.92 C971.021,1129.92 960.508,1119.4 960.508,1106.43 C960.508,1093.46 971.021,1082.95 983.991,1082.95 C996.96,1082.95 1007.47,1093.46 1007.47,1106.43 "/>
<path vector-effect="non-scaling-stroke" fill-rule="evenodd" d="M1026.96,272.786 C1026.96,296.52 1007.72,315.76 983.991,315.76 C960.257,315.76 941.017,296.52 941.017,272.786 C941.017,249.053 960.257,229.813 983.991,229.813 C1007.72,229.813 1026.96,249.053 1026.96,272.786 "/>
<path vector-effect="non-scaling-stroke" fill-rule="evenodd" d="M1084.16,898.022 C1084.16,914.978 1070.42,928.724 1053.46,928.724 C1036.5,928.724 1022.76,914.978 1022.76,898.022 C1022.76,881.065 1036.5,867.319 1053.46,867.319 C1070.42,867.319 1084.16,881.065 1084.16,898.022 "/>
<path vector-effect="non-scaling-stroke" fill-rule="evenodd" d="M1078.74,481.198 C1078.74,495.158 1067.42,506.475 1053.46,506.475 C1039.5,506.475 1028.18,495.158 1028.18,481.198 C1028.18,467.238 1039.5,455.921 1053.46,455.921 C1067.42,455.921 1078.74,467.238 1078.74,481.198 "/>
<path vector-effect="non-scaling-stroke" fill-rule="evenodd" d="M1144.97,133.845 C1144.97,146.014 1135.1,155.878 1122.93,155.878 C1110.76,155.878 1100.9,146.014 1100.9,133.845 C1100.9,121.677 1110.76,111.812 1122.93,111.812 C1135.1,111.812 1144.97,121.677 1144.97,133.845 "/>
</g>

<g fill="#08306b" fill-opacity="1" stroke="#000000" stroke-opacity="1" stroke-width="1" stroke-linecap="square" stroke-linejoin="bevel" transform="matrix(0.999913,0,0,0.999913,0,0)"
font-family="MS Shell Dlg 2" font-size="34.375" font-weight="400" font-style="normal" 
>
</g>

<g fill="#08306b" fill-opacity="1" stroke="#000000" stroke-opacity="1" stroke-width="1" stroke-linecap="square" stroke-linejoin="bevel" transform="matrix(0.999913,0,0,0.999913,61.8678,215.297)"
font-family="MS Shell Dlg 2" font-size="34" font-weight="400" font-style="normal" 
>
<text fill="#000000" fill-opacity="1" stroke="none" xml:space="preserve" x="0" y="0" font-family="MS Shell Dlg 2" font-size="34" font-weight="400" font-style="normal" 
 >15</text>
</g>

<g fill="#08306b" fill-opacity="1" stroke="#000000" stroke-opacity="1" stroke-width="1" stroke-linecap="square" stroke-linejoin="bevel" transform="matrix(0.999913,0,0,0.999913,0,0)"
font-family="MS Shell Dlg 2" font-size="34.375" font-weight="400" font-style="normal" 
>
</g>

<g fill="#08306b" fill-opacity="1" stroke="#000000" stroke-opacity="1" stroke-width="1" stroke-linecap="square" stroke-linejoin="bevel" transform="matrix(0.999913,0,0,0.999913,140.831,632.085)"
font-family="MS Shell Dlg 2" font-size="34" font-weight="400" font-style="normal" 
>
<text fill="#000000" fill-opacity="1" stroke="none" xml:space="preserve" x="0" y="0" font-family="MS Shell Dlg 2" font-size="34" font-weight="400" font-style="normal" 
 >7</text>
</g>

<g fill="#08306b" fill-opacity="1" stroke="#000000" stroke-opacity="1" stroke-width="1" stroke-linecap="square" stroke-linejoin="bevel" transform="matrix(0.999913,0,0,0.999913,0,0)"
font-family="MS Shell Dlg 2" font-size="34.375" font-weight="400" font-style="normal" 
>
</g>

<g fill="#08306b" fill-opacity="1" stroke="#000000" stroke-opacity="1" stroke-width="1" stroke-linecap="square" stroke-linejoin="bevel" transform="matrix(0.999913,0,0,0.999913,210.296,215.297)"
font-family="MS Shell Dlg 2" font-size="34" font-weight="400" font-style="normal" 
>
<text fill="#000000" fill-opacity="1" stroke="none" xml:space="preserve" x="0" y="0" font-family="MS Shell Dlg 2" font-size="34" font-weight="400" font-style="normal" 
 >3</text>
</g>

<g fill="#08306b" fill-opacity="1" stroke="#000000" stroke-opacity="1" stroke-width="1" stroke-linecap="square" stroke-linejoin="bevel" transform="matrix(0.999913,0,0,0.999913,0,0)"
font-family="MS Shell Dlg 2" font-size="34.375" font-weight="400" font-style="normal" 
>
</g>

<g fill="#08306b" fill-opacity="1" stroke="#000000" stroke-opacity="1" stroke-width="1" stroke-linecap="square" stroke-linejoin="bevel" transform="matrix(0.999913,0,0,0.999913,418.69,354.226)"
font-family="MS Shell Dlg 2" font-size="34" font-weight="400" font-style="normal" 
>
<text fill="#000000" fill-opacity="1" stroke="none" xml:space="preserve" x="0" y="0" font-family="MS Shell Dlg 2" font-size="34" font-weight="400" font-style="normal" 
 >9</text>
</g>

<g fill="#08306b" fill-opacity="1" stroke="#000000" stroke-opacity="1" stroke-width="1" stroke-linecap="square" stroke-linejoin="bevel" transform="matrix(0.999913,0,0,0.999913,0,0)"
font-family="MS Shell Dlg 2" font-size="34.375" font-weight="400" font-style="normal" 
>
</g>

<g fill="#08306b" fill-opacity="1" stroke="#000000" stroke-opacity="1" stroke-width="1" stroke-linecap="square" stroke-linejoin="bevel" transform="matrix(0.999913,0,0,0.999913,131.332,979.407)"
font-family="MS Shell Dlg 2" font-size="34" font-weight="400" font-style="normal" 
>
<text fill="#000000" fill-opacity="1" stroke="none" xml:space="preserve" x="0" y="0" font-family="MS Shell Dlg 2" font-size="34" font-weight="400" font-style="normal" 
 >23</text>
</g>

<g fill="#08306b" fill-opacity="1" stroke="#000000" stroke-opacity="1" stroke-width="1" stroke-linecap="square" stroke-linejoin="bevel" transform="matrix(0.999913,0,0,0.999913,0,0)"
font-family="MS Shell Dlg 2" font-size="34.375" font-weight="400" font-style="normal" 
>
</g>

<g fill="#08306b" fill-opacity="1" stroke="#000000" stroke-opacity="1" stroke-width="1" stroke-linecap="square" stroke-linejoin="bevel" transform="matrix(0.999913,0,0,0.999913,200.797,701.549)"
font-family="MS Shell Dlg 2" font-size="34" font-weight="400" font-style="normal" 
>
<text fill="#000000" fill-opacity="1" stroke="none" xml:space="preserve" x="0" y="0" font-family="MS Shell Dlg 2" font-size="34" font-weight="400" font-style="normal" 
 >19</text>
</g>

<g fill="#08306b" fill-opacity="1" stroke="#000000" stroke-opacity="1" stroke-width="1" stroke-linecap="square" stroke-linejoin="bevel" transform="matrix(0.999913,0,0,0.999913,0,0)"
font-family="MS Shell Dlg 2" font-size="34.375" font-weight="400" font-style="normal" 
>
</g>

<g fill="#08306b" fill-opacity="1" stroke="#000000" stroke-opacity="1" stroke-width="1" stroke-linecap="square" stroke-linejoin="bevel" transform="matrix(0.999913,0,0,0.999913,270.261,840.478)"
font-family="MS Shell Dlg 2" font-size="34" font-weight="400" font-style="normal" 
>
<text fill="#000000" fill-opacity="1" stroke="none" xml:space="preserve" x="0" y="0" font-family="MS Shell Dlg 2" font-size="34" font-weight="400" font-style="normal" 
 >11</text>
</g>

<g fill="#08306b" fill-opacity="1" stroke="#000000" stroke-opacity="1" stroke-width="1" stroke-linecap="square" stroke-linejoin="bevel" transform="matrix(0.999913,0,0,0.999913,0,0)"
font-family="MS Shell Dlg 2" font-size="34.375" font-weight="400" font-style="normal" 
>
</g>

<g fill="#08306b" fill-opacity="1" stroke="#000000" stroke-opacity="1" stroke-width="1" stroke-linecap="square" stroke-linejoin="bevel" transform="matrix(0.999913,0,0,0.999913,339.726,1048.87)"
font-family="MS Shell Dlg 2" font-size="34" font-weight="400" font-style="normal" 
>
<text fill="#000000" fill-opacity="1" stroke="none" xml:space="preserve" x="0" y="0" font-family="MS Shell Dlg 2" font-size="34" font-weight="400" font-style="normal" 
 >17</text>
</g>

<g fill="#08306b" fill-opacity="1" stroke="#000000" stroke-opacity="1" stroke-width="1" stroke-linecap="square" stroke-linejoin="bevel" transform="matrix(0.999913,0,0,0.999913,0,0)"
font-family="MS Shell Dlg 2" font-size="34.375" font-weight="400" font-style="normal" 
>
</g>

<g fill="#08306b" fill-opacity="1" stroke="#000000" stroke-opacity="1" stroke-width="1" stroke-linecap="square" stroke-linejoin="bevel" transform="matrix(0.999913,0,0,0.999913,349.225,771.014)"
font-family="MS Shell Dlg 2" font-size="34" font-weight="400" font-style="normal" 
>
<text fill="#000000" fill-opacity="1" stroke="none" xml:space="preserve" x="0" y="0" font-family="MS Shell Dlg 2" font-size="34" font-weight="400" font-style="normal" 
 >1</text>
</g>

<g fill="#08306b" fill-opacity="1" stroke="#000000" stroke-opacity="1" stroke-width="1" stroke-linecap="square" stroke-linejoin="bevel" transform="matrix(0.999913,0,0,0.999913,0,0)"
font-family="MS Shell Dlg 2" font-size="34.375" font-weight="400" font-style="normal" 
>
</g>

<g fill="#08306b" fill-opacity="1" stroke="#000000" stroke-opacity="1" stroke-width="1" stroke-linecap="square" stroke-linejoin="bevel" transform="matrix(0.999913,0,0,0.999913,478.655,145.833)"
font-family="MS Shell Dlg 2" font-size="34" font-weight="400" font-style="normal" 
>
<text fill="#000000" fill-opacity="1" stroke="none" xml:space="preserve" x="0" y="0" font-family="MS Shell Dlg 2" font-size="34" font-weight="400" font-style="normal" 
 >21</text>
</g>

<g fill="#08306b" fill-opacity="1" stroke="#000000" stroke-opacity="1" stroke-width="1" stroke-linecap="square" stroke-linejoin="bevel" transform="matrix(0.999913,0,0,0.999913,0,0)"
font-family="MS Shell Dlg 2" font-size="34.375" font-weight="400" font-style="normal" 
>
</g>

<g fill="#08306b" fill-opacity="1" stroke="#000000" stroke-opacity="1" stroke-width="1" stroke-linecap="square" stroke-linejoin="bevel" transform="matrix(0.999913,0,0,0.999913,548.12,493.155)"
font-family="MS Shell Dlg 2" font-size="34" font-weight="400" font-style="normal" 
>
<text fill="#000000" fill-opacity="1" stroke="none" xml:space="preserve" x="0" y="0" font-family="MS Shell Dlg 2" font-size="34" font-weight="400" font-style="normal" 
 >13</text>
</g>

<g fill="#08306b" fill-opacity="1" stroke="#000000" stroke-opacity="1" stroke-width="1" stroke-linecap="square" stroke-linejoin="bevel" transform="matrix(0.999913,0,0,0.999913,0,0)"
font-family="MS Shell Dlg 2" font-size="34.375" font-weight="400" font-style="normal" 
>
</g>

<g fill="#08306b" fill-opacity="1" stroke="#000000" stroke-opacity="1" stroke-width="1" stroke-linecap="square" stroke-linejoin="bevel" transform="matrix(0.999913,0,0,0.999913,557.619,423.691)"
font-family="MS Shell Dlg 2" font-size="34" font-weight="400" font-style="normal" 
>
<text fill="#000000" fill-opacity="1" stroke="none" xml:space="preserve" x="0" y="0" font-family="MS Shell Dlg 2" font-size="34" font-weight="400" font-style="normal" 
 >0</text>
</g>

<g fill="#08306b" fill-opacity="1" stroke="#000000" stroke-opacity="1" stroke-width="1" stroke-linecap="square" stroke-linejoin="bevel" transform="matrix(0.999913,0,0,0.999913,0,0)"
font-family="MS Shell Dlg 2" font-size="34.375" font-weight="400" font-style="normal" 
>
</g>

<g fill="#08306b" fill-opacity="1" stroke="#000000" stroke-opacity="1" stroke-width="1" stroke-linecap="square" stroke-linejoin="bevel" transform="matrix(0.999913,0,0,0.999913,617.584,562.62)"
font-family="MS Shell Dlg 2" font-size="34" font-weight="400" font-style="normal" 
>
<text fill="#000000" fill-opacity="1" stroke="none" xml:space="preserve" x="0" y="0" font-family="MS Shell Dlg 2" font-size="34" font-weight="400" font-style="normal" 
 >16</text>
</g>

<g fill="#08306b" fill-opacity="1" stroke="#000000" stroke-opacity="1" stroke-width="1" stroke-linecap="square" stroke-linejoin="bevel" transform="matrix(0.999913,0,0,0.999913,0,0)"
font-family="MS Shell Dlg 2" font-size="34.375" font-weight="400" font-style="normal" 
>
</g>

<g fill="#08306b" fill-opacity="1" stroke="#000000" stroke-opacity="1" stroke-width="1" stroke-linecap="square" stroke-linejoin="bevel" transform="matrix(0.999913,0,0,0.999913,696.548,562.62)"
font-family="MS Shell Dlg 2" font-size="34" font-weight="400" font-style="normal" 
>
<text fill="#000000" fill-opacity="1" stroke="none" xml:space="preserve" x="0" y="0" font-family="MS Shell Dlg 2" font-size="34" font-weight="400" font-style="normal" 
 >4</text>
</g>

<g fill="#08306b" fill-opacity="1" stroke="#000000" stroke-opacity="1" stroke-width="1" stroke-linecap="square" stroke-linejoin="bevel" transform="matrix(0.999913,0,0,0.999913,0,0)"
font-family="MS Shell Dlg 2" font-size="34.375" font-weight="400" font-style="normal" 
>
</g>

<g fill="#08306b" fill-opacity="1" stroke="#000000" stroke-opacity="1" stroke-width="1" stroke-linecap="square" stroke-linejoin="bevel" transform="matrix(0.999913,0,0,0.999913,488.154,979.407)"
font-family="MS Shell Dlg 2" font-size="34" font-weight="400" font-style="normal" 
>
<text fill="#000000" fill-opacity="1" stroke="none" xml:space="preserve" x="0" y="0" font-family="MS Shell Dlg 2" font-size="34" font-weight="400" font-style="normal" 
 >5</text>
</g>

<g fill="#08306b" fill-opacity="1" stroke="#000000" stroke-opacity="1" stroke-width="1" stroke-linecap="square" stroke-linejoin="bevel" transform="matrix(0.999913,0,0,0.999913,0,0)"
font-family="MS Shell Dlg 2" font-size="34.375" font-weight="400" font-style="normal" 
>
</g>

<g fill="#08306b" fill-opacity="1" stroke="#000000" stroke-opacity="1" stroke-width="1" stroke-linecap="square" stroke-linejoin="bevel" transform="matrix(0.999913,0,0,0.999913,627.083,1048.87)"
font-family="MS Shell Dlg 2" font-size="34" font-weight="400" font-style="normal" 
>
<text fill="#000000" fill-opacity="1" stroke="none" xml:space="preserve" x="0" y="0" font-family="MS Shell Dlg 2" font-size="34" font-weight="400" font-style="normal" 
 >8</text>
</g>

<g fill="#08306b" fill-opacity="1" stroke="#000000" stroke-opacity="1" stroke-width="1" stroke-linecap="square" stroke-linejoin="bevel" transform="matrix(0.999913,0,0,0.999913,0,0)"
font-family="MS Shell Dlg 2" font-size="34.375" font-weight="400" font-style="normal" 
>
</g>

<g fill="#08306b" fill-opacity="1" stroke="#000000" stroke-opacity="1" stroke-width="1" stroke-linecap="square" stroke-linejoin="bevel" transform="matrix(0.999913,0,0,0.999913,756.513,840.478)"
font-family="MS Shell Dlg 2" font-size="34" font-weight="400" font-style="normal" 
>
<text fill="#000000" fill-opacity="1" stroke="none" xml:space="preserve" x="0" y="0" font-family="MS Shell Dlg 2" font-size="34" font-weight="400" font-style="normal" 
 >20</text>
</g>

<g fill="#08306b" fill-opacity="1" stroke="#000000" stroke-opacity="1" stroke-width="1" stroke-linecap="square" stroke-linejoin="bevel" transform="matrix(0.999913,0,0,0.999913,0,0)"
font-family="MS Shell Dlg 2" font-size="34.375" font-weight="400" font-style="normal" 
>
</g>

<g fill="#08306b" fill-opacity="1" stroke="#000000" stroke-opacity="1" stroke-width="1" stroke-linecap="square" stroke-linejoin="bevel" transform="matrix(0.999913,0,0,0.999913,835.477,909.943)"
font-family="MS Shell Dlg 2" font-size="34" font-weight="400" font-style="normal" 
>
<text fill="#000000" fill-opacity="1" stroke="none" xml:space="preserve" x="0" y="0" font-family="MS Shell Dlg 2" font-size="34" font-weight="400" font-style="normal" 
 >2</text>
</g>

<g fill="#08306b" fill-opacity="1" stroke="#000000" stroke-opacity="1" stroke-width="1" stroke-linecap="square" stroke-linejoin="bevel" transform="matrix(0.999913,0,0,0.999913,0,0)"
font-family="MS Shell Dlg 2" font-size="34.375" font-weight="400" font-style="normal" 
>
</g>

<g fill="#08306b" fill-opacity="1" stroke="#000000" stroke-opacity="1" stroke-width="1" stroke-linecap="square" stroke-linejoin="bevel" transform="matrix(0.999913,0,0,0.999913,895.443,701.549)"
font-family="MS Shell Dlg 2" font-size="34" font-weight="400" font-style="normal" 
>
<text fill="#000000" fill-opacity="1" stroke="none" xml:space="preserve" x="0" y="0" font-family="MS Shell Dlg 2" font-size="34" font-weight="400" font-style="normal" 
 >10</text>
</g>

<g fill="#08306b" fill-opacity="1" stroke="#000000" stroke-opacity="1" stroke-width="1" stroke-linecap="square" stroke-linejoin="bevel" transform="matrix(0.999913,0,0,0.999913,0,0)"
font-family="MS Shell Dlg 2" font-size="34.375" font-weight="400" font-style="normal" 
>
</g>

<g fill="#08306b" fill-opacity="1" stroke="#000000" stroke-opacity="1" stroke-width="1" stroke-linecap="square" stroke-linejoin="bevel" transform="matrix(0.999913,0,0,0.999913,1034.37,909.943)"
font-family="MS Shell Dlg 2" font-size="34" font-weight="400" font-style="normal" 
>
<text fill="#000000" fill-opacity="1" stroke="none" xml:space="preserve" x="0" y="0" font-family="MS Shell Dlg 2" font-size="34" font-weight="400" font-style="normal" 
 >14</text>
</g>

<g fill="#08306b" fill-opacity="1" stroke="#000000" stroke-opacity="1" stroke-width="1" stroke-linecap="square" stroke-linejoin="bevel" transform="matrix(0.999913,0,0,0.999913,0,0)"
font-family="MS Shell Dlg 2" font-size="34.375" font-weight="400" font-style="normal" 
>
</g>

<g fill="#08306b" fill-opacity="1" stroke="#000000" stroke-opacity="1" stroke-width="1" stroke-linecap="square" stroke-linejoin="bevel" transform="matrix(0.999913,0,0,0.999913,687.049,284.762)"
font-family="MS Shell Dlg 2" font-size="34" font-weight="400" font-style="normal" 
>
<text fill="#000000" fill-opacity="1" stroke="none" xml:space="preserve" x="0" y="0" font-family="MS Shell Dlg 2" font-size="34" font-weight="400" font-style="normal" 
 >24</text>
</g>

<g fill="#08306b" fill-opacity="1" stroke="#000000" stroke-opacity="1" stroke-width="1" stroke-linecap="square" stroke-linejoin="bevel" transform="matrix(0.999913,0,0,0.999913,0,0)"
font-family="MS Shell Dlg 2" font-size="34.375" font-weight="400" font-style="normal" 
>
</g>

<g fill="#08306b" fill-opacity="1" stroke="#000000" stroke-opacity="1" stroke-width="1" stroke-linecap="square" stroke-linejoin="bevel" transform="matrix(0.999913,0,0,0.999913,756.513,145.833)"
font-family="MS Shell Dlg 2" font-size="34" font-weight="400" font-style="normal" 
>
<text fill="#000000" fill-opacity="1" stroke="none" xml:space="preserve" x="0" y="0" font-family="MS Shell Dlg 2" font-size="34" font-weight="400" font-style="normal" 
 >12</text>
</g>

<g fill="#08306b" fill-opacity="1" stroke="#000000" stroke-opacity="1" stroke-width="1" stroke-linecap="square" stroke-linejoin="bevel" transform="matrix(0.999913,0,0,0.999913,0,0)"
font-family="MS Shell Dlg 2" font-size="34.375" font-weight="400" font-style="normal" 
>
</g>

<g fill="#08306b" fill-opacity="1" stroke="#000000" stroke-opacity="1" stroke-width="1" stroke-linecap="square" stroke-linejoin="bevel" transform="matrix(0.999913,0,0,0.999913,895.443,354.226)"
font-family="MS Shell Dlg 2" font-size="34" font-weight="400" font-style="normal" 
>
<text fill="#000000" fill-opacity="1" stroke="none" xml:space="preserve" x="0" y="0" font-family="MS Shell Dlg 2" font-size="34" font-weight="400" font-style="normal" 
 >18</text>
</g>

<g fill="#08306b" fill-opacity="1" stroke="#000000" stroke-opacity="1" stroke-width="1" stroke-linecap="square" stroke-linejoin="bevel" transform="matrix(0.999913,0,0,0.999913,0,0)"
font-family="MS Shell Dlg 2" font-size="34.375" font-weight="400" font-style="normal" 
>
</g>

<g fill="#08306b" fill-opacity="1" stroke="#000000" stroke-opacity="1" stroke-width="1" stroke-linecap="square" stroke-linejoin="bevel" transform="matrix(0.999913,0,0,0.999913,974.406,284.762)"
font-family="MS Shell Dlg 2" font-size="34" font-weight="400" font-style="normal" 
>
<text fill="#000000" fill-opacity="1" stroke="none" xml:space="preserve" x="0" y="0" font-family="MS Shell Dlg 2" font-size="34" font-weight="400" font-style="normal" 
 >6</text>
</g>

<g fill="#08306b" fill-opacity="1" stroke="#000000" stroke-opacity="1" stroke-width="1" stroke-linecap="square" stroke-linejoin="bevel" transform="matrix(0.999913,0,0,0.999913,0,0)"
font-family="MS Shell Dlg 2" font-size="34.375" font-weight="400" font-style="normal" 
>
</g>

<g fill="#08306b" fill-opacity="1" stroke="#000000" stroke-opacity="1" stroke-width="1" stroke-linecap="square" stroke-linejoin="bevel" transform="matrix(0.999913,0,0,0.999913,1034.37,493.155)"
font-family="MS Shell Dlg 2" font-size="34" font-weight="400" font-style="normal" 
>
<text fill="#000000" fill-opacity="1" stroke="none" xml:space="preserve" x="0" y="0" font-family="MS Shell Dlg 2" font-size="34" font-weight="400" font-style="normal" 
 >22</text>
</g>

<g fill="#08306b" fill-opacity="1" stroke="#000000" stroke-opacity="1" stroke-width="1" stroke-linecap="square" stroke-linejoin="bevel" transform="matrix(0.999913,0,0,0.999913,0,0)"
font-family="MS Shell Dlg 2" font-size="34.375" font-weight="400" font-style="normal" 
>
</g>

<g fill="none" stroke="#000000" stroke-opacity="1" stroke-width="1" stroke-linecap="square" stroke-linejoin="bevel" transform="matrix(11.81,0,0,11.81,0,0)"
font-family="MS Shell Dlg 2" font-size="34.375" font-weight="400" font-style="normal" 
>
</g>

<g fill="none" stroke="#000000" stroke-opacity="1" stroke-width="1" stroke-linecap="square" stroke-linejoin="bevel" transform="matrix(11.81,0,0,11.81,0,0)"
font-family="MS Shell Dlg 2" font-size="34.375" font-weight="400" font-style="normal" 
>
</g>

<g fill="none" stroke="#000000" stroke-opacity="1" stroke-width="1" stroke-linecap="square" stroke-linejoin="bevel" transform="matrix(11.81,0,0,11.81,0,0)"
font-family="MS Shell Dlg 2" font-size="34.375" font-weight="400" font-style="normal" 
>
</g>

<g fill="none" stroke="#000000" stroke-opacity="1" stroke-width="1" stroke-linecap="square" stroke-linejoin="bevel" transform="matrix(1,0,0,1,0,0)"
font-family="MS Shell Dlg 2" font-size="34.375" font-weight="400" font-style="normal" 
>
</g>

<g fill="none" stroke="#000000" stroke-opacity="1" stroke-width="1" stroke-linecap="square" stroke-linejoin="bevel" transform="matrix(11.81,0,0,11.81,0,0)"
font-family="MS Shell Dlg 2" font-size="34.375" font-weight="400" font-style="normal" 
>
</g>

<g fill="none" stroke="#000000" stroke-opacity="1" stroke-width="1" stroke-linecap="square" stroke-linejoin="bevel" transform="matrix(11.81,0,0,11.81,0,0)"
font-family="MS Shell Dlg 2" font-size="34.375" font-weight="400" font-style="normal" 
>
</g>

<g fill="none" stroke="#000000" stroke-opacity="1" stroke-width="1" stroke-linecap="square" stroke-linejoin="bevel" transform="matrix(11.81,0,0,11.81,0,0)"
font-family="MS Shell Dlg 2" font-size="34.375" font-weight="400" font-style="normal" 
>
</g>

<g fill="none" stroke="#000000" stroke-opacity="1" stroke-width="1" stroke-linecap="square" stroke-linejoin="bevel" transform="matrix(11.81,0,0,11.81,0,0)"
font-family="MS Shell Dlg 2" font-size="34.375" font-weight="400" font-style="normal" 
>
</g>

<g fill="none" stroke="#000000" stroke-opacity="1" stroke-width="1" stroke-linecap="square" stroke-linejoin="bevel" transform="matrix(11.81,0,0,11.81,0,0)"
font-family="MS Shell Dlg 2" font-size="34.375" font-weight="400" font-style="normal" 
>
</g>

<g fill="none" stroke="#000000" stroke-opacity="1" stroke-width="1" stroke-linecap="square" stroke-linejoin="bevel" transform="matrix(11.81,0,0,11.81,0,0)"
font-family="MS Shell Dlg 2" font-size="34.375" font-weight="400" font-style="normal" 
>
</g>

<g fill="none" stroke="#000000" stroke-opacity="1" stroke-width="1" stroke-linecap="square" stroke-linejoin="bevel" transform="matrix(1,0,0,1,0,0)"
font-family="MS Shell Dlg 2" font-size="34.375" font-weight="400" font-style="normal" 
>
</g>
</g>
</svg>
