<?xml version="1.0" encoding="UTF-8" standalone="no"?>
<svg width="99.9913mm" height="99.9913mm"
 viewBox="0 0 1181 1181"
 xmlns="http://www.w3.org/2000/svg" xmlns:xlink="http://www.w3.org/1999/xlink"  version="1.2" baseProfile="tiny">
<desc>Generated with Qt</desc>
<defs>
</defs>
<g fill="none" stroke="black" stroke-width="1" fill-rule="evenodd" stroke-linecap="square" stroke-linejoin="bevel" >

<g fill="none" stroke="#000000" stroke-opacity="1" stroke-width="1" stroke-linecap="square" stroke-linejoin="bevel" transform="matrix(1,0,0,1,0,0)"
font-family="MS Shell Dlg 2" font-size="34.375" font-weight="400" font-style="normal" 
>
</g>

<g fill="none" stroke="#000000" stroke-opacity="1" stroke-width="1" stroke-linecap="square" stroke-linejoin="bevel" transform="matrix(11.81,0,0,11.81,0,0)"
font-family="MS Shell Dlg 2" font-size="34.375" font-weight="400" font-style="normal" 
>
</g>

<g fill="#ffffff" fill-opacity="1" stroke="none" transform="matrix(0.999913,0,0,0.999913,0,0)"
font-family="MS Shell Dlg 2" font-size="34.375" font-weight="400" font-style="normal" 
>
<path vector-effect="none" fill-rule="evenodd" d="M-1,-1 L1182.1,-1 L1182.1,1182.1 L-1,1182.1 L-1,-1"/>
</g>

<g fill="none" stroke="#000000" stroke-opacity="1" stroke-width="1" stroke-linecap="square" stroke-linejoin="bevel" transform="matrix(11.81,0,0,11.81,0,0)"
font-family="MS Shell Dlg 2" font-size="34.375" font-weight="400" font-style="normal" 
>
</g>

<g fill="none" stroke="#000000" stroke-opacity="1" stroke-width="1" stroke-linecap="square" stroke-linejoin="bevel" transform="matrix(11.81,0,0,11.81,0,0)"
font-family="MS Shell Dlg 2" font-size="34.375" font-weight="400" font-style="normal" 
>
</g>

<g fill="none" stroke="#000000" stroke-opacity="1" stroke-width="1" stroke-linecap="square" stroke-linejoin="bevel" transform="matrix(11.81,0,0,11.81,0,0)"
font-family="MS Shell Dlg 2" font-size="34.375" font-weight="400" font-style="normal" 
>
</g>

<g fill="none" stroke="#000000" stroke-opacity="1" stroke-width="1" stroke-linecap="square" stroke-linejoin="bevel" transform="matrix(11.81,0,0,11.81,0,0)"
font-family="MS Shell Dlg 2" font-size="34.375" font-weight="400" font-style="normal" 
>
</g>

<g fill="#ffffff" fill-opacity="1" stroke="none" transform="matrix(11.81,0,0,11.81,0,0)"
font-family="MS Shell Dlg 2" font-size="34.375" font-weight="400" font-style="normal" 
>
<path vector-effect="non-scaling-stroke" fill-rule="evenodd" d="M0,0 L100,0 L100,100 L0,100 L0,0"/>
</g>

<g fill="none" stroke="#000000" stroke-opacity="1" stroke-width="1" stroke-linecap="square" stroke-linejoin="bevel" transform="matrix(11.81,0,0,11.81,0,0)"
font-family="MS Shell Dlg 2" font-size="34.375" font-weight="400" font-style="normal" 
>
</g>

<g fill="#000000" fill-opacity="0" stroke="none" transform="matrix(0.999913,0,0,0.999913,0,0)"
font-family="MS Shell Dlg 2" font-size="34.375" font-weight="400" font-style="normal" 
>
<path vector-effect="non-scaling-stroke" fill-rule="evenodd" d="M0,0 L1181,0 L1181,1181 L0,1181 L0,0"/>
</g>

<g fill="#f7fbff" fill-opacity="1" stroke="#000000" stroke-opacity="1" stroke-width="1" stroke-linecap="square" stroke-linejoin="bevel" transform="matrix(0.999913,0,0,0.999913,0,0)"
font-family="MS Shell Dlg 2" font-size="34.375" font-weight="400" font-style="normal" 
>
<path vector-effect="non-scaling-stroke" fill-rule="evenodd" d="M158.465,967.492 C158.465,971.978 154.829,975.614 150.344,975.614 C145.858,975.614 142.222,971.978 142.222,967.492 C142.222,963.007 145.858,959.371 150.344,959.371 C154.829,959.371 158.465,963.007 158.465,967.492 "/>
<path vector-effect="non-scaling-stroke" fill-rule="evenodd" d="M158.27,689.61 C158.27,693.988 154.721,697.536 150.344,697.536 C145.966,697.536 142.417,693.988 142.417,689.61 C142.417,685.232 145.966,681.684 150.344,681.684 C154.721,681.684 158.27,685.232 158.27,689.61 "/>
<path vector-effect="non-scaling-stroke" fill-rule="evenodd" d="M158.425,411.728 C158.425,416.191 154.807,419.809 150.344,419.809 C145.88,419.809 142.262,416.191 142.262,411.728 C142.262,407.264 145.88,403.646 150.344,403.646 C154.807,403.646 158.425,407.264 158.425,411.728 "/>
<path vector-effect="non-scaling-stroke" fill-rule="evenodd" d="M158.308,133.845 C158.308,138.244 154.742,141.81 150.344,141.81 C145.945,141.81 142.379,138.244 142.379,133.845 C142.379,129.447 145.945,125.881 150.344,125.881 C154.742,125.881 158.308,129.447 158.308,133.845 "/>
<path vector-effect="non-scaling-stroke" fill-rule="evenodd" d="M297.099,1106.43 C297.099,1110.75 293.601,1114.25 289.285,1114.25 C284.969,1114.25 281.47,1110.75 281.47,1106.43 C281.47,1102.12 284.969,1098.62 289.285,1098.62 C293.601,1098.62 297.099,1102.12 297.099,1106.43 "/>
<path vector-effect="non-scaling-stroke" fill-rule="evenodd" d="M296.921,828.551 C296.921,832.768 293.502,836.187 289.285,836.187 C285.068,836.187 281.649,832.768 281.649,828.551 C281.649,824.334 285.068,820.915 289.285,820.915 C293.502,820.915 296.921,824.334 296.921,828.551 "/>
<path vector-effect="non-scaling-stroke" fill-rule="evenodd" d="M297.063,550.669 C297.063,554.964 293.581,558.447 289.285,558.447 C284.989,558.447 281.507,554.964 281.507,550.669 C281.507,546.373 284.989,542.891 289.285,542.891 C293.581,542.891 297.063,546.373 297.063,550.669 "/>
<path vector-effect="non-scaling-stroke" fill-rule="evenodd" d="M296.956,272.786 C296.956,277.023 293.521,280.457 289.285,280.457 C285.048,280.457 281.614,277.023 281.614,272.786 C281.614,268.55 285.048,265.115 289.285,265.115 C293.521,265.115 296.956,268.55 296.956,272.786 "/>
<path vector-effect="non-scaling-stroke" fill-rule="evenodd" d="M436.21,967.492 C436.21,971.902 432.635,975.476 428.226,975.476 C423.817,975.476 420.242,971.902 420.242,967.492 C420.242,963.083 423.817,959.509 428.226,959.509 C432.635,959.509 436.21,963.083 436.21,967.492 "/>
<path vector-effect="non-scaling-stroke" fill-rule="evenodd" d="M436.408,689.61 C436.408,694.129 432.745,697.792 428.226,697.792 C423.707,697.792 420.044,694.129 420.044,689.61 C420.044,685.091 423.707,681.428 428.226,681.428 C432.745,681.428 436.408,685.091 436.408,689.61 "/>
<path vector-effect="non-scaling-stroke" fill-rule="evenodd" d="M436.248,411.728 C436.248,416.158 432.657,419.75 428.226,419.75 C423.795,419.75 420.204,416.158 420.204,411.728 C420.204,407.297 423.795,403.705 428.226,403.705 C432.657,403.705 436.248,407.297 436.248,411.728 "/>
<path vector-effect="non-scaling-stroke" fill-rule="evenodd" d="M436.367,133.845 C436.367,138.342 432.722,141.987 428.226,141.987 C423.73,141.987 420.085,138.342 420.085,133.845 C420.085,129.349 423.73,125.704 428.226,125.704 C432.722,125.704 436.367,129.349 436.367,133.845 "/>
<path vector-effect="non-scaling-stroke" fill-rule="evenodd" d="M574.856,1106.43 C574.856,1110.68 571.414,1114.12 567.167,1114.12 C562.921,1114.12 559.479,1110.68 559.479,1106.43 C559.479,1102.19 562.921,1098.74 567.167,1098.74 C571.414,1098.74 574.856,1102.19 574.856,1106.43 "/>
<path vector-effect="non-scaling-stroke" fill-rule="evenodd" d="M575.037,828.551 C575.037,832.898 571.514,836.421 567.167,836.421 C562.821,836.421 559.297,832.898 559.297,828.551 C559.297,824.205 562.821,820.681 567.167,820.681 C571.514,820.681 575.037,824.205 575.037,828.551 "/>
<path vector-effect="non-scaling-stroke" fill-rule="evenodd" d="M574.891,550.669 C574.891,554.935 571.433,558.393 567.167,558.393 C562.901,558.393 559.443,554.935 559.443,550.669 C559.443,546.403 562.901,542.945 567.167,542.945 C571.433,542.945 574.891,546.403 574.891,550.669 "/>
<path vector-effect="non-scaling-stroke" fill-rule="evenodd" d="M575,272.786 C575,277.112 571.493,280.619 567.167,280.619 C562.841,280.619 559.334,277.112 559.334,272.786 C559.334,268.46 562.841,264.954 567.167,264.954 C571.493,264.954 575,268.46 575,272.786 "/>
<path vector-effect="non-scaling-stroke" fill-rule="evenodd" d="M714.17,967.492 C714.17,971.945 710.561,975.554 706.108,975.554 C701.656,975.554 698.047,971.945 698.047,967.492 C698.047,963.04 701.656,959.431 706.108,959.431 C710.561,959.431 714.17,963.04 714.17,967.492 "/>
<path vector-effect="non-scaling-stroke" fill-rule="evenodd" d="M714.054,689.61 C714.054,693.998 710.496,697.555 706.108,697.555 C701.72,697.555 698.163,693.998 698.163,689.61 C698.163,685.222 701.72,681.665 706.108,681.665 C710.496,681.665 714.054,685.222 714.054,689.61 "/>
<path vector-effect="non-scaling-stroke" fill-rule="evenodd" d="M714.21,411.728 C714.21,416.202 710.583,419.829 706.108,419.829 C701.634,419.829 698.007,416.202 698.007,411.728 C698.007,407.253 701.634,403.626 706.108,403.626 C710.583,403.626 714.21,407.253 714.21,411.728 "/>
<path vector-effect="non-scaling-stroke" fill-rule="evenodd" d="M714.016,133.845 C714.016,138.212 710.476,141.753 706.108,141.753 C701.741,141.753 698.201,138.212 698.201,133.845 C698.201,129.478 701.741,125.938 706.108,125.938 C710.476,125.938 714.016,129.478 714.016,133.845 "/>
<path vector-effect="non-scaling-stroke" fill-rule="evenodd" d="M852.81,1106.43 C852.81,1110.72 849.335,1114.19 845.05,1114.19 C840.764,1114.19 837.29,1110.72 837.29,1106.43 C837.29,1102.15 840.764,1098.67 845.05,1098.67 C849.335,1098.67 852.81,1102.15 852.81,1106.43 "/>
<path vector-effect="non-scaling-stroke" fill-rule="evenodd" d="M852.703,828.551 C852.703,832.778 849.276,836.205 845.05,836.205 C840.823,836.205 837.396,832.778 837.396,828.551 C837.396,824.324 840.823,820.898 845.05,820.898 C849.276,820.898 852.703,824.324 852.703,828.551 "/>
<path vector-effect="non-scaling-stroke" fill-rule="evenodd" d="M852.846,550.669 C852.846,554.974 849.355,558.465 845.05,558.465 C840.744,558.465 837.253,554.974 837.253,550.669 C837.253,546.363 840.744,542.873 845.05,542.873 C849.355,542.873 852.846,546.363 852.846,550.669 "/>
<path vector-effect="non-scaling-stroke" fill-rule="evenodd" d="M852.668,272.786 C852.668,276.994 849.257,280.405 845.05,280.405 C840.842,280.405 837.431,276.994 837.431,272.786 C837.431,268.579 840.842,265.168 845.05,265.168 C849.257,265.168 852.668,268.579 852.668,272.786 "/>
<path vector-effect="non-scaling-stroke" fill-rule="evenodd" d="M992.033,967.492 C992.033,971.934 988.432,975.534 983.991,975.534 C979.549,975.534 975.949,971.934 975.949,967.492 C975.949,963.051 979.549,959.45 983.991,959.45 C988.432,959.45 992.033,963.051 992.033,967.492 "/>
<path vector-effect="non-scaling-stroke" fill-rule="evenodd" d="M992.152,689.61 C992.152,694.118 988.498,697.772 983.991,697.772 C979.483,697.772 975.829,694.118 975.829,689.61 C975.829,685.102 979.483,681.448 983.991,681.448 C988.498,681.448 992.152,685.102 992.152,689.61 "/>
<path vector-effect="non-scaling-stroke" fill-rule="evenodd" d="M991.994,411.728 C991.994,416.148 988.411,419.731 983.991,419.731 C979.571,419.731 975.988,416.148 975.988,411.728 C975.988,407.308 979.571,403.725 983.991,403.725 C988.411,403.725 991.994,407.308 991.994,411.728 "/>
<path vector-effect="non-scaling-stroke" fill-rule="evenodd" d="M992.193,133.845 C992.193,138.375 988.521,142.048 983.991,142.048 C979.461,142.048 975.788,138.375 975.788,133.845 C975.788,129.315 979.461,125.643 983.991,125.643 C988.521,125.643 992.193,129.315 992.193,133.845 "/>
<path vector-effect="non-scaling-stroke" fill-rule="evenodd" d="M1130.67,1106.43 C1130.67,1110.71 1127.21,1114.18 1122.93,1114.18 C1118.66,1114.18 1115.19,1110.71 1115.19,1106.43 C1115.19,1102.16 1118.66,1098.69 1122.93,1098.69 C1127.21,1098.69 1130.67,1102.16 1130.67,1106.43 "/>
<path vector-effect="non-scaling-stroke" fill-rule="evenodd" d="M1130.78,828.551 C1130.78,832.887 1127.27,836.402 1122.93,836.402 C1118.6,836.402 1115.08,832.887 1115.08,828.551 C1115.08,824.215 1118.6,820.7 1122.93,820.7 C1127.27,820.7 1130.78,824.215 1130.78,828.551 "/>
<path vector-effect="non-scaling-stroke" fill-rule="evenodd" d="M1130.64,550.669 C1130.64,554.925 1127.19,558.375 1122.93,558.375 C1118.68,558.375 1115.23,554.925 1115.23,550.669 C1115.23,546.413 1118.68,542.962 1122.93,542.962 C1127.19,542.962 1130.64,546.413 1130.64,550.669 "/>
<path vector-effect="non-scaling-stroke" fill-rule="evenodd" d="M1130.82,272.786 C1130.82,277.143 1127.29,280.675 1122.93,280.675 C1118.58,280.675 1115.04,277.143 1115.04,272.786 C1115.04,268.43 1118.58,264.898 1122.93,264.898 C1127.29,264.898 1130.82,268.43 1130.82,272.786 "/>
</g>

<g fill="#dbe9f6" fill-opacity="1" stroke="#000000" stroke-opacity="1" stroke-width="1" stroke-linecap="square" stroke-linejoin="bevel" transform="matrix(0.999913,0,0,0.999913,0,0)"
font-family="MS Shell Dlg 2" font-size="34.375" font-weight="400" font-style="normal" 
>
<path vector-effect="non-scaling-stroke" fill-rule="evenodd" d="M159.175,1106.43 C159.175,1111.31 155.221,1115.26 150.344,1115.26 C145.466,1115.26 141.512,1111.31 141.512,1106.43 C141.512,1101.56 145.466,1097.6 150.344,1097.6 C155.221,1097.6 159.175,1101.56 159.175,1106.43 "/>
<path vector-effect="non-scaling-stroke" fill-rule="evenodd" d="M158.937,828.551 C158.937,833.297 155.09,837.145 150.344,837.145 C145.598,837.145 141.75,833.297 141.75,828.551 C141.75,823.805 145.598,819.957 150.344,819.957 C155.09,819.957 158.937,823.805 158.937,828.551 "/>
<path vector-effect="non-scaling-stroke" fill-rule="evenodd" d="M159.126,550.669 C159.126,555.519 155.194,559.451 150.344,559.451 C145.493,559.451 141.561,555.519 141.561,550.669 C141.561,545.818 145.493,541.886 150.344,541.886 C155.194,541.886 159.126,545.818 159.126,550.669 "/>
<path vector-effect="non-scaling-stroke" fill-rule="evenodd" d="M158.984,272.786 C158.984,277.558 155.115,281.426 150.344,281.426 C145.572,281.426 141.704,277.558 141.704,272.786 C141.704,268.015 145.572,264.146 150.344,264.146 C155.115,264.146 158.984,268.015 158.984,272.786 "/>
<path vector-effect="non-scaling-stroke" fill-rule="evenodd" d="M297.743,967.492 C297.743,972.164 293.956,975.951 289.285,975.951 C284.613,975.951 280.827,972.164 280.827,967.492 C280.827,962.821 284.613,959.034 289.285,959.034 C293.956,959.034 297.743,962.821 297.743,967.492 "/>
<path vector-effect="non-scaling-stroke" fill-rule="evenodd" d="M297.529,689.61 C297.529,694.163 293.838,697.854 289.285,697.854 C284.732,697.854 281.041,694.163 281.041,689.61 C281.041,685.057 284.732,681.366 289.285,681.366 C293.838,681.366 297.529,685.057 297.529,689.61 "/>
<path vector-effect="non-scaling-stroke" fill-rule="evenodd" d="M297.699,411.728 C297.699,416.375 293.932,420.142 289.285,420.142 C284.638,420.142 280.871,416.375 280.871,411.728 C280.871,407.08 284.638,403.313 289.285,403.313 C293.932,403.313 297.699,407.08 297.699,411.728 "/>
<path vector-effect="non-scaling-stroke" fill-rule="evenodd" d="M297.571,133.845 C297.571,138.421 293.861,142.131 289.285,142.131 C284.709,142.131 280.999,138.421 280.999,133.845 C280.999,129.269 284.709,125.56 289.285,125.56 C293.861,125.56 297.571,129.269 297.571,133.845 "/>
<path vector-effect="non-scaling-stroke" fill-rule="evenodd" d="M436.889,1106.43 C436.889,1111.22 433.011,1115.1 428.226,1115.1 C423.441,1115.1 419.563,1111.22 419.563,1106.43 C419.563,1101.65 423.441,1097.77 428.226,1097.77 C433.011,1097.77 436.889,1101.65 436.889,1106.43 "/>
<path vector-effect="non-scaling-stroke" fill-rule="evenodd" d="M437.132,828.551 C437.132,833.47 433.145,837.457 428.226,837.457 C423.307,837.457 419.32,833.47 419.32,828.551 C419.32,823.633 423.307,819.645 428.226,819.645 C433.145,819.645 437.132,823.633 437.132,828.551 "/>
<path vector-effect="non-scaling-stroke" fill-rule="evenodd" d="M436.937,550.669 C436.937,555.479 433.037,559.379 428.226,559.379 C423.415,559.379 419.516,555.479 419.516,550.669 C419.516,545.858 423.415,541.958 428.226,541.958 C433.037,541.958 436.937,545.858 436.937,550.669 "/>
<path vector-effect="non-scaling-stroke" fill-rule="evenodd" d="M437.082,272.786 C437.082,277.677 433.117,281.642 428.226,281.642 C423.335,281.642 419.37,277.677 419.37,272.786 C419.37,267.895 423.335,263.93 428.226,263.93 C433.117,263.93 437.082,267.895 437.082,272.786 "/>
<path vector-effect="non-scaling-stroke" fill-rule="evenodd" d="M575.474,967.492 C575.474,972.08 571.755,975.799 567.167,975.799 C562.579,975.799 558.86,972.08 558.86,967.492 C558.86,962.905 562.579,959.185 567.167,959.185 C571.755,959.185 575.474,962.905 575.474,967.492 "/>
<path vector-effect="non-scaling-stroke" fill-rule="evenodd" d="M575.693,689.61 C575.693,694.318 571.876,698.135 567.167,698.135 C562.459,698.135 558.642,694.318 558.642,689.61 C558.642,684.902 562.459,681.085 567.167,681.085 C571.876,681.085 575.693,684.902 575.693,689.61 "/>
<path vector-effect="non-scaling-stroke" fill-rule="evenodd" d="M575.517,411.728 C575.517,416.339 571.779,420.077 567.167,420.077 C562.556,420.077 558.818,416.339 558.818,411.728 C558.818,407.116 562.556,403.378 567.167,403.378 C571.779,403.378 575.517,407.116 575.517,411.728 "/>
<path vector-effect="non-scaling-stroke" fill-rule="evenodd" d="M575.648,133.845 C575.648,138.529 571.851,142.326 567.167,142.326 C562.484,142.326 558.687,138.529 558.687,133.845 C558.687,129.162 562.484,125.365 567.167,125.365 C571.851,125.365 575.648,129.162 575.648,133.845 "/>
<path vector-effect="non-scaling-stroke" fill-rule="evenodd" d="M714.867,1106.43 C714.867,1111.27 710.946,1115.19 706.108,1115.19 C701.271,1115.19 697.35,1111.27 697.35,1106.43 C697.35,1101.6 701.271,1097.68 706.108,1097.68 C710.946,1097.68 714.867,1101.6 714.867,1106.43 "/>
<path vector-effect="non-scaling-stroke" fill-rule="evenodd" d="M714.725,828.551 C714.725,833.31 710.867,837.168 706.108,837.168 C701.35,837.168 697.492,833.31 697.492,828.551 C697.492,823.792 701.35,819.934 706.108,819.934 C710.867,819.934 714.725,823.792 714.725,828.551 "/>
<path vector-effect="non-scaling-stroke" fill-rule="evenodd" d="M714.915,550.669 C714.915,555.533 710.972,559.476 706.108,559.476 C701.245,559.476 697.302,555.533 697.302,550.669 C697.302,545.805 701.245,541.862 706.108,541.862 C710.972,541.862 714.915,545.805 714.915,550.669 "/>
<path vector-effect="non-scaling-stroke" fill-rule="evenodd" d="M714.679,272.786 C714.679,277.52 710.842,281.357 706.108,281.357 C701.375,281.357 697.538,277.52 697.538,272.786 C697.538,268.053 701.375,264.216 706.108,264.216 C710.842,264.216 714.679,268.053 714.679,272.786 "/>
<path vector-effect="non-scaling-stroke" fill-rule="evenodd" d="M853.442,967.492 C853.442,972.127 849.685,975.885 845.05,975.885 C840.414,975.885 836.657,972.127 836.657,967.492 C836.657,962.857 840.414,959.1 845.05,959.1 C849.685,959.1 853.442,962.857 853.442,967.492 "/>
<path vector-effect="non-scaling-stroke" fill-rule="evenodd" d="M853.314,689.61 C853.314,694.174 849.614,697.875 845.05,697.875 C840.485,697.875 836.785,694.174 836.785,689.61 C836.785,685.045 840.485,681.345 845.05,681.345 C849.614,681.345 853.314,685.045 853.314,689.61 "/>
<path vector-effect="non-scaling-stroke" fill-rule="evenodd" d="M853.486,411.728 C853.486,416.387 849.709,420.164 845.05,420.164 C840.39,420.164 836.613,416.387 836.613,411.728 C836.613,407.068 840.39,403.291 845.05,403.291 C849.709,403.291 853.486,407.068 853.486,411.728 "/>
<path vector-effect="non-scaling-stroke" fill-rule="evenodd" d="M853.273,133.845 C853.273,138.387 849.591,142.068 845.05,142.068 C840.508,142.068 836.826,138.387 836.826,133.845 C836.826,129.304 840.508,125.622 845.05,125.622 C849.591,125.622 853.273,129.304 853.273,133.845 "/>
<path vector-effect="non-scaling-stroke" fill-rule="evenodd" d="M992.725,1106.43 C992.725,1111.26 988.815,1115.17 983.991,1115.17 C979.167,1115.17 975.256,1111.26 975.256,1106.43 C975.256,1101.61 979.167,1097.7 983.991,1097.7 C988.815,1097.7 992.725,1101.61 992.725,1106.43 "/>
<path vector-effect="non-scaling-stroke" fill-rule="evenodd" d="M992.872,828.551 C992.872,833.456 988.896,837.432 983.991,837.432 C979.086,837.432 975.11,833.456 975.11,828.551 C975.11,823.646 979.086,819.67 983.991,819.67 C988.896,819.67 992.872,823.646 992.872,828.551 "/>
<path vector-effect="non-scaling-stroke" fill-rule="evenodd" d="M992.678,550.669 C992.678,555.466 988.788,559.356 983.991,559.356 C979.193,559.356 975.304,555.466 975.304,550.669 C975.304,545.871 979.193,541.982 983.991,541.982 C988.788,541.982 992.678,545.871 992.678,550.669 "/>
<path vector-effect="non-scaling-stroke" fill-rule="evenodd" d="M992.922,272.786 C992.922,277.719 988.923,281.717 983.991,281.717 C979.058,281.717 975.06,277.719 975.06,272.786 C975.06,267.854 979.058,263.855 983.991,263.855 C988.923,263.855 992.922,267.854 992.922,272.786 "/>
<path vector-effect="non-scaling-stroke" fill-rule="evenodd" d="M1131.3,967.492 C1131.3,972.115 1127.56,975.863 1122.93,975.863 C1118.31,975.863 1114.56,972.115 1114.56,967.492 C1114.56,962.869 1118.31,959.121 1122.93,959.121 C1127.56,959.121 1131.3,962.869 1131.3,967.492 "/>
<path vector-effect="non-scaling-stroke" fill-rule="evenodd" d="M1131.43,689.61 C1131.43,694.306 1127.63,698.113 1122.93,698.113 C1118.24,698.113 1114.43,694.306 1114.43,689.61 C1114.43,684.914 1118.24,681.107 1122.93,681.107 C1127.63,681.107 1131.43,684.914 1131.43,689.61 "/>
<path vector-effect="non-scaling-stroke" fill-rule="evenodd" d="M1131.26,411.728 C1131.26,416.327 1127.53,420.056 1122.93,420.056 C1118.33,420.056 1114.6,416.327 1114.6,411.728 C1114.6,407.128 1118.33,403.4 1122.93,403.4 C1127.53,403.4 1131.26,407.128 1131.26,411.728 "/>
<path vector-effect="non-scaling-stroke" fill-rule="evenodd" d="M1131.48,133.845 C1131.48,138.566 1127.65,142.393 1122.93,142.393 C1118.21,142.393 1114.38,138.566 1114.38,133.845 C1114.38,129.124 1118.21,125.297 1122.93,125.297 C1127.65,125.297 1131.48,129.124 1131.48,133.845 "/>
</g>

<g fill="#bed7ec" fill-opacity="1" stroke="#000000" stroke-opacity="1" stroke-width="1" stroke-linecap="square" stroke-linejoin="bevel" transform="matrix(0.999913,0,0,0.999913,0,0)"
font-family="MS Shell Dlg 2" font-size="34.375" font-weight="400" font-style="normal" 
>
<path vector-effect="non-scaling-stroke" fill-rule="evenodd" d="M90.5901,898.022 C90.5901,903.388 86.2396,907.739 80.8731,907.739 C75.5066,907.739 71.1562,903.388 71.1562,898.022 C71.1562,892.655 75.5066,888.305 80.8731,888.305 C86.2396,888.305 90.5901,892.655 90.5901,898.022 "/>
<path vector-effect="non-scaling-stroke" fill-rule="evenodd" d="M90.2899,620.139 C90.2899,625.34 86.0739,629.556 80.8731,629.556 C75.6724,629.556 71.4563,625.34 71.4563,620.139 C71.4563,614.939 75.6724,610.723 80.8731,610.723 C86.0739,610.723 90.2899,614.939 90.2899,620.139 "/>
<path vector-effect="non-scaling-stroke" fill-rule="evenodd" d="M90.5281,342.257 C90.5281,347.589 86.2054,351.912 80.8731,351.912 C75.5408,351.912 71.2181,347.589 71.2181,342.257 C71.2181,336.925 75.5408,332.602 80.8731,332.602 C86.2054,332.602 90.5281,336.925 90.5281,342.257 "/>
<path vector-effect="non-scaling-stroke" fill-rule="evenodd" d="M90.348,64.3747 C90.348,69.6075 86.106,73.8496 80.8731,73.8496 C75.6403,73.8496 71.3982,69.6075 71.3982,64.3747 C71.3982,59.1418 75.6403,54.8997 80.8731,54.8997 C86.106,54.8997 90.348,59.1418 90.348,64.3747 "/>
<path vector-effect="non-scaling-stroke" fill-rule="evenodd" d="M229.062,1036.96 C229.062,1042.07 224.922,1046.21 219.814,1046.21 C214.707,1046.21 210.567,1042.07 210.567,1036.96 C210.567,1031.86 214.707,1027.72 219.814,1027.72 C224.922,1027.72 229.062,1031.86 229.062,1036.96 "/>
<path vector-effect="non-scaling-stroke" fill-rule="evenodd" d="M228.796,759.081 C228.796,764.041 224.775,768.062 219.814,768.062 C214.854,768.062 210.832,764.041 210.832,759.081 C210.832,754.12 214.854,750.099 219.814,750.099 C224.775,750.099 228.796,754.12 228.796,759.081 "/>
<path vector-effect="non-scaling-stroke" fill-rule="evenodd" d="M229.007,481.198 C229.007,486.275 224.891,490.391 219.814,490.391 C214.737,490.391 210.621,486.275 210.621,481.198 C210.621,476.121 214.737,472.005 219.814,472.005 C224.891,472.005 229.007,476.121 229.007,481.198 "/>
<path vector-effect="non-scaling-stroke" fill-rule="evenodd" d="M228.848,203.316 C228.848,208.305 224.803,212.349 219.814,212.349 C214.825,212.349 210.781,208.305 210.781,203.316 C210.781,198.327 214.825,194.282 219.814,194.282 C224.803,194.282 228.848,198.327 228.848,203.316 "/>
<path vector-effect="non-scaling-stroke" fill-rule="evenodd" d="M368.26,898.022 C368.26,903.271 364.005,907.526 358.755,907.526 C353.506,907.526 349.251,903.271 349.251,898.022 C349.251,892.773 353.506,888.517 358.755,888.517 C364.005,888.517 368.26,892.773 368.26,898.022 "/>
<path vector-effect="non-scaling-stroke" fill-rule="evenodd" d="M368.567,620.139 C368.567,625.558 364.174,629.951 358.755,629.951 C353.337,629.951 348.944,625.558 348.944,620.139 C348.944,614.72 353.337,610.328 358.755,610.328 C364.174,610.328 368.567,614.72 368.567,620.139 "/>
<path vector-effect="non-scaling-stroke" fill-rule="evenodd" d="M368.319,342.257 C368.319,347.539 364.037,351.821 358.755,351.821 C353.473,351.821 349.192,347.539 349.192,342.257 C349.192,336.975 353.473,332.693 358.755,332.693 C364.037,332.693 368.319,336.975 368.319,342.257 "/>
<path vector-effect="non-scaling-stroke" fill-rule="evenodd" d="M368.504,64.3747 C368.504,69.7585 364.139,74.123 358.755,74.123 C353.372,74.123 349.007,69.7585 349.007,64.3747 C349.007,58.9908 353.372,54.6263 358.755,54.6263 C364.139,54.6263 368.504,58.9908 368.504,64.3747 "/>
<path vector-effect="non-scaling-stroke" fill-rule="evenodd" d="M506.756,1036.96 C506.756,1041.97 502.7,1046.02 497.697,1046.02 C492.693,1046.02 488.637,1041.97 488.637,1036.96 C488.637,1031.96 492.693,1027.9 497.697,1027.9 C502.7,1027.9 506.756,1031.96 506.756,1036.96 "/>
<path vector-effect="non-scaling-stroke" fill-rule="evenodd" d="M507.028,759.081 C507.028,764.234 502.85,768.412 497.697,768.412 C492.543,768.412 488.365,764.234 488.365,759.081 C488.365,753.927 492.543,749.749 497.697,749.749 C502.85,749.749 507.028,753.927 507.028,759.081 "/>
<path vector-effect="non-scaling-stroke" fill-rule="evenodd" d="M506.809,481.198 C506.809,486.231 502.729,490.311 497.697,490.311 C492.664,490.311 488.584,486.231 488.584,481.198 C488.584,476.166 492.664,472.086 497.697,472.086 C502.729,472.086 506.809,476.166 506.809,481.198 "/>
<path vector-effect="non-scaling-stroke" fill-rule="evenodd" d="M506.972,203.316 C506.972,208.438 502.819,212.591 497.697,212.591 C492.574,212.591 488.421,208.438 488.421,203.316 C488.421,198.193 492.574,194.041 497.697,194.041 C502.819,194.041 506.972,198.193 506.972,203.316 "/>
<path vector-effect="non-scaling-stroke" fill-rule="evenodd" d="M646.262,898.022 C646.262,903.337 641.953,907.646 636.638,907.646 C631.322,907.646 627.013,903.337 627.013,898.022 C627.013,892.706 631.322,888.397 636.638,888.397 C641.953,888.397 646.262,892.706 646.262,898.022 "/>
<path vector-effect="non-scaling-stroke" fill-rule="evenodd" d="M646.084,620.139 C646.084,625.356 641.855,629.585 636.638,629.585 C631.421,629.585 627.192,625.356 627.192,620.139 C627.192,614.923 631.421,610.694 636.638,610.694 C641.855,610.694 646.084,614.923 646.084,620.139 "/>
<path vector-effect="non-scaling-stroke" fill-rule="evenodd" d="M646.324,342.257 C646.324,347.606 641.987,351.943 636.638,351.943 C631.288,351.943 626.952,347.606 626.952,342.257 C626.952,336.908 631.288,332.571 636.638,332.571 C641.987,332.571 646.324,336.908 646.324,342.257 "/>
<path vector-effect="non-scaling-stroke" fill-rule="evenodd" d="M646.026,64.3747 C646.026,69.5595 641.823,73.7627 636.638,73.7627 C631.453,73.7627 627.25,69.5595 627.25,64.3747 C627.25,59.1898 631.453,54.9866 636.638,54.9866 C641.823,54.9866 646.026,59.1898 646.026,64.3747 "/>
<path vector-effect="non-scaling-stroke" fill-rule="evenodd" d="M784.745,1036.96 C784.745,1042.03 780.641,1046.13 775.579,1046.13 C770.517,1046.13 766.413,1042.03 766.413,1036.96 C766.413,1031.9 770.517,1027.8 775.579,1027.8 C780.641,1027.8 784.745,1031.9 784.745,1036.96 "/>
<path vector-effect="non-scaling-stroke" fill-rule="evenodd" d="M784.587,759.081 C784.587,764.055 780.554,768.088 775.579,768.088 C770.604,768.088 766.571,764.055 766.571,759.081 C766.571,754.106 770.604,750.073 775.579,750.073 C780.554,750.073 784.587,754.106 784.587,759.081 "/>
<path vector-effect="non-scaling-stroke" fill-rule="evenodd" d="M784.799,481.198 C784.799,486.29 780.671,490.418 775.579,490.418 C770.487,490.418 766.359,486.29 766.359,481.198 C766.359,476.106 770.487,471.978 775.579,471.978 C780.671,471.978 784.799,476.106 784.799,481.198 "/>
<path vector-effect="non-scaling-stroke" fill-rule="evenodd" d="M784.535,203.316 C784.535,208.262 780.525,212.272 775.579,212.272 C770.633,212.272 766.623,208.262 766.623,203.316 C766.623,198.369 770.633,194.359 775.579,194.359 C780.525,194.359 784.535,198.369 784.535,203.316 "/>
<path vector-effect="non-scaling-stroke" fill-rule="evenodd" d="M924.114,898.022 C924.114,903.32 919.819,907.616 914.52,907.616 C909.222,907.616 904.926,903.32 904.926,898.022 C904.926,892.723 909.222,888.428 914.52,888.428 C919.819,888.428 924.114,892.723 924.114,898.022 "/>
<path vector-effect="non-scaling-stroke" fill-rule="evenodd" d="M924.3,620.139 C924.3,625.541 919.921,629.919 914.52,629.919 C909.119,629.919 904.74,625.541 904.74,620.139 C904.74,614.738 909.119,610.359 914.52,610.359 C919.921,610.359 924.3,614.738 924.3,620.139 "/>
<path vector-effect="non-scaling-stroke" fill-rule="evenodd" d="M924.054,342.257 C924.054,347.522 919.786,351.791 914.52,351.791 C909.255,351.791 904.986,347.522 904.986,342.257 C904.986,336.992 909.255,332.723 914.52,332.723 C919.786,332.723 924.054,336.992 924.054,342.257 "/>
<path vector-effect="non-scaling-stroke" fill-rule="evenodd" d="M924.364,64.3747 C924.364,69.8113 919.957,74.2186 914.52,74.2186 C909.083,74.2186 904.676,69.8113 904.676,64.3747 C904.676,58.938 909.083,54.5307 914.52,54.5307 C919.957,54.5307 924.364,58.938 924.364,64.3747 "/>
<path vector-effect="non-scaling-stroke" fill-rule="evenodd" d="M1062.6,1036.96 C1062.6,1042.01 1058.51,1046.1 1053.46,1046.1 C1048.41,1046.1 1044.32,1042.01 1044.32,1036.96 C1044.32,1031.92 1048.41,1027.82 1053.46,1027.82 C1058.51,1027.82 1062.6,1031.92 1062.6,1036.96 "/>
<path vector-effect="non-scaling-stroke" fill-rule="evenodd" d="M1062.76,759.081 C1062.76,764.219 1058.6,768.384 1053.46,768.384 C1048.32,768.384 1044.16,764.219 1044.16,759.081 C1044.16,753.943 1048.32,749.777 1053.46,749.777 C1058.6,749.777 1062.76,753.943 1062.76,759.081 "/>
<path vector-effect="non-scaling-stroke" fill-rule="evenodd" d="M1062.55,481.198 C1062.55,486.216 1058.48,490.284 1053.46,490.284 C1048.44,490.284 1044.38,486.216 1044.38,481.198 C1044.38,476.18 1048.44,472.112 1053.46,472.112 C1058.48,472.112 1062.55,476.18 1062.55,481.198 "/>
<path vector-effect="non-scaling-stroke" fill-rule="evenodd" d="M1062.82,203.316 C1062.82,208.485 1058.63,212.675 1053.46,212.675 C1048.29,212.675 1044.1,208.485 1044.1,203.316 C1044.1,198.147 1048.29,193.956 1053.46,193.956 C1058.63,193.956 1062.82,198.147 1062.82,203.316 "/>
</g>

<g fill="#8ec1dd" fill-opacity="1" stroke="#000000" stroke-opacity="1" stroke-width="1" stroke-linecap="square" stroke-linejoin="bevel" transform="matrix(0.999913,0,0,0.999913,0,0)"
font-family="MS Shell Dlg 2" font-size="34.375" font-weight="400" font-style="normal" 
>
<path vector-effect="non-scaling-stroke" fill-rule="evenodd" d="M91.7457,1036.96 C91.7457,1042.97 86.8779,1047.84 80.8731,1047.84 C74.8684,1047.84 70.0006,1042.97 70.0006,1036.96 C70.0006,1030.96 74.8684,1026.09 80.8731,1026.09 C86.8779,1026.09 91.7457,1030.96 91.7457,1036.96 "/>
<path vector-effect="non-scaling-stroke" fill-rule="evenodd" d="M91.347,759.081 C91.347,764.865 86.6577,769.554 80.8731,769.554 C75.0886,769.554 70.3993,764.865 70.3993,759.081 C70.3993,753.296 75.0886,748.607 80.8731,748.607 C86.6577,748.607 91.347,753.296 91.347,759.081 "/>
<path vector-effect="non-scaling-stroke" fill-rule="evenodd" d="M91.6627,481.198 C91.6627,487.157 86.832,491.988 80.8731,491.988 C74.9142,491.988 70.0835,487.157 70.0835,481.198 C70.0835,475.239 74.9142,470.409 80.8731,470.409 C86.832,470.409 91.6627,475.239 91.6627,481.198 "/>
<path vector-effect="non-scaling-stroke" fill-rule="evenodd" d="M91.4236,203.316 C91.4236,209.143 86.7,213.866 80.8731,213.866 C75.0462,213.866 70.3226,209.143 70.3226,203.316 C70.3226,197.489 75.0462,192.765 80.8731,192.765 C86.7,192.765 91.4236,197.489 91.4236,203.316 "/>
<path vector-effect="non-scaling-stroke" fill-rule="evenodd" d="M230.067,898.022 C230.067,903.684 225.477,908.274 219.814,908.274 C214.152,908.274 209.562,903.684 209.562,898.022 C209.562,892.359 214.152,887.769 219.814,887.769 C225.477,887.769 230.067,892.359 230.067,898.022 "/>
<path vector-effect="non-scaling-stroke" fill-rule="evenodd" d="M229.723,620.139 C229.723,625.612 225.287,630.049 219.814,630.049 C214.342,630.049 209.905,625.612 209.905,620.139 C209.905,614.667 214.342,610.23 219.814,610.23 C225.287,610.23 229.723,614.667 229.723,620.139 "/>
<path vector-effect="non-scaling-stroke" fill-rule="evenodd" d="M229.996,342.257 C229.996,347.88 225.437,352.438 219.814,352.438 C214.191,352.438 209.633,347.88 209.633,342.257 C209.633,336.634 214.191,332.076 219.814,332.076 C225.437,332.076 229.996,336.634 229.996,342.257 "/>
<path vector-effect="non-scaling-stroke" fill-rule="evenodd" d="M229.79,64.3747 C229.79,69.8839 225.324,74.3501 219.814,74.3501 C214.305,74.3501 209.839,69.8839 209.839,64.3747 C209.839,58.8654 214.305,54.3992 219.814,54.3992 C225.324,54.3992 229.79,58.8654 229.79,64.3747 "/>
<path vector-effect="non-scaling-stroke" fill-rule="evenodd" d="M369.345,1036.96 C369.345,1042.81 364.604,1047.55 358.755,1047.55 C352.907,1047.55 348.166,1042.81 348.166,1036.96 C348.166,1031.11 352.907,1026.37 358.755,1026.37 C364.604,1026.37 369.345,1031.11 369.345,1036.96 "/>
<path vector-effect="non-scaling-stroke" fill-rule="evenodd" d="M369.756,759.081 C369.756,765.156 364.831,770.081 358.755,770.081 C352.68,770.081 347.755,765.156 347.755,759.081 C347.755,753.005 352.68,748.08 358.755,748.08 C364.831,748.08 369.756,753.005 369.756,759.081 "/>
<path vector-effect="non-scaling-stroke" fill-rule="evenodd" d="M369.424,481.198 C369.424,487.09 364.647,491.866 358.755,491.866 C352.864,491.866 348.087,487.09 348.087,481.198 C348.087,475.306 352.864,470.53 358.755,470.53 C364.647,470.53 369.424,475.306 369.424,481.198 "/>
<path vector-effect="non-scaling-stroke" fill-rule="evenodd" d="M369.67,203.316 C369.67,209.344 364.783,214.23 358.755,214.23 C352.727,214.23 347.841,209.344 347.841,203.316 C347.841,197.288 352.727,192.401 358.755,192.401 C364.783,192.401 369.67,197.288 369.67,203.316 "/>
<path vector-effect="non-scaling-stroke" fill-rule="evenodd" d="M507.706,898.022 C507.706,903.55 503.224,908.031 497.697,908.031 C492.169,908.031 487.688,903.55 487.688,898.022 C487.688,892.494 492.169,888.013 497.697,888.013 C503.224,888.013 507.706,892.494 507.706,898.022 "/>
<path vector-effect="non-scaling-stroke" fill-rule="evenodd" d="M508.058,620.139 C508.058,625.862 503.419,630.501 497.697,630.501 C491.974,630.501 487.335,625.862 487.335,620.139 C487.335,614.417 491.974,609.778 497.697,609.778 C503.419,609.778 508.058,614.417 508.058,620.139 "/>
<path vector-effect="non-scaling-stroke" fill-rule="evenodd" d="M507.774,342.257 C507.774,347.822 503.262,352.334 497.697,352.334 C492.131,352.334 487.62,347.822 487.62,342.257 C487.62,336.692 492.131,332.18 497.697,332.18 C503.262,332.18 507.774,336.692 507.774,342.257 "/>
<path vector-effect="non-scaling-stroke" fill-rule="evenodd" d="M507.985,64.3747 C507.985,70.0568 503.379,74.6632 497.697,74.6632 C492.014,74.6632 487.408,70.0568 487.408,64.3747 C487.408,58.6925 492.014,54.0862 497.697,54.0862 C503.379,54.0862 507.985,58.6925 507.985,64.3747 "/>
<path vector-effect="non-scaling-stroke" fill-rule="evenodd" d="M647.387,1036.96 C647.387,1042.9 642.574,1047.71 636.638,1047.71 C630.701,1047.71 625.889,1042.9 625.889,1036.96 C625.889,1031.03 630.701,1026.21 636.638,1026.21 C642.574,1026.21 647.387,1031.03 647.387,1036.96 "/>
<path vector-effect="non-scaling-stroke" fill-rule="evenodd" d="M647.15,759.081 C647.15,764.886 642.443,769.593 636.638,769.593 C630.832,769.593 626.126,764.886 626.126,759.081 C626.126,753.275 630.832,748.569 636.638,748.569 C642.443,748.569 647.15,753.275 647.15,759.081 "/>
<path vector-effect="non-scaling-stroke" fill-rule="evenodd" d="M647.469,481.198 C647.469,487.18 642.62,492.029 636.638,492.029 C630.656,492.029 625.807,487.18 625.807,481.198 C625.807,475.216 630.656,470.367 636.638,470.367 C642.62,470.367 647.469,475.216 647.469,481.198 "/>
<path vector-effect="non-scaling-stroke" fill-rule="evenodd" d="M647.074,203.316 C647.074,209.08 642.402,213.752 636.638,213.752 C630.874,213.752 626.202,209.08 626.202,203.316 C626.202,197.552 630.874,192.88 636.638,192.88 C642.402,192.88 647.074,197.552 647.074,203.316 "/>
<path vector-effect="non-scaling-stroke" fill-rule="evenodd" d="M785.725,898.022 C785.725,903.625 781.183,908.168 775.579,908.168 C769.975,908.168 765.433,903.625 765.433,898.022 C765.433,892.418 769.975,887.875 775.579,887.875 C781.183,887.875 785.725,892.418 785.725,898.022 "/>
<path vector-effect="non-scaling-stroke" fill-rule="evenodd" d="M785.521,620.139 C785.521,625.63 781.07,630.081 775.579,630.081 C770.088,630.081 765.637,625.63 765.637,620.139 C765.637,614.648 770.088,610.197 775.579,610.197 C781.07,610.197 785.521,614.648 785.521,620.139 "/>
<path vector-effect="non-scaling-stroke" fill-rule="evenodd" d="M785.796,342.257 C785.796,347.9 781.222,352.474 775.579,352.474 C769.936,352.474 765.362,347.9 765.362,342.257 C765.362,336.614 769.936,332.04 775.579,332.04 C781.222,332.04 785.796,336.614 785.796,342.257 "/>
<path vector-effect="non-scaling-stroke" fill-rule="evenodd" d="M785.455,64.3747 C785.455,69.8293 781.034,74.2511 775.579,74.2511 C770.124,74.2511 765.703,69.8293 765.703,64.3747 C765.703,58.92 770.124,54.4982 775.579,54.4982 C781.034,54.4982 785.455,58.92 785.455,64.3747 "/>
<path vector-effect="non-scaling-stroke" fill-rule="evenodd" d="M925.228,1036.96 C925.228,1042.88 920.434,1047.67 914.52,1047.67 C908.606,1047.67 903.812,1042.88 903.812,1036.96 C903.812,1031.05 908.606,1026.25 914.52,1026.25 C920.434,1026.25 925.228,1031.05 925.228,1036.96 "/>
<path vector-effect="non-scaling-stroke" fill-rule="evenodd" d="M925.477,759.081 C925.477,765.132 920.572,770.038 914.52,770.038 C908.469,770.038 903.563,765.132 903.563,759.081 C903.563,753.029 908.469,748.123 914.52,748.123 C920.572,748.123 925.477,753.029 925.477,759.081 "/>
<path vector-effect="non-scaling-stroke" fill-rule="evenodd" d="M925.149,481.198 C925.149,487.068 920.39,491.827 914.52,491.827 C908.65,491.827 903.892,487.068 903.892,481.198 C903.892,475.328 908.65,470.57 914.52,470.57 C920.39,470.57 925.149,475.328 925.149,481.198 "/>
<path vector-effect="non-scaling-stroke" fill-rule="evenodd" d="M925.564,203.316 C925.564,209.415 920.619,214.359 914.52,214.359 C908.421,214.359 903.477,209.415 903.477,203.316 C903.477,197.217 908.421,192.272 914.52,192.272 C920.619,192.272 925.564,197.217 925.564,203.316 "/>
<path vector-effect="non-scaling-stroke" fill-rule="evenodd" d="M1063.57,898.022 C1063.57,903.606 1059.05,908.133 1053.46,908.133 C1047.88,908.133 1043.35,903.606 1043.35,898.022 C1043.35,892.437 1047.88,887.91 1053.46,887.91 C1059.05,887.91 1063.57,892.437 1063.57,898.022 "/>
<path vector-effect="non-scaling-stroke" fill-rule="evenodd" d="M1063.79,620.139 C1063.79,625.842 1059.16,630.464 1053.46,630.464 C1047.76,630.464 1043.14,625.842 1043.14,620.139 C1043.14,614.437 1047.76,609.814 1053.46,609.814 C1059.16,609.814 1063.79,614.437 1063.79,620.139 "/>
<path vector-effect="non-scaling-stroke" fill-rule="evenodd" d="M1063.5,342.257 C1063.5,347.804 1059.01,352.3 1053.46,352.3 C1047.91,352.3 1043.42,347.804 1043.42,342.257 C1043.42,336.71 1047.91,332.214 1053.46,332.214 C1059.01,332.214 1063.5,336.71 1063.5,342.257 "/>
<path vector-effect="non-scaling-stroke" fill-rule="evenodd" d="M1063.86,64.3747 C1063.86,70.1177 1059.2,74.7733 1053.46,74.7733 C1047.72,74.7733 1043.06,70.1177 1043.06,64.3747 C1043.06,58.6316 1047.72,53.976 1053.46,53.976 C1059.2,53.976 1063.86,58.6316 1063.86,64.3747 "/>
</g>

<g fill="#5aa2cf" fill-opacity="1" stroke="#000000" stroke-opacity="1" stroke-width="1" stroke-linecap="square" stroke-linejoin="bevel" transform="matrix(0.999913,0,0,0.999913,0,0)"
font-family="MS Shell Dlg 2" font-size="34.375" font-weight="400" font-style="normal" 
>
<path vector-effect="non-scaling-stroke" fill-rule="evenodd" d="M162.83,898.022 C162.83,904.918 157.24,910.508 150.344,910.508 C143.447,910.508 137.857,904.918 137.857,898.022 C137.857,891.125 143.447,885.535 150.344,885.535 C157.24,885.535 162.83,891.125 162.83,898.022 "/>
<path vector-effect="non-scaling-stroke" fill-rule="evenodd" d="M162.258,620.139 C162.258,626.719 156.924,632.054 150.344,632.054 C143.764,632.054 138.429,626.719 138.429,620.139 C138.429,613.559 143.764,608.225 150.344,608.225 C156.924,608.225 162.258,613.559 162.258,620.139 "/>
<path vector-effect="non-scaling-stroke" fill-rule="evenodd" d="M162.71,342.257 C162.71,349.087 157.173,354.623 150.344,354.623 C143.514,354.623 137.978,349.087 137.978,342.257 C137.978,335.427 143.514,329.891 150.344,329.891 C157.173,329.891 162.71,335.427 162.71,342.257 "/>
<path vector-effect="non-scaling-stroke" fill-rule="evenodd" d="M162.367,64.3747 C162.367,71.0148 156.984,76.3977 150.344,76.3977 C143.704,76.3977 138.321,71.0148 138.321,64.3747 C138.321,57.7345 143.704,52.3516 150.344,52.3516 C156.984,52.3516 162.367,57.7345 162.367,64.3747 "/>
<path vector-effect="non-scaling-stroke" fill-rule="evenodd" d="M300.889,1036.96 C300.889,1043.37 295.694,1048.57 289.285,1048.57 C282.876,1048.57 277.681,1043.37 277.681,1036.96 C277.681,1030.55 282.876,1025.36 289.285,1025.36 C295.694,1025.36 300.889,1030.55 300.889,1036.96 "/>
<path vector-effect="non-scaling-stroke" fill-rule="evenodd" d="M300.417,759.081 C300.417,765.229 295.433,770.212 289.285,770.212 C283.137,770.212 278.153,765.229 278.153,759.081 C278.153,752.933 283.137,747.949 289.285,747.949 C295.433,747.949 300.417,752.933 300.417,759.081 "/>
<path vector-effect="non-scaling-stroke" fill-rule="evenodd" d="M300.79,481.198 C300.79,487.552 295.639,492.703 289.285,492.703 C282.931,492.703 277.78,487.552 277.78,481.198 C277.78,474.844 282.931,469.693 289.285,469.693 C295.639,469.693 300.79,474.844 300.79,481.198 "/>
<path vector-effect="non-scaling-stroke" fill-rule="evenodd" d="M300.507,203.316 C300.507,209.514 295.483,214.538 289.285,214.538 C283.087,214.538 278.063,209.514 278.063,203.316 C278.063,197.118 283.087,192.094 289.285,192.094 C295.483,192.094 300.507,197.118 300.507,203.316 "/>
<path vector-effect="non-scaling-stroke" fill-rule="evenodd" d="M440.304,898.022 C440.304,904.692 434.897,910.1 428.226,910.1 C421.555,910.1 416.148,904.692 416.148,898.022 C416.148,891.351 421.555,885.943 428.226,885.943 C434.897,885.943 440.304,891.351 440.304,898.022 "/>
<path vector-effect="non-scaling-stroke" fill-rule="evenodd" d="M440.9,620.139 C440.9,627.139 435.226,632.813 428.226,632.813 C421.226,632.813 415.552,627.139 415.552,620.139 C415.552,613.14 421.226,607.465 428.226,607.465 C435.226,607.465 440.9,613.14 440.9,620.139 "/>
<path vector-effect="non-scaling-stroke" fill-rule="evenodd" d="M440.417,342.257 C440.417,348.99 434.959,354.448 428.226,354.448 C421.493,354.448 416.035,348.99 416.035,342.257 C416.035,335.524 421.493,330.066 428.226,330.066 C434.959,330.066 440.417,335.524 440.417,342.257 "/>
<path vector-effect="non-scaling-stroke" fill-rule="evenodd" d="M440.774,64.3747 C440.774,71.3049 435.156,76.9229 428.226,76.9229 C421.296,76.9229 415.678,71.3049 415.678,64.3747 C415.678,57.4444 421.296,51.8264 428.226,51.8264 C435.156,51.8264 440.774,57.4444 440.774,64.3747 "/>
<path vector-effect="non-scaling-stroke" fill-rule="evenodd" d="M578.435,1036.96 C578.435,1043.19 573.39,1048.23 567.167,1048.23 C560.944,1048.23 555.899,1043.19 555.899,1036.96 C555.899,1030.74 560.944,1025.69 567.167,1025.69 C573.39,1025.69 578.435,1030.74 578.435,1036.96 "/>
<path vector-effect="non-scaling-stroke" fill-rule="evenodd" d="M578.924,759.081 C578.924,765.573 573.66,770.837 567.167,770.837 C560.674,770.837 555.411,765.573 555.411,759.081 C555.411,752.588 560.674,747.324 567.167,747.324 C573.66,747.324 578.924,752.588 578.924,759.081 "/>
<path vector-effect="non-scaling-stroke" fill-rule="evenodd" d="M578.529,481.198 C578.529,487.473 573.442,492.559 567.167,492.559 C560.893,492.559 555.806,487.473 555.806,481.198 C555.806,474.924 560.893,469.837 567.167,469.837 C573.442,469.837 578.529,474.924 578.529,481.198 "/>
<path vector-effect="non-scaling-stroke" fill-rule="evenodd" d="M578.821,203.316 C578.821,209.752 573.604,214.97 567.167,214.97 C560.731,214.97 555.513,209.752 555.513,203.316 C555.513,196.879 560.731,191.662 567.167,191.662 C573.604,191.662 578.821,196.879 578.821,203.316 "/>
<path vector-effect="non-scaling-stroke" fill-rule="evenodd" d="M718.416,898.022 C718.416,904.819 712.905,910.329 706.108,910.329 C699.311,910.329 693.801,904.819 693.801,898.022 C693.801,891.225 699.311,885.715 706.108,885.715 C712.905,885.715 718.416,891.225 718.416,898.022 "/>
<path vector-effect="non-scaling-stroke" fill-rule="evenodd" d="M718.077,620.139 C718.077,626.749 712.718,632.108 706.108,632.108 C699.498,632.108 694.14,626.749 694.14,620.139 C694.14,613.529 699.498,608.171 706.108,608.171 C712.718,608.171 718.077,613.529 718.077,620.139 "/>
<path vector-effect="non-scaling-stroke" fill-rule="evenodd" d="M718.534,342.257 C718.534,349.12 712.971,354.683 706.108,354.683 C699.246,354.683 693.682,349.12 693.682,342.257 C693.682,335.394 699.246,329.831 706.108,329.831 C712.971,329.831 718.534,335.394 718.534,342.257 "/>
<path vector-effect="non-scaling-stroke" fill-rule="evenodd" d="M717.969,64.3747 C717.969,70.9253 712.659,76.2357 706.108,76.2357 C699.558,76.2357 694.247,70.9253 694.247,64.3747 C694.247,57.824 699.558,52.5136 706.108,52.5136 C712.659,52.5136 717.969,57.824 717.969,64.3747 "/>
<path vector-effect="non-scaling-stroke" fill-rule="evenodd" d="M856.506,1036.96 C856.506,1043.29 851.377,1048.42 845.05,1048.42 C838.722,1048.42 833.593,1043.29 833.593,1036.96 C833.593,1030.64 838.722,1025.51 845.05,1025.51 C851.377,1025.51 856.506,1030.64 856.506,1036.96 "/>
<path vector-effect="non-scaling-stroke" fill-rule="evenodd" d="M856.226,759.081 C856.226,765.253 851.222,770.257 845.05,770.257 C838.877,770.257 833.873,765.253 833.873,759.081 C833.873,752.908 838.877,747.904 845.05,747.904 C851.222,747.904 856.226,752.908 856.226,759.081 "/>
<path vector-effect="non-scaling-stroke" fill-rule="evenodd" d="M856.604,481.198 C856.604,487.579 851.431,492.752 845.05,492.752 C838.668,492.752 833.495,487.579 833.495,481.198 C833.495,474.817 838.668,469.644 845.05,469.644 C851.431,469.644 856.604,474.817 856.604,481.198 "/>
<path vector-effect="non-scaling-stroke" fill-rule="evenodd" d="M856.137,203.316 C856.137,209.439 851.173,214.403 845.05,214.403 C838.926,214.403 833.962,209.439 833.962,203.316 C833.962,197.192 838.926,192.228 845.05,192.228 C851.173,192.228 856.137,197.192 856.137,203.316 "/>
<path vector-effect="non-scaling-stroke" fill-rule="evenodd" d="M996.24,898.022 C996.24,904.787 990.756,910.271 983.991,910.271 C977.226,910.271 971.742,904.787 971.742,898.022 C971.742,891.257 977.226,885.773 983.991,885.773 C990.756,885.773 996.24,891.257 996.24,898.022 "/>
<path vector-effect="non-scaling-stroke" fill-rule="evenodd" d="M996.601,620.139 C996.601,627.104 990.955,632.75 983.991,632.75 C977.026,632.75 971.38,627.104 971.38,620.139 C971.38,613.175 977.026,607.529 983.991,607.529 C990.955,607.529 996.601,613.175 996.601,620.139 "/>
<path vector-effect="non-scaling-stroke" fill-rule="evenodd" d="M996.125,342.257 C996.125,348.959 990.692,354.391 983.991,354.391 C977.289,354.391 971.856,348.959 971.856,342.257 C971.856,335.555 977.289,330.123 983.991,330.123 C990.692,330.123 996.125,335.555 996.125,342.257 "/>
<path vector-effect="non-scaling-stroke" fill-rule="evenodd" d="M996.729,64.3747 C996.729,71.4097 991.026,77.1126 983.991,77.1126 C976.956,77.1126 971.253,71.4097 971.253,64.3747 C971.253,57.3396 976.956,51.6367 983.991,51.6367 C991.026,51.6367 996.729,57.3396 996.729,64.3747 "/>
<path vector-effect="non-scaling-stroke" fill-rule="evenodd" d="M1134.34,1036.96 C1134.34,1043.26 1129.23,1048.37 1122.93,1048.37 C1116.63,1048.37 1111.52,1043.26 1111.52,1036.96 C1111.52,1030.66 1116.63,1025.55 1122.93,1025.55 C1129.23,1025.55 1134.34,1030.66 1134.34,1036.96 "/>
<path vector-effect="non-scaling-stroke" fill-rule="evenodd" d="M1134.64,759.081 C1134.64,765.545 1129.4,770.785 1122.93,770.785 C1116.47,770.785 1111.23,765.545 1111.23,759.081 C1111.23,752.616 1116.47,747.376 1122.93,747.376 C1129.4,747.376 1134.64,752.616 1134.64,759.081 "/>
<path vector-effect="non-scaling-stroke" fill-rule="evenodd" d="M1134.25,481.198 C1134.25,487.447 1129.18,492.513 1122.93,492.513 C1116.68,492.513 1111.62,487.447 1111.62,481.198 C1111.62,474.949 1116.68,469.884 1122.93,469.884 C1129.18,469.884 1134.25,474.949 1134.25,481.198 "/>
<path vector-effect="non-scaling-stroke" fill-rule="evenodd" d="M1134.74,203.316 C1134.74,209.837 1129.45,215.124 1122.93,215.124 C1116.41,215.124 1111.12,209.837 1111.12,203.316 C1111.12,196.794 1116.41,191.507 1122.93,191.507 C1129.45,191.507 1134.74,196.794 1134.74,203.316 "/>
</g>

<g fill="#3181bd" fill-opacity="1" stroke="#000000" stroke-opacity="1" stroke-width="1" stroke-linecap="square" stroke-linejoin="bevel" transform="matrix(0.999913,0,0,0.999913,0,0)"
font-family="MS Shell Dlg 2" font-size="34.375" font-weight="400" font-style="normal" 
>
<path vector-effect="non-scaling-stroke" fill-rule="evenodd" d="M165.36,1036.96 C165.36,1045.26 158.637,1051.98 150.344,1051.98 C142.051,1051.98 135.328,1045.26 135.328,1036.96 C135.328,1028.67 142.051,1021.95 150.344,1021.95 C158.637,1021.95 165.36,1028.67 165.36,1036.96 "/>
<path vector-effect="non-scaling-stroke" fill-rule="evenodd" d="M164.419,759.081 C164.419,766.854 158.117,773.156 150.344,773.156 C142.57,773.156 136.268,766.854 136.268,759.081 C136.268,751.307 142.57,745.005 150.344,745.005 C158.117,745.005 164.419,751.307 164.419,759.081 "/>
<path vector-effect="non-scaling-stroke" fill-rule="evenodd" d="M165.157,481.198 C165.157,489.379 158.525,496.012 150.344,496.012 C142.163,496.012 135.53,489.379 135.53,481.198 C135.53,473.017 142.163,466.385 150.344,466.385 C158.525,466.385 165.157,473.017 165.157,481.198 "/>
<path vector-effect="non-scaling-stroke" fill-rule="evenodd" d="M164.593,203.316 C164.593,211.186 158.214,217.566 150.344,217.566 C142.474,217.566 136.094,211.186 136.094,203.316 C136.094,195.446 142.474,189.066 150.344,189.066 C158.214,189.066 164.593,195.446 164.593,203.316 "/>
<path vector-effect="non-scaling-stroke" fill-rule="evenodd" d="M302.871,898.022 C302.871,905.525 296.788,911.608 289.285,911.608 C281.781,911.608 275.699,905.525 275.699,898.022 C275.699,890.518 281.781,884.435 289.285,884.435 C296.788,884.435 302.871,890.518 302.871,898.022 "/>
<path vector-effect="non-scaling-stroke" fill-rule="evenodd" d="M302.154,620.139 C302.154,627.247 296.392,633.008 289.285,633.008 C282.178,633.008 276.416,627.247 276.416,620.139 C276.416,613.032 282.178,607.27 289.285,607.27 C296.392,607.27 302.154,613.032 302.154,620.139 "/>
<path vector-effect="non-scaling-stroke" fill-rule="evenodd" d="M302.719,342.257 C302.719,349.676 296.704,355.691 289.285,355.691 C281.866,355.691 275.851,349.676 275.851,342.257 C275.851,334.838 281.866,328.823 289.285,328.823 C296.704,328.823 302.719,334.838 302.719,342.257 "/>
<path vector-effect="non-scaling-stroke" fill-rule="evenodd" d="M302.289,64.3747 C302.289,71.5565 296.467,77.3786 289.285,77.3786 C282.103,77.3786 276.281,71.5565 276.281,64.3747 C276.281,57.1928 282.103,51.3707 289.285,51.3707 C296.467,51.3707 302.289,57.1928 302.289,64.3747 "/>
<path vector-effect="non-scaling-stroke" fill-rule="evenodd" d="M442.565,1036.96 C442.565,1044.88 436.145,1051.3 428.226,1051.3 C420.307,1051.3 413.887,1044.88 413.887,1036.96 C413.887,1029.04 420.307,1022.62 428.226,1022.62 C436.145,1022.62 442.565,1029.04 442.565,1036.96 "/>
<path vector-effect="non-scaling-stroke" fill-rule="evenodd" d="M443.562,759.081 C443.562,767.55 436.696,774.417 428.226,774.417 C419.756,774.417 412.89,767.55 412.89,759.081 C412.89,750.611 419.756,743.745 428.226,743.745 C436.696,743.745 443.562,750.611 443.562,759.081 "/>
<path vector-effect="non-scaling-stroke" fill-rule="evenodd" d="M442.75,481.198 C442.75,489.219 436.247,495.722 428.226,495.722 C420.205,495.722 413.702,489.219 413.702,481.198 C413.702,473.177 420.205,466.675 428.226,466.675 C436.247,466.675 442.75,473.177 442.75,481.198 "/>
<path vector-effect="non-scaling-stroke" fill-rule="evenodd" d="M443.347,203.316 C443.347,211.667 436.577,218.436 428.226,218.436 C419.875,218.436 413.106,211.667 413.106,203.316 C413.106,194.965 419.875,188.195 428.226,188.195 C436.577,188.195 443.347,194.965 443.347,203.316 "/>
<path vector-effect="non-scaling-stroke" fill-rule="evenodd" d="M580.24,898.022 C580.24,905.242 574.387,911.095 567.167,911.095 C559.947,911.095 554.094,905.242 554.094,898.022 C554.094,890.802 559.947,884.949 567.167,884.949 C574.387,884.949 580.24,890.802 580.24,898.022 "/>
<path vector-effect="non-scaling-stroke" fill-rule="evenodd" d="M580.992,620.139 C580.992,627.774 574.802,633.964 567.167,633.964 C559.532,633.964 553.343,627.774 553.343,620.139 C553.343,612.504 559.532,606.315 567.167,606.315 C574.802,606.315 580.992,612.504 580.992,620.139 "/>
<path vector-effect="non-scaling-stroke" fill-rule="evenodd" d="M580.381,342.257 C580.381,349.555 574.465,355.471 567.167,355.471 C559.869,355.471 553.953,349.555 553.953,342.257 C553.953,334.959 559.869,329.043 567.167,329.043 C574.465,329.043 580.381,334.959 580.381,342.257 "/>
<path vector-effect="non-scaling-stroke" fill-rule="evenodd" d="M580.832,64.3747 C580.832,71.9213 574.714,78.0391 567.167,78.0391 C559.621,78.0391 553.503,71.9213 553.503,64.3747 C553.503,56.828 559.621,50.7102 567.167,50.7102 C574.714,50.7102 580.832,56.828 580.832,64.3747 "/>
<path vector-effect="non-scaling-stroke" fill-rule="evenodd" d="M720.823,1036.96 C720.823,1045.09 714.235,1051.68 706.108,1051.68 C697.982,1051.68 691.393,1045.09 691.393,1036.96 C691.393,1028.84 697.982,1022.25 706.108,1022.25 C714.235,1022.25 720.823,1028.84 720.823,1036.96 "/>
<path vector-effect="non-scaling-stroke" fill-rule="evenodd" d="M720.27,759.081 C720.27,766.902 713.93,773.242 706.108,773.242 C698.287,773.242 691.947,766.902 691.947,759.081 C691.947,751.259 698.287,744.919 706.108,744.919 C713.93,744.919 720.27,751.259 720.27,759.081 "/>
<path vector-effect="non-scaling-stroke" fill-rule="evenodd" d="M721.022,481.198 C721.022,489.435 714.345,496.112 706.108,496.112 C697.872,496.112 691.195,489.435 691.195,481.198 C691.195,472.962 697.872,466.284 706.108,466.284 C714.345,466.284 721.022,472.962 721.022,481.198 "/>
<path vector-effect="non-scaling-stroke" fill-rule="evenodd" d="M720.099,203.316 C720.099,211.042 713.835,217.306 706.108,217.306 C698.382,217.306 692.118,211.042 692.118,203.316 C692.118,195.589 698.382,189.326 706.108,189.326 C713.835,189.326 720.099,195.589 720.099,203.316 "/>
<path vector-effect="non-scaling-stroke" fill-rule="evenodd" d="M858.409,898.022 C858.409,905.4 852.428,911.381 845.05,911.381 C837.671,911.381 831.69,905.4 831.69,898.022 C831.69,890.644 837.671,884.662 845.05,884.662 C852.428,884.662 858.409,890.644 858.409,898.022 "/>
<path vector-effect="non-scaling-stroke" fill-rule="evenodd" d="M857.986,620.139 C857.986,627.284 852.194,633.075 845.05,633.075 C837.905,633.075 832.114,627.284 832.114,620.139 C832.114,612.995 837.905,607.203 845.05,607.203 C852.194,607.203 857.986,612.995 857.986,620.139 "/>
<path vector-effect="non-scaling-stroke" fill-rule="evenodd" d="M858.559,342.257 C858.559,349.718 852.511,355.766 845.05,355.766 C837.589,355.766 831.54,349.718 831.54,342.257 C831.54,334.796 837.589,328.748 845.05,328.748 C852.511,328.748 858.559,334.796 858.559,342.257 "/>
<path vector-effect="non-scaling-stroke" fill-rule="evenodd" d="M857.853,64.3747 C857.853,71.4456 852.121,77.1777 845.05,77.1777 C837.979,77.1777 832.247,71.4456 832.247,64.3747 C832.247,57.3037 837.979,51.5716 845.05,51.5716 C852.121,51.5716 857.853,57.3037 857.853,64.3747 "/>
<path vector-effect="non-scaling-stroke" fill-rule="evenodd" d="M998.609,1036.96 C998.609,1045.04 992.064,1051.58 983.991,1051.58 C975.917,1051.58 969.372,1045.04 969.372,1036.96 C969.372,1028.89 975.917,1022.34 983.991,1022.34 C992.064,1022.34 998.609,1028.89 998.609,1036.96 "/>
<path vector-effect="non-scaling-stroke" fill-rule="evenodd" d="M999.218,759.081 C999.218,767.49 992.4,774.308 983.991,774.308 C975.581,774.308 968.764,767.49 968.764,759.081 C968.764,750.671 975.581,743.853 983.991,743.853 C992.4,743.853 999.218,750.671 999.218,759.081 "/>
<path vector-effect="non-scaling-stroke" fill-rule="evenodd" d="M998.421,481.198 C998.421,489.168 991.961,495.629 983.991,495.629 C976.021,495.629 969.56,489.168 969.56,481.198 C969.56,473.228 976.021,466.767 983.991,466.767 C991.961,466.767 998.421,473.228 998.421,481.198 "/>
<path vector-effect="non-scaling-stroke" fill-rule="evenodd" d="M999.438,203.316 C999.438,211.847 992.522,218.763 983.991,218.763 C975.46,218.763 968.544,211.847 968.544,203.316 C968.544,194.785 975.46,187.869 983.991,187.869 C992.522,187.869 999.438,194.785 999.438,203.316 "/>
<path vector-effect="non-scaling-stroke" fill-rule="evenodd" d="M1136.22,898.022 C1136.22,905.359 1130.27,911.308 1122.93,911.308 C1115.59,911.308 1109.65,905.359 1109.65,898.022 C1109.65,890.684 1115.59,884.736 1122.93,884.736 C1130.27,884.736 1136.22,890.684 1136.22,898.022 "/>
<path vector-effect="non-scaling-stroke" fill-rule="evenodd" d="M1136.68,620.139 C1136.68,627.73 1130.52,633.883 1122.93,633.883 C1115.34,633.883 1109.19,627.73 1109.19,620.139 C1109.19,612.549 1115.34,606.395 1122.93,606.395 C1130.52,606.395 1136.68,612.549 1136.68,620.139 "/>
<path vector-effect="non-scaling-stroke" fill-rule="evenodd" d="M1136.07,342.257 C1136.07,349.516 1130.19,355.4 1122.93,355.4 C1115.67,355.4 1109.79,349.516 1109.79,342.257 C1109.79,334.998 1115.67,329.114 1122.93,329.114 C1130.19,329.114 1136.07,334.998 1136.07,342.257 "/>
<path vector-effect="non-scaling-stroke" fill-rule="evenodd" d="M1136.84,64.3747 C1136.84,72.0551 1130.61,78.2814 1122.93,78.2814 C1115.25,78.2814 1109.03,72.0551 1109.03,64.3747 C1109.03,56.6942 1115.25,50.4679 1122.93,50.4679 C1130.61,50.4679 1136.84,56.6942 1136.84,64.3747 "/>
</g>

<g fill="#105ca4" fill-opacity="1" stroke="#000000" stroke-opacity="1" stroke-width="1" stroke-linecap="square" stroke-linejoin="bevel" transform="matrix(0.999913,0,0,0.999913,0,0)"
font-family="MS Shell Dlg 2" font-size="34.375" font-weight="400" font-style="normal" 
>
<path vector-effect="non-scaling-stroke" fill-rule="evenodd" d="M100.92,967.492 C100.92,978.564 91.9446,987.539 80.8731,987.539 C69.8016,987.539 60.8263,978.564 60.8263,967.492 C60.8263,956.421 69.8016,947.446 80.8731,947.446 C91.9446,947.446 100.92,956.421 100.92,967.492 "/>
<path vector-effect="non-scaling-stroke" fill-rule="evenodd" d="M98.843,689.61 C98.843,699.534 90.7976,707.58 80.8731,707.58 C70.9486,707.58 62.9032,699.534 62.9032,689.61 C62.9032,679.685 70.9486,671.64 80.8731,671.64 C90.7976,671.64 98.843,679.685 98.843,689.61 "/>
<path vector-effect="non-scaling-stroke" fill-rule="evenodd" d="M100.446,411.728 C100.446,422.537 91.683,431.301 80.8731,431.301 C70.0632,431.301 61.3001,422.537 61.3001,411.728 C61.3001,400.918 70.0632,392.155 80.8731,392.155 C91.683,392.155 100.446,400.918 100.446,411.728 "/>
<path vector-effect="non-scaling-stroke" fill-rule="evenodd" d="M99.2063,133.845 C99.2063,143.97 90.9982,152.178 80.8731,152.178 C70.748,152.178 62.5399,143.97 62.5399,133.845 C62.5399,123.72 70.748,115.512 80.8731,115.512 C90.9982,115.512 99.2063,123.72 99.2063,133.845 "/>
<path vector-effect="non-scaling-stroke" fill-rule="evenodd" d="M236.812,1106.43 C236.812,1115.82 229.202,1123.43 219.814,1123.43 C210.427,1123.43 202.817,1115.82 202.817,1106.43 C202.817,1097.05 210.427,1089.44 219.814,1089.44 C229.202,1089.44 236.812,1097.05 236.812,1106.43 "/>
<path vector-effect="non-scaling-stroke" fill-rule="evenodd" d="M235.491,828.551 C235.491,837.209 228.472,844.228 219.814,844.228 C211.156,844.228 204.138,837.209 204.138,828.551 C204.138,819.893 211.156,812.874 219.814,812.874 C228.472,812.874 235.491,819.893 235.491,828.551 "/>
<path vector-effect="non-scaling-stroke" fill-rule="evenodd" d="M236.521,550.669 C236.521,559.896 229.041,567.376 219.814,567.376 C210.587,567.376 203.107,559.896 203.107,550.669 C203.107,541.442 210.587,533.962 219.814,533.962 C229.041,533.962 236.521,541.442 236.521,550.669 "/>
<path vector-effect="non-scaling-stroke" fill-rule="evenodd" d="M235.731,272.786 C235.731,281.577 228.605,288.703 219.814,288.703 C211.024,288.703 203.898,281.577 203.898,272.786 C203.898,263.996 211.024,256.87 219.814,256.87 C228.605,256.87 235.731,263.996 235.731,272.786 "/>
<path vector-effect="non-scaling-stroke" fill-rule="evenodd" d="M377.279,967.492 C377.279,977.722 368.986,986.016 358.755,986.016 C348.525,986.016 340.232,977.722 340.232,967.492 C340.232,957.262 348.525,948.969 358.755,948.969 C368.986,948.969 377.279,957.262 377.279,967.492 "/>
<path vector-effect="non-scaling-stroke" fill-rule="evenodd" d="M379.584,689.61 C379.584,701.113 370.259,710.438 358.755,710.438 C347.252,710.438 337.927,701.113 337.927,689.61 C337.927,678.107 347.252,668.782 358.755,668.782 C370.259,668.782 379.584,678.107 379.584,689.61 "/>
<path vector-effect="non-scaling-stroke" fill-rule="evenodd" d="M377.678,411.728 C377.678,422.178 369.206,430.65 358.755,430.65 C348.305,430.65 339.833,422.178 339.833,411.728 C339.833,401.277 348.305,392.805 358.755,392.805 C369.206,392.805 377.678,401.277 377.678,411.728 "/>
<path vector-effect="non-scaling-stroke" fill-rule="evenodd" d="M379.053,133.845 C379.053,145.055 369.965,154.142 358.755,154.142 C347.546,154.142 338.458,145.055 338.458,133.845 C338.458,122.635 347.546,113.548 358.755,113.548 C369.965,113.548 379.053,122.635 379.053,133.845 "/>
<path vector-effect="non-scaling-stroke" fill-rule="evenodd" d="M513.737,1106.43 C513.737,1115.29 506.556,1122.47 497.697,1122.47 C488.838,1122.47 481.656,1115.29 481.656,1106.43 C481.656,1097.57 488.838,1090.39 497.697,1090.39 C506.556,1090.39 513.737,1097.57 513.737,1106.43 "/>
<path vector-effect="non-scaling-stroke" fill-rule="evenodd" d="M515.16,828.551 C515.16,838.196 507.342,846.015 497.697,846.015 C488.052,846.015 480.233,838.196 480.233,828.551 C480.233,818.906 488.052,811.088 497.697,811.088 C507.342,811.088 515.16,818.906 515.16,828.551 "/>
<path vector-effect="non-scaling-stroke" fill-rule="evenodd" d="M513.994,550.669 C513.994,559.67 506.698,566.966 497.697,566.966 C488.696,566.966 481.399,559.67 481.399,550.669 C481.399,541.668 488.696,534.371 497.697,534.371 C506.698,534.371 513.994,541.668 513.994,550.669 "/>
<path vector-effect="non-scaling-stroke" fill-rule="evenodd" d="M514.846,272.786 C514.846,282.257 507.168,289.935 497.697,289.935 C488.226,289.935 480.548,282.257 480.548,272.786 C480.548,263.315 488.226,255.638 497.697,255.638 C507.168,255.638 514.846,263.315 514.846,272.786 "/>
<path vector-effect="non-scaling-stroke" fill-rule="evenodd" d="M655.986,967.492 C655.986,978.178 647.324,986.841 636.638,986.841 C625.952,986.841 617.289,978.178 617.289,967.492 C617.289,956.806 625.952,948.144 636.638,948.144 C647.324,948.144 655.986,956.806 655.986,967.492 "/>
<path vector-effect="non-scaling-stroke" fill-rule="evenodd" d="M654.787,689.61 C654.787,699.633 646.661,707.759 636.638,707.759 C626.615,707.759 618.489,699.633 618.489,689.61 C618.489,679.587 626.615,671.461 636.638,671.461 C646.661,671.461 654.787,679.587 654.787,689.61 "/>
<path vector-effect="non-scaling-stroke" fill-rule="evenodd" d="M656.443,411.728 C656.443,422.666 647.576,431.533 636.638,431.533 C625.7,431.533 616.832,422.666 616.832,411.728 C616.832,400.789 625.7,391.922 636.638,391.922 C647.576,391.922 656.443,400.789 656.443,411.728 "/>
<path vector-effect="non-scaling-stroke" fill-rule="evenodd" d="M654.434,133.845 C654.434,143.674 646.466,151.642 636.638,151.642 C626.809,151.642 618.842,143.674 618.842,133.845 C618.842,124.017 626.809,116.049 636.638,116.049 C646.466,116.049 654.434,124.017 654.434,133.845 "/>
<path vector-effect="non-scaling-stroke" fill-rule="evenodd" d="M792.146,1106.43 C792.146,1115.58 784.729,1123 775.579,1123 C766.429,1123 759.012,1115.58 759.012,1106.43 C759.012,1097.28 766.429,1089.87 775.579,1089.87 C784.729,1089.87 792.146,1097.28 792.146,1106.43 "/>
<path vector-effect="non-scaling-stroke" fill-rule="evenodd" d="M791.374,828.551 C791.374,837.275 784.302,844.346 775.579,844.346 C766.856,844.346 759.784,837.275 759.784,828.551 C759.784,819.828 766.856,812.756 775.579,812.756 C784.302,812.756 791.374,819.828 791.374,828.551 "/>
<path vector-effect="non-scaling-stroke" fill-rule="evenodd" d="M792.43,550.669 C792.43,559.975 784.885,567.519 775.579,567.519 C766.273,567.519 758.728,559.975 758.728,550.669 C758.728,541.362 766.273,533.818 775.579,533.818 C784.885,533.818 792.43,541.362 792.43,550.669 "/>
<path vector-effect="non-scaling-stroke" fill-rule="evenodd" d="M791.14,272.786 C791.14,281.38 784.173,288.347 775.579,288.347 C766.985,288.347 760.018,281.38 760.018,272.786 C760.018,264.193 766.985,257.226 775.579,257.226 C784.173,257.226 791.14,264.193 791.14,272.786 "/>
<path vector-effect="non-scaling-stroke" fill-rule="evenodd" d="M933.652,967.492 C933.652,978.059 925.086,986.624 914.52,986.624 C903.954,986.624 895.388,978.059 895.388,967.492 C895.388,956.926 903.954,948.36 914.52,948.36 C925.086,948.36 933.652,956.926 933.652,967.492 "/>
<path vector-effect="non-scaling-stroke" fill-rule="evenodd" d="M935.078,689.61 C935.078,700.964 925.874,710.167 914.52,710.167 C903.167,710.167 893.963,700.964 893.963,689.61 C893.963,678.256 903.167,669.052 914.52,669.052 C925.874,669.052 935.078,678.256 935.078,689.61 "/>
<path vector-effect="non-scaling-stroke" fill-rule="evenodd" d="M933.24,411.728 C933.24,422.066 924.859,430.447 914.52,430.447 C904.182,430.447 895.801,422.066 895.801,411.728 C895.801,401.389 904.182,393.008 914.52,393.008 C924.859,393.008 933.24,401.389 933.24,411.728 "/>
<path vector-effect="non-scaling-stroke" fill-rule="evenodd" d="M935.631,133.845 C935.631,145.504 926.179,154.956 914.52,154.956 C902.861,154.956 893.41,145.504 893.41,133.845 C893.41,122.186 902.861,112.735 914.52,112.735 C926.179,112.735 935.631,122.186 935.631,133.845 "/>
<path vector-effect="non-scaling-stroke" fill-rule="evenodd" d="M1069.89,1106.43 C1069.89,1115.51 1062.54,1122.86 1053.46,1122.86 C1044.39,1122.86 1037.03,1115.51 1037.03,1106.43 C1037.03,1097.36 1044.39,1090 1053.46,1090 C1062.54,1090 1069.89,1097.36 1069.89,1106.43 "/>
<path vector-effect="non-scaling-stroke" fill-rule="evenodd" d="M1070.77,828.551 C1070.77,838.108 1063.02,845.855 1053.46,845.855 C1043.9,845.855 1036.16,838.108 1036.16,828.551 C1036.16,818.994 1043.9,811.247 1053.46,811.247 C1063.02,811.247 1070.77,818.994 1070.77,828.551 "/>
<path vector-effect="non-scaling-stroke" fill-rule="evenodd" d="M1069.63,550.669 C1069.63,559.598 1062.39,566.836 1053.46,566.836 C1044.53,566.836 1037.29,559.598 1037.29,550.669 C1037.29,541.74 1044.53,534.501 1053.46,534.501 C1062.39,534.501 1069.63,541.74 1069.63,550.669 "/>
<path vector-effect="non-scaling-stroke" fill-rule="evenodd" d="M1071.09,272.786 C1071.09,282.522 1063.2,290.414 1053.46,290.414 C1043.73,290.414 1035.83,282.522 1035.83,272.786 C1035.83,263.051 1043.73,255.159 1053.46,255.159 C1063.2,255.159 1071.09,263.051 1071.09,272.786 "/>
</g>

<g fill="#08306b" fill-opacity="1" stroke="#000000" stroke-opacity="1" stroke-width="1" stroke-linecap="square" stroke-linejoin="bevel" transform="matrix(0.999913,0,0,0.999913,0,0)"
font-family="MS Shell Dlg 2" font-size="34.375" font-weight="400" font-style="normal" 
>
<path vector-effect="non-scaling-stroke" fill-rule="evenodd" d="M126.74,1106.43 C126.74,1131.77 106.205,1152.3 80.8731,1152.3 C55.5414,1152.3 35.0059,1131.77 35.0059,1106.43 C35.0059,1081.1 55.5414,1060.57 80.8731,1060.57 C106.205,1060.57 126.74,1081.1 126.74,1106.43 "/>
<path vector-effect="non-scaling-stroke" fill-rule="evenodd" d="M110.693,828.551 C110.693,845.02 97.3422,858.371 80.8731,858.371 C64.404,858.371 51.0531,845.02 51.0531,828.551 C51.0531,812.082 64.404,798.731 80.8731,798.731 C97.3422,798.731 110.693,812.082 110.693,828.551 "/>
<path vector-effect="non-scaling-stroke" fill-rule="evenodd" d="M121.448,550.669 C121.448,573.078 103.282,591.244 80.8731,591.244 C58.464,591.244 40.2978,573.078 40.2978,550.669 C40.2978,528.26 58.464,510.093 80.8731,510.093 C103.282,510.093 121.448,528.26 121.448,550.669 "/>
<path vector-effect="non-scaling-stroke" fill-rule="evenodd" d="M112.546,272.786 C112.546,290.279 98.3653,304.459 80.8731,304.459 C63.3809,304.459 49.2006,290.279 49.2006,272.786 C49.2006,255.294 63.3809,241.114 80.8731,241.114 C98.3653,241.114 112.546,255.294 112.546,272.786 "/>
<path vector-effect="non-scaling-stroke" fill-rule="evenodd" d="M245.611,967.492 C245.611,981.74 234.061,993.289 219.814,993.289 C205.567,993.289 194.017,981.74 194.017,967.492 C194.017,953.245 205.567,941.695 219.814,941.695 C234.061,941.695 245.611,953.245 245.611,967.492 "/>
<path vector-effect="non-scaling-stroke" fill-rule="evenodd" d="M241.526,689.61 C241.526,701.601 231.805,711.322 219.814,711.322 C207.823,711.322 198.102,701.601 198.102,689.61 C198.102,677.619 207.823,667.898 219.814,667.898 C231.805,667.898 241.526,677.619 241.526,689.61 "/>
<path vector-effect="non-scaling-stroke" fill-rule="evenodd" d="M244.603,411.728 C244.603,425.418 233.505,436.517 219.814,436.517 C206.124,436.517 195.025,425.418 195.025,411.728 C195.025,398.037 206.124,386.939 219.814,386.939 C233.505,386.939 244.603,398.037 244.603,411.728 "/>
<path vector-effect="non-scaling-stroke" fill-rule="evenodd" d="M242.184,133.845 C242.184,146.2 232.169,156.215 219.814,156.215 C207.46,156.215 197.445,146.2 197.445,133.845 C197.445,121.491 207.46,111.476 219.814,111.476 C232.169,111.476 242.184,121.491 242.184,133.845 "/>
<path vector-effect="non-scaling-stroke" fill-rule="evenodd" d="M391.5,1106.43 C391.5,1124.52 376.84,1139.18 358.755,1139.18 C340.671,1139.18 326.011,1124.52 326.011,1106.43 C326.011,1088.35 340.671,1073.69 358.755,1073.69 C376.84,1073.69 391.5,1088.35 391.5,1106.43 "/>
<path vector-effect="non-scaling-stroke" fill-rule="evenodd" d="M418.932,828.551 C418.932,861.786 391.99,888.728 358.755,888.728 C325.521,888.728 298.579,861.786 298.579,828.551 C298.579,795.316 325.521,768.374 358.755,768.374 C391.99,768.374 418.932,795.316 418.932,828.551 "/>
<path vector-effect="non-scaling-stroke" fill-rule="evenodd" d="M394.036,550.669 C394.036,570.154 378.24,585.949 358.755,585.949 C339.271,585.949 323.475,570.154 323.475,550.669 C323.475,531.184 339.271,515.388 358.755,515.388 C378.24,515.388 394.036,531.184 394.036,550.669 "/>
<path vector-effect="non-scaling-stroke" fill-rule="evenodd" d="M408.204,272.786 C408.204,300.096 386.065,322.235 358.755,322.235 C331.446,322.235 309.307,300.096 309.307,272.786 C309.307,245.477 331.446,223.337 358.755,223.337 C386.065,223.337 408.204,245.477 408.204,272.786 "/>
<path vector-effect="non-scaling-stroke" fill-rule="evenodd" d="M520.419,967.492 C520.419,980.041 510.246,990.215 497.697,990.215 C485.147,990.215 474.974,980.041 474.974,967.492 C474.974,954.943 485.147,944.77 497.697,944.77 C510.246,944.77 520.419,954.943 520.419,967.492 "/>
<path vector-effect="non-scaling-stroke" fill-rule="evenodd" d="M525.279,689.61 C525.279,704.843 512.93,717.192 497.697,717.192 C482.464,717.192 470.115,704.843 470.115,689.61 C470.115,674.377 482.464,662.028 497.697,662.028 C512.93,662.028 525.279,674.377 525.279,689.61 "/>
<path vector-effect="non-scaling-stroke" fill-rule="evenodd" d="M521.18,411.728 C521.18,424.697 510.666,435.211 497.697,435.211 C484.727,435.211 474.214,424.697 474.214,411.728 C474.214,398.758 484.727,388.245 497.697,388.245 C510.666,388.245 521.18,398.758 521.18,411.728 "/>
<path vector-effect="non-scaling-stroke" fill-rule="evenodd" d="M524.048,133.845 C524.048,148.399 512.25,160.197 497.697,160.197 C483.143,160.197 471.345,148.399 471.345,133.845 C471.345,119.292 483.143,107.494 497.697,107.494 C512.25,107.494 524.048,119.292 524.048,133.845 "/>
<path vector-effect="non-scaling-stroke" fill-rule="evenodd" d="M675.184,1106.43 C675.184,1127.72 657.926,1144.98 636.638,1144.98 C615.349,1144.98 598.091,1127.72 598.091,1106.43 C598.091,1085.14 615.349,1067.89 636.638,1067.89 C657.926,1067.89 675.184,1085.14 675.184,1106.43 "/>
<path vector-effect="non-scaling-stroke" fill-rule="evenodd" d="M667.341,828.551 C667.341,845.508 653.594,859.254 636.638,859.254 C619.681,859.254 605.935,845.508 605.935,828.551 C605.935,811.594 619.681,797.848 636.638,797.848 C653.594,797.848 667.341,811.594 667.341,828.551 "/>
<path vector-effect="non-scaling-stroke" fill-rule="evenodd" d="M679.612,550.669 C679.612,574.403 660.372,593.643 636.638,593.643 C612.904,593.643 593.664,574.403 593.664,550.669 C593.664,526.935 612.904,507.695 636.638,507.695 C660.372,507.695 679.612,526.935 679.612,550.669 "/>
<path vector-effect="non-scaling-stroke" fill-rule="evenodd" d="M665.65,272.786 C665.65,288.809 652.661,301.798 636.638,301.798 C620.615,301.798 607.626,288.809 607.626,272.786 C607.626,256.763 620.615,243.774 636.638,243.774 C652.661,243.774 665.65,256.763 665.65,272.786 "/>
<path vector-effect="non-scaling-stroke" fill-rule="evenodd" d="M799.908,967.492 C799.908,980.929 789.015,991.821 775.579,991.821 C762.143,991.821 751.25,980.929 751.25,967.492 C751.25,954.056 762.143,943.163 775.579,943.163 C789.015,943.163 799.908,954.056 799.908,967.492 "/>
<path vector-effect="non-scaling-stroke" fill-rule="evenodd" d="M797.612,689.61 C797.612,701.778 787.748,711.643 775.579,711.643 C763.41,711.643 753.546,701.778 753.546,689.61 C753.546,677.441 763.41,667.577 775.579,667.577 C787.748,667.577 797.612,677.441 797.612,689.61 "/>
<path vector-effect="non-scaling-stroke" fill-rule="evenodd" d="M800.856,411.728 C800.856,425.688 789.539,437.005 775.579,437.005 C761.619,437.005 750.302,425.688 750.302,411.728 C750.302,397.767 761.619,386.45 775.579,386.45 C789.539,386.45 800.856,397.767 800.856,411.728 "/>
<path vector-effect="non-scaling-stroke" fill-rule="evenodd" d="M796.984,133.845 C796.984,145.667 787.4,155.25 775.579,155.25 C763.758,155.25 754.174,145.667 754.174,133.845 C754.174,122.024 763.758,112.441 775.579,112.441 C787.4,112.441 796.984,122.024 796.984,133.845 "/>
<path vector-effect="non-scaling-stroke" fill-rule="evenodd" d="M951.322,1106.43 C951.322,1126.76 934.845,1143.23 914.52,1143.23 C894.195,1143.23 877.719,1126.76 877.719,1106.43 C877.719,1086.11 894.195,1069.63 914.52,1069.63 C934.845,1069.63 951.322,1086.11 951.322,1106.43 "/>
<path vector-effect="non-scaling-stroke" fill-rule="evenodd" d="M968.554,828.551 C968.554,858.393 944.362,882.585 914.52,882.585 C884.678,882.585 860.486,858.393 860.486,828.551 C860.486,798.709 884.678,774.517 914.52,774.517 C944.362,774.517 968.554,798.709 968.554,828.551 "/>
<path vector-effect="non-scaling-stroke" fill-rule="evenodd" d="M948.459,550.669 C948.459,569.413 933.264,584.608 914.52,584.608 C895.776,584.608 880.581,569.413 880.581,550.669 C880.581,531.925 895.776,516.73 914.52,516.73 C933.264,516.73 948.459,531.925 948.459,550.669 "/>
<path vector-effect="non-scaling-stroke" fill-rule="evenodd" d="M983.482,272.786 C983.482,310.873 952.606,341.748 914.52,341.748 C876.434,341.748 845.559,310.873 845.559,272.786 C845.559,234.7 876.434,203.825 914.52,203.825 C952.606,203.825 983.482,234.7 983.482,272.786 "/>
<path vector-effect="non-scaling-stroke" fill-rule="evenodd" d="M1077.36,967.492 C1077.36,980.689 1066.66,991.387 1053.46,991.387 C1040.26,991.387 1029.57,980.689 1029.57,967.492 C1029.57,954.296 1040.26,943.598 1053.46,943.598 C1066.66,943.598 1077.36,954.296 1077.36,967.492 "/>
<path vector-effect="non-scaling-stroke" fill-rule="evenodd" d="M1080.41,689.61 C1080.41,704.491 1068.34,716.555 1053.46,716.555 C1038.58,716.555 1026.52,704.491 1026.52,689.61 C1026.52,674.729 1038.58,662.665 1053.46,662.665 C1068.34,662.665 1080.41,674.729 1080.41,689.61 "/>
<path vector-effect="non-scaling-stroke" fill-rule="evenodd" d="M1076.55,411.728 C1076.55,424.481 1066.22,434.821 1053.46,434.821 C1040.71,434.821 1030.37,424.481 1030.37,411.728 C1030.37,398.974 1040.71,388.635 1053.46,388.635 C1066.22,388.635 1076.55,398.974 1076.55,411.728 "/>
<path vector-effect="non-scaling-stroke" fill-rule="evenodd" d="M1081.73,133.845 C1081.73,149.458 1069.07,162.114 1053.46,162.114 C1037.85,162.114 1025.19,149.458 1025.19,133.845 C1025.19,118.233 1037.85,105.576 1053.46,105.576 C1069.07,105.576 1081.73,118.233 1081.73,133.845 "/>
</g>

<g fill="#08306b" fill-opacity="1" stroke="#000000" stroke-opacity="1" stroke-width="1" stroke-linecap="square" stroke-linejoin="bevel" transform="matrix(0.999913,0,0,0.999913,0,0)"
font-family="MS Shell Dlg 2" font-size="34.375" font-weight="400" font-style="normal" 
>
</g>

<g fill="#08306b" fill-opacity="1" stroke="#000000" stroke-opacity="1" stroke-width="1" stroke-linecap="square" stroke-linejoin="bevel" transform="matrix(0.999913,0,0,0.999913,71.3669,562.62)"
font-family="MS Shell Dlg 2" font-size="34" font-weight="400" font-style="normal" 
>
<text fill="#000000" fill-opacity="1" stroke="none" xml:space="preserve" x="0" y="0" font-family="MS Shell Dlg 2" font-size="34" font-weight="400" font-style="normal" 
 >7</text>
</g>

<g fill="#08306b" fill-opacity="1" stroke="#000000" stroke-opacity="1" stroke-width="1" stroke-linecap="square" stroke-linejoin="bevel" transform="matrix(0.999913,0,0,0.999913,0,0)"
font-family="MS Shell Dlg 2" font-size="34.375" font-weight="400" font-style="normal" 
>
</g>

<g fill="#08306b" fill-opacity="1" stroke="#000000" stroke-opacity="1" stroke-width="1" stroke-linecap="square" stroke-linejoin="bevel" transform="matrix(0.999913,0,0,0.999913,61.8678,284.762)"
font-family="MS Shell Dlg 2" font-size="34" font-weight="400" font-style="normal" 
>
<text fill="#000000" fill-opacity="1" stroke="none" xml:space="preserve" x="0" y="0" font-family="MS Shell Dlg 2" font-size="34" font-weight="400" font-style="normal" 
 >13</text>
</g>

<g fill="#08306b" fill-opacity="1" stroke="#000000" stroke-opacity="1" stroke-width="1" stroke-linecap="square" stroke-linejoin="bevel" transform="matrix(0.999913,0,0,0.999913,0,0)"
font-family="MS Shell Dlg 2" font-size="34.375" font-weight="400" font-style="normal" 
>
</g>

<g fill="#08306b" fill-opacity="1" stroke="#000000" stroke-opacity="1" stroke-width="1" stroke-linecap="square" stroke-linejoin="bevel" transform="matrix(0.999913,0,0,0.999913,200.797,423.691)"
font-family="MS Shell Dlg 2" font-size="34" font-weight="400" font-style="normal" 
>
<text fill="#000000" fill-opacity="1" stroke="none" xml:space="preserve" x="0" y="0" font-family="MS Shell Dlg 2" font-size="34" font-weight="400" font-style="normal" 
 >23</text>
</g>

<g fill="#08306b" fill-opacity="1" stroke="#000000" stroke-opacity="1" stroke-width="1" stroke-linecap="square" stroke-linejoin="bevel" transform="matrix(0.999913,0,0,0.999913,0,0)"
font-family="MS Shell Dlg 2" font-size="34.375" font-weight="400" font-style="normal" 
>
</g>

<g fill="#08306b" fill-opacity="1" stroke="#000000" stroke-opacity="1" stroke-width="1" stroke-linecap="square" stroke-linejoin="bevel" transform="matrix(0.999913,0,0,0.999913,339.726,562.62)"
font-family="MS Shell Dlg 2" font-size="34" font-weight="400" font-style="normal" 
>
<text fill="#000000" fill-opacity="1" stroke="none" xml:space="preserve" x="0" y="0" font-family="MS Shell Dlg 2" font-size="34" font-weight="400" font-style="normal" 
 >10</text>
</g>

<g fill="#08306b" fill-opacity="1" stroke="#000000" stroke-opacity="1" stroke-width="1" stroke-linecap="square" stroke-linejoin="bevel" transform="matrix(0.999913,0,0,0.999913,0,0)"
font-family="MS Shell Dlg 2" font-size="34.375" font-weight="400" font-style="normal" 
>
</g>

<g fill="#08306b" fill-opacity="1" stroke="#000000" stroke-opacity="1" stroke-width="1" stroke-linecap="square" stroke-linejoin="bevel" transform="matrix(0.999913,0,0,0.999913,478.655,701.549)"
font-family="MS Shell Dlg 2" font-size="34" font-weight="400" font-style="normal" 
>
<text fill="#000000" fill-opacity="1" stroke="none" xml:space="preserve" x="0" y="0" font-family="MS Shell Dlg 2" font-size="34" font-weight="400" font-style="normal" 
 >18</text>
</g>

<g fill="#08306b" fill-opacity="1" stroke="#000000" stroke-opacity="1" stroke-width="1" stroke-linecap="square" stroke-linejoin="bevel" transform="matrix(0.999913,0,0,0.999913,0,0)"
font-family="MS Shell Dlg 2" font-size="34.375" font-weight="400" font-style="normal" 
>
</g>

<g fill="#08306b" fill-opacity="1" stroke="#000000" stroke-opacity="1" stroke-width="1" stroke-linecap="square" stroke-linejoin="bevel" transform="matrix(0.999913,0,0,0.999913,71.3669,1118.34)"
font-family="MS Shell Dlg 2" font-size="34" font-weight="400" font-style="normal" 
>
<text fill="#000000" fill-opacity="1" stroke="none" xml:space="preserve" x="0" y="0" font-family="MS Shell Dlg 2" font-size="34" font-weight="400" font-style="normal" 
 >5</text>
</g>

<g fill="#08306b" fill-opacity="1" stroke="#000000" stroke-opacity="1" stroke-width="1" stroke-linecap="square" stroke-linejoin="bevel" transform="matrix(0.999913,0,0,0.999913,0,0)"
font-family="MS Shell Dlg 2" font-size="34.375" font-weight="400" font-style="normal" 
>
</g>

<g fill="#08306b" fill-opacity="1" stroke="#000000" stroke-opacity="1" stroke-width="1" stroke-linecap="square" stroke-linejoin="bevel" transform="matrix(0.999913,0,0,0.999913,61.8678,840.478)"
font-family="MS Shell Dlg 2" font-size="34" font-weight="400" font-style="normal" 
>
<text fill="#000000" fill-opacity="1" stroke="none" xml:space="preserve" x="0" y="0" font-family="MS Shell Dlg 2" font-size="34" font-weight="400" font-style="normal" 
 >15</text>
</g>

<g fill="#08306b" fill-opacity="1" stroke="#000000" stroke-opacity="1" stroke-width="1" stroke-linecap="square" stroke-linejoin="bevel" transform="matrix(0.999913,0,0,0.999913,0,0)"
font-family="MS Shell Dlg 2" font-size="34.375" font-weight="400" font-style="normal" 
>
</g>

<g fill="#08306b" fill-opacity="1" stroke="#000000" stroke-opacity="1" stroke-width="1" stroke-linecap="square" stroke-linejoin="bevel" transform="matrix(0.999913,0,0,0.999913,200.797,979.407)"
font-family="MS Shell Dlg 2" font-size="34" font-weight="400" font-style="normal" 
>
<text fill="#000000" fill-opacity="1" stroke="none" xml:space="preserve" x="0" y="0" font-family="MS Shell Dlg 2" font-size="34" font-weight="400" font-style="normal" 
 >21</text>
</g>

<g fill="#08306b" fill-opacity="1" stroke="#000000" stroke-opacity="1" stroke-width="1" stroke-linecap="square" stroke-linejoin="bevel" transform="matrix(0.999913,0,0,0.999913,0,0)"
font-family="MS Shell Dlg 2" font-size="34.375" font-weight="400" font-style="normal" 
>
</g>

<g fill="#08306b" fill-opacity="1" stroke="#000000" stroke-opacity="1" stroke-width="1" stroke-linecap="square" stroke-linejoin="bevel" transform="matrix(0.999913,0,0,0.999913,339.726,1118.34)"
font-family="MS Shell Dlg 2" font-size="34" font-weight="400" font-style="normal" 
>
<text fill="#000000" fill-opacity="1" stroke="none" xml:space="preserve" x="0" y="0" font-family="MS Shell Dlg 2" font-size="34" font-weight="400" font-style="normal" 
 >12</text>
</g>

<g fill="#08306b" fill-opacity="1" stroke="#000000" stroke-opacity="1" stroke-width="1" stroke-linecap="square" stroke-linejoin="bevel" transform="matrix(0.999913,0,0,0.999913,0,0)"
font-family="MS Shell Dlg 2" font-size="34.375" font-weight="400" font-style="normal" 
>
</g>

<g fill="#08306b" fill-opacity="1" stroke="#000000" stroke-opacity="1" stroke-width="1" stroke-linecap="square" stroke-linejoin="bevel" transform="matrix(0.999913,0,0,0.999913,349.225,840.478)"
font-family="MS Shell Dlg 2" font-size="34" font-weight="400" font-style="normal" 
>
<text fill="#000000" fill-opacity="1" stroke="none" xml:space="preserve" x="0" y="0" font-family="MS Shell Dlg 2" font-size="34" font-weight="400" font-style="normal" 
 >2</text>
</g>

<g fill="#08306b" fill-opacity="1" stroke="#000000" stroke-opacity="1" stroke-width="1" stroke-linecap="square" stroke-linejoin="bevel" transform="matrix(0.999913,0,0,0.999913,0,0)"
font-family="MS Shell Dlg 2" font-size="34.375" font-weight="400" font-style="normal" 
>
</g>

<g fill="#08306b" fill-opacity="1" stroke="#000000" stroke-opacity="1" stroke-width="1" stroke-linecap="square" stroke-linejoin="bevel" transform="matrix(0.999913,0,0,0.999913,349.225,284.762)"
font-family="MS Shell Dlg 2" font-size="34" font-weight="400" font-style="normal" 
>
<text fill="#000000" fill-opacity="1" stroke="none" xml:space="preserve" x="0" y="0" font-family="MS Shell Dlg 2" font-size="34" font-weight="400" font-style="normal" 
 >4</text>
</g>

<g fill="#08306b" fill-opacity="1" stroke="#000000" stroke-opacity="1" stroke-width="1" stroke-linecap="square" stroke-linejoin="bevel" transform="matrix(0.999913,0,0,0.999913,0,0)"
font-family="MS Shell Dlg 2" font-size="34.375" font-weight="400" font-style="normal" 
>
</g>

<g fill="#08306b" fill-opacity="1" stroke="#000000" stroke-opacity="1" stroke-width="1" stroke-linecap="square" stroke-linejoin="bevel" transform="matrix(0.999913,0,0,0.999913,478.655,145.833)"
font-family="MS Shell Dlg 2" font-size="34" font-weight="400" font-style="normal" 
>
<text fill="#000000" fill-opacity="1" stroke="none" xml:space="preserve" x="0" y="0" font-family="MS Shell Dlg 2" font-size="34" font-weight="400" font-style="normal" 
 >20</text>
</g>

<g fill="#08306b" fill-opacity="1" stroke="#000000" stroke-opacity="1" stroke-width="1" stroke-linecap="square" stroke-linejoin="bevel" transform="matrix(0.999913,0,0,0.999913,0,0)"
font-family="MS Shell Dlg 2" font-size="34.375" font-weight="400" font-style="normal" 
>
</g>

<g fill="#08306b" fill-opacity="1" stroke="#000000" stroke-opacity="1" stroke-width="1" stroke-linecap="square" stroke-linejoin="bevel" transform="matrix(0.999913,0,0,0.999913,627.083,562.62)"
font-family="MS Shell Dlg 2" font-size="34" font-weight="400" font-style="normal" 
>
<text fill="#000000" fill-opacity="1" stroke="none" xml:space="preserve" x="0" y="0" font-family="MS Shell Dlg 2" font-size="34" font-weight="400" font-style="normal" 
 >6</text>
</g>

<g fill="#08306b" fill-opacity="1" stroke="#000000" stroke-opacity="1" stroke-width="1" stroke-linecap="square" stroke-linejoin="bevel" transform="matrix(0.999913,0,0,0.999913,0,0)"
font-family="MS Shell Dlg 2" font-size="34.375" font-weight="400" font-style="normal" 
>
</g>

<g fill="#08306b" fill-opacity="1" stroke="#000000" stroke-opacity="1" stroke-width="1" stroke-linecap="square" stroke-linejoin="bevel" transform="matrix(0.999913,0,0,0.999913,617.584,284.762)"
font-family="MS Shell Dlg 2" font-size="34" font-weight="400" font-style="normal" 
>
<text fill="#000000" fill-opacity="1" stroke="none" xml:space="preserve" x="0" y="0" font-family="MS Shell Dlg 2" font-size="34" font-weight="400" font-style="normal" 
 >16</text>
</g>

<g fill="#08306b" fill-opacity="1" stroke="#000000" stroke-opacity="1" stroke-width="1" stroke-linecap="square" stroke-linejoin="bevel" transform="matrix(0.999913,0,0,0.999913,0,0)"
font-family="MS Shell Dlg 2" font-size="34.375" font-weight="400" font-style="normal" 
>
</g>

<g fill="#08306b" fill-opacity="1" stroke="#000000" stroke-opacity="1" stroke-width="1" stroke-linecap="square" stroke-linejoin="bevel" transform="matrix(0.999913,0,0,0.999913,756.513,423.691)"
font-family="MS Shell Dlg 2" font-size="34" font-weight="400" font-style="normal" 
>
<text fill="#000000" fill-opacity="1" stroke="none" xml:space="preserve" x="0" y="0" font-family="MS Shell Dlg 2" font-size="34" font-weight="400" font-style="normal" 
 >22</text>
</g>

<g fill="#08306b" fill-opacity="1" stroke="#000000" stroke-opacity="1" stroke-width="1" stroke-linecap="square" stroke-linejoin="bevel" transform="matrix(0.999913,0,0,0.999913,0,0)"
font-family="MS Shell Dlg 2" font-size="34.375" font-weight="400" font-style="normal" 
>
</g>

<g fill="#08306b" fill-opacity="1" stroke="#000000" stroke-opacity="1" stroke-width="1" stroke-linecap="square" stroke-linejoin="bevel" transform="matrix(0.999913,0,0,0.999913,895.443,562.62)"
font-family="MS Shell Dlg 2" font-size="34" font-weight="400" font-style="normal" 
>
<text fill="#000000" fill-opacity="1" stroke="none" xml:space="preserve" x="0" y="0" font-family="MS Shell Dlg 2" font-size="34" font-weight="400" font-style="normal" 
 >11</text>
</g>

<g fill="#08306b" fill-opacity="1" stroke="#000000" stroke-opacity="1" stroke-width="1" stroke-linecap="square" stroke-linejoin="bevel" transform="matrix(0.999913,0,0,0.999913,0,0)"
font-family="MS Shell Dlg 2" font-size="34.375" font-weight="400" font-style="normal" 
>
</g>

<g fill="#08306b" fill-opacity="1" stroke="#000000" stroke-opacity="1" stroke-width="1" stroke-linecap="square" stroke-linejoin="bevel" transform="matrix(0.999913,0,0,0.999913,904.942,284.762)"
font-family="MS Shell Dlg 2" font-size="34" font-weight="400" font-style="normal" 
>
<text fill="#000000" fill-opacity="1" stroke="none" xml:space="preserve" x="0" y="0" font-family="MS Shell Dlg 2" font-size="34" font-weight="400" font-style="normal" 
 >1</text>
</g>

<g fill="#08306b" fill-opacity="1" stroke="#000000" stroke-opacity="1" stroke-width="1" stroke-linecap="square" stroke-linejoin="bevel" transform="matrix(0.999913,0,0,0.999913,0,0)"
font-family="MS Shell Dlg 2" font-size="34.375" font-weight="400" font-style="normal" 
>
</g>

<g fill="#08306b" fill-opacity="1" stroke="#000000" stroke-opacity="1" stroke-width="1" stroke-linecap="square" stroke-linejoin="bevel" transform="matrix(0.999913,0,0,0.999913,1034.37,145.833)"
font-family="MS Shell Dlg 2" font-size="34" font-weight="400" font-style="normal" 
>
<text fill="#000000" fill-opacity="1" stroke="none" xml:space="preserve" x="0" y="0" font-family="MS Shell Dlg 2" font-size="34" font-weight="400" font-style="normal" 
 >17</text>
</g>

<g fill="#08306b" fill-opacity="1" stroke="#000000" stroke-opacity="1" stroke-width="1" stroke-linecap="square" stroke-linejoin="bevel" transform="matrix(0.999913,0,0,0.999913,0,0)"
font-family="MS Shell Dlg 2" font-size="34.375" font-weight="400" font-style="normal" 
>
</g>

<g fill="#08306b" fill-opacity="1" stroke="#000000" stroke-opacity="1" stroke-width="1" stroke-linecap="square" stroke-linejoin="bevel" transform="matrix(0.999913,0,0,0.999913,627.083,1118.34)"
font-family="MS Shell Dlg 2" font-size="34" font-weight="400" font-style="normal" 
>
<text fill="#000000" fill-opacity="1" stroke="none" xml:space="preserve" x="0" y="0" font-family="MS Shell Dlg 2" font-size="34" font-weight="400" font-style="normal" 
 >8</text>
</g>

<g fill="#08306b" fill-opacity="1" stroke="#000000" stroke-opacity="1" stroke-width="1" stroke-linecap="square" stroke-linejoin="bevel" transform="matrix(0.999913,0,0,0.999913,0,0)"
font-family="MS Shell Dlg 2" font-size="34.375" font-weight="400" font-style="normal" 
>
</g>

<g fill="#08306b" fill-opacity="1" stroke="#000000" stroke-opacity="1" stroke-width="1" stroke-linecap="square" stroke-linejoin="bevel" transform="matrix(0.999913,0,0,0.999913,617.584,840.478)"
font-family="MS Shell Dlg 2" font-size="34" font-weight="400" font-style="normal" 
>
<text fill="#000000" fill-opacity="1" stroke="none" xml:space="preserve" x="0" y="0" font-family="MS Shell Dlg 2" font-size="34" font-weight="400" font-style="normal" 
 >14</text>
</g>

<g fill="#08306b" fill-opacity="1" stroke="#000000" stroke-opacity="1" stroke-width="1" stroke-linecap="square" stroke-linejoin="bevel" transform="matrix(0.999913,0,0,0.999913,0,0)"
font-family="MS Shell Dlg 2" font-size="34.375" font-weight="400" font-style="normal" 
>
</g>

<g fill="#08306b" fill-opacity="1" stroke="#000000" stroke-opacity="1" stroke-width="1" stroke-linecap="square" stroke-linejoin="bevel" transform="matrix(0.999913,0,0,0.999913,756.513,979.407)"
font-family="MS Shell Dlg 2" font-size="34" font-weight="400" font-style="normal" 
>
<text fill="#000000" fill-opacity="1" stroke="none" xml:space="preserve" x="0" y="0" font-family="MS Shell Dlg 2" font-size="34" font-weight="400" font-style="normal" 
 >24</text>
</g>

<g fill="#08306b" fill-opacity="1" stroke="#000000" stroke-opacity="1" stroke-width="1" stroke-linecap="square" stroke-linejoin="bevel" transform="matrix(0.999913,0,0,0.999913,0,0)"
font-family="MS Shell Dlg 2" font-size="34.375" font-weight="400" font-style="normal" 
>
</g>

<g fill="#08306b" fill-opacity="1" stroke="#000000" stroke-opacity="1" stroke-width="1" stroke-linecap="square" stroke-linejoin="bevel" transform="matrix(0.999913,0,0,0.999913,904.942,1118.34)"
font-family="MS Shell Dlg 2" font-size="34" font-weight="400" font-style="normal" 
>
<text fill="#000000" fill-opacity="1" stroke="none" xml:space="preserve" x="0" y="0" font-family="MS Shell Dlg 2" font-size="34" font-weight="400" font-style="normal" 
 >9</text>
</g>

<g fill="#08306b" fill-opacity="1" stroke="#000000" stroke-opacity="1" stroke-width="1" stroke-linecap="square" stroke-linejoin="bevel" transform="matrix(0.999913,0,0,0.999913,0,0)"
font-family="MS Shell Dlg 2" font-size="34.375" font-weight="400" font-style="normal" 
>
</g>

<g fill="#08306b" fill-opacity="1" stroke="#000000" stroke-opacity="1" stroke-width="1" stroke-linecap="square" stroke-linejoin="bevel" transform="matrix(0.999913,0,0,0.999913,904.942,840.478)"
font-family="MS Shell Dlg 2" font-size="34" font-weight="400" font-style="normal" 
>
<text fill="#000000" fill-opacity="1" stroke="none" xml:space="preserve" x="0" y="0" font-family="MS Shell Dlg 2" font-size="34" font-weight="400" font-style="normal" 
 >3</text>
</g>

<g fill="#08306b" fill-opacity="1" stroke="#000000" stroke-opacity="1" stroke-width="1" stroke-linecap="square" stroke-linejoin="bevel" transform="matrix(0.999913,0,0,0.999913,0,0)"
font-family="MS Shell Dlg 2" font-size="34.375" font-weight="400" font-style="normal" 
>
</g>

<g fill="#08306b" fill-opacity="1" stroke="#000000" stroke-opacity="1" stroke-width="1" stroke-linecap="square" stroke-linejoin="bevel" transform="matrix(0.999913,0,0,0.999913,1034.37,701.549)"
font-family="MS Shell Dlg 2" font-size="34" font-weight="400" font-style="normal" 
>
<text fill="#000000" fill-opacity="1" stroke="none" xml:space="preserve" x="0" y="0" font-family="MS Shell Dlg 2" font-size="34" font-weight="400" font-style="normal" 
 >19</text>
</g>

<g fill="#08306b" fill-opacity="1" stroke="#000000" stroke-opacity="1" stroke-width="1" stroke-linecap="square" stroke-linejoin="bevel" transform="matrix(0.999913,0,0,0.999913,0,0)"
font-family="MS Shell Dlg 2" font-size="34.375" font-weight="400" font-style="normal" 
>
</g>

<g fill="none" stroke="#000000" stroke-opacity="1" stroke-width="1" stroke-linecap="square" stroke-linejoin="bevel" transform="matrix(11.81,0,0,11.81,0,0)"
font-family="MS Shell Dlg 2" font-size="34.375" font-weight="400" font-style="normal" 
>
</g>

<g fill="none" stroke="#000000" stroke-opacity="1" stroke-width="1" stroke-linecap="square" stroke-linejoin="bevel" transform="matrix(11.81,0,0,11.81,0,0)"
font-family="MS Shell Dlg 2" font-size="34.375" font-weight="400" font-style="normal" 
>
</g>

<g fill="none" stroke="#000000" stroke-opacity="1" stroke-width="1" stroke-linecap="square" stroke-linejoin="bevel" transform="matrix(11.81,0,0,11.81,0,0)"
font-family="MS Shell Dlg 2" font-size="34.375" font-weight="400" font-style="normal" 
>
</g>

<g fill="none" stroke="#000000" stroke-opacity="1" stroke-width="1" stroke-linecap="square" stroke-linejoin="bevel" transform="matrix(1,0,0,1,0,0)"
font-family="MS Shell Dlg 2" font-size="34.375" font-weight="400" font-style="normal" 
>
</g>

<g fill="none" stroke="#000000" stroke-opacity="1" stroke-width="1" stroke-linecap="square" stroke-linejoin="bevel" transform="matrix(11.81,0,0,11.81,0,0)"
font-family="MS Shell Dlg 2" font-size="34.375" font-weight="400" font-style="normal" 
>
</g>

<g fill="none" stroke="#000000" stroke-opacity="1" stroke-width="1" stroke-linecap="square" stroke-linejoin="bevel" transform="matrix(11.81,0,0,11.81,0,0)"
font-family="MS Shell Dlg 2" font-size="34.375" font-weight="400" font-style="normal" 
>
</g>

<g fill="none" stroke="#000000" stroke-opacity="1" stroke-width="1" stroke-linecap="square" stroke-linejoin="bevel" transform="matrix(11.81,0,0,11.81,0,0)"
font-family="MS Shell Dlg 2" font-size="34.375" font-weight="400" font-style="normal" 
>
</g>

<g fill="none" stroke="#000000" stroke-opacity="1" stroke-width="1" stroke-linecap="square" stroke-linejoin="bevel" transform="matrix(11.81,0,0,11.81,0,0)"
font-family="MS Shell Dlg 2" font-size="34.375" font-weight="400" font-style="normal" 
>
</g>

<g fill="none" stroke="#000000" stroke-opacity="1" stroke-width="1" stroke-linecap="square" stroke-linejoin="bevel" transform="matrix(11.81,0,0,11.81,0,0)"
font-family="MS Shell Dlg 2" font-size="34.375" font-weight="400" font-style="normal" 
>
</g>

<g fill="none" stroke="#000000" stroke-opacity="1" stroke-width="1" stroke-linecap="square" stroke-linejoin="bevel" transform="matrix(11.81,0,0,11.81,0,0)"
font-family="MS Shell Dlg 2" font-size="34.375" font-weight="400" font-style="normal" 
>
</g>

<g fill="none" stroke="#000000" stroke-opacity="1" stroke-width="1" stroke-linecap="square" stroke-linejoin="bevel" transform="matrix(1,0,0,1,0,0)"
font-family="MS Shell Dlg 2" font-size="34.375" font-weight="400" font-style="normal" 
>
</g>
</g>
</svg>
