<?xml version="1.0" encoding="UTF-8" standalone="no"?>
<!-- Created with matplotlib (http://matplotlib.org/) -->

<svg
   xmlns:dc="http://purl.org/dc/elements/1.1/"
   xmlns:cc="http://creativecommons.org/ns#"
   xmlns:rdf="http://www.w3.org/1999/02/22-rdf-syntax-ns#"
   xmlns:svg="http://www.w3.org/2000/svg"
   xmlns="http://www.w3.org/2000/svg"
   xmlns:xlink="http://www.w3.org/1999/xlink"
   xmlns:sodipodi="http://sodipodi.sourceforge.net/DTD/sodipodi-0.dtd"
   xmlns:inkscape="http://www.inkscape.org/namespaces/inkscape"
   height="139.57138"
   version="1.1"
   viewBox="0 0 286.48059 111.6571"
   width="358.10074"
   id="svg2"
   inkscape:version="0.48.5 r10040"
   sodipodi:docname="4_plus_wheelers_precision_vs_confidence.svg"
   inkscape:export-filename="D:\Travail\THESE\PROJETS\Octree_LOD\illustrations\classif\result_paris\4_plus_wheelers_precision_vs_confidence.png"
   inkscape:export-xdpi="300"
   inkscape:export-ydpi="300">
  <metadata
     id="metadata566">
    <rdf:RDF>
      <cc:Work
         rdf:about="">
        <dc:format>image/svg+xml</dc:format>
        <dc:type
           rdf:resource="http://purl.org/dc/dcmitype/StillImage" />
        <dc:title />
      </cc:Work>
    </rdf:RDF>
  </metadata>
  <sodipodi:namedview
     pagecolor="#ffffff"
     bordercolor="#666666"
     borderopacity="1"
     objecttolerance="10"
     gridtolerance="10"
     guidetolerance="10"
     inkscape:pageopacity="0"
     inkscape:pageshadow="2"
     inkscape:window-width="1680"
     inkscape:window-height="988"
     id="namedview564"
     showgrid="false"
     inkscape:zoom="2.4722548"
     inkscape:cx="237.88433"
     inkscape:cy="80.567493"
     inkscape:window-x="-8"
     inkscape:window-y="-8"
     inkscape:window-maximized="1"
     inkscape:current-layer="g5462"
     units="cm"
     fit-margin-left="0.1"
     fit-margin-top="0.1"
     fit-margin-right="0.1"
     fit-margin-bottom="0.1" />
  <defs
     id="defs4"
     style="stroke-linecap:butt;stroke-linejoin:round">
    <style
       type="text/css"
       id="style6">
*{stroke-linecap:butt;stroke-linejoin:round;}
  </style>
  </defs>
  <defs
     id="defs559">
    <clipPath
       id="p7ff5b81e1d">
      <rect
         height="345.60001"
         width="446.39999"
         x="72"
         y="43.200001"
         id="rect562"
         style="stroke-linecap:butt;stroke-linejoin:round" />
    </clipPath>
  </defs>
  <g
     id="g5462"
     transform="matrix(0.56304384,0,0,0.56304384,-8.5369525,-21.200289)"
     style="stroke-linecap:butt;stroke-linejoin:round">
    <g
       transform="translate(0,1.7638872e-6)"
       style="stroke-linecap:butt;stroke-linejoin:round"
       id="line2d_1">
      <path
         inkscape:connector-curvature="0"
         id="path17"
         style="fill:none;stroke:#0000ff;stroke-linecap:square;stroke-linejoin:round"
         d="m 72,72 95.992,0 1.534,16.9412 4.804,-0.9412 3.131,-0.8421 1.173,-0.7579 2.73,-0.6857 0.15,-0.6234 6.534,-0.5692 0.617,-0.5217 3.578,11.04 4.058,-0.8862 2.928,-0.8205 0.124,-0.7619 0.97,-0.7093 0.597,-0.6621 7.642,-0.6194 0.046,-0.5806 0.197,-0.5455 0.332,-0.5133 3.511,-0.4841 0.026,-0.4571 3.485,-0.4324 1.717,-0.4097 8.816,-0.3887 0.594,-0.3692 1.117,-0.3512 1.7,-0.3345 0.945,-0.319 3.464,-0.3044 0.208,-0.2909 8.636,-0.5447 1.308,-0.2553 0.113,-0.2449 0.061,5.5249 0.836,-0.3388 5.817,-0.3258 2.492,-0.3135 0.045,-0.3019 0.185,-0.2909 2.699,-0.2805 0.53,-0.2707 2.683,-0.2613 0.999,-0.2525 1.472,-0.2441 0.535,-0.2361 0.055,4.4167 2.757,-0.2949 0.225,-0.2857 0.498,-0.2769 0.029,4.0951 1.41,-0.3257 1.611,-0.9211 1.265,-0.2897 0.021,-0.2817 9.793,-1.0526 0.34,-0.2461 0.004,-0.2398 4.303,-0.2337 0.002,-0.2278 0.738,3.3333 0.62,-0.2601 0.598,3.216 0.062,-0.2892 0.786,-0.2824 0.017,-0.2757 1.521,-0.2695 0.106,-0.2633 0.325,-0.2574 2.401,-0.4979 0.037,-0.2408 0.829,2.8612 0.057,2.8003 1.002,-0.5745 0.349,-0.2784 1.056,2.6664 0.718,-0.297 1.791,2.589 0.61,-0.314 0.335,-0.307 3.172,-0.302 4.14,-0.586 0.435,-0.284 1.174,-0.28 1.213,-0.543 1.565,-0.778 2.398,-0.251 0.584,-0.2455 0.182,-0.2417 0.405,2.2452 0.043,2.207 0.519,-0.271 3.39,-0.529 3.461,-0.258 1.222,-0.503 0.337,2.077 2.2,-0.26 0.609,-0.256 0.105,-0.252 1.513,-0.492 2.451,-0.241 1.103,-0.236 0.132,1.948 3.88,-0.246 0.595,-0.242 1.063,-0.239 0.328,-0.467 1.116,-0.229 0.482,-0.225 1.593,1.835 0.257,1.809 0.045,-0.244 0.198,-0.241 0.419,1.762 0.497,-0.248 0.234,-0.245 0.879,1.717 0.565,-0.251 1.083,-0.248 2.201,-0.245 0.303,-0.48 0.051,-0.235 2.327,-0.233 4.848,-0.229 1.122,-0.226 0.412,-0.223 2.722,-0.221 0.278,-0.218 0.027,1.585 0.135,-0.224 3.044,-0.439 0.283,1.541 2.409,-0.444 0.143,1.506 2.3,-0.449 0.397,-0.22 1.583,1.466 1.953,-0.225 2.005,1.442 0.189,-0.23 0.62,1.419 1.648,-0.234 0.703,-0.231 5.379,-0.455 0.004,-0.223 0.511,-0.44 3.907,-0.43 1.262,1.346 1.418,1.33 0.65,-0.223 1.906,1.311 2.569,-0.227 0.038,1.291 0.714,1.278 2.014,1.264 1.3,1.251 0.246,-0.246 2.005,-0.243 0.237,1.228 1.547,-0.246 2.19,1.211 0.58,-0.249 2.69,-0.246 1.712,1.189 0.775,-0.248 2.75,-0.489 0.707,1.164 0.685,-0.246 1.478,1.148 1.851,-0.247 1.069,1.133 0.247,1.122 1.585,-0.254 0.278,-0.251 0.074,-0.249 1.747,1.1 0.797,1.089 0.024,1.079 0.868,1.069 1.677,1.059 0.637,1.05 0.938,-0.269 0.064,-0.266 0.622,4.077 0.252,0.997 0.486,0.988 0.764,0.979 1.015,-0.287 0.056,0.968 0.779,-0.287 0.412,0.956 1.211,-0.287 2.133,0.945 0.685,-0.573 0.591,0.932 0.718,0.924 3.344,-0.575 2.649,-0.284 0.193,-0.281 0.438,-0.279 1.12,-0.277 0.662,0.901 1.115,-0.278 0.658,-0.547 0.148,0.886 0.268,0.879 0.19,-0.275 0.704,-0.274 2.311,0.868 3.144,0.86 2.365,0.854 0.275,-0.278 1.144,-0.276 2.341,-0.273 0.381,-0.272 0.079,-0.269 6.289,-0.268 2.336,-0.265 0.876,0.832 0.81,1.644 0.238,0.813 0.537,0.807 0.084,1.596 0.822,-0.277 1.273,1.568 0.532,-0.279 0.169,0.774 0.386,-0.556 1.025,0.765 0.108,-0.277 0.348,0.757 1.116,1.499 0.232,0.742 0.504,-0.561 2.362,-0.278 1.586,0.731 0.912,0.727 4.9,0.721 1.323,0.716 2.892,2.12 8.239,-0.287 1.983,0.696 12.658,0.691 2.785,0.686 0,0"
         clip-path="url(#p7ff5b81e1d)" />
    </g>
    <g
       transform="translate(0,1.7638872e-6)"
       style="stroke-linecap:butt;stroke-linejoin:round"
       id="line2d_2">
      <path
         inkscape:connector-curvature="0"
         id="path20"
         style="fill:none;stroke:#0000ff;stroke-linecap:square;stroke-linejoin:round"
         d="m 72,111.579 446.4,0"
         clip-path="url(#p7ff5b81e1d)" />
    </g>
    <g
       transform="matrix(1,0,0,0.41761069,0,25.159002)"
       style="stroke-linecap:butt;stroke-linejoin:round"
       id="line2d_3">
      <path
         inkscape:connector-curvature="0"
         id="path25"
         style="fill:none;stroke:#000000;stroke-width:0.5;stroke-linecap:butt;stroke-linejoin:round;stroke-dasharray:1, 3;stroke-dashoffset:0"
         d="m 99.853,388.8 0,-345.6"
         clip-path="url(#p7ff5b81e1d)" />
    </g>
    <g
       transform="translate(0,-200.44)"
       style="stroke-linecap:butt;stroke-linejoin:round"
       id="line2d_4">
      <defs
         id="defs28">
        <path
           inkscape:connector-curvature="0"
           style="stroke:#000000;stroke-width:0.5;stroke-linecap:butt;stroke-linejoin:round"
           id="m93b0483c22"
           d="M 0,0 0,-4" />
      </defs>
      <g
         style="stroke-linecap:butt;stroke-linejoin:round"
         id="g31">
        <use
           height="432"
           width="576"
           id="use33"
           y="388.79999"
           xlink:href="#m93b0483c22"
           x="99.852959"
           style="stroke:#000000;stroke-width:0.5;stroke-linecap:butt;stroke-linejoin:round" />
      </g>
    </g>
    <g
       transform="translate(0,1.7638872e-6)"
       style="stroke-linecap:butt;stroke-linejoin:round"
       id="line2d_5">
      <defs
         id="defs36">
        <path
           inkscape:connector-curvature="0"
           style="stroke:#000000;stroke-width:0.5;stroke-linecap:butt;stroke-linejoin:round"
           id="m741efc42ff"
           d="M 0,0 0,4" />
      </defs>
      <g
         style="stroke-linecap:butt;stroke-linejoin:round"
         id="g39">
        <use
           height="432"
           width="576"
           id="use41"
           y="43.200001"
           xlink:href="#m741efc42ff"
           x="99.852959"
           style="stroke:#000000;stroke-width:0.5;stroke-linecap:butt;stroke-linejoin:round" />
      </g>
    </g>
    <g
       transform="translate(0,-200.44)"
       style="stroke-linecap:butt;stroke-linejoin:round"
       id="text_1">
      <!-- 0.4 -->
      <defs
         id="defs44">
        <path
           style="stroke-linecap:butt;stroke-linejoin:round"
           inkscape:connector-curvature="0"
           id="BitstreamVeraSans-Roman-30"
           d="m 31.7812,66.4062 q -7.6093,0 -11.4531,-7.5 Q 16.5,51.4219 16.5,36.375 q 0,-14.9844 3.8281,-22.4844 3.8438,-7.49998 11.4531,-7.49998 7.6719,0 11.5,7.49998 3.8438,7.5 3.8438,22.4844 0,15.0469 -3.8438,22.5312 -3.8281,7.5 -11.5,7.5 m 0,7.8126 q 12.2657,0 18.7344,-9.7032 6.4688,-9.6875 6.4688,-28.1406 0,-18.4062 -6.4688,-28.10938 -6.4687,-9.6875 -18.7344,-9.6875 -12.25,0 -18.7187,9.6875 -6.46875,9.70318 -6.46875,28.10938 0,18.4531 6.46875,28.1406 6.4687,9.7032 18.7187,9.7032" />
        <path
           style="stroke-linecap:butt;stroke-linejoin:round"
           inkscape:connector-curvature="0"
           id="BitstreamVeraSans-Roman-2e"
           d="M 10.6875,12.4062 21,12.4062 21,0 10.6875,0 z" />
        <path
           style="stroke-linecap:butt;stroke-linejoin:round"
           inkscape:connector-curvature="0"
           id="BitstreamVeraSans-Roman-34"
           d="m 37.7969,64.3125 -24.9063,-38.9219 24.9063,0 z m -2.5938,8.5937 12.4063,0 0,-47.5156 10.4062,0 0,-8.2031 -10.4062,0 0,-17.1875 -9.8125,0 0,17.1875 -32.90628,0 0,9.5156 z" />
      </defs>
      <g
         style="stroke-linecap:butt;stroke-linejoin:round"
         id="g49"
         transform="matrix(0.12,0,0,-0.12,91.043269,401.91812)">
        <use
           height="432"
           width="576"
           y="0"
           x="0"
           style="stroke-linecap:butt;stroke-linejoin:round"
           id="use51"
           xlink:href="#BitstreamVeraSans-Roman-30" />
        <use
           height="432"
           width="576"
           y="0"
           style="stroke-linecap:butt;stroke-linejoin:round"
           id="use53"
           xlink:href="#BitstreamVeraSans-Roman-2e"
           x="63.623047" />
        <use
           height="432"
           width="576"
           y="0"
           style="stroke-linecap:butt;stroke-linejoin:round"
           id="use55"
           xlink:href="#BitstreamVeraSans-Roman-34"
           x="95.410156" />
      </g>
    </g>
    <g
       transform="matrix(1,0,0,0.41761069,0,25.159002)"
       style="stroke-linecap:butt;stroke-linejoin:round"
       id="line2d_6">
      <path
         inkscape:connector-curvature="0"
         id="path59"
         style="fill:none;stroke:#000000;stroke-width:0.5;stroke-linecap:butt;stroke-linejoin:round;stroke-dasharray:1, 3;stroke-dashoffset:0"
         d="m 195.082,388.8 0,-345.6"
         clip-path="url(#p7ff5b81e1d)" />
    </g>
    <g
       transform="translate(0,-200.44)"
       style="stroke-linecap:butt;stroke-linejoin:round"
       id="line2d_7">
      <g
         style="stroke-linecap:butt;stroke-linejoin:round"
         id="g62">
        <use
           height="432"
           width="576"
           id="use64"
           y="388.79999"
           xlink:href="#m93b0483c22"
           x="195.08157"
           style="stroke:#000000;stroke-width:0.5;stroke-linecap:butt;stroke-linejoin:round" />
      </g>
    </g>
    <g
       transform="translate(0,1.7638872e-6)"
       style="stroke-linecap:butt;stroke-linejoin:round"
       id="line2d_8">
      <g
         style="stroke-linecap:butt;stroke-linejoin:round"
         id="g67">
        <use
           height="432"
           width="576"
           id="use69"
           y="43.200001"
           xlink:href="#m741efc42ff"
           x="195.08157"
           style="stroke:#000000;stroke-width:0.5;stroke-linecap:butt;stroke-linejoin:round" />
      </g>
    </g>
    <g
       transform="translate(0,-200.44)"
       style="stroke-linecap:butt;stroke-linejoin:round"
       id="text_2">
      <!-- 0.5 -->
      <defs
         id="defs72">
        <path
           style="stroke-linecap:butt;stroke-linejoin:round"
           inkscape:connector-curvature="0"
           id="BitstreamVeraSans-Roman-35"
           d="m 10.7969,72.9062 38.7187,0 0,-8.3124 -29.6875,0 0,-17.8594 q 2.1407,0.7344 4.2813,1.0937 2.1562,0.3594 4.3125,0.3594 12.2031,0 19.3281,-6.6875 7.1406,-6.6875 7.1406,-18.1094 0,-11.7656 -7.3281,-18.29685 -7.3281,-6.51563 -20.6563,-6.51563 -4.5937,0 -9.3593,0.781255 -4.75,0.78125 -9.82815,2.343745 l 0,9.92188 q 4.39065,-2.39062 9.07815,-3.5625 4.6875,-1.17188 9.9062,-1.17188 8.4531,0 13.375,4.43748 4.9375,4.4375 4.9375,12.0625 0,7.6094 -4.9375,12.0469 -4.9219,4.4531 -13.375,4.4531 -3.9531,0 -7.8906,-0.875 -3.9219,-0.875 -8.0156,-2.7344 z" />
      </defs>
      <g
         style="stroke-linecap:butt;stroke-linejoin:round"
         id="g75"
         transform="matrix(0.12,0,0,-0.12,186.45939,401.91812)">
        <use
           height="432"
           width="576"
           y="0"
           x="0"
           style="stroke-linecap:butt;stroke-linejoin:round"
           id="use77"
           xlink:href="#BitstreamVeraSans-Roman-30" />
        <use
           height="432"
           width="576"
           y="0"
           style="stroke-linecap:butt;stroke-linejoin:round"
           id="use79"
           xlink:href="#BitstreamVeraSans-Roman-2e"
           x="63.623047" />
        <use
           height="432"
           width="576"
           y="0"
           style="stroke-linecap:butt;stroke-linejoin:round"
           id="use81"
           xlink:href="#BitstreamVeraSans-Roman-35"
           x="95.410156" />
      </g>
    </g>
    <g
       transform="matrix(1,0,0,0.41761069,0,25.159002)"
       style="stroke-linecap:butt;stroke-linejoin:round"
       id="line2d_9">
      <path
         inkscape:connector-curvature="0"
         id="path85"
         style="fill:none;stroke:#000000;stroke-width:0.5;stroke-linecap:butt;stroke-linejoin:round;stroke-dasharray:1, 3;stroke-dashoffset:0"
         d="m 290.31,388.8 0,-345.6"
         clip-path="url(#p7ff5b81e1d)" />
    </g>
    <g
       transform="translate(0,-200.44)"
       style="stroke-linecap:butt;stroke-linejoin:round"
       id="line2d_10">
      <g
         style="stroke-linecap:butt;stroke-linejoin:round"
         id="g88">
        <use
           height="432"
           width="576"
           id="use90"
           y="388.79999"
           xlink:href="#m93b0483c22"
           x="290.31018"
           style="stroke:#000000;stroke-width:0.5;stroke-linecap:butt;stroke-linejoin:round" />
      </g>
    </g>
    <g
       transform="translate(0,1.7638872e-6)"
       style="stroke-linecap:butt;stroke-linejoin:round"
       id="line2d_11">
      <g
         style="stroke-linecap:butt;stroke-linejoin:round"
         id="g93">
        <use
           height="432"
           width="576"
           id="use95"
           y="43.200001"
           xlink:href="#m741efc42ff"
           x="290.31018"
           style="stroke:#000000;stroke-width:0.5;stroke-linecap:butt;stroke-linejoin:round" />
      </g>
    </g>
    <g
       transform="translate(0,-200.44)"
       style="stroke-linecap:butt;stroke-linejoin:round"
       id="text_3">
      <!-- 0.6 -->
      <defs
         id="defs98">
        <path
           style="stroke-linecap:butt;stroke-linejoin:round"
           inkscape:connector-curvature="0"
           id="BitstreamVeraSans-Roman-36"
           d="m 33.0156,40.375 q -6.6406,0 -10.5312,-4.5469 -3.875,-4.5312 -3.875,-12.4375 0,-7.8594 3.875,-12.4375 3.8906,-4.56248 10.5312,-4.56248 6.6406,0 10.5156,4.56248 3.875,4.5781 3.875,12.4375 0,7.9063 -3.875,12.4375 -3.875,4.5469 -10.5156,4.5469 m 19.5782,30.9219 0,-8.9844 q -3.7188,1.75 -7.5,2.6719 -3.7813,0.9375 -7.5,0.9375 -9.7657,0 -14.9219,-6.5938 -5.1407,-6.5937 -5.875,-19.9219 2.875,4.25 7.2187,6.5157 4.3594,2.2656 9.5782,2.2656 10.9843,0 17.3593,-6.6719 6.375,-6.6562 6.375,-18.125 0,-11.2344 -6.6406,-18.03122 -6.6406,-6.78126 -17.6719,-6.78126 -12.6562,0 -19.3437,9.6875 -6.68752,9.70318 -6.68752,28.10938 0,17.2812 8.20312,27.5625 8.2031,10.2813 22.0156,10.2813 3.7188,0 7.5,-0.7344 3.7813,-0.7344 7.8907,-2.1875" />
      </defs>
      <g
         style="stroke-linecap:butt;stroke-linejoin:round"
         id="g101"
         transform="matrix(0.12,0,0,-0.12,281.54175,401.91812)">
        <use
           height="432"
           width="576"
           y="0"
           x="0"
           style="stroke-linecap:butt;stroke-linejoin:round"
           id="use103"
           xlink:href="#BitstreamVeraSans-Roman-30" />
        <use
           height="432"
           width="576"
           y="0"
           style="stroke-linecap:butt;stroke-linejoin:round"
           id="use105"
           xlink:href="#BitstreamVeraSans-Roman-2e"
           x="63.623047" />
        <use
           height="432"
           width="576"
           y="0"
           style="stroke-linecap:butt;stroke-linejoin:round"
           id="use107"
           xlink:href="#BitstreamVeraSans-Roman-36"
           x="95.410156" />
      </g>
    </g>
    <g
       transform="matrix(1,0,0,0.41761069,0,25.159002)"
       style="stroke-linecap:butt;stroke-linejoin:round"
       id="line2d_12">
      <path
         inkscape:connector-curvature="0"
         id="path111"
         style="fill:none;stroke:#000000;stroke-width:0.5;stroke-linecap:butt;stroke-linejoin:round;stroke-dasharray:1, 3;stroke-dashoffset:0"
         d="m 385.539,388.8 0,-345.6"
         clip-path="url(#p7ff5b81e1d)" />
    </g>
    <g
       transform="translate(0,-200.44)"
       style="stroke-linecap:butt;stroke-linejoin:round"
       id="line2d_13">
      <g
         style="stroke-linecap:butt;stroke-linejoin:round"
         id="g114">
        <use
           height="432"
           width="576"
           id="use116"
           y="388.79999"
           xlink:href="#m93b0483c22"
           x="385.53882"
           style="stroke:#000000;stroke-width:0.5;stroke-linecap:butt;stroke-linejoin:round" />
      </g>
    </g>
    <g
       transform="translate(0,1.7638872e-6)"
       style="stroke-linecap:butt;stroke-linejoin:round"
       id="line2d_14">
      <g
         style="stroke-linecap:butt;stroke-linejoin:round"
         id="g119">
        <use
           height="432"
           width="576"
           id="use121"
           y="43.200001"
           xlink:href="#m741efc42ff"
           x="385.53882"
           style="stroke:#000000;stroke-width:0.5;stroke-linecap:butt;stroke-linejoin:round" />
      </g>
    </g>
    <g
       transform="translate(0,-200.44)"
       style="stroke-linecap:butt;stroke-linejoin:round"
       id="text_4">
      <!-- 0.7 -->
      <defs
         id="defs124">
        <path
           style="stroke-linecap:butt;stroke-linejoin:round"
           inkscape:connector-curvature="0"
           id="BitstreamVeraSans-Roman-37"
           d="m 8.20312,72.9062 46.87498,0 0,-4.2031 L 28.6094,0 18.3125,0 l 24.9063,64.5938 -35.01568,0 z" />
      </defs>
      <g
         style="stroke-linecap:butt;stroke-linejoin:round"
         id="g127"
         transform="matrix(0.12,0,0,-0.12,376.90537,401.91812)">
        <use
           height="432"
           width="576"
           y="0"
           x="0"
           style="stroke-linecap:butt;stroke-linejoin:round"
           id="use129"
           xlink:href="#BitstreamVeraSans-Roman-30" />
        <use
           height="432"
           width="576"
           y="0"
           style="stroke-linecap:butt;stroke-linejoin:round"
           id="use131"
           xlink:href="#BitstreamVeraSans-Roman-2e"
           x="63.623047" />
        <use
           height="432"
           width="576"
           y="0"
           style="stroke-linecap:butt;stroke-linejoin:round"
           id="use133"
           xlink:href="#BitstreamVeraSans-Roman-37"
           x="95.410156" />
      </g>
    </g>
    <g
       transform="matrix(1,0,0,0.41761069,0,25.159002)"
       style="stroke-linecap:butt;stroke-linejoin:round"
       id="line2d_15">
      <path
         inkscape:connector-curvature="0"
         id="path137"
         style="fill:none;stroke:#000000;stroke-width:0.5;stroke-linecap:butt;stroke-linejoin:round;stroke-dasharray:1, 3;stroke-dashoffset:0"
         d="m 480.767,388.8 0,-345.6"
         clip-path="url(#p7ff5b81e1d)" />
    </g>
    <g
       transform="translate(0,-200.44)"
       style="stroke-linecap:butt;stroke-linejoin:round"
       id="line2d_16">
      <g
         style="stroke-linecap:butt;stroke-linejoin:round"
         id="g140">
        <use
           height="432"
           width="576"
           id="use142"
           y="388.79999"
           xlink:href="#m93b0483c22"
           x="480.76743"
           style="stroke:#000000;stroke-width:0.5;stroke-linecap:butt;stroke-linejoin:round" />
      </g>
    </g>
    <g
       transform="translate(0,1.7638872e-6)"
       style="stroke-linecap:butt;stroke-linejoin:round"
       id="line2d_17">
      <g
         style="stroke-linecap:butt;stroke-linejoin:round"
         id="g145">
        <use
           height="432"
           width="576"
           id="use147"
           y="43.200001"
           xlink:href="#m741efc42ff"
           x="480.76743"
           style="stroke:#000000;stroke-width:0.5;stroke-linecap:butt;stroke-linejoin:round" />
      </g>
    </g>
    <g
       transform="translate(0,-200.44)"
       style="stroke-linecap:butt;stroke-linejoin:round"
       id="text_5">
      <!-- 0.8 -->
      <defs
         id="defs150">
        <path
           style="stroke-linecap:butt;stroke-linejoin:round"
           inkscape:connector-curvature="0"
           id="BitstreamVeraSans-Roman-38"
           d="m 31.7812,34.625 q -7.0312,0 -11.0624,-3.7656 -4.0157,-3.7656 -4.0157,-10.3438 0,-6.5937 4.0157,-10.3594 4.0312,-3.76558 11.0624,-3.76558 7.0313,0 11.0782,3.78128 4.0625,3.7969 4.0625,10.3437 0,6.5782 -4.0313,10.3438 -4.0156,3.7656 -11.1094,3.7656 m -9.8593,4.1875 Q 15.5781,40.375 12.0312,44.7188 8.5,49.0781 8.5,55.3281 q 0,8.7344 6.2188,13.8125 6.2343,5.0782 17.0624,5.0782 10.8907,0 17.0938,-5.0782 6.2031,-5.0781 6.2031,-13.8125 0,-6.25 -3.5469,-10.6093 Q 48,40.375 41.7031,38.8125 q 7.125,-1.6563 11.0938,-6.5 3.9843,-4.8281 3.9843,-11.7969 0,-10.60935 -6.4687,-16.28122 -6.4687,-5.65626 -18.5313,-5.65626 -12.0468,0 -18.5312,5.65626 -6.46875,5.67187 -6.46875,16.28122 0,6.9688 3.99995,11.7969 4.0157,4.8437 11.1407,6.5 m -3.6094,15.5781 q 0,-5.6562 3.5313,-8.8281 3.5468,-3.1719 9.9374,-3.1719 6.3594,0 9.9376,3.1719 3.5937,3.1719 3.5937,8.8281 0,5.6719 -3.5937,8.8438 -3.5782,3.1718 -9.9376,3.1718 -6.3906,0 -9.9374,-3.1718 -3.5313,-3.1719 -3.5313,-8.8438" />
      </defs>
      <g
         style="stroke-linecap:butt;stroke-linejoin:round"
         id="g153"
         transform="matrix(0.12,0,0,-0.12,472.0318,401.91812)">
        <use
           height="432"
           width="576"
           y="0"
           x="0"
           style="stroke-linecap:butt;stroke-linejoin:round"
           id="use155"
           xlink:href="#BitstreamVeraSans-Roman-30" />
        <use
           height="432"
           width="576"
           y="0"
           style="stroke-linecap:butt;stroke-linejoin:round"
           id="use157"
           xlink:href="#BitstreamVeraSans-Roman-2e"
           x="63.623047" />
        <use
           height="432"
           width="576"
           y="0"
           style="stroke-linecap:butt;stroke-linejoin:round"
           id="use159"
           xlink:href="#BitstreamVeraSans-Roman-38"
           x="95.410156" />
      </g>
    </g>
    <g
       transform="matrix(1.9456088,0,0,1.9456088,-275.21302,-583.703)"
       id="text_6"
       style="stroke-linecap:butt;stroke-linejoin:round">
      <!-- 1-minimal_confidence -->
      <defs
         id="defs162">
        <path
           d="m 12.4062,8.29688 16.1094,0 0,55.62502 -17.5312,-3.5157 0,8.9844 17.4375,3.5156 9.8593,0 0,-64.60932 16.1094,0 0,-8.29688 -41.9844,0 z"
           id="BitstreamVeraSans-Roman-31"
           inkscape:connector-curvature="0"
           style="stroke-linecap:butt;stroke-linejoin:round" />
        <path
           d="m 50.9844,-16.6094 0,-6.9687 -51.968775,0 0,6.9687 z"
           id="BitstreamVeraSans-Roman-5f"
           inkscape:connector-curvature="0"
           style="stroke-linecap:butt;stroke-linejoin:round" />
        <path
           d="m 54.8906,33.0156 0,-33.0156 -8.9844,0 0,32.7188 q 0,7.7656 -3.0312,11.6093 -3.0312,3.8594 -9.0781,3.8594 -7.2813,0 -11.4844,-4.6406 -4.2031,-4.625 -4.2031,-12.6407 l 0,-30.9062 -9.03128,0 0,54.6875 9.03128,0 0,-8.5 q 3.2344,4.9375 7.5937,7.375 Q 30.0781,56 35.7969,56 q 9.4219,0 14.25,-5.8281 4.8437,-5.8281 4.8437,-17.1563"
           id="BitstreamVeraSans-Roman-6e"
           inkscape:connector-curvature="0"
           style="stroke-linecap:butt;stroke-linejoin:round" />
        <path
           d="M 52,44.1875 Q 55.375,50.25 60.0625,53.125 64.75,56 71.0938,56 q 8.5468,0 13.1874,-5.9844 4.6407,-5.9687 4.6407,-17 l 0,-33.0156 -9.0313,0 0,32.7188 q 0,7.8593 -2.7968,11.6562 -2.7813,3.8125 -8.4844,3.8125 -6.9844,0 -11.0469,-4.6406 -4.0469,-4.625 -4.0469,-12.6407 l 0,-30.9062 -9.0312,0 0,32.7188 q 0,7.9062 -2.7813,11.6874 -2.7812,3.7813 -8.5937,3.7813 -6.8906,0 -10.9532,-4.6563 -4.0468,-4.6562 -4.0468,-12.625 l 0,-30.9062 -9.03128,0 0,54.6875 9.03128,0 0,-8.5 q 3.0781,5.0313 7.375,7.4219 Q 29.7812,56 35.6875,56 41.6562,56 45.8281,52.9688 50,49.9531 52,44.1875"
           id="BitstreamVeraSans-Roman-6d"
           inkscape:connector-curvature="0"
           style="stroke-linecap:butt;stroke-linejoin:round" />
        <path
           d="m 30.6094,48.3906 q -7.2188,0 -11.4219,-5.6406 -4.2031,-5.6406 -4.2031,-15.4531 0,-9.8125 4.1718,-15.4531 4.1876,-5.64068 11.4532,-5.64068 7.1875,0 11.375,5.65628 4.2031,5.6718 4.2031,15.4375 0,9.7187 -4.2031,15.4062 -4.1875,5.6875 -11.375,5.6875 m 0,7.6094 q 11.7187,0 18.4062,-7.625 6.7032,-7.6094 6.7032,-21.0781 0,-13.4219 -6.7032,-21.07815 -6.6875,-7.64063 -18.4062,-7.64063 -11.7656,0 -18.4375,7.64063 -6.65628,7.65625 -6.65628,21.07815 0,13.4687 6.65628,21.0781 Q 18.8438,56 30.6094,56"
           id="BitstreamVeraSans-Roman-6f"
           inkscape:connector-curvature="0"
           style="stroke-linecap:butt;stroke-linejoin:round" />
        <path
           d="m 9.42188,75.9844 8.98432,0 0,-75.9844 -8.98432,0 z"
           id="BitstreamVeraSans-Roman-6c"
           inkscape:connector-curvature="0"
           style="stroke-linecap:butt;stroke-linejoin:round" />
        <path
           d="m 9.42188,54.6875 8.98432,0 0,-54.6875 -8.98432,0 z m 0,21.2969 8.98432,0 0,-11.3906 -8.98432,0 z"
           id="BitstreamVeraSans-Roman-69"
           inkscape:connector-curvature="0"
           style="stroke-linecap:butt;stroke-linejoin:round" />
        <path
           d="m 4.89062,31.3906 26.31248,0 0,-8 -26.31248,0 z"
           id="BitstreamVeraSans-Roman-2d"
           inkscape:connector-curvature="0"
           style="stroke-linecap:butt;stroke-linejoin:round" />
        <path
           d="m 56.2031,29.5938 0,-4.3907 -41.3125,0 q 0.5938,-9.2812 5.5938,-14.1406 5,-4.85938 13.9375,-4.85938 5.1719,0 10.0312,1.26563 4.8594,1.26563 9.6563,3.81245 l 0,-8.49995 q -4.8438,-2.046875 -9.9219,-3.125 -5.0781,-1.07813 -10.2969,-1.07813 -13.0937,0 -20.7344,7.60938 -7.64058,7.625 -7.64058,20.625 0,13.4219 7.24998,21.2969 Q 20.0156,56 32.3281,56 q 11.0313,0 17.4531,-7.1094 6.4219,-7.0937 6.4219,-19.2968 m -8.9843,2.6406 q -0.0938,7.3594 -4.125,11.75 -4.0313,4.4062 -10.6719,4.4062 -7.5157,0 -12.0313,-4.25 -4.5156,-4.25 -5.2031,-11.9687 z"
           id="BitstreamVeraSans-Roman-65"
           inkscape:connector-curvature="0"
           style="stroke-linecap:butt;stroke-linejoin:round" />
        <path
           d="m 45.4062,46.3906 0,29.5938 8.9844,0 0,-75.9844 -8.9844,0 0,8.20312 Q 42.5781,3.32812 38.25,0.953125 33.9375,-1.42188 27.875,-1.42188 q -9.9062,0 -16.1406,7.90626 -6.21878,7.92182 -6.21878,20.81252 0,12.8906 6.21878,20.7969 Q 17.9688,56 27.875,56 q 6.0625,0 10.375,-2.375 4.3281,-2.3594 7.1562,-7.2344 M 14.7969,27.2969 q 0,-9.9063 4.0781,-15.5469 4.0781,-5.64062 11.2031,-5.64062 7.125,0 11.2188,5.64062 4.1093,5.6406 4.1093,15.5469 0,9.9062 -4.1093,15.5469 -4.0938,5.6406 -11.2188,5.6406 -7.125,0 -11.2031,-5.6406 -4.0781,-5.6407 -4.0781,-15.5469"
           id="BitstreamVeraSans-Roman-64"
           inkscape:connector-curvature="0"
           style="stroke-linecap:butt;stroke-linejoin:round" />
        <path
           d="m 37.1094,75.9844 0,-7.4844 -8.5938,0 q -4.8281,0 -6.7187,-1.9531 -1.875,-1.9531 -1.875,-7.0313 l 0,-4.8281 14.7969,0 0,-6.9844 -14.7969,0 0,-47.7031 -9.0313,0 0,47.7031 -8.59372,0 0,6.9844 8.59372,0 0,3.8125 q 0,9.125 4.25,13.2969 4.25,4.1875 13.4688,4.1875 z"
           id="BitstreamVeraSans-Roman-66"
           inkscape:connector-curvature="0"
           style="stroke-linecap:butt;stroke-linejoin:round" />
        <path
           d="m 34.2812,27.4844 q -10.8906,0 -15.0937,-2.4844 -4.2031,-2.4844 -4.2031,-8.5 0,-4.7812 3.1562,-7.59375 3.1563,-2.79687 8.5625,-2.79687 7.4844,0 12,5.29682 4.5157,5.2969 4.5157,14.0782 l 0,2 z m 17.9219,3.7187 0,-31.2031 -8.9843,0 0,8.29688 Q 40.1406,3.32812 35.5469,0.953125 30.9531,-1.42188 24.3125,-1.42188 q -8.3906,0 -13.3594,4.71876 Q 6,8.01562 6,15.9219 q 0,9.2187 6.1719,13.9062 6.1875,4.6875 18.4375,4.6875 l 12.6094,0 0,0.8906 q 0,6.2032 -4.0782,9.5938 -4.0781,3.3906 -11.4531,3.3906 -4.6875,0 -9.1406,-1.125 -4.4375,-1.125 -8.5313,-3.375 l 0,8.3125 q 4.9219,1.9063 9.5625,2.8438 Q 24.2188,56 28.6094,56 q 11.875,0 17.7344,-6.1562 5.8593,-6.1407 5.8593,-18.6407"
           id="BitstreamVeraSans-Roman-61"
           inkscape:connector-curvature="0"
           style="stroke-linecap:butt;stroke-linejoin:round" />
        <path
           d="m 48.7812,52.5938 0,-8.4063 q -3.8124,2.1094 -7.6406,3.1563 -3.8281,1.0468 -7.7344,1.0468 -8.75,0 -13.5937,-5.5468 -4.8281,-5.5313 -4.8281,-15.5469 0,-10.0157 4.8281,-15.5625 4.8437,-5.53128 13.5937,-5.53128 3.9063,0 7.7344,1.04688 3.8282,1.04688 7.6406,3.1562 l 0,-8.31245 q -3.7656,-1.75 -7.7968,-2.625 -4.0156,-0.89063 -8.5625,-0.89063 -12.3594,0 -19.6407,7.76563 -7.26558,7.76565 -7.26558,20.95315 0,13.375 7.34378,21.0312 Q 20.2188,56 33.0156,56 q 4.1406,0 8.0938,-0.8594 3.9531,-0.8437 7.6718,-2.5468"
           id="BitstreamVeraSans-Roman-63"
           inkscape:connector-curvature="0"
           style="stroke-linecap:butt;stroke-linejoin:round" />
      </defs>
      <g
         transform="matrix(0.12,0,0,-0.12,230.18156,418.53188)"
         id="g177"
         style="stroke-linecap:butt;stroke-linejoin:round">
        <use
           xlink:href="#BitstreamVeraSans-Roman-31"
           id="use179"
           style="stroke-linecap:butt;stroke-linejoin:round"
           x="0"
           y="0"
           width="576"
           height="432" />
        <use
           x="63.623047"
           xlink:href="#BitstreamVeraSans-Roman-2d"
           id="use181"
           style="stroke-linecap:butt;stroke-linejoin:round"
           y="0"
           width="576"
           height="432" />
        <use
           x="552.53906"
           xlink:href="#BitstreamVeraSans-Roman-63"
           id="use199"
           style="stroke-linecap:butt;stroke-linejoin:round"
           y="0"
           width="576"
           height="432"
           transform="translate(-444.3191,-2.4616017)" />
        <use
           x="607.51953"
           xlink:href="#BitstreamVeraSans-Roman-6f"
           id="use201"
           style="stroke-linecap:butt;stroke-linejoin:round"
           y="0"
           width="576"
           height="432"
           transform="translate(-444.3191,-2.4616017)" />
        <use
           x="668.70117"
           xlink:href="#BitstreamVeraSans-Roman-6e"
           id="use203"
           style="stroke-linecap:butt;stroke-linejoin:round"
           y="0"
           width="576"
           height="432"
           transform="translate(-444.3191,-2.4616017)" />
        <use
           x="732.08008"
           xlink:href="#BitstreamVeraSans-Roman-66"
           id="use205"
           style="stroke-linecap:butt;stroke-linejoin:round"
           y="0"
           width="576"
           height="432"
           transform="translate(-444.3191,-2.4616017)" />
        <use
           x="767.28516"
           xlink:href="#BitstreamVeraSans-Roman-69"
           id="use207"
           style="stroke-linecap:butt;stroke-linejoin:round"
           y="0"
           width="576"
           height="432"
           transform="translate(-444.3191,-2.4616017)" />
        <use
           x="795.06836"
           xlink:href="#BitstreamVeraSans-Roman-64"
           id="use209"
           style="stroke-linecap:butt;stroke-linejoin:round"
           y="0"
           width="576"
           height="432"
           transform="translate(-444.3191,-2.4616017)" />
        <use
           x="858.54492"
           xlink:href="#BitstreamVeraSans-Roman-65"
           id="use211"
           style="stroke-linecap:butt;stroke-linejoin:round"
           y="0"
           width="576"
           height="432"
           transform="translate(-444.3191,-2.4616017)" />
        <use
           x="920.06836"
           xlink:href="#BitstreamVeraSans-Roman-6e"
           id="use213"
           style="stroke-linecap:butt;stroke-linejoin:round"
           y="0"
           width="576"
           height="432"
           transform="translate(-444.3191,-2.4616017)" />
        <use
           x="983.44727"
           xlink:href="#BitstreamVeraSans-Roman-63"
           id="use215"
           style="stroke-linecap:butt;stroke-linejoin:round"
           y="0"
           width="576"
           height="432"
           transform="translate(-444.3191,-2.4616017)" />
        <use
           x="1038.4277"
           xlink:href="#BitstreamVeraSans-Roman-65"
           id="use217"
           style="stroke-linecap:butt;stroke-linejoin:round"
           y="0"
           width="576"
           height="432"
           transform="translate(-444.3191,-2.4616017)" />
      </g>
    </g>
    <g
       transform="translate(0,1.7638872e-6)"
       id="ytick_4"
       style="stroke-linecap:butt;stroke-linejoin:round">
      <g
         id="line2d_27"
         style="stroke-linecap:butt;stroke-linejoin:round">
        <path
           clip-path="url(#p7ff5b81e1d)"
           d="m 72,187.2 446.4,0"
           style="fill:none;stroke:#000000;stroke-width:0.5;stroke-linecap:butt;stroke-linejoin:round;stroke-dasharray:1, 3;stroke-dashoffset:0"
           id="path292"
           inkscape:connector-curvature="0" />
      </g>
      <g
         id="line2d_28"
         style="stroke-linecap:butt;stroke-linejoin:round">
        <g
           id="g295"
           style="stroke-linecap:butt;stroke-linejoin:round">
          <path
             inkscape:connector-curvature="0"
             style="stroke:#000000;stroke-width:0.5;stroke-linecap:butt;stroke-linejoin:round"
             id="use297"
             d="m 72,187.2 4,0" />
        </g>
      </g>
      <g
         id="line2d_29"
         style="stroke-linecap:butt;stroke-linejoin:round">
        <g
           id="g300"
           style="stroke-linecap:butt;stroke-linejoin:round">
          <path
             inkscape:connector-curvature="0"
             style="stroke:#000000;stroke-width:0.5;stroke-linecap:butt;stroke-linejoin:round"
             id="use302"
             d="m 518.40002,187.2 -4,0" />
        </g>
      </g>
      <g
         id="text_10"
         style="stroke-linecap:butt;stroke-linejoin:round">
        <!-- 60 -->
        <g
           transform="matrix(0.12,0,0,-0.12,54.365,190.51125)"
           id="g305"
           style="stroke-linecap:butt;stroke-linejoin:round">
          <use
             xlink:href="#BitstreamVeraSans-Roman-36"
             id="use307"
             style="stroke-linecap:butt;stroke-linejoin:round"
             x="0"
             y="0"
             width="576"
             height="432" />
          <use
             x="63.623047"
             xlink:href="#BitstreamVeraSans-Roman-30"
             id="use309"
             style="stroke-linecap:butt;stroke-linejoin:round"
             y="0"
             width="576"
             height="432" />
        </g>
      </g>
    </g>
    <g
       transform="translate(0,1.7638872e-6)"
       style="stroke-linecap:butt;stroke-linejoin:round"
       id="line2d_30">
      <path
         inkscape:connector-curvature="0"
         id="path313"
         style="fill:none;stroke:#000000;stroke-width:0.5;stroke-linecap:butt;stroke-linejoin:round;stroke-dasharray:1, 3;stroke-dashoffset:0"
         d="m 72,129.6 446.4,0"
         clip-path="url(#p7ff5b81e1d)" />
    </g>
    <g
       transform="translate(0,1.7638872e-6)"
       style="stroke-linecap:butt;stroke-linejoin:round"
       id="line2d_32">
      <g
         style="stroke-linecap:butt;stroke-linejoin:round"
         id="g321">
        <path
           d="m 518.40002,129.60001 -4,0"
           id="use323"
           style="stroke:#000000;stroke-width:0.5;stroke-linecap:butt;stroke-linejoin:round"
           inkscape:connector-curvature="0" />
      </g>
    </g>
    <g
       transform="translate(0,1.7638872e-6)"
       style="stroke-linecap:butt;stroke-linejoin:round"
       id="text_11">
      <!-- 80 -->
      <g
         style="stroke-linecap:butt;stroke-linejoin:round"
         id="g326"
         transform="matrix(0.12,0,0,-0.12,54.340625,132.91125)">
        <use
           height="432"
           width="576"
           y="0"
           x="0"
           style="stroke-linecap:butt;stroke-linejoin:round"
           id="use328"
           xlink:href="#BitstreamVeraSans-Roman-38" />
        <use
           height="432"
           width="576"
           y="0"
           style="stroke-linecap:butt;stroke-linejoin:round"
           id="use330"
           xlink:href="#BitstreamVeraSans-Roman-30"
           x="63.623047" />
      </g>
    </g>
    <g
       transform="translate(0,1.7638872e-6)"
       id="ytick_6"
       style="stroke-linecap:butt;stroke-linejoin:round">
      <g
         id="line2d_33"
         style="stroke-linecap:butt;stroke-linejoin:round">
        <path
           clip-path="url(#p7ff5b81e1d)"
           d="m 72,72 446.4,0"
           style="fill:none;stroke:#000000;stroke-width:0.5;stroke-linecap:butt;stroke-linejoin:round;stroke-dasharray:1, 3;stroke-dashoffset:0"
           id="path334"
           inkscape:connector-curvature="0" />
      </g>
      <g
         id="line2d_34"
         style="stroke-linecap:butt;stroke-linejoin:round">
        <g
           id="g337"
           style="stroke-linecap:butt;stroke-linejoin:round">
          <path
             inkscape:connector-curvature="0"
             style="stroke:#000000;stroke-width:0.5;stroke-linecap:butt;stroke-linejoin:round"
             id="use339"
             d="m 72,72 4,0" />
        </g>
      </g>
      <g
         id="line2d_35"
         style="stroke-linecap:butt;stroke-linejoin:round">
        <g
           id="g342"
           style="stroke-linecap:butt;stroke-linejoin:round">
          <path
             inkscape:connector-curvature="0"
             style="stroke:#000000;stroke-width:0.5;stroke-linecap:butt;stroke-linejoin:round"
             id="use344"
             d="m 518.40002,72 -4,0" />
        </g>
      </g>
      <g
         id="text_12"
         style="stroke-linecap:butt;stroke-linejoin:round">
        <!-- 100 -->
        <g
           transform="matrix(0.12,0,0,-0.12,47.21,75.31125)"
           id="g347"
           style="stroke-linecap:butt;stroke-linejoin:round">
          <use
             xlink:href="#BitstreamVeraSans-Roman-31"
             id="use349"
             style="stroke-linecap:butt;stroke-linejoin:round"
             x="0"
             y="0"
             width="576"
             height="432" />
          <use
             x="63.623047"
             xlink:href="#BitstreamVeraSans-Roman-30"
             id="use351"
             style="stroke-linecap:butt;stroke-linejoin:round"
             y="0"
             width="576"
             height="432" />
          <use
             x="127.24609"
             xlink:href="#BitstreamVeraSans-Roman-30"
             id="use353"
             style="stroke-linecap:butt;stroke-linejoin:round"
             y="0"
             width="576"
             height="432" />
        </g>
      </g>
    </g>
    <g
       transform="matrix(0.97553938,-0.21982475,0.21982475,0.97553938,-38.431864,-83.416998)"
       id="text_13"
       style="stroke-linecap:butt;stroke-linejoin:round">
      <!-- precision_of_prediction -->
      <defs
         id="defs356">
        <path
           d="m 18.3125,70.2188 0,-15.5313 18.5,0 0,-6.9844 -18.5,0 0,-29.6875 q 0,-6.6875 1.8281,-8.59372 1.8282,-1.90626 7.4532,-1.90626 l 9.2187,0 0,-7.51562 -9.2187,0 Q 17.1875,0 13.2344,3.875 9.28125,7.76562 9.28125,18.0156 l 0,29.6875 -6.59375,0 0,6.9844 6.59375,0 0,15.5313 z"
           id="BitstreamVeraSans-Roman-74"
           inkscape:connector-curvature="0"
           style="stroke-linecap:butt;stroke-linejoin:round" />
        <path
           d="m 41.1094,46.2969 q -1.5156,0.875 -3.2969,1.2812 Q 36.0312,48 33.8906,48 26.2656,48 22.1875,43.0469 18.1094,38.0938 18.1094,28.8125 l 0,-28.8125 -9.03128,0 0,54.6875 9.03128,0 0,-8.5 q 2.8437,4.9844 7.375,7.3906 Q 30.0312,56 36.5312,56 q 0.9219,0 2.0469,-0.125 1.125,-0.1094 2.4844,-0.3594 z"
           id="BitstreamVeraSans-Roman-72"
           inkscape:connector-curvature="0"
           style="stroke-linecap:butt;stroke-linejoin:round" />
        <path
           d="m 44.2812,53.0781 0,-8.5 q -3.7968,1.9531 -7.9062,2.9219 -4.0938,0.9844 -8.5,0.9844 -6.6875,0 -10.0312,-2.0469 Q 14.5,44.3906 14.5,40.2812 q 0,-3.125 2.3906,-4.9062 2.3906,-1.7812 9.625,-3.3906 l 3.0782,-0.6875 q 9.5624,-2.0469 13.5937,-5.7813 4.0313,-3.7344 4.0313,-10.4218 0,-7.62505 -6.0313,-12.07818 -6.0313,-4.4375 -16.5781,-4.4375 -4.3906,0 -9.1563,0.85938 Q 10.6875,0.296875 5.42188,2 l 0,9.2812 q 4.98432,-2.5937 9.81252,-3.89058 4.8281,-1.28124 9.5781,-1.28124 6.3437,0 9.75,2.17187 3.4219,2.17185 3.4219,6.12495 0,3.6563 -2.4688,5.6094 -2.4531,1.9532 -10.8125,3.7656 l -3.125,0.7344 q -8.3437,1.75 -12.06248,5.3906 -3.70312,3.6407 -3.70312,9.9844 0,7.7188 5.4687,11.9063 Q 16.75,56 26.8125,56 q 4.9687,0 9.3594,-0.7344 4.4062,-0.7187 8.1093,-2.1875"
           id="BitstreamVeraSans-Roman-73"
           inkscape:connector-curvature="0"
           style="stroke-linecap:butt;stroke-linejoin:round" />
        <path
           d="m 18.1094,8.20312 0,-29.00002 -9.03128,0 0,75.4844 9.03128,0 0,-8.2969 q 2.8437,4.875 7.1562,7.2344 Q 29.5938,56 35.5938,56 q 9.9687,0 16.1874,-7.9062 6.2344,-7.9063 6.2344,-20.7969 0,-12.8907 -6.2344,-20.81252 -6.2187,-7.90626 -16.1874,-7.90626 -6,0 -10.3282,2.375005 Q 20.9531,3.32812 18.1094,8.20312 M 48.6875,27.2969 q 0,9.9062 -4.0781,15.5469 -4.0782,5.6406 -11.2032,5.6406 -7.1406,0 -11.2187,-5.6406 -4.0781,-5.6407 -4.0781,-15.5469 0,-9.9063 4.0781,-15.5469 4.0781,-5.64062 11.2187,-5.64062 7.125,0 11.2032,5.64062 4.0781,5.6406 4.0781,15.5469"
           id="BitstreamVeraSans-Roman-70"
           inkscape:connector-curvature="0"
           style="stroke-linecap:butt;stroke-linejoin:round" />
      </defs>
      <g
         transform="matrix(0.05320833,-0.2236128,-0.2236128,-0.05320833,17.104561,267.38827)"
         id="g362"
         style="stroke-linecap:butt;stroke-linejoin:round">
        <use
           xlink:href="#BitstreamVeraSans-Roman-70"
           id="use364"
           style="stroke-linecap:butt;stroke-linejoin:round"
           x="0"
           y="0"
           width="576"
           height="432" />
        <use
           x="63.476562"
           xlink:href="#BitstreamVeraSans-Roman-72"
           id="use366"
           style="stroke-linecap:butt;stroke-linejoin:round"
           y="0"
           width="576"
           height="432" />
        <use
           x="102.33984"
           xlink:href="#BitstreamVeraSans-Roman-65"
           id="use368"
           style="stroke-linecap:butt;stroke-linejoin:round"
           y="0"
           width="576"
           height="432" />
        <use
           x="163.86328"
           xlink:href="#BitstreamVeraSans-Roman-63"
           id="use370"
           style="stroke-linecap:butt;stroke-linejoin:round"
           y="0"
           width="576"
           height="432" />
        <use
           x="218.84375"
           xlink:href="#BitstreamVeraSans-Roman-69"
           id="use372"
           style="stroke-linecap:butt;stroke-linejoin:round"
           y="0"
           width="576"
           height="432" />
        <use
           x="246.62695"
           xlink:href="#BitstreamVeraSans-Roman-73"
           id="use374"
           style="stroke-linecap:butt;stroke-linejoin:round"
           y="0"
           width="576"
           height="432" />
        <use
           x="298.72656"
           xlink:href="#BitstreamVeraSans-Roman-69"
           id="use376"
           style="stroke-linecap:butt;stroke-linejoin:round"
           y="0"
           width="576"
           height="432" />
        <use
           x="326.50977"
           xlink:href="#BitstreamVeraSans-Roman-6f"
           id="use378"
           style="stroke-linecap:butt;stroke-linejoin:round"
           y="0"
           width="576"
           height="432" />
        <use
           x="387.69141"
           xlink:href="#BitstreamVeraSans-Roman-6e"
           id="use380"
           style="stroke-linecap:butt;stroke-linejoin:round"
           y="0"
           width="576"
           height="432" />
      </g>
    </g>
    <g
       transform="translate(0,1.7638872e-6)"
       style="stroke-linecap:butt;stroke-linejoin:round"
       id="patch_3">
      <path
         inkscape:connector-curvature="0"
         id="path411"
         style="fill:none;stroke:#000000;stroke-linecap:butt;stroke-linejoin:round"
         d="m 72,43.2 446.4,0" />
    </g>
    <g
       transform="matrix(5.5302773,0,0,0.41929097,-2350.7609,24.797002)"
       style="stroke-linecap:butt;stroke-linejoin:round"
       id="patch_4">
      <path
         inkscape:connector-curvature="0"
         id="path414"
         style="fill:none;stroke:#000000;stroke-linecap:butt;stroke-linejoin:round"
         d="m 518.4,388.8 0,-345.6" />
    </g>
    <g
       transform="translate(0,-200.44)"
       style="stroke-linecap:butt;stroke-linejoin:round"
       id="patch_5">
      <path
         inkscape:connector-curvature="0"
         id="path417"
         style="fill:none;stroke:#000000;stroke-linecap:butt;stroke-linejoin:round"
         d="m 72,388.8 446.4,0" />
    </g>
    <g
       transform="matrix(1,0,0,0.41762771,0,25.159002)"
       style="stroke-linecap:butt;stroke-linejoin:round"
       id="patch_6">
      <path
         inkscape:connector-curvature="0"
         id="path420"
         style="fill:none;stroke:#000000;stroke-linecap:butt;stroke-linejoin:round"
         d="M 72,388.8 72,43.2" />
    </g>
    <g
       transform="translate(-3.2521369,-18.192998)"
       style="stroke-linecap:butt;stroke-linejoin:round"
       id="text_11-7">
      <!-- 80 -->
      <flowRoot
         transform="matrix(0.8,0,0,0.8,4.5465018,23.208791)"
         style="font-size:20px;font-style:normal;font-weight:normal;line-height:125%;letter-spacing:0px;word-spacing:0px;fill:#ea0020;fill-opacity:1;stroke:none;font-family:Sans"
         id="flowRoot5454"
         xml:space="preserve"><flowRegion
           id="flowRegion5456"><rect
             style="fill:#ea0020;fill-opacity:1;stroke:none"
             y="125.19648"
             x="66.538452"
             height="23.460365"
             width="23.662609"
             id="rect5458" /></flowRegion><flowPara
           style="font-size:16px;font-weight:bold;fill:#ea0020;fill-opacity:1;stroke:none"
           id="flowPara5460">86</flowPara></flowRoot>    </g>
  </g>
</svg>
